G04 Layer: TopLayer*
G04 EasyEDA v6.5.5, 2022-08-01 21:55:59*
G04 dce6eb41c8b944d7b87ad0e2915b6228,d603b60474844c32a05bd641800ef4e1,10*
G04 Gerber Generator version 0.2*
G04 Scale: 100 percent, Rotated: No, Reflected: No *
G04 Dimensions in millimeters *
G04 leading zeros omitted , absolute positions ,4 integer and 5 decimal *
%FSLAX45Y45*%
%MOMM*%

%ADD10C,0.2540*%
%ADD11C,0.6100*%
%ADD12C,0.6096*%
%ADD13R,1.7000X0.8000*%
%ADD14C,2.0320*%
%ADD16C,1.5240*%
%ADD17C,1.7526*%
%ADD18R,1.7526X1.7526*%

%LPD*%
G36*
X27168246Y3183026D02*
G01*
X27115770Y3182213D01*
X26904797Y2993034D01*
X26806448Y2903982D01*
X26725626Y2831439D01*
X26618539Y2735732D01*
X26515060Y2642870D01*
X26441806Y2576372D01*
X26423213Y2559050D01*
X26396594Y2532430D01*
X26396594Y2485339D01*
X26433627Y2442210D01*
X26517549Y2432761D01*
X26605331Y2423972D01*
X26791970Y2406142D01*
X26867815Y2398471D01*
X26927860Y2391664D01*
X26954276Y2388209D01*
X26967840Y2386076D01*
X26971853Y2385263D01*
X26973784Y2384602D01*
X26982623Y2379167D01*
X26783487Y2104186D01*
X26659586Y1932178D01*
X26659586Y1903069D01*
X26693672Y1859737D01*
X26735176Y1859737D01*
X27212848Y2286762D01*
X27321510Y2384145D01*
X27404923Y2459888D01*
X27431593Y2484577D01*
X27445360Y2497886D01*
X27456841Y2512212D01*
X27456688Y2540914D01*
X27456180Y2546299D01*
X27454301Y2557322D01*
X27451507Y2567533D01*
X27449881Y2572004D01*
X27448103Y2575763D01*
X27439416Y2592019D01*
X27418131Y2600045D01*
X27412950Y2601264D01*
X27395932Y2604211D01*
X27371294Y2607614D01*
X27340712Y2611374D01*
X27305609Y2615184D01*
X27267712Y2618943D01*
X27187398Y2626309D01*
X27111756Y2633522D01*
X27043227Y2640330D01*
X26983842Y2646527D01*
X26935430Y2651912D01*
X26900022Y2656281D01*
X26879550Y2659380D01*
X26875181Y2660599D01*
X26875384Y2661615D01*
X26878838Y2667762D01*
X26886001Y2678938D01*
X26899615Y2699207D01*
X26930603Y2743911D01*
X26970380Y2800096D01*
X27123593Y3013100D01*
X27193849Y3111754D01*
X27193849Y3146501D01*
G37*
G36*
X28139034Y2773426D02*
G01*
X28139034Y2592222D01*
X28153766Y2583129D01*
X28158744Y2596083D01*
X28159710Y2599334D01*
X28160675Y2603652D01*
X28162250Y2614676D01*
X28163316Y2627731D01*
X28163672Y2641244D01*
X28163672Y2673451D01*
X28253182Y2673451D01*
X28258211Y2596642D01*
X28278785Y2589885D01*
X28278785Y2773426D01*
X28258211Y2766669D01*
X28253182Y2698089D01*
X28164637Y2698089D01*
X28159608Y2766669D01*
G37*
G36*
X28006802Y2772054D02*
G01*
X27966415Y2731719D01*
X27966415Y2706319D01*
X27998420Y2674366D01*
X28036164Y2668016D01*
X28060142Y2663393D01*
X28068524Y2661462D01*
X28081528Y2657500D01*
X28081528Y2623718D01*
X28040431Y2608072D01*
X28013863Y2618384D01*
X28009189Y2620721D01*
X28004566Y2623362D01*
X28000147Y2626207D01*
X27992324Y2632202D01*
X27989225Y2635199D01*
X27986837Y2638044D01*
X27977185Y2651252D01*
X27965653Y2632659D01*
X27983129Y2600045D01*
X28044495Y2581757D01*
X28088844Y2598724D01*
X28116276Y2640584D01*
X28090164Y2680411D01*
X27998267Y2699461D01*
X27988412Y2725115D01*
X28018892Y2747416D01*
X28054655Y2747416D01*
X28096768Y2714244D01*
X28108808Y2733649D01*
X28064155Y2772054D01*
G37*
G36*
X28392577Y2772054D02*
G01*
X28365043Y2772003D01*
X28338322Y2749194D01*
X28333700Y2744825D01*
X28325521Y2735935D01*
X28321965Y2731414D01*
X28318663Y2726791D01*
X28313126Y2717393D01*
X28310839Y2712567D01*
X28308858Y2707640D01*
X28307182Y2702661D01*
X28305810Y2697530D01*
X28304794Y2692349D01*
X28304032Y2687015D01*
X28303537Y2679496D01*
X28327654Y2679496D01*
X28336443Y2703169D01*
X28338881Y2709214D01*
X28341523Y2714853D01*
X28344368Y2719984D01*
X28347365Y2724658D01*
X28350565Y2728925D01*
X28353969Y2732735D01*
X28357576Y2736037D01*
X28361386Y2738932D01*
X28365399Y2741371D01*
X28369564Y2743352D01*
X28373933Y2744876D01*
X28378505Y2745943D01*
X28383230Y2746552D01*
X28388208Y2746705D01*
X28393339Y2746400D01*
X28398622Y2745638D01*
X28404159Y2744419D01*
X28409849Y2742742D01*
X28415742Y2740660D01*
X28442310Y2728722D01*
X28457804Y2684322D01*
X28449371Y2640076D01*
X28414827Y2615895D01*
X28363519Y2615895D01*
X28350870Y2630271D01*
X28345536Y2637231D01*
X28340405Y2645562D01*
X28335986Y2654198D01*
X28332938Y2662072D01*
X28327654Y2679496D01*
X28303537Y2679496D01*
X28303474Y2652877D01*
X28335528Y2600350D01*
X28399689Y2581148D01*
X28457499Y2608580D01*
X28486811Y2673604D01*
X28467405Y2738374D01*
X28420060Y2772054D01*
G37*
G36*
X28559455Y2772054D02*
G01*
X28510280Y2730703D01*
X28499612Y2667304D01*
X28524758Y2607106D01*
X28585210Y2581808D01*
X28626053Y2592070D01*
X28675584Y2641600D01*
X28657296Y2659888D01*
X28616554Y2615895D01*
X28559404Y2615895D01*
X28525317Y2659227D01*
X28525317Y2707081D01*
X28565703Y2747416D01*
X28583026Y2747416D01*
X28588512Y2747111D01*
X28594202Y2746248D01*
X28600095Y2744825D01*
X28605988Y2742996D01*
X28611830Y2740710D01*
X28617570Y2738069D01*
X28623006Y2735122D01*
X28628136Y2731922D01*
X28632759Y2728468D01*
X28636823Y2724912D01*
X28640227Y2721203D01*
X28642868Y2717444D01*
X28649422Y2706319D01*
X28661360Y2706319D01*
X28666439Y2706725D01*
X28669945Y2707944D01*
X28671977Y2710078D01*
X28672434Y2713177D01*
X28671316Y2717241D01*
X28668675Y2722422D01*
X28664458Y2728722D01*
X28658718Y2736189D01*
X28653841Y2741828D01*
X28648660Y2746959D01*
X28643224Y2751683D01*
X28637534Y2755900D01*
X28631591Y2759659D01*
X28625444Y2762910D01*
X28619043Y2765704D01*
X28612439Y2767990D01*
X28605632Y2769768D01*
X28598622Y2771038D01*
X28591408Y2771800D01*
X28584042Y2772054D01*
G37*
G36*
X28582772Y2460802D02*
G01*
X28577946Y2447848D01*
X28577184Y2442413D01*
X28576168Y2423922D01*
X28575812Y2390241D01*
X28576371Y2358440D01*
X28578759Y2278837D01*
X28595218Y2274824D01*
X28600349Y2328214D01*
X28607054Y2328214D01*
X28608883Y2327656D01*
X28611474Y2325928D01*
X28614674Y2323185D01*
X28622599Y2315210D01*
X28631642Y2304694D01*
X28658718Y2269286D01*
X28675533Y2286101D01*
X28624580Y2350414D01*
X28653841Y2378557D01*
X28662528Y2387904D01*
X28669132Y2396032D01*
X28671367Y2399334D01*
X28672789Y2401925D01*
X28673298Y2403754D01*
X28672840Y2406853D01*
X28671621Y2408986D01*
X28669589Y2410256D01*
X28666897Y2410612D01*
X28663544Y2410053D01*
X28659582Y2408732D01*
X28655060Y2406548D01*
X28650082Y2403551D01*
X28644646Y2399792D01*
X28638855Y2395321D01*
X28632759Y2390089D01*
X28599333Y2357882D01*
X28599333Y2450541D01*
G37*
G36*
X28871976Y2460498D02*
G01*
X28867963Y2453944D01*
X28867049Y2451709D01*
X28864712Y2442210D01*
X28862070Y2427630D01*
X28859378Y2409799D01*
X28852215Y2352903D01*
X28857549Y2352903D01*
X28861258Y2353970D01*
X28867404Y2356866D01*
X28875075Y2361133D01*
X28883508Y2366365D01*
X28904082Y2379878D01*
X28944519Y2361488D01*
X28944519Y2311450D01*
X28903066Y2292553D01*
X28854958Y2328062D01*
X28843274Y2309114D01*
X28887877Y2270709D01*
X28928822Y2270709D01*
X28969157Y2311044D01*
X28969157Y2368143D01*
X28924199Y2403500D01*
X28881679Y2397252D01*
X28888893Y2435098D01*
X28970528Y2435098D01*
X28963772Y2455621D01*
G37*
G36*
X29299408Y2460498D02*
G01*
X29295394Y2453944D01*
X29294429Y2451709D01*
X29292143Y2442210D01*
X29289451Y2427630D01*
X29286758Y2409799D01*
X29279596Y2352903D01*
X29284980Y2352903D01*
X29288587Y2353919D01*
X29294582Y2356713D01*
X29302049Y2360828D01*
X29310177Y2365908D01*
X29330040Y2378913D01*
X29362857Y2368499D01*
X29373017Y2336444D01*
X29362857Y2304440D01*
X29328922Y2293670D01*
X29282389Y2328062D01*
X29270655Y2309114D01*
X29315308Y2270709D01*
X29353256Y2270709D01*
X29396588Y2304796D01*
X29396588Y2368143D01*
X29351630Y2403500D01*
X29309060Y2397252D01*
X29316273Y2435098D01*
X29397960Y2435098D01*
X29391152Y2455621D01*
G37*
G36*
X28040431Y2459736D02*
G01*
X28040431Y2330043D01*
X28007462Y2291232D01*
X27967228Y2339848D01*
X27956459Y2311806D01*
X27965958Y2287016D01*
X28007513Y2268067D01*
X28047797Y2286406D01*
X28066187Y2354681D01*
X28054909Y2459736D01*
G37*
G36*
X28697427Y2459736D02*
G01*
X28693262Y2448864D01*
X28692449Y2445054D01*
X28691658Y2435098D01*
X28725672Y2435098D01*
X28732073Y2434691D01*
X28741065Y2433624D01*
X28751479Y2431999D01*
X28762147Y2430068D01*
X28787293Y2425039D01*
X28797097Y2399436D01*
X28790696Y2393442D01*
X28788664Y2392121D01*
X28781095Y2389124D01*
X28769919Y2385974D01*
X28756457Y2383028D01*
X28714395Y2376119D01*
X28714395Y2435098D01*
X28691658Y2435098D01*
X28691027Y2417267D01*
X28690874Y2388971D01*
X28691341Y2361133D01*
X28742487Y2361133D01*
X28754425Y2360726D01*
X28766160Y2359660D01*
X28776320Y2358085D01*
X28780384Y2357120D01*
X28783584Y2356104D01*
X28796589Y2351125D01*
X28796589Y2303576D01*
X28762553Y2303475D01*
X28750564Y2302713D01*
X28739439Y2301392D01*
X28730549Y2299614D01*
X28727400Y2298598D01*
X28714395Y2293620D01*
X28714395Y2361133D01*
X28691341Y2361133D01*
X28693821Y2274824D01*
X28768802Y2269947D01*
X28813302Y2286863D01*
X28831032Y2332329D01*
X28807359Y2374392D01*
X28819094Y2406294D01*
X28805225Y2443530D01*
X28783940Y2451658D01*
X28778962Y2453284D01*
X28773069Y2454808D01*
X28766465Y2456180D01*
X28751885Y2458364D01*
X28744367Y2459126D01*
X28737001Y2459583D01*
G37*
G36*
X29034181Y2459736D02*
G01*
X29008781Y2434234D01*
X29004463Y2429357D01*
X29000907Y2424836D01*
X28998214Y2420670D01*
X28996233Y2416606D01*
X28995065Y2412644D01*
X28994658Y2408631D01*
X28994912Y2404465D01*
X28995877Y2400096D01*
X28997554Y2395321D01*
X29001186Y2387549D01*
X29026713Y2387549D01*
X29026713Y2425496D01*
X29047236Y2432862D01*
X29076040Y2418080D01*
X29076040Y2407056D01*
X29075126Y2402027D01*
X29072687Y2396490D01*
X29069131Y2391156D01*
X29064762Y2386634D01*
X29053434Y2377287D01*
X29026713Y2387549D01*
X29001186Y2387549D01*
X29011778Y2367584D01*
X28993846Y2349601D01*
X28993846Y2312365D01*
X29018484Y2312365D01*
X29018484Y2327148D01*
X29018839Y2333802D01*
X29019906Y2339340D01*
X29021836Y2343810D01*
X29024732Y2347264D01*
X29028542Y2349855D01*
X29033520Y2351582D01*
X29039616Y2352598D01*
X29046982Y2352903D01*
X29064508Y2352903D01*
X29074364Y2343048D01*
X29078224Y2338374D01*
X29081323Y2332990D01*
X29083457Y2327605D01*
X29084270Y2322779D01*
X29084270Y2312365D01*
X29051351Y2294788D01*
X29018484Y2312365D01*
X28993846Y2312365D01*
X28993846Y2297226D01*
X29014115Y2283968D01*
X29018484Y2281326D01*
X29028085Y2276551D01*
X29037788Y2272995D01*
X29042309Y2271725D01*
X29046424Y2270963D01*
X29049980Y2270709D01*
X29065575Y2270709D01*
X29110432Y2305964D01*
X29104844Y2331466D01*
X29102761Y2344166D01*
X29101186Y2359761D01*
X29100221Y2376322D01*
X29100068Y2391867D01*
X29100830Y2426716D01*
X29067810Y2459736D01*
G37*
G36*
X29166413Y2459736D02*
G01*
X29133546Y2426868D01*
X29133546Y2402230D01*
X29142537Y2402230D01*
X29147211Y2403652D01*
X29153307Y2407615D01*
X29160063Y2413508D01*
X29166667Y2420721D01*
X29181856Y2439212D01*
X29211625Y2421077D01*
X29217264Y2383078D01*
X29133546Y2306167D01*
X29133546Y2270709D01*
X29249827Y2270709D01*
X29244391Y2299462D01*
X29173728Y2307691D01*
X29240429Y2368804D01*
X29240429Y2426208D01*
X29204412Y2459736D01*
G37*
G36*
X28530042Y2458059D02*
G01*
X28526232Y2456942D01*
X28522777Y2454452D01*
X28520593Y2451303D01*
X28518764Y2447036D01*
X28517545Y2442159D01*
X28517138Y2437231D01*
X28517138Y2425649D01*
X28545891Y2431186D01*
X28545891Y2442718D01*
X28545231Y2447290D01*
X28543503Y2451252D01*
X28540862Y2454402D01*
X28537560Y2456688D01*
X28533852Y2457958D01*
G37*
G36*
X28525368Y2411780D02*
G01*
X28520847Y2400046D01*
X28520237Y2397912D01*
X28519272Y2390952D01*
X28518612Y2380996D01*
X28518205Y2368600D01*
X28518154Y2354478D01*
X28518459Y2339289D01*
X28521253Y2274824D01*
X28545891Y2274824D01*
X28545891Y2404973D01*
G37*
G36*
X28124048Y2410409D02*
G01*
X28080055Y2358136D01*
X28088812Y2312365D01*
X28114396Y2312365D01*
X28114396Y2366060D01*
X28134106Y2385771D01*
X28168650Y2385771D01*
X28188361Y2366060D01*
X28188361Y2320391D01*
X28148381Y2294178D01*
X28114396Y2312365D01*
X28088812Y2312365D01*
X28089707Y2307691D01*
X28116326Y2284476D01*
X28121660Y2280513D01*
X28126740Y2277262D01*
X28131668Y2274722D01*
X28136443Y2272893D01*
X28141218Y2271776D01*
X28145994Y2271318D01*
X28150820Y2271522D01*
X28155747Y2272385D01*
X28160878Y2273960D01*
X28166263Y2276144D01*
X28171952Y2278938D01*
X28187345Y2287168D01*
X28192425Y2278938D01*
X28195015Y2275738D01*
X28198318Y2273147D01*
X28201874Y2271369D01*
X28205277Y2270709D01*
X28212999Y2270709D01*
X28212999Y2410409D01*
X28205480Y2410409D01*
X28202229Y2409596D01*
X28199029Y2407412D01*
X28196235Y2404160D01*
X28194152Y2400147D01*
X28190393Y2389886D01*
X28168650Y2410409D01*
G37*
G36*
X28237027Y2410409D02*
G01*
X28241802Y2276144D01*
X28262326Y2269337D01*
X28262326Y2343607D01*
X28278785Y2386838D01*
X28323946Y2381656D01*
X28332176Y2276094D01*
X28352750Y2269337D01*
X28352750Y2373884D01*
X28327146Y2410409D01*
X28310636Y2410409D01*
X28302965Y2409748D01*
X28294279Y2407920D01*
X28285694Y2405227D01*
X28278226Y2401925D01*
X28262326Y2393391D01*
X28262326Y2410409D01*
G37*
G36*
X28393593Y2410409D02*
G01*
X28389935Y2409545D01*
X28386328Y2407158D01*
X28383179Y2403652D01*
X28380842Y2399334D01*
X28380283Y2397302D01*
X28379369Y2390597D01*
X28378759Y2380843D01*
X28378454Y2368702D01*
X28378403Y2354834D01*
X28378759Y2339848D01*
X28381502Y2276144D01*
X28402026Y2269337D01*
X28402026Y2353970D01*
X28419044Y2385771D01*
X28459277Y2385771D01*
X28464306Y2362809D01*
X28466135Y2350719D01*
X28467812Y2335885D01*
X28469234Y2320137D01*
X28471926Y2276094D01*
X28492450Y2269337D01*
X28492450Y2373884D01*
X28466897Y2410409D01*
X28421787Y2410409D01*
X28402026Y2390698D01*
X28402026Y2410409D01*
G37*
D10*
X12999974Y3769868D02*
G01*
X13467841Y3302000D01*
X14071600Y3302000D01*
X14198600Y3175000D01*
X14198600Y2514600D01*
X14593316Y2119884D01*
X14800072Y2119884D01*
X15595600Y2120900D02*
G01*
X14595602Y2120900D01*
X2150109Y3769868D02*
G01*
X3124200Y2794000D01*
X3124200Y2519171D01*
X2724911Y2119884D01*
X6599936Y3769868D02*
G01*
X5778500Y2948431D01*
X5778500Y2616454D01*
X6275070Y2119884D01*
X27496998Y5873902D02*
G01*
X27496998Y8786901D01*
X27305000Y8978900D01*
X28829000Y8978900D02*
G01*
X29184600Y8978900D01*
X29286200Y8877300D01*
X29286200Y6743700D01*
X29197300Y6654800D01*
X27825700Y6654800D01*
X27749500Y6578600D01*
X27751024Y5874004D01*
X17500091Y7069836D02*
G01*
X17500091Y6998208D01*
X17945100Y6553200D01*
X17945100Y5824728D01*
X18349975Y5420105D01*
X17549875Y5420105D02*
G01*
X18016981Y4953000D01*
X18643600Y4953000D01*
X18808700Y4787900D01*
X18808700Y4161281D01*
X19199859Y3769868D01*
X16699991Y8720074D02*
G01*
X17101566Y8318500D01*
X18796000Y8318500D01*
X18897600Y8216900D01*
X18897600Y6743700D01*
X19024600Y6616700D01*
X21336000Y6616700D01*
X21551900Y6400800D01*
X21551900Y5818123D01*
X21949918Y5420105D01*
X19299936Y8720074D02*
G01*
X19286474Y8720074D01*
X18999200Y8432800D01*
X18999200Y6794500D01*
X19075400Y6718300D01*
X24348440Y6718300D01*
X24699975Y7069836D01*
X18499963Y8719972D02*
G01*
X18948400Y8271535D01*
X18948400Y6769100D01*
X19050000Y6667500D01*
X23520400Y6667500D01*
X23774400Y6413500D01*
X23774400Y5820537D01*
X24174958Y5419979D01*
X25174956Y5419979D02*
G01*
X25168479Y5419979D01*
X24206200Y4457700D01*
X24206200Y4163720D01*
X24599950Y3769969D01*
X20999958Y2119884D02*
G01*
X20467574Y1587500D01*
X7807452Y1587500D01*
X7275068Y2119884D01*
X2724988Y5419979D02*
G01*
X2724988Y5417388D01*
X1752600Y4445000D01*
X1752600Y4167352D01*
X2149983Y3769969D01*
X1724990Y5419979D02*
G01*
X1333500Y5811469D01*
X1333500Y6108700D01*
X2294763Y7069962D01*
X2299995Y7069962D01*
X27305000Y8216900D02*
G01*
X26695400Y8216900D01*
X26098500Y7620000D01*
X26098500Y7188200D01*
X25980130Y7069838D01*
X25699976Y7069838D01*
X25174958Y5420103D02*
G01*
X25282786Y5420090D01*
X26162000Y6299083D01*
X26162000Y7429500D01*
X26695400Y7962900D01*
X27305000Y7962900D01*
X25412700Y5334000D02*
G01*
X26314400Y6235700D01*
X26314400Y7073900D01*
X26695400Y7454900D01*
X27305000Y7454900D01*
X16699991Y7069836D02*
G01*
X17140427Y6629400D01*
X17780000Y6629400D01*
X17894300Y6515100D01*
X17894300Y5156200D01*
X18034000Y5016500D01*
X19746468Y5016500D01*
X20150074Y5420105D01*
X26162000Y3568700D02*
G01*
X26162000Y5867400D01*
X26466800Y6172200D01*
X26466800Y6718300D01*
X26695400Y6946900D01*
X27305000Y6946900D01*
X25349200Y5384800D02*
G01*
X26238200Y6273800D01*
X26238200Y7251700D01*
X26695400Y7708900D01*
X27305000Y7708900D01*
X25476200Y5283200D02*
G01*
X26390600Y6197600D01*
X26390600Y6896100D01*
X26695400Y7200900D01*
X27305000Y7200900D01*
X2724995Y2119985D02*
G01*
X1724995Y2119985D01*
X3149993Y3769982D02*
G01*
X2149995Y3769982D01*
X5799988Y3769982D02*
G01*
X4799990Y3769982D01*
X7274986Y2119985D02*
G01*
X6274986Y2119985D01*
X7599984Y3769982D02*
G01*
X6599986Y3769982D01*
X9399981Y3769982D02*
G01*
X8399983Y3769982D01*
X10299979Y2119985D02*
G01*
X9299981Y2119985D01*
X11199977Y3769982D02*
G01*
X10199979Y3769982D01*
X11999975Y2119985D02*
G01*
X12999974Y2119985D01*
X12999974Y3769982D02*
G01*
X11999975Y3769982D01*
X13799972Y3769982D02*
G01*
X14799970Y3769982D01*
X16599966Y3769982D02*
G01*
X15599968Y3769982D01*
X17399965Y3769982D02*
G01*
X18399963Y3769982D01*
X19199961Y3769982D02*
G01*
X20199959Y3769982D01*
X20199959Y2119985D02*
G01*
X19199961Y2119985D01*
X21999956Y2119985D02*
G01*
X20999958Y2119985D01*
X20999958Y3769982D02*
G01*
X21999956Y3769982D01*
X23799952Y2119985D02*
G01*
X22799954Y2119985D01*
X28829000Y9232900D02*
G01*
X28897404Y9164495D01*
X29286200Y9164495D01*
X28829000Y9486900D02*
G01*
X28846604Y9504504D01*
X29286200Y9504504D01*
X6699986Y8719972D02*
G01*
X7699984Y8719972D01*
X4899990Y8719972D02*
G01*
X5899988Y8719972D01*
X3099993Y8719972D02*
G01*
X4099991Y8719972D01*
X1299997Y8719972D02*
G01*
X2299995Y8719972D01*
X13899972Y8719972D02*
G01*
X14899970Y8719972D01*
X12099975Y8719972D02*
G01*
X13099973Y8719972D01*
X10299979Y8719972D02*
G01*
X11299977Y8719972D01*
X8499983Y8719972D02*
G01*
X9499981Y8719972D01*
X21099957Y8719972D02*
G01*
X22099955Y8719972D01*
X19299961Y8719972D02*
G01*
X20299959Y8719972D01*
X17499965Y8719972D02*
G01*
X18499963Y8719972D01*
X15699968Y8719972D02*
G01*
X16699966Y8719972D01*
X22899954Y7069975D02*
G01*
X23899952Y7069975D01*
X24699950Y7069975D02*
G01*
X25699948Y7069975D01*
X23749952Y8719972D02*
G01*
X24749950Y8719972D01*
X7549984Y5419979D02*
G01*
X8549982Y5419979D01*
X5749988Y5419979D02*
G01*
X6749986Y5419979D01*
X3949992Y5419979D02*
G01*
X4949990Y5419979D01*
X1724997Y5419979D02*
G01*
X2724995Y5419979D01*
X1299997Y7069975D02*
G01*
X2299995Y7069975D01*
X3099993Y7069975D02*
G01*
X4099991Y7069975D01*
X4899990Y7069975D02*
G01*
X5899988Y7069975D01*
X6699986Y7069975D02*
G01*
X7699984Y7069975D01*
X8499983Y7069975D02*
G01*
X9499981Y7069975D01*
X10299979Y7069975D02*
G01*
X11299977Y7069975D01*
X12099975Y7069975D02*
G01*
X13099973Y7069975D01*
X14749970Y5419979D02*
G01*
X15749968Y5419979D01*
X12949974Y5419979D02*
G01*
X13949972Y5419979D01*
X9349981Y5419979D02*
G01*
X10349979Y5419979D01*
X21949956Y5419979D02*
G01*
X22949954Y5419979D01*
X20149959Y5419979D02*
G01*
X21149957Y5419979D01*
X18349963Y5419979D02*
G01*
X19349961Y5419979D01*
X21099957Y7069975D02*
G01*
X22099955Y7069975D01*
X13899972Y7069975D02*
G01*
X14899970Y7069975D01*
X15699968Y7069975D02*
G01*
X16699966Y7069975D01*
X17499965Y7069975D02*
G01*
X18499963Y7069975D01*
X19299961Y7069975D02*
G01*
X20299959Y7069975D01*
X22799954Y3769982D02*
G01*
X23799952Y3769982D01*
X24599950Y2119985D02*
G01*
X25599948Y2119985D01*
X24599950Y3769982D02*
G01*
X25599948Y3769982D01*
X4949990Y2119985D02*
G01*
X3949992Y2119985D01*
X11149977Y5419979D02*
G01*
X12149975Y5419979D01*
X1299997Y8719972D02*
G01*
X901700Y8321675D01*
X901700Y7468260D01*
X1299997Y7069962D01*
X3099993Y8719972D02*
G01*
X2705100Y8325078D01*
X2705100Y7464856D01*
X3099993Y7069962D01*
X4099991Y7069962D02*
G01*
X3556000Y6525971D01*
X3556000Y5813958D01*
X3949979Y5419979D01*
X4950002Y5419979D02*
G01*
X4406900Y4876876D01*
X4406900Y4163060D01*
X4799990Y3769969D01*
X4799990Y3769969D02*
G01*
X5346700Y3223260D01*
X5346700Y2516682D01*
X4950002Y2119985D01*
X4899990Y8719972D02*
G01*
X4495800Y8315782D01*
X4495800Y7474153D01*
X4899990Y7069962D01*
X5899988Y7069962D02*
G01*
X5346700Y6516674D01*
X5346700Y5823280D01*
X5750001Y5419979D01*
X6750050Y5420105D02*
G01*
X6197600Y4867655D01*
X6197600Y4172457D01*
X6599936Y3769868D01*
X6699986Y8719972D02*
G01*
X6299200Y8319185D01*
X6299200Y7470749D01*
X6699986Y7069962D01*
X7699984Y7069962D02*
G01*
X7150100Y6520078D01*
X7150100Y5819876D01*
X7549997Y5419979D01*
X8549995Y5419979D02*
G01*
X8001000Y4870983D01*
X8001000Y4168952D01*
X8399983Y3769969D01*
X9400031Y3769868D02*
G01*
X8902700Y3272789D01*
X8902700Y2517139D01*
X9299956Y2119884D01*
X8499983Y8719972D02*
G01*
X8102600Y8322589D01*
X8102600Y7467345D01*
X8499983Y7069962D01*
X9499981Y7069962D02*
G01*
X8953500Y6523481D01*
X8953500Y5816472D01*
X9349993Y5419979D01*
X10349991Y5419979D02*
G01*
X9804400Y4874387D01*
X9804400Y4165549D01*
X10199979Y3769969D01*
X11199977Y3769969D02*
G01*
X11595100Y3374847D01*
X11595100Y2524861D01*
X11999975Y2119985D01*
X10299979Y8719972D02*
G01*
X9906000Y8325993D01*
X9906000Y7463942D01*
X10299979Y7069962D01*
X11299977Y7069962D02*
G01*
X10756900Y6526885D01*
X10756900Y5813069D01*
X11149990Y5419979D01*
X12149988Y5419979D02*
G01*
X11607800Y4877790D01*
X11607800Y4162145D01*
X11999975Y3769969D01*
X12099975Y8719972D02*
G01*
X11696700Y8316696D01*
X11696700Y7473238D01*
X12099975Y7069962D01*
X13100050Y7069836D02*
G01*
X12560300Y6530339D01*
X12560300Y5809742D01*
X12949936Y5420105D01*
X13949934Y5420105D02*
G01*
X13398500Y4868418D01*
X13398500Y4171442D01*
X13800074Y3769868D01*
X13899972Y8719972D02*
G01*
X13500100Y8320100D01*
X13500100Y7469835D01*
X13899972Y7069962D01*
X14899970Y7069962D02*
G01*
X14351000Y6520992D01*
X14351000Y5818962D01*
X14749983Y5419979D01*
X15749981Y5419979D02*
G01*
X16549979Y5419979D01*
X16549877Y5420105D02*
G01*
X17005300Y4964684D01*
X17005300Y4175252D01*
X16599916Y3769868D01*
X19199859Y3769868D02*
G01*
X18796000Y3366007D01*
X18796000Y2523997D01*
X19199859Y2119884D01*
X20660578Y4930612D02*
G01*
X20599400Y4869434D01*
X20599400Y4170426D01*
X20999958Y3769868D01*
X21150072Y5420105D02*
G01*
X20660578Y4930612D01*
X2299970Y8720074D02*
G01*
X2705100Y9125204D01*
X2705100Y9944100D01*
X2921000Y10160000D01*
X23139400Y10160000D01*
X23355300Y9944100D01*
X23355300Y9114536D01*
X23750016Y8720074D01*
X4100068Y8720074D02*
G01*
X4495800Y9115805D01*
X4495800Y9144000D01*
X4508500Y9156700D01*
X4508500Y9944100D01*
X4673600Y10109200D01*
X20535900Y10109200D01*
X20701000Y9944100D01*
X20701000Y9118854D01*
X21100034Y8720074D01*
X7700009Y8720074D02*
G01*
X8102600Y9122663D01*
X8102600Y9944100D01*
X8166100Y10007600D01*
X17030700Y10007600D01*
X17094200Y9944100D01*
X17094200Y9125712D01*
X17500091Y8720074D01*
X9499981Y8719972D02*
G01*
X9906000Y9125991D01*
X9906000Y9855200D01*
X10007600Y9956800D01*
X15163800Y9956800D01*
X15303500Y9817100D01*
X15303500Y9116440D01*
X15699968Y8719972D01*
X23750016Y8720074D02*
G01*
X24307800Y8162036D01*
X24307800Y7477760D01*
X23899875Y7069836D01*
X21099957Y8719972D02*
G01*
X20701000Y8321014D01*
X20701000Y7468920D01*
X21099957Y7069962D01*
X11299952Y8720074D02*
G01*
X11696700Y9116821D01*
X11696700Y9791700D01*
X11811000Y9906000D01*
X15125700Y9906000D01*
X15252700Y9779000D01*
X15252700Y7517129D01*
X15699993Y7069836D01*
X24749968Y8719969D02*
G01*
X25158700Y9128706D01*
X25158700Y9461500D01*
X25438100Y9740900D01*
X27305000Y9740900D01*
X27292300Y9245600D02*
G01*
X27533600Y9486900D01*
X28829000Y9486900D01*
X24174950Y5419979D02*
G01*
X25174950Y5419979D01*
X5899911Y8720074D02*
G01*
X6299200Y9119108D01*
X6299200Y9944100D01*
X6413500Y10058400D01*
X18783300Y10058400D01*
X18897600Y9944100D01*
X18897600Y9122410D01*
X19299936Y8720074D01*
X14799970Y3769969D02*
G01*
X15194534Y3375405D01*
X17005300Y3375405D01*
X17400016Y3769868D02*
G01*
X17005300Y3375405D01*
X17005300Y2514600D01*
X17400016Y2119884D01*
X24434800Y8280400D02*
G01*
X24790400Y8280400D01*
X25209500Y8699500D01*
X25209500Y9423400D01*
X25273000Y9486900D01*
X27305000Y9486900D01*
X18399963Y2119985D02*
G01*
X17399965Y2119985D01*
X22949966Y5419979D02*
G01*
X22402800Y4872812D01*
X22402800Y4167123D01*
X22799954Y3769969D01*
X16549966Y5419979D02*
G01*
X17549964Y5419979D01*
X24599900Y2119884D02*
G01*
X23965916Y1485900D01*
X3359150Y1485900D01*
X2724911Y2119884D01*
X22800056Y2119884D02*
G01*
X22216872Y1536700D01*
X5533390Y1536700D01*
X4949952Y2119884D01*
D13*
G01*
X29286200Y9504502D03*
G01*
X29286200Y9164497D03*
D14*
G01*
X19799960Y8509990D03*
G01*
X19299961Y8719972D03*
G01*
X20299959Y8719972D03*
G01*
X3599992Y8509990D03*
G01*
X3099993Y8719972D03*
G01*
X4099991Y8719972D03*
G01*
X5399989Y8509990D03*
G01*
X4899990Y8719972D03*
G01*
X5899988Y8719972D03*
G01*
X7199985Y8509990D03*
G01*
X6699986Y8719972D03*
G01*
X7699984Y8719972D03*
G01*
X8999981Y8509990D03*
G01*
X8499983Y8719972D03*
G01*
X9499981Y8719972D03*
G01*
X12599974Y8509990D03*
G01*
X12099975Y8719972D03*
G01*
X13099973Y8719972D03*
G01*
X14399971Y8509990D03*
G01*
X13899972Y8719972D03*
G01*
X14899970Y8719972D03*
G01*
X16199967Y8509990D03*
G01*
X15699968Y8719972D03*
G01*
X16699966Y8719972D03*
G01*
X17999963Y8509990D03*
G01*
X17499965Y8719972D03*
G01*
X18499963Y8719972D03*
G01*
X22449967Y5209997D03*
G01*
X21949968Y5419979D03*
G01*
X22949966Y5419979D03*
G01*
X17899964Y3559987D03*
G01*
X17399965Y3769969D03*
G01*
X18399963Y3769969D03*
G01*
X21599956Y8509990D03*
G01*
X21099957Y8719972D03*
G01*
X22099955Y8719972D03*
G01*
X19699960Y3559987D03*
G01*
X19199961Y3769969D03*
G01*
X20199959Y3769969D03*
G01*
X21499956Y3559987D03*
G01*
X20999958Y3769969D03*
G01*
X21999956Y3769969D03*
G01*
X20649971Y5209997D03*
G01*
X20149972Y5419979D03*
G01*
X21149970Y5419979D03*
G01*
X4450003Y5209997D03*
G01*
X3949979Y5419979D03*
G01*
X4950002Y5419979D03*
G01*
X6675005Y1910003D03*
G01*
X6175006Y2119985D03*
G01*
X7175004Y2119985D03*
G01*
X17899964Y1910003D03*
G01*
X17399965Y2119985D03*
G01*
X18399963Y2119985D03*
G01*
X12499975Y3559987D03*
G01*
X11999975Y3769969D03*
G01*
X12999974Y3769969D03*
G01*
X24249964Y8509990D03*
G01*
X23749965Y8719972D03*
G01*
X24749963Y8719972D03*
G01*
X8899982Y3559987D03*
G01*
X8399983Y3769969D03*
G01*
X9399981Y3769969D03*
G01*
X2224989Y5209997D03*
G01*
X1724990Y5419979D03*
G01*
X2724988Y5419979D03*
G01*
X2224986Y1910003D03*
G01*
X1724987Y2119985D03*
G01*
X2724988Y2119985D03*
G01*
X19699960Y1910003D03*
G01*
X19199961Y2119985D03*
G01*
X20199959Y2119985D03*
G01*
X8049996Y5209997D03*
G01*
X7549997Y5419979D03*
G01*
X8549995Y5419979D03*
G01*
X23299953Y1910003D03*
G01*
X22799954Y2119985D03*
G01*
X23799952Y2119985D03*
G01*
X7199985Y6859981D03*
G01*
X6699986Y7069962D03*
G01*
X7699984Y7069962D03*
G01*
X24674956Y5209997D03*
G01*
X24174958Y5419979D03*
G01*
X25174956Y5419979D03*
G01*
X1799996Y8509990D03*
G01*
X1299997Y8719972D03*
G01*
X2299995Y8719972D03*
G01*
X9849993Y5209997D03*
G01*
X9349993Y5419979D03*
G01*
X10349991Y5419979D03*
G01*
X12499975Y1910003D03*
G01*
X11999975Y2119985D03*
G01*
X12999974Y2119985D03*
G01*
X11649989Y5209997D03*
G01*
X11149990Y5419979D03*
G01*
X12149988Y5419979D03*
G01*
X13449985Y5209997D03*
G01*
X12949986Y5419979D03*
G01*
X13949984Y5419979D03*
G01*
X16199967Y6859981D03*
G01*
X15699968Y7069962D03*
G01*
X16699966Y7069962D03*
G01*
X15249982Y5209997D03*
G01*
X14749983Y5419979D03*
G01*
X15749981Y5419979D03*
G01*
X17049978Y5209997D03*
G01*
X16549979Y5419979D03*
G01*
X17549977Y5419979D03*
G01*
X18849975Y5209997D03*
G01*
X18349975Y5419979D03*
G01*
X19349974Y5419979D03*
G01*
X21499956Y1910003D03*
G01*
X20999958Y2119985D03*
G01*
X21999956Y2119985D03*
G01*
X16099967Y3559987D03*
G01*
X15599968Y3769969D03*
G01*
X16599966Y3769969D03*
G01*
X14299971Y3559987D03*
G01*
X13799972Y3769969D03*
G01*
X14799970Y3769969D03*
G01*
X17999963Y6859981D03*
G01*
X17499965Y7069962D03*
G01*
X18499963Y7069962D03*
G01*
X19799960Y6859981D03*
G01*
X19299961Y7069962D03*
G01*
X20299959Y7069962D03*
G01*
X3599992Y6859981D03*
G01*
X3099993Y7069962D03*
G01*
X4099991Y7069962D03*
G01*
X8999981Y6859981D03*
G01*
X8499983Y7069962D03*
G01*
X9499981Y7069962D03*
G01*
X25099949Y1910003D03*
G01*
X24599950Y2119985D03*
G01*
X25599948Y2119985D03*
G01*
X6250000Y5209997D03*
G01*
X5750001Y5419979D03*
G01*
X6749999Y5419979D03*
G01*
X2650007Y3559987D03*
G01*
X2149983Y3769969D03*
G01*
X3150006Y3769969D03*
G01*
X25099949Y3559987D03*
G01*
X24599950Y3769969D03*
G01*
X25599948Y3769969D03*
G01*
X9799980Y1910003D03*
G01*
X9299981Y2119985D03*
G01*
X10299979Y2119985D03*
G01*
X15099964Y1910003D03*
G01*
X14599965Y2119985D03*
G01*
X15599963Y2119985D03*
G01*
X10799978Y6859981D03*
G01*
X10299979Y7069962D03*
G01*
X11299977Y7069962D03*
G01*
X1799996Y6859981D03*
G01*
X1299997Y7069962D03*
G01*
X2299995Y7069962D03*
G01*
X14399971Y6859981D03*
G01*
X13899972Y7069962D03*
G01*
X14899970Y7069962D03*
G01*
X23299953Y3559987D03*
G01*
X22799954Y3769969D03*
G01*
X23799952Y3769969D03*
G01*
X10699978Y3559987D03*
G01*
X10199979Y3769969D03*
G01*
X11199977Y3769969D03*
G01*
X5399989Y6859981D03*
G01*
X4899990Y7069962D03*
G01*
X5899988Y7069962D03*
G01*
X4450003Y1910003D03*
G01*
X3949979Y2119985D03*
G01*
X4950002Y2119985D03*
G01*
X7099985Y3559987D03*
G01*
X6599986Y3769969D03*
G01*
X7599984Y3769969D03*
G01*
X5299989Y3559987D03*
G01*
X4799990Y3769969D03*
G01*
X5799988Y3769969D03*
G01*
X12599974Y6859981D03*
G01*
X12099975Y7069962D03*
G01*
X13099973Y7069962D03*
G01*
X25199949Y6859981D03*
G01*
X24699950Y7069962D03*
G01*
X25699948Y7069962D03*
G01*
X21599956Y6859981D03*
G01*
X21099957Y7069962D03*
G01*
X22099955Y7069962D03*
G01*
X23399953Y6859981D03*
G01*
X22899954Y7069962D03*
G01*
X23899952Y7069962D03*
G01*
X10799978Y8509990D03*
G01*
X10299979Y8719972D03*
G01*
X11299977Y8719972D03*
G36*
X27420785Y5950104D02*
G01*
X27573185Y5950104D01*
X27573185Y5797704D01*
X27420785Y5797704D01*
G37*
D16*
G01*
X27750998Y5873978D03*
G01*
X28004998Y5873978D03*
G01*
X28258998Y5873978D03*
D17*
G01*
X28829000Y9740900D03*
G01*
X27305000Y6946900D03*
G01*
X28829000Y9486900D03*
G01*
X28829000Y9232900D03*
G01*
X28829000Y8978900D03*
G01*
X28829000Y8724900D03*
G01*
X28829000Y8470900D03*
G01*
X28829000Y8216900D03*
G01*
X28829000Y7962900D03*
G01*
X28829000Y7708900D03*
G01*
X28829000Y7454900D03*
G01*
X28829000Y7200900D03*
G01*
X28829000Y6946900D03*
G01*
X27305000Y7200900D03*
G01*
X27305000Y7454900D03*
G01*
X27305000Y7708900D03*
G01*
X27305000Y7962900D03*
G01*
X27305000Y8216900D03*
G01*
X27305000Y8470900D03*
G01*
X27305000Y8724900D03*
G01*
X27305000Y8978900D03*
G01*
X27305000Y9232900D03*
G01*
X27305000Y9486900D03*
D18*
G01*
X27305000Y9740900D03*
D11*
G01*
X24434800Y8280400D03*
D12*
G01*
X20660588Y4930622D03*
D11*
G01*
X25349200Y5384800D03*
G01*
X25412700Y5334000D03*
D12*
G01*
X25476200Y5283200D03*
G01*
X26162000Y3568700D03*
M02*
