M48
METRIC,LZ,000.000
;FILE_FORMAT=3:3
;TYPE=PLATED
;Layer: PTH_Through
;EasyEDA v6.5.1, 2022-08-22 11:36:35
;479a10040a424d6084b7507f6101f796,d603b60474844c32a05bd641800ef4e1,10
;Gerber Generator version 0.2
;Holesize 1 = 0.305 mm
T01C0.305
;Holesize 2 = 1.000 mm
T02C1.000
;Holesize 3 = 1.093 mm
T03C1.093
;Holesize 4 = 1.270 mm
T04C1.270
%
G05
G90
T01
X244348Y082804
X206606Y049306
X253492Y053848
X254127Y053340
X254762Y052832
X261620Y035687
T02
X274955Y058674
X277495Y058674
X280035Y058674
X282575Y058674
T03
X288290Y097412G85X288290Y097406
X273050Y069472G85X273050Y069466
X288290Y094872G85X288290Y094866
X288290Y092332G85X288290Y092326
X288290Y089792G85X288290Y089786
X288290Y087252G85X288290Y087246
X288290Y084712G85X288290Y084706
X288290Y082172G85X288290Y082166
X288290Y079632G85X288290Y079626
X288290Y077092G85X288290Y077086
X288290Y074552G85X288290Y074546
X288290Y072012G85X288290Y072006
X288290Y069472G85X288290Y069466
X273050Y072012G85X273050Y072006
X273050Y074552G85X273050Y074546
X273050Y077092G85X273050Y077086
X273050Y079632G85X273050Y079626
X273050Y082172G85X273050Y082166
X273050Y084712G85X273050Y084706
X273050Y087252G85X273050Y087246
X273050Y089792G85X273050Y089786
X273050Y092332G85X273050Y092326
X273050Y094872G85X273050Y094866
X273050Y097412G85X273050Y097406
T04
X197997Y085100G85X198002Y085100
X192997Y087200G85X193002Y087200
X203000Y087202G85X203000Y087197
X035997Y085100G85X036002Y085100
X030997Y087200G85X031002Y087200
X041000Y087202G85X041000Y087197
X053997Y085100G85X054002Y085100
X048997Y087200G85X049002Y087200
X059000Y087202G85X059000Y087197
X071997Y085100G85X072002Y085100
X066997Y087200G85X067002Y087200
X077000Y087202G85X077000Y087197
X089997Y085100G85X090002Y085100
X084997Y087200G85X085002Y087200
X095000Y087202G85X095000Y087197
X125997Y085100G85X126002Y085100
X120997Y087200G85X121002Y087200
X131000Y087202G85X131000Y087197
X143997Y085100G85X144002Y085100
X138997Y087200G85X139002Y087200
X149000Y087202G85X149000Y087197
X161997Y085100G85X162002Y085100
X156997Y087200G85X157002Y087200
X167000Y087202G85X167000Y087197
X179997Y085100G85X180002Y085100
X174997Y087200G85X175002Y087200
X185000Y087202G85X185000Y087197
X224497Y052100G85X224502Y052100
X219497Y054200G85X219502Y054200
X229500Y054202G85X229500Y054197
X178997Y035600G85X179002Y035600
X173997Y037700G85X174002Y037700
X184000Y037702G85X184000Y037697
X215997Y085100G85X216002Y085100
X210997Y087200G85X211002Y087200
X221000Y087202G85X221000Y087197
X196997Y035600G85X197002Y035600
X191997Y037700G85X192002Y037700
X202000Y037702G85X202000Y037697
X214997Y035600G85X215002Y035600
X209997Y037700G85X210002Y037700
X220000Y037702G85X220000Y037697
X206497Y052100G85X206502Y052100
X201497Y054200G85X201502Y054200
X211500Y054202G85X211500Y054197
X044497Y052100G85X044502Y052100
X039497Y054200G85X039502Y054200
X049500Y054202G85X049500Y054197
X066747Y019100G85X066752Y019100
X061747Y021200G85X061752Y021200
X071750Y021202G85X071750Y021197
X178997Y019100G85X179002Y019100
X173997Y021200G85X174002Y021200
X184000Y021202G85X184000Y021197
X124997Y035600G85X125002Y035600
X119997Y037700G85X120002Y037700
X130000Y037702G85X130000Y037697
X242497Y085100G85X242502Y085100
X237497Y087200G85X237502Y087200
X247500Y087202G85X247500Y087197
X088997Y035600G85X089002Y035600
X083997Y037700G85X084002Y037700
X094000Y037702G85X094000Y037697
X022247Y052100G85X022253Y052100
X017247Y054200G85X017253Y054200
X027250Y054202G85X027250Y054197
X022247Y019100G85X022252Y019100
X017247Y021200G85X017252Y021200
X027250Y021202G85X027250Y021197
X196997Y019100G85X197002Y019100
X191997Y021200G85X192002Y021200
X202000Y021202G85X202000Y021197
X080497Y052100G85X080502Y052100
X075497Y054200G85X075502Y054200
X085500Y054202G85X085500Y054197
X232997Y019100G85X233002Y019100
X227997Y021200G85X228002Y021200
X238000Y021202G85X238000Y021197
X071997Y068600G85X072002Y068600
X066997Y070700G85X067002Y070700
X077000Y070702G85X077000Y070697
X246747Y052100G85X246752Y052100
X241747Y054200G85X241752Y054200
X251750Y054202G85X251750Y054197
X017997Y085100G85X018003Y085100
X012997Y087200G85X013003Y087200
X023000Y087202G85X023000Y087197
X098497Y052100G85X098502Y052100
X093497Y054200G85X093502Y054200
X103500Y054202G85X103500Y054197
X124997Y019100G85X125002Y019100
X119997Y021200G85X120002Y021200
X130000Y021202G85X130000Y021197
X116497Y052100G85X116502Y052100
X111497Y054200G85X111502Y054200
X121500Y054202G85X121500Y054197
X134497Y052100G85X134502Y052100
X129497Y054200G85X129502Y054200
X139500Y054202G85X139500Y054197
X161997Y068600G85X162002Y068600
X156997Y070700G85X157002Y070700
X167000Y070702G85X167000Y070697
X152497Y052100G85X152502Y052100
X147497Y054200G85X147502Y054200
X157500Y054202G85X157500Y054197
X170497Y052100G85X170502Y052100
X165497Y054200G85X165502Y054200
X175500Y054202G85X175500Y054197
X188497Y052100G85X188502Y052100
X183497Y054200G85X183502Y054200
X193500Y054202G85X193500Y054197
X214997Y019100G85X215002Y019100
X209997Y021200G85X210002Y021200
X220000Y021202G85X220000Y021197
X160997Y035600G85X161002Y035600
X155997Y037700G85X156002Y037700
X166000Y037702G85X166000Y037697
X142997Y035600G85X143002Y035600
X137997Y037700G85X138002Y037700
X148000Y037702G85X148000Y037697
X179997Y068600G85X180002Y068600
X174997Y070700G85X175002Y070700
X185000Y070702G85X185000Y070697
X197997Y068600G85X198002Y068600
X192997Y070700G85X193002Y070700
X203000Y070702G85X203000Y070697
X035997Y068600G85X036002Y068600
X030997Y070700G85X031002Y070700
X041000Y070702G85X041000Y070697
X089997Y068600G85X090002Y068600
X084997Y070700G85X085002Y070700
X095000Y070702G85X095000Y070697
X250997Y019100G85X251002Y019100
X245997Y021200G85X246002Y021200
X255999Y021202G85X255999Y021197
X062497Y052100G85X062502Y052100
X057497Y054200G85X057502Y054200
X067500Y054202G85X067500Y054197
X026497Y035600G85X026502Y035600
X021497Y037700G85X021502Y037700
X031500Y037702G85X031500Y037697
X250997Y035600G85X251002Y035600
X245997Y037700G85X246002Y037700
X255999Y037702G85X255999Y037697
X097997Y019100G85X098002Y019100
X092997Y021200G85X093002Y021200
X103000Y021202G85X103000Y021197
X151997Y019100G85X152002Y019100
X146997Y021200G85X147002Y021200
X157000Y021202G85X157000Y021197
X107997Y068600G85X108002Y068600
X102997Y070700G85X103002Y070700
X113000Y070702G85X113000Y070697
X017997Y068600G85X018003Y068600
X012997Y070700G85X013003Y070700
X023000Y070702G85X023000Y070697
X143997Y068600G85X144002Y068600
X138997Y070700G85X139002Y070700
X149000Y070702G85X149000Y070697
X232997Y035600G85X233002Y035600
X227997Y037700G85X228002Y037700
X238000Y037702G85X238000Y037697
X106997Y035600G85X107002Y035600
X101997Y037700G85X102002Y037700
X112000Y037702G85X112000Y037697
X053997Y068600G85X054002Y068600
X048997Y070700G85X049002Y070700
X059000Y070702G85X059000Y070697
X044497Y019100G85X044502Y019100
X039497Y021200G85X039502Y021200
X049500Y021202G85X049500Y021197
X070997Y035600G85X071002Y035600
X065997Y037700G85X066002Y037700
X076000Y037702G85X076000Y037697
X052997Y035600G85X053002Y035600
X047997Y037700G85X048002Y037700
X058000Y037702G85X058000Y037697
X125997Y068600G85X126002Y068600
X120997Y070700G85X121002Y070700
X131000Y070702G85X131000Y070697
X251997Y068600G85X252002Y068600
X246997Y070700G85X247002Y070700
X256999Y070702G85X256999Y070697
X215997Y068600G85X216002Y068600
X210997Y070700G85X211002Y070700
X221000Y070702G85X221000Y070697
X233997Y068600G85X234002Y068600
X228997Y070700G85X229002Y070700
X239000Y070702G85X239000Y070697
X107997Y085100G85X108002Y085100
X102997Y087200G85X103002Y087200
X113000Y087202G85X113000Y087197
M30
