M48
METRIC,LZ,000.000
;FILE_FORMAT=3:3
;TYPE=NON_PLATED
;Layer: NPTH_Through
;EasyEDA v6.5.1, 2022-08-22 11:36:35
;479a10040a424d6084b7507f6101f796,d603b60474844c32a05bd641800ef4e1,10
;Gerber Generator version 0.2
;Holesize 1 = 0.991 mm
T01C0.991
;Holesize 2 = 1.702 mm
T02C1.702
;Holesize 3 = 3.200 mm
T03C3.200
;Holesize 4 = 3.430 mm
T04C3.430
%
G05
G90
T01
X203220Y095200
X192780Y095200
X041220Y095200
X030780Y095200
X059220Y095200
X048780Y095200
X077220Y095200
X066780Y095200
X095220Y095200
X084780Y095200
X131220Y095200
X120780Y095200
X149220Y095200
X138780Y095200
X167220Y095200
X156780Y095200
X185220Y095200
X174780Y095200
X229720Y062200
X219280Y062200
X184220Y045700
X173780Y045700
X221220Y095200
X210780Y095200
X202220Y045700
X191780Y045700
X220220Y045700
X209780Y045700
X211720Y062200
X201280Y062200
X049720Y062200
X039280Y062200
X071970Y029200
X061530Y029200
X184220Y029200
X173780Y029200
X130220Y045700
X119780Y045700
X247720Y095200
X237280Y095200
X094220Y045700
X083780Y045700
X027470Y062200
X017030Y062200
X027470Y029200
X017030Y029200
X202220Y029200
X191780Y029200
X085720Y062200
X075280Y062200
X238219Y029200
X227780Y029200
X077220Y078700
X066780Y078700
X251970Y062200
X241530Y062200
X023220Y095200
X012780Y095200
X103720Y062200
X093280Y062200
X130220Y029200
X119780Y029200
X121720Y062200
X111280Y062200
X139720Y062200
X129280Y062200
X167220Y078700
X156780Y078700
X157720Y062200
X147280Y062200
X175720Y062200
X165280Y062200
X193720Y062200
X183280Y062200
X220220Y029200
X209780Y029200
X166220Y045700
X155780Y045700
X148220Y045700
X137780Y045700
X185220Y078700
X174780Y078700
X203220Y078700
X192780Y078700
X041220Y078700
X030780Y078700
X095220Y078700
X084780Y078700
X256219Y029200
X245780Y029200
X067720Y062200
X057280Y062200
X031720Y045700
X021280Y045700
X256219Y045700
X245780Y045700
X103220Y029200
X092780Y029200
X157220Y029200
X146780Y029200
X113220Y078700
X102780Y078700
X023220Y078700
X012780Y078700
X149220Y078700
X138780Y078700
X238219Y045700
X227780Y045700
X112220Y045700
X101780Y045700
X059220Y078700
X048780Y078700
X049720Y029200
X039280Y029200
X076220Y045700
X065780Y045700
X058220Y045700
X047780Y045700
X131220Y078700
X120780Y078700
X257219Y078700
X246780Y078700
X221220Y078700
X210780Y078700
X239219Y078700
X228780Y078700
X113220Y095200
X102780Y095200
T02
X192499Y091000
X203500Y091000
X030500Y091000
X041500Y091000
X048500Y091000
X059500Y091000
X066500Y091000
X077500Y091000
X084500Y091000
X095500Y091000
X120500Y091000
X131500Y091000
X138500Y091000
X149500Y091000
X156500Y091000
X167500Y091000
X174500Y091000
X185500Y091000
X219000Y058000
X230000Y058000
X173500Y041500
X184500Y041500
X210499Y091000
X221500Y091000
X191499Y041500
X202500Y041500
X209499Y041500
X220500Y041500
X201000Y058000
X212000Y058000
X039000Y058000
X050000Y058000
X061250Y025000
X072250Y025000
X173500Y025000
X184500Y025000
X119500Y041500
X130500Y041500
X237000Y091000
X248000Y091000
X083500Y041500
X094500Y041500
X016750Y058000
X027750Y058000
X016750Y025000
X027750Y025000
X191499Y025000
X202500Y025000
X075000Y058000
X086000Y058000
X227499Y025000
X238500Y025000
X066500Y074500
X077500Y074500
X241249Y058000
X252250Y058000
X012500Y091000
X023500Y091000
X093000Y058000
X104000Y058000
X119500Y025000
X130500Y025000
X111000Y058000
X122000Y058000
X129000Y058000
X140000Y058000
X156500Y074500
X167500Y074500
X147000Y058000
X158000Y058000
X165000Y058000
X176000Y058000
X183000Y058000
X194000Y058000
X209499Y025000
X220500Y025000
X155500Y041500
X166500Y041500
X137500Y041500
X148500Y041500
X174500Y074500
X185500Y074500
X192499Y074500
X203500Y074500
X030500Y074500
X041500Y074500
X084500Y074500
X095500Y074500
X245499Y025000
X256500Y025000
X057000Y058000
X068000Y058000
X021000Y041500
X032000Y041500
X245499Y041500
X256500Y041500
X092500Y025000
X103500Y025000
X146500Y025000
X157500Y025000
X102500Y074500
X113500Y074500
X012500Y074500
X023500Y074500
X138500Y074500
X149500Y074500
X227499Y041500
X238500Y041500
X101500Y041500
X112500Y041500
X048500Y074500
X059500Y074500
X039000Y025000
X050000Y025000
X065500Y041500
X076500Y041500
X047500Y041500
X058500Y041500
X120500Y074500
X131500Y074500
X246499Y074500
X257500Y074500
X210499Y074500
X221500Y074500
X228499Y074500
X239500Y074500
X102500Y091000
X113500Y091000
T03
X293500Y099000
X112000Y025000
X138000Y025000
X293499Y017500
X009500Y017500
X009500Y099000
T04
X198000Y091000
X036000Y091000
X054000Y091000
X072000Y091000
X090000Y091000
X126000Y091000
X144000Y091000
X162000Y091000
X180000Y091000
X224500Y058000
X179000Y041500
X216000Y091000
X197000Y041500
X215000Y041500
X206500Y058000
X044500Y058000
X066750Y025000
X179000Y025000
X125000Y041500
X242500Y091000
X089000Y041500
X022250Y058000
X022250Y025000
X197000Y025000
X080500Y058000
X233000Y025000
X072000Y074500
X246750Y058000
X018000Y091000
X098500Y058000
X125000Y025000
X116500Y058000
X134500Y058000
X162000Y074500
X152500Y058000
X170500Y058000
X188500Y058000
X215000Y025000
X161000Y041500
X143000Y041500
X180000Y074500
X198000Y074500
X036000Y074500
X090000Y074500
X250999Y025000
X062500Y058000
X026500Y041500
X250999Y041500
X098000Y025000
X152000Y025000
X108000Y074500
X018000Y074500
X144000Y074500
X233000Y041500
X107000Y041500
X054000Y074500
X044500Y025000
X071000Y041500
X053000Y041500
X126000Y074500
X251999Y074500
X216000Y074500
X234000Y074500
X108000Y091000
M30
