G04 Layer: BottomSilkscreenLayer*
G04 EasyEDA v6.5.1, 2022-08-22 11:36:35*
G04 479a10040a424d6084b7507f6101f796,d603b60474844c32a05bd641800ef4e1,10*
G04 Gerber Generator version 0.2*
G04 Scale: 100 percent, Rotated: No, Reflected: No *
G04 Dimensions in millimeters *
G04 leading zeros omitted , absolute positions ,4 integer and 5 decimal *
%FSLAX45Y45*%
%MOMM*%

%ADD10C,0.2540*%
%ADD19C,0.1524*%
%ADD20C,0.1501*%
%ADD21C,0.3810*%

%LPD*%
D19*
X24683356Y6522278D02*
G01*
X24683356Y6413312D01*
X24683356Y6522278D02*
G01*
X24647032Y6522278D01*
X24631284Y6517198D01*
X24621126Y6506784D01*
X24615792Y6496370D01*
X24610712Y6480622D01*
X24610712Y6454714D01*
X24615792Y6439220D01*
X24621126Y6428806D01*
X24631284Y6418392D01*
X24647032Y6413312D01*
X24683356Y6413312D01*
X24576422Y6376736D02*
G01*
X24482696Y6376736D01*
X24448406Y6522278D02*
G01*
X24448406Y6413312D01*
X24448406Y6522278D02*
G01*
X24381096Y6522278D01*
X24448406Y6470462D02*
G01*
X24407004Y6470462D01*
X24448406Y6413312D02*
G01*
X24381096Y6413312D01*
X24346806Y6522278D02*
G01*
X24346806Y6413312D01*
X24346806Y6522278D02*
G01*
X24273908Y6413312D01*
X24273908Y6522278D02*
G01*
X24273908Y6413312D01*
X24203296Y6522278D02*
G01*
X24203296Y6413312D01*
X24239616Y6522278D02*
G01*
X24166974Y6522278D01*
X24132682Y6522278D02*
G01*
X24132682Y6413312D01*
X24132682Y6522278D02*
G01*
X24065120Y6522278D01*
X24132682Y6470462D02*
G01*
X24091028Y6470462D01*
X24132682Y6413312D02*
G01*
X24065120Y6413312D01*
X24030830Y6522278D02*
G01*
X24030830Y6413312D01*
X24030830Y6522278D02*
G01*
X23984094Y6522278D01*
X23968346Y6517198D01*
X23963264Y6511864D01*
X23958184Y6501450D01*
X23958184Y6491036D01*
X23963264Y6480622D01*
X23968346Y6475542D01*
X23984094Y6470462D01*
X24030830Y6470462D01*
X23994508Y6470462D02*
G01*
X23958184Y6413312D01*
X19808365Y9817270D02*
G01*
X19808365Y9708304D01*
X19808365Y9817270D02*
G01*
X19772043Y9817270D01*
X19756295Y9812190D01*
X19746135Y9801776D01*
X19740801Y9791362D01*
X19735721Y9775614D01*
X19735721Y9749706D01*
X19740801Y9734212D01*
X19746135Y9723798D01*
X19756295Y9713384D01*
X19772043Y9708304D01*
X19808365Y9708304D01*
X19701431Y9671728D02*
G01*
X19607705Y9671728D01*
X19542427Y9817270D02*
G01*
X19557921Y9812190D01*
X19568335Y9796442D01*
X19573415Y9770534D01*
X19573415Y9755040D01*
X19568335Y9728878D01*
X19557921Y9713384D01*
X19542427Y9708304D01*
X19532013Y9708304D01*
X19516265Y9713384D01*
X19506105Y9728878D01*
X19500771Y9755040D01*
X19500771Y9770534D01*
X19506105Y9796442D01*
X19516265Y9812190D01*
X19532013Y9817270D01*
X19542427Y9817270D01*
X3608397Y9817270D02*
G01*
X3608397Y9708304D01*
X3608397Y9817270D02*
G01*
X3572075Y9817270D01*
X3556327Y9812190D01*
X3546167Y9801776D01*
X3540833Y9791362D01*
X3535753Y9775614D01*
X3535753Y9749706D01*
X3540833Y9734212D01*
X3546167Y9723798D01*
X3556327Y9713384D01*
X3572075Y9708304D01*
X3608397Y9708304D01*
X3501463Y9671728D02*
G01*
X3407737Y9671728D01*
X3373447Y9796442D02*
G01*
X3363287Y9801776D01*
X3347539Y9817270D01*
X3347539Y9708304D01*
X5408394Y9817270D02*
G01*
X5408394Y9708304D01*
X5408394Y9817270D02*
G01*
X5372074Y9817270D01*
X5356324Y9812190D01*
X5346166Y9801776D01*
X5340832Y9791362D01*
X5335752Y9775614D01*
X5335752Y9749706D01*
X5340832Y9734212D01*
X5346166Y9723798D01*
X5356324Y9713384D01*
X5372074Y9708304D01*
X5408394Y9708304D01*
X5301460Y9671728D02*
G01*
X5207736Y9671728D01*
X5168366Y9791362D02*
G01*
X5168366Y9796442D01*
X5163286Y9806856D01*
X5157952Y9812190D01*
X5147538Y9817270D01*
X5126708Y9817270D01*
X5116294Y9812190D01*
X5111216Y9806856D01*
X5106136Y9796442D01*
X5106136Y9786028D01*
X5111216Y9775614D01*
X5121628Y9760120D01*
X5173444Y9708304D01*
X5100802Y9708304D01*
X7208390Y9817270D02*
G01*
X7208390Y9708304D01*
X7208390Y9817270D02*
G01*
X7172068Y9817270D01*
X7156320Y9812190D01*
X7146160Y9801776D01*
X7140826Y9791362D01*
X7135746Y9775614D01*
X7135746Y9749706D01*
X7140826Y9734212D01*
X7146160Y9723798D01*
X7156320Y9713384D01*
X7172068Y9708304D01*
X7208390Y9708304D01*
X7101456Y9671728D02*
G01*
X7007730Y9671728D01*
X6963280Y9817270D02*
G01*
X6906130Y9817270D01*
X6937118Y9775614D01*
X6921624Y9775614D01*
X6911210Y9770534D01*
X6906130Y9765454D01*
X6900796Y9749706D01*
X6900796Y9739292D01*
X6906130Y9723798D01*
X6916290Y9713384D01*
X6932038Y9708304D01*
X6947532Y9708304D01*
X6963280Y9713384D01*
X6968360Y9718464D01*
X6973440Y9728878D01*
X9008386Y9817270D02*
G01*
X9008386Y9708304D01*
X9008386Y9817270D02*
G01*
X8972064Y9817270D01*
X8956316Y9812190D01*
X8946156Y9801776D01*
X8940822Y9791362D01*
X8935742Y9775614D01*
X8935742Y9749706D01*
X8940822Y9734212D01*
X8946156Y9723798D01*
X8956316Y9713384D01*
X8972064Y9708304D01*
X9008386Y9708304D01*
X8901452Y9671728D02*
G01*
X8807726Y9671728D01*
X8721620Y9817270D02*
G01*
X8773436Y9744626D01*
X8695712Y9744626D01*
X8721620Y9817270D02*
G01*
X8721620Y9708304D01*
X10808383Y9817270D02*
G01*
X10808383Y9708304D01*
X10808383Y9817270D02*
G01*
X10772061Y9817270D01*
X10756313Y9812190D01*
X10746153Y9801776D01*
X10740819Y9791362D01*
X10735739Y9775614D01*
X10735739Y9749706D01*
X10740819Y9734212D01*
X10746153Y9723798D01*
X10756313Y9713384D01*
X10772061Y9708304D01*
X10808383Y9708304D01*
X10701449Y9671728D02*
G01*
X10607723Y9671728D01*
X10511203Y9817270D02*
G01*
X10563273Y9817270D01*
X10568353Y9770534D01*
X10563273Y9775614D01*
X10547525Y9780948D01*
X10532031Y9780948D01*
X10516283Y9775614D01*
X10506123Y9765454D01*
X10500789Y9749706D01*
X10500789Y9739292D01*
X10506123Y9723798D01*
X10516283Y9713384D01*
X10532031Y9708304D01*
X10547525Y9708304D01*
X10563273Y9713384D01*
X10568353Y9718464D01*
X10573433Y9728878D01*
X12608379Y9817270D02*
G01*
X12608379Y9708304D01*
X12608379Y9817270D02*
G01*
X12572057Y9817270D01*
X12556309Y9812190D01*
X12546149Y9801776D01*
X12540815Y9791362D01*
X12535735Y9775614D01*
X12535735Y9749706D01*
X12540815Y9734212D01*
X12546149Y9723798D01*
X12556309Y9713384D01*
X12572057Y9708304D01*
X12608379Y9708304D01*
X12501445Y9671728D02*
G01*
X12407719Y9671728D01*
X12311199Y9801776D02*
G01*
X12316279Y9812190D01*
X12332027Y9817270D01*
X12342441Y9817270D01*
X12357935Y9812190D01*
X12368349Y9796442D01*
X12373429Y9770534D01*
X12373429Y9744626D01*
X12368349Y9723798D01*
X12357935Y9713384D01*
X12342441Y9708304D01*
X12337107Y9708304D01*
X12321613Y9713384D01*
X12311199Y9723798D01*
X12306119Y9739292D01*
X12306119Y9744626D01*
X12311199Y9760120D01*
X12321613Y9770534D01*
X12337107Y9775614D01*
X12342441Y9775614D01*
X12357935Y9770534D01*
X12368349Y9760120D01*
X12373429Y9744626D01*
X14408376Y9817270D02*
G01*
X14408376Y9708304D01*
X14408376Y9817270D02*
G01*
X14372054Y9817270D01*
X14356306Y9812190D01*
X14346146Y9801776D01*
X14340812Y9791362D01*
X14335732Y9775614D01*
X14335732Y9749706D01*
X14340812Y9734212D01*
X14346146Y9723798D01*
X14356306Y9713384D01*
X14372054Y9708304D01*
X14408376Y9708304D01*
X14301442Y9671728D02*
G01*
X14207716Y9671728D01*
X14100782Y9817270D02*
G01*
X14152852Y9708304D01*
X14173426Y9817270D02*
G01*
X14100782Y9817270D01*
X16208372Y9817270D02*
G01*
X16208372Y9708304D01*
X16208372Y9817270D02*
G01*
X16172050Y9817270D01*
X16156302Y9812190D01*
X16146142Y9801776D01*
X16140808Y9791362D01*
X16135728Y9775614D01*
X16135728Y9749706D01*
X16140808Y9734212D01*
X16146142Y9723798D01*
X16156302Y9713384D01*
X16172050Y9708304D01*
X16208372Y9708304D01*
X16101438Y9671728D02*
G01*
X16007712Y9671728D01*
X15947514Y9817270D02*
G01*
X15963262Y9812190D01*
X15968342Y9801776D01*
X15968342Y9791362D01*
X15963262Y9780948D01*
X15952848Y9775614D01*
X15932020Y9770534D01*
X15916272Y9765454D01*
X15906112Y9755040D01*
X15900778Y9744626D01*
X15900778Y9728878D01*
X15906112Y9718464D01*
X15911192Y9713384D01*
X15926686Y9708304D01*
X15947514Y9708304D01*
X15963262Y9713384D01*
X15968342Y9718464D01*
X15973422Y9728878D01*
X15973422Y9744626D01*
X15968342Y9755040D01*
X15957928Y9765454D01*
X15942434Y9770534D01*
X15921606Y9775614D01*
X15911192Y9780948D01*
X15906112Y9791362D01*
X15906112Y9801776D01*
X15911192Y9812190D01*
X15926686Y9817270D01*
X15947514Y9817270D01*
X18008368Y9817270D02*
G01*
X18008368Y9708304D01*
X18008368Y9817270D02*
G01*
X17972046Y9817270D01*
X17956298Y9812190D01*
X17946138Y9801776D01*
X17940804Y9791362D01*
X17935724Y9775614D01*
X17935724Y9749706D01*
X17940804Y9734212D01*
X17946138Y9723798D01*
X17956298Y9713384D01*
X17972046Y9708304D01*
X18008368Y9708304D01*
X17901434Y9671728D02*
G01*
X17807708Y9671728D01*
X17706108Y9780948D02*
G01*
X17711188Y9765454D01*
X17721602Y9755040D01*
X17737096Y9749706D01*
X17742430Y9749706D01*
X17757924Y9755040D01*
X17768338Y9765454D01*
X17773418Y9780948D01*
X17773418Y9786028D01*
X17768338Y9801776D01*
X17757924Y9812190D01*
X17742430Y9817270D01*
X17737096Y9817270D01*
X17721602Y9812190D01*
X17711188Y9801776D01*
X17706108Y9780948D01*
X17706108Y9755040D01*
X17711188Y9728878D01*
X17721602Y9713384D01*
X17737096Y9708304D01*
X17747510Y9708304D01*
X17763258Y9713384D01*
X17768338Y9723798D01*
X22458359Y6522278D02*
G01*
X22458359Y6413312D01*
X22458359Y6522278D02*
G01*
X22422037Y6522278D01*
X22406289Y6517198D01*
X22396129Y6506784D01*
X22390795Y6496370D01*
X22385715Y6480622D01*
X22385715Y6454714D01*
X22390795Y6439220D01*
X22396129Y6428806D01*
X22406289Y6418392D01*
X22422037Y6413312D01*
X22458359Y6413312D01*
X22351425Y6376736D02*
G01*
X22257699Y6376736D01*
X22213249Y6537772D02*
G01*
X22213249Y6506784D01*
X17908369Y4862281D02*
G01*
X17908369Y4753315D01*
X17908369Y4862281D02*
G01*
X17872047Y4862281D01*
X17856299Y4857201D01*
X17846139Y4846787D01*
X17840805Y4836373D01*
X17835725Y4820625D01*
X17835725Y4794717D01*
X17840805Y4779223D01*
X17846139Y4768809D01*
X17856299Y4758395D01*
X17872047Y4753315D01*
X17908369Y4753315D01*
X17801435Y4716739D02*
G01*
X17707709Y4716739D01*
X17663259Y4773889D02*
G01*
X17668339Y4768809D01*
X17673419Y4773889D01*
X17668339Y4779223D01*
X17663259Y4773889D01*
X17663259Y4763475D01*
X17673419Y4753315D01*
X21608361Y9817270D02*
G01*
X21608361Y9708304D01*
X21608361Y9817270D02*
G01*
X21572039Y9817270D01*
X21556291Y9812190D01*
X21546131Y9801776D01*
X21540797Y9791362D01*
X21535717Y9775614D01*
X21535717Y9749706D01*
X21540797Y9734212D01*
X21546131Y9723798D01*
X21556291Y9713384D01*
X21572039Y9708304D01*
X21608361Y9708304D01*
X21501427Y9671728D02*
G01*
X21407701Y9671728D01*
X21373411Y9755040D02*
G01*
X21279939Y9755040D01*
X19708365Y4862281D02*
G01*
X19708365Y4753315D01*
X19708365Y4862281D02*
G01*
X19672043Y4862281D01*
X19656295Y4857201D01*
X19646135Y4846787D01*
X19640801Y4836373D01*
X19635721Y4820625D01*
X19635721Y4794717D01*
X19640801Y4779223D01*
X19646135Y4768809D01*
X19656295Y4758395D01*
X19672043Y4753315D01*
X19708365Y4753315D01*
X19601431Y4716739D02*
G01*
X19507705Y4716739D01*
X19468335Y4779223D02*
G01*
X19473415Y4773889D01*
X19468335Y4768809D01*
X19463255Y4773889D01*
X19468335Y4779223D01*
X21508361Y4862281D02*
G01*
X21508361Y4753315D01*
X21508361Y4862281D02*
G01*
X21472039Y4862281D01*
X21456291Y4857201D01*
X21446131Y4846787D01*
X21440797Y4836373D01*
X21435717Y4820625D01*
X21435717Y4794717D01*
X21440797Y4779223D01*
X21446131Y4768809D01*
X21456291Y4758395D01*
X21472039Y4753315D01*
X21508361Y4753315D01*
X21401427Y4716739D02*
G01*
X21307701Y4716739D01*
X21179939Y4883109D02*
G01*
X21273411Y4716739D01*
X20658363Y6522278D02*
G01*
X20658363Y6413312D01*
X20658363Y6522278D02*
G01*
X20622041Y6522278D01*
X20606293Y6517198D01*
X20596133Y6506784D01*
X20590799Y6496370D01*
X20585719Y6480622D01*
X20585719Y6454714D01*
X20590799Y6439220D01*
X20596133Y6428806D01*
X20606293Y6418392D01*
X20622041Y6413312D01*
X20658363Y6413312D01*
X20551429Y6376736D02*
G01*
X20457703Y6376736D01*
X20418333Y6475542D02*
G01*
X20423413Y6470462D01*
X20418333Y6465128D01*
X20413253Y6470462D01*
X20418333Y6475542D01*
X20413253Y6433886D02*
G01*
X20418333Y6428806D01*
X20423413Y6433886D01*
X20418333Y6439220D01*
X20413253Y6433886D01*
X20413253Y6423472D01*
X20423413Y6413312D01*
X4458395Y6522278D02*
G01*
X4458395Y6413312D01*
X4458395Y6522278D02*
G01*
X4422073Y6522278D01*
X4406325Y6517198D01*
X4396165Y6506784D01*
X4390831Y6496370D01*
X4385751Y6480622D01*
X4385751Y6454714D01*
X4390831Y6439220D01*
X4396165Y6428806D01*
X4406325Y6418392D01*
X4422073Y6413312D01*
X4458395Y6413312D01*
X4351461Y6376736D02*
G01*
X4257735Y6376736D01*
X4182043Y6522278D02*
G01*
X4223445Y6413312D01*
X4182043Y6522278D02*
G01*
X4140387Y6413312D01*
X4207951Y6449634D02*
G01*
X4156135Y6449634D01*
X6688404Y3222289D02*
G01*
X6688404Y3113323D01*
X6688404Y3222289D02*
G01*
X6652079Y3222289D01*
X6636334Y3217209D01*
X6626174Y3206795D01*
X6620840Y3196381D01*
X6615760Y3180633D01*
X6615760Y3154725D01*
X6620840Y3139231D01*
X6626174Y3128817D01*
X6636334Y3118403D01*
X6652079Y3113323D01*
X6688404Y3113323D01*
X6581470Y3076747D02*
G01*
X6487744Y3076747D01*
X6412052Y3222289D02*
G01*
X6453454Y3113323D01*
X6412052Y3222289D02*
G01*
X6370396Y3113323D01*
X6437960Y3149645D02*
G01*
X6386144Y3149645D01*
X6336106Y3222289D02*
G01*
X6336106Y3113323D01*
X6336106Y3113323D02*
G01*
X6273876Y3113323D01*
X6203261Y3222289D02*
G01*
X6203261Y3113323D01*
X6239586Y3222289D02*
G01*
X6166688Y3222289D01*
X17908369Y3222284D02*
G01*
X17908369Y3113318D01*
X17908369Y3222284D02*
G01*
X17872047Y3222284D01*
X17856299Y3217204D01*
X17846139Y3206790D01*
X17840805Y3196376D01*
X17835725Y3180628D01*
X17835725Y3154720D01*
X17840805Y3139226D01*
X17846139Y3128812D01*
X17856299Y3118398D01*
X17872047Y3113318D01*
X17908369Y3113318D01*
X17801435Y3076742D02*
G01*
X17707709Y3076742D01*
X17632017Y3222284D02*
G01*
X17673419Y3113318D01*
X17632017Y3222284D02*
G01*
X17590361Y3113318D01*
X17657925Y3149640D02*
G01*
X17606109Y3149640D01*
X17556071Y3222284D02*
G01*
X17556071Y3113318D01*
X17556071Y3113318D02*
G01*
X17493841Y3113318D01*
X17423229Y3222284D02*
G01*
X17423229Y3113318D01*
X17459551Y3222284D02*
G01*
X17386653Y3222284D01*
X17274639Y3196376D02*
G01*
X17279719Y3206790D01*
X17290133Y3217204D01*
X17300547Y3222284D01*
X17321375Y3222284D01*
X17331789Y3217204D01*
X17341949Y3206790D01*
X17347283Y3196376D01*
X17352363Y3180628D01*
X17352363Y3154720D01*
X17347283Y3139226D01*
X17341949Y3128812D01*
X17331789Y3118398D01*
X17321375Y3113318D01*
X17300547Y3113318D01*
X17290133Y3118398D01*
X17279719Y3128812D01*
X17274639Y3139226D01*
X17274639Y3154720D01*
X17300547Y3154720D02*
G01*
X17274639Y3154720D01*
X17240349Y3222284D02*
G01*
X17240349Y3113318D01*
X17240349Y3222284D02*
G01*
X17193359Y3222284D01*
X17177865Y3217204D01*
X17172785Y3211870D01*
X17167451Y3201456D01*
X17167451Y3191042D01*
X17172785Y3180628D01*
X17177865Y3175548D01*
X17193359Y3170468D01*
X17240349Y3170468D01*
X17203773Y3170468D02*
G01*
X17167451Y3113318D01*
X12508379Y4862281D02*
G01*
X12508379Y4753315D01*
X12508379Y4862281D02*
G01*
X12472057Y4862281D01*
X12456309Y4857201D01*
X12446149Y4846787D01*
X12440815Y4836373D01*
X12435735Y4820625D01*
X12435735Y4794717D01*
X12440815Y4779223D01*
X12446149Y4768809D01*
X12456309Y4758395D01*
X12472057Y4753315D01*
X12508379Y4753315D01*
X12401445Y4716739D02*
G01*
X12307719Y4716739D01*
X12273429Y4862281D02*
G01*
X12273429Y4753315D01*
X12273429Y4862281D02*
G01*
X12226693Y4862281D01*
X12211199Y4857201D01*
X12206119Y4851867D01*
X12200785Y4841453D01*
X12200785Y4831039D01*
X12206119Y4820625D01*
X12211199Y4815545D01*
X12226693Y4810465D01*
X12273429Y4810465D02*
G01*
X12226693Y4810465D01*
X12211199Y4805131D01*
X12206119Y4800051D01*
X12200785Y4789637D01*
X12200785Y4773889D01*
X12206119Y4763475D01*
X12211199Y4758395D01*
X12226693Y4753315D01*
X12273429Y4753315D01*
X24258356Y9817270D02*
G01*
X24258356Y9708304D01*
X24258356Y9817270D02*
G01*
X24222034Y9817270D01*
X24206286Y9812190D01*
X24196126Y9801776D01*
X24190792Y9791362D01*
X24185712Y9775614D01*
X24185712Y9749706D01*
X24190792Y9734212D01*
X24196126Y9723798D01*
X24206286Y9713384D01*
X24222034Y9708304D01*
X24258356Y9708304D01*
X24151422Y9671728D02*
G01*
X24057696Y9671728D01*
X24023406Y9817270D02*
G01*
X24023406Y9708304D01*
X24023406Y9817270D02*
G01*
X23976670Y9817270D01*
X23961176Y9812190D01*
X23956096Y9806856D01*
X23950762Y9796442D01*
X23950762Y9786028D01*
X23956096Y9775614D01*
X23961176Y9770534D01*
X23976670Y9765454D01*
X24023406Y9765454D02*
G01*
X23976670Y9765454D01*
X23961176Y9760120D01*
X23956096Y9755040D01*
X23950762Y9744626D01*
X23950762Y9728878D01*
X23956096Y9718464D01*
X23961176Y9713384D01*
X23976670Y9708304D01*
X24023406Y9708304D01*
X23874816Y9817270D02*
G01*
X23916472Y9708304D01*
X23874816Y9817270D02*
G01*
X23833414Y9708304D01*
X23900978Y9744626D02*
G01*
X23848908Y9744626D01*
X23721146Y9791362D02*
G01*
X23726226Y9801776D01*
X23736640Y9812190D01*
X23747054Y9817270D01*
X23767882Y9817270D01*
X23778296Y9812190D01*
X23788710Y9801776D01*
X23793790Y9791362D01*
X23799124Y9775614D01*
X23799124Y9749706D01*
X23793790Y9734212D01*
X23788710Y9723798D01*
X23778296Y9713384D01*
X23767882Y9708304D01*
X23747054Y9708304D01*
X23736640Y9713384D01*
X23726226Y9723798D01*
X23721146Y9734212D01*
X23686856Y9817270D02*
G01*
X23686856Y9708304D01*
X23614212Y9817270D02*
G01*
X23686856Y9744626D01*
X23660948Y9770534D02*
G01*
X23614212Y9708304D01*
X8908387Y4862281D02*
G01*
X8908387Y4753315D01*
X8908387Y4862281D02*
G01*
X8872065Y4862281D01*
X8856317Y4857201D01*
X8846157Y4846787D01*
X8840823Y4836373D01*
X8835743Y4820625D01*
X8835743Y4794717D01*
X8840823Y4779223D01*
X8846157Y4768809D01*
X8856317Y4758395D01*
X8872065Y4753315D01*
X8908387Y4753315D01*
X8801453Y4716739D02*
G01*
X8707727Y4716739D01*
X8595713Y4836373D02*
G01*
X8600793Y4846787D01*
X8611207Y4857201D01*
X8621621Y4862281D01*
X8642449Y4862281D01*
X8652863Y4857201D01*
X8663277Y4846787D01*
X8668357Y4836373D01*
X8673437Y4820625D01*
X8673437Y4794717D01*
X8668357Y4779223D01*
X8663277Y4768809D01*
X8652863Y4758395D01*
X8642449Y4753315D01*
X8621621Y4753315D01*
X8611207Y4758395D01*
X8600793Y4768809D01*
X8595713Y4779223D01*
X2233401Y6522278D02*
G01*
X2233401Y6413312D01*
X2233401Y6522278D02*
G01*
X2197079Y6522278D01*
X2181331Y6517198D01*
X2171171Y6506784D01*
X2165837Y6496370D01*
X2160757Y6480622D01*
X2160757Y6454714D01*
X2165837Y6439220D01*
X2171171Y6428806D01*
X2181331Y6418392D01*
X2197079Y6413312D01*
X2233401Y6413312D01*
X2126467Y6376736D02*
G01*
X2032741Y6376736D01*
X1920727Y6496370D02*
G01*
X1925807Y6506784D01*
X1936221Y6517198D01*
X1946635Y6522278D01*
X1967463Y6522278D01*
X1977877Y6517198D01*
X1988291Y6506784D01*
X1993371Y6496370D01*
X1998451Y6480622D01*
X1998451Y6454714D01*
X1993371Y6439220D01*
X1988291Y6428806D01*
X1977877Y6418392D01*
X1967463Y6413312D01*
X1946635Y6413312D01*
X1936221Y6418392D01*
X1925807Y6428806D01*
X1920727Y6439220D01*
X1844781Y6522278D02*
G01*
X1886437Y6413312D01*
X1844781Y6522278D02*
G01*
X1803125Y6413312D01*
X1870689Y6449634D02*
G01*
X1818873Y6449634D01*
X1768835Y6522278D02*
G01*
X1768835Y6413312D01*
X1768835Y6522278D02*
G01*
X1722099Y6522278D01*
X1706605Y6517198D01*
X1701271Y6511864D01*
X1696191Y6501450D01*
X1696191Y6485956D01*
X1701271Y6475542D01*
X1706605Y6470462D01*
X1722099Y6465128D01*
X1768835Y6465128D01*
X1589257Y6506784D02*
G01*
X1599671Y6517198D01*
X1615165Y6522278D01*
X1635993Y6522278D01*
X1651487Y6517198D01*
X1661901Y6506784D01*
X1661901Y6496370D01*
X1656821Y6485956D01*
X1651487Y6480622D01*
X1641073Y6475542D01*
X1609831Y6465128D01*
X1599671Y6460048D01*
X1594337Y6454714D01*
X1589257Y6444300D01*
X1589257Y6428806D01*
X1599671Y6418392D01*
X1615165Y6413312D01*
X1635993Y6413312D01*
X1651487Y6418392D01*
X1661901Y6428806D01*
X2233401Y3222284D02*
G01*
X2233401Y3113318D01*
X2233401Y3222284D02*
G01*
X2197079Y3222284D01*
X2181331Y3217204D01*
X2171171Y3206790D01*
X2165837Y3196376D01*
X2160757Y3180628D01*
X2160757Y3154720D01*
X2165837Y3139226D01*
X2171171Y3128812D01*
X2181331Y3118398D01*
X2197079Y3113318D01*
X2233401Y3113318D01*
X2126467Y3076742D02*
G01*
X2032741Y3076742D01*
X1920727Y3196376D02*
G01*
X1925807Y3206790D01*
X1936221Y3217204D01*
X1946635Y3222284D01*
X1967463Y3222284D01*
X1977877Y3217204D01*
X1988291Y3206790D01*
X1993371Y3196376D01*
X1998451Y3180628D01*
X1998451Y3154720D01*
X1993371Y3139226D01*
X1988291Y3128812D01*
X1977877Y3118398D01*
X1967463Y3113318D01*
X1946635Y3113318D01*
X1936221Y3118398D01*
X1925807Y3128812D01*
X1920727Y3139226D01*
X1849861Y3222284D02*
G01*
X1849861Y3113318D01*
X1886437Y3222284D02*
G01*
X1813539Y3222284D01*
X1779249Y3222284D02*
G01*
X1779249Y3113318D01*
X1779249Y3222284D02*
G01*
X1732513Y3222284D01*
X1717019Y3217204D01*
X1711685Y3211870D01*
X1706605Y3201456D01*
X1706605Y3191042D01*
X1711685Y3180628D01*
X1717019Y3175548D01*
X1732513Y3170468D01*
X1779249Y3170468D01*
X1742927Y3170468D02*
G01*
X1706605Y3113318D01*
X1672315Y3222284D02*
G01*
X1672315Y3113318D01*
X1672315Y3113318D02*
G01*
X1609831Y3113318D01*
X19708365Y3222284D02*
G01*
X19708365Y3113318D01*
X19708365Y3222284D02*
G01*
X19672043Y3222284D01*
X19656295Y3217204D01*
X19646135Y3206790D01*
X19640801Y3196376D01*
X19635721Y3180628D01*
X19635721Y3154720D01*
X19640801Y3139226D01*
X19646135Y3128812D01*
X19656295Y3118398D01*
X19672043Y3113318D01*
X19708365Y3113318D01*
X19601431Y3076742D02*
G01*
X19507705Y3076742D01*
X19395691Y3196376D02*
G01*
X19400771Y3206790D01*
X19411185Y3217204D01*
X19421599Y3222284D01*
X19442427Y3222284D01*
X19452841Y3217204D01*
X19463255Y3206790D01*
X19468335Y3196376D01*
X19473415Y3180628D01*
X19473415Y3154720D01*
X19468335Y3139226D01*
X19463255Y3128812D01*
X19452841Y3118398D01*
X19442427Y3113318D01*
X19421599Y3113318D01*
X19411185Y3118398D01*
X19400771Y3128812D01*
X19395691Y3139226D01*
X19324825Y3222284D02*
G01*
X19324825Y3113318D01*
X19361401Y3222284D02*
G01*
X19288503Y3222284D01*
X19254213Y3222284D02*
G01*
X19254213Y3113318D01*
X19254213Y3222284D02*
G01*
X19207477Y3222284D01*
X19191983Y3217204D01*
X19186649Y3211870D01*
X19181569Y3201456D01*
X19181569Y3191042D01*
X19186649Y3180628D01*
X19191983Y3175548D01*
X19207477Y3170468D01*
X19254213Y3170468D01*
X19217891Y3170468D02*
G01*
X19181569Y3113318D01*
X19147279Y3222284D02*
G01*
X19147279Y3113318D01*
X19147279Y3113318D02*
G01*
X19084795Y3113318D01*
X19045425Y3196376D02*
G01*
X19045425Y3201456D01*
X19040345Y3211870D01*
X19035011Y3217204D01*
X19024597Y3222284D01*
X19003769Y3222284D01*
X18993355Y3217204D01*
X18988275Y3211870D01*
X18983195Y3201456D01*
X18983195Y3191042D01*
X18988275Y3180628D01*
X18998689Y3165134D01*
X19050505Y3113318D01*
X18977861Y3113318D01*
X8058388Y6522278D02*
G01*
X8058388Y6413312D01*
X8058388Y6522278D02*
G01*
X8022066Y6522278D01*
X8006318Y6517198D01*
X7996158Y6506784D01*
X7990824Y6496370D01*
X7985744Y6480622D01*
X7985744Y6454714D01*
X7990824Y6439220D01*
X7996158Y6428806D01*
X8006318Y6418392D01*
X8022066Y6413312D01*
X8058388Y6413312D01*
X7951454Y6376736D02*
G01*
X7857728Y6376736D01*
X7823438Y6522278D02*
G01*
X7823438Y6413312D01*
X7823438Y6522278D02*
G01*
X7787116Y6522278D01*
X7771622Y6517198D01*
X7761208Y6506784D01*
X7756128Y6496370D01*
X7750794Y6480622D01*
X7750794Y6454714D01*
X7756128Y6439220D01*
X7761208Y6428806D01*
X7771622Y6418392D01*
X7787116Y6413312D01*
X7823438Y6413312D01*
X23308358Y3222284D02*
G01*
X23308358Y3113318D01*
X23308358Y3222284D02*
G01*
X23272036Y3222284D01*
X23256288Y3217204D01*
X23246128Y3206790D01*
X23240794Y3196376D01*
X23235714Y3180628D01*
X23235714Y3154720D01*
X23240794Y3139226D01*
X23246128Y3128812D01*
X23256288Y3118398D01*
X23272036Y3113318D01*
X23308358Y3113318D01*
X23201424Y3076742D02*
G01*
X23107698Y3076742D01*
X23073408Y3222284D02*
G01*
X23073408Y3113318D01*
X23073408Y3222284D02*
G01*
X23037086Y3222284D01*
X23021592Y3217204D01*
X23011178Y3206790D01*
X23006098Y3196376D01*
X23000764Y3180628D01*
X23000764Y3154720D01*
X23006098Y3139226D01*
X23011178Y3128812D01*
X23021592Y3118398D01*
X23037086Y3113318D01*
X23073408Y3113318D01*
X22935232Y3222284D02*
G01*
X22945646Y3217204D01*
X22956060Y3206790D01*
X22961394Y3196376D01*
X22966474Y3180628D01*
X22966474Y3154720D01*
X22961394Y3139226D01*
X22956060Y3128812D01*
X22945646Y3118398D01*
X22935232Y3113318D01*
X22914658Y3113318D01*
X22904244Y3118398D01*
X22893830Y3128812D01*
X22888496Y3139226D01*
X22883416Y3154720D01*
X22883416Y3180628D01*
X22888496Y3196376D01*
X22893830Y3206790D01*
X22904244Y3217204D01*
X22914658Y3222284D01*
X22935232Y3222284D01*
X22849126Y3222284D02*
G01*
X22823218Y3113318D01*
X22797056Y3222284D02*
G01*
X22823218Y3113318D01*
X22797056Y3222284D02*
G01*
X22771148Y3113318D01*
X22745240Y3222284D02*
G01*
X22771148Y3113318D01*
X22710950Y3222284D02*
G01*
X22710950Y3113318D01*
X22710950Y3222284D02*
G01*
X22638052Y3113318D01*
X22638052Y3222284D02*
G01*
X22638052Y3113318D01*
X7208390Y8162274D02*
G01*
X7208390Y8053308D01*
X7208390Y8162274D02*
G01*
X7172068Y8162274D01*
X7156320Y8157194D01*
X7146160Y8146780D01*
X7140826Y8136366D01*
X7135746Y8120618D01*
X7135746Y8094710D01*
X7140826Y8079216D01*
X7146160Y8068802D01*
X7156320Y8058388D01*
X7172068Y8053308D01*
X7208390Y8053308D01*
X7101456Y8016732D02*
G01*
X7007730Y8016732D01*
X6973440Y8162274D02*
G01*
X6973440Y8053308D01*
X6973440Y8162274D02*
G01*
X6906130Y8162274D01*
X6973440Y8110458D02*
G01*
X6932038Y8110458D01*
X6973440Y8053308D02*
G01*
X6906130Y8053308D01*
X1808401Y9817270D02*
G01*
X1808401Y9708304D01*
X1808401Y9817270D02*
G01*
X1772079Y9817270D01*
X1756331Y9812190D01*
X1746171Y9801776D01*
X1740837Y9791362D01*
X1735757Y9775614D01*
X1735757Y9749706D01*
X1740837Y9734212D01*
X1746171Y9723798D01*
X1756331Y9713384D01*
X1772079Y9708304D01*
X1808401Y9708304D01*
X1701467Y9671728D02*
G01*
X1607741Y9671728D01*
X1573451Y9817270D02*
G01*
X1573451Y9708304D01*
X1573451Y9817270D02*
G01*
X1506141Y9817270D01*
X1573451Y9765456D02*
G01*
X1532049Y9765456D01*
X1573451Y9708304D02*
G01*
X1506141Y9708304D01*
X1398953Y9801776D02*
G01*
X1409367Y9812190D01*
X1424861Y9817270D01*
X1445689Y9817270D01*
X1461437Y9812190D01*
X1471851Y9801776D01*
X1471851Y9791362D01*
X1466517Y9780948D01*
X1461437Y9775614D01*
X1451023Y9770534D01*
X1419781Y9760120D01*
X1409367Y9755040D01*
X1404287Y9749706D01*
X1398953Y9739292D01*
X1398953Y9723798D01*
X1409367Y9713384D01*
X1424861Y9708304D01*
X1445689Y9708304D01*
X1461437Y9713384D01*
X1471851Y9723798D01*
X1286685Y9791362D02*
G01*
X1292019Y9801776D01*
X1302433Y9812190D01*
X1312847Y9817270D01*
X1333421Y9817270D01*
X1343835Y9812190D01*
X1354249Y9801776D01*
X1359583Y9791362D01*
X1364663Y9775614D01*
X1364663Y9749706D01*
X1359583Y9734212D01*
X1354249Y9723798D01*
X1343835Y9713384D01*
X1333421Y9708304D01*
X1312847Y9708304D01*
X1302433Y9713384D01*
X1292019Y9723798D01*
X1286685Y9734212D01*
X9858385Y6522278D02*
G01*
X9858385Y6413312D01*
X9858385Y6522278D02*
G01*
X9822063Y6522278D01*
X9806315Y6517198D01*
X9796155Y6506784D01*
X9790821Y6496370D01*
X9785741Y6480622D01*
X9785741Y6454714D01*
X9790821Y6439220D01*
X9796155Y6428806D01*
X9806315Y6418392D01*
X9822063Y6413312D01*
X9858385Y6413312D01*
X9751451Y6376736D02*
G01*
X9657725Y6376736D01*
X9623435Y6522278D02*
G01*
X9623435Y6413312D01*
X9623435Y6522278D02*
G01*
X9556125Y6522278D01*
X9623435Y6470462D02*
G01*
X9582033Y6470462D01*
X12508379Y3222284D02*
G01*
X12508379Y3113318D01*
X12508379Y3222284D02*
G01*
X12472057Y3222284D01*
X12456309Y3217204D01*
X12446149Y3206790D01*
X12440815Y3196376D01*
X12435735Y3180628D01*
X12435735Y3154720D01*
X12440815Y3139226D01*
X12446149Y3128812D01*
X12456309Y3118398D01*
X12472057Y3113318D01*
X12508379Y3113318D01*
X12401445Y3076742D02*
G01*
X12307719Y3076742D01*
X12273429Y3222284D02*
G01*
X12273429Y3113318D01*
X12273429Y3222284D02*
G01*
X12206119Y3222284D01*
X12273429Y3170468D02*
G01*
X12232027Y3170468D01*
X12171829Y3222284D02*
G01*
X12171829Y3113318D01*
X12171829Y3222284D02*
G01*
X12098931Y3113318D01*
X12098931Y3222284D02*
G01*
X12098931Y3113318D01*
X11658381Y6522278D02*
G01*
X11658381Y6413312D01*
X11658381Y6522278D02*
G01*
X11622059Y6522278D01*
X11606311Y6517198D01*
X11596151Y6506784D01*
X11590817Y6496370D01*
X11585737Y6480622D01*
X11585737Y6454714D01*
X11590817Y6439220D01*
X11596151Y6428806D01*
X11606311Y6418392D01*
X11622059Y6413312D01*
X11658381Y6413312D01*
X11551447Y6376736D02*
G01*
X11457721Y6376736D01*
X11345707Y6496370D02*
G01*
X11350787Y6506784D01*
X11361201Y6517198D01*
X11371615Y6522278D01*
X11392443Y6522278D01*
X11402857Y6517198D01*
X11413271Y6506784D01*
X11418351Y6496370D01*
X11423431Y6480622D01*
X11423431Y6454714D01*
X11418351Y6439220D01*
X11413271Y6428806D01*
X11402857Y6418392D01*
X11392443Y6413312D01*
X11371615Y6413312D01*
X11361201Y6418392D01*
X11350787Y6428806D01*
X11345707Y6439220D01*
X11345707Y6454714D01*
X11371615Y6454714D02*
G01*
X11345707Y6454714D01*
X13458377Y6522278D02*
G01*
X13458377Y6413312D01*
X13458377Y6522278D02*
G01*
X13422055Y6522278D01*
X13406307Y6517198D01*
X13396147Y6506784D01*
X13390813Y6496370D01*
X13385733Y6480622D01*
X13385733Y6454714D01*
X13390813Y6439220D01*
X13396147Y6428806D01*
X13406307Y6418392D01*
X13422055Y6413312D01*
X13458377Y6413312D01*
X13351443Y6376736D02*
G01*
X13257717Y6376736D01*
X13223427Y6522278D02*
G01*
X13223427Y6413312D01*
X13150783Y6522278D02*
G01*
X13150783Y6413312D01*
X13223427Y6470462D02*
G01*
X13150783Y6470462D01*
X16208372Y8162274D02*
G01*
X16208372Y8053308D01*
X16208372Y8162274D02*
G01*
X16172050Y8162274D01*
X16156302Y8157194D01*
X16146142Y8146780D01*
X16140808Y8136366D01*
X16135728Y8120618D01*
X16135728Y8094710D01*
X16140808Y8079216D01*
X16146142Y8068802D01*
X16156302Y8058388D01*
X16172050Y8053308D01*
X16208372Y8053308D01*
X16101438Y8016732D02*
G01*
X16007712Y8016732D01*
X15973422Y8162274D02*
G01*
X15973422Y8053308D01*
X15258374Y6522278D02*
G01*
X15258374Y6413312D01*
X15258374Y6522278D02*
G01*
X15222052Y6522278D01*
X15206304Y6517198D01*
X15196144Y6506784D01*
X15190810Y6496370D01*
X15185730Y6480622D01*
X15185730Y6454714D01*
X15190810Y6439220D01*
X15196144Y6428806D01*
X15206304Y6418392D01*
X15222052Y6413312D01*
X15258374Y6413312D01*
X15151440Y6376736D02*
G01*
X15057714Y6376736D01*
X14971608Y6522278D02*
G01*
X14971608Y6439220D01*
X14976688Y6423472D01*
X14982022Y6418392D01*
X14992436Y6413312D01*
X15002850Y6413312D01*
X15013264Y6418392D01*
X15018344Y6423472D01*
X15023424Y6439220D01*
X15023424Y6449634D01*
X17058370Y6522278D02*
G01*
X17058370Y6413312D01*
X17058370Y6522278D02*
G01*
X17022048Y6522278D01*
X17006300Y6517198D01*
X16996140Y6506784D01*
X16990806Y6496370D01*
X16985726Y6480622D01*
X16985726Y6454714D01*
X16990806Y6439220D01*
X16996140Y6428806D01*
X17006300Y6418392D01*
X17022048Y6413312D01*
X17058370Y6413312D01*
X16951436Y6376736D02*
G01*
X16857710Y6376736D01*
X16823420Y6522278D02*
G01*
X16823420Y6413312D01*
X16750776Y6522278D02*
G01*
X16823420Y6449634D01*
X16797512Y6475542D02*
G01*
X16750776Y6413312D01*
X18858367Y6522278D02*
G01*
X18858367Y6413312D01*
X18858367Y6522278D02*
G01*
X18822045Y6522278D01*
X18806297Y6517198D01*
X18796137Y6506784D01*
X18790803Y6496370D01*
X18785723Y6480622D01*
X18785723Y6454714D01*
X18790803Y6439220D01*
X18796137Y6428806D01*
X18806297Y6418392D01*
X18822045Y6413312D01*
X18858367Y6413312D01*
X18751433Y6376736D02*
G01*
X18657707Y6376736D01*
X18623417Y6522278D02*
G01*
X18623417Y6413312D01*
X18623417Y6413312D02*
G01*
X18561187Y6413312D01*
X21508361Y3222284D02*
G01*
X21508361Y3113318D01*
X21508361Y3222284D02*
G01*
X21472039Y3222284D01*
X21456291Y3217204D01*
X21446131Y3206790D01*
X21440797Y3196376D01*
X21435717Y3180628D01*
X21435717Y3154720D01*
X21440797Y3139226D01*
X21446131Y3128812D01*
X21456291Y3118398D01*
X21472039Y3113318D01*
X21508361Y3113318D01*
X21401427Y3076742D02*
G01*
X21307701Y3076742D01*
X21273411Y3222284D02*
G01*
X21273411Y3113318D01*
X21273411Y3113318D02*
G01*
X21211181Y3113318D01*
X21176891Y3222284D02*
G01*
X21176891Y3113318D01*
X21176891Y3222284D02*
G01*
X21109327Y3222284D01*
X21176891Y3170468D02*
G01*
X21135235Y3170468D01*
X21176891Y3113318D02*
G01*
X21109327Y3113318D01*
X21075037Y3222284D02*
G01*
X21075037Y3113318D01*
X21075037Y3222284D02*
G01*
X21007473Y3222284D01*
X21075037Y3170468D02*
G01*
X21033381Y3170468D01*
X20936861Y3222284D02*
G01*
X20936861Y3113318D01*
X20973183Y3222284D02*
G01*
X20900539Y3222284D01*
X16108372Y4862281D02*
G01*
X16108372Y4753315D01*
X16108372Y4862281D02*
G01*
X16072050Y4862281D01*
X16056302Y4857201D01*
X16046142Y4846787D01*
X16040808Y4836373D01*
X16035728Y4820625D01*
X16035728Y4794717D01*
X16040808Y4779223D01*
X16046142Y4768809D01*
X16056302Y4758395D01*
X16072050Y4753315D01*
X16108372Y4753315D01*
X16001438Y4716739D02*
G01*
X15907712Y4716739D01*
X15873422Y4862281D02*
G01*
X15873422Y4753315D01*
X15873422Y4862281D02*
G01*
X15832020Y4753315D01*
X15790364Y4862281D02*
G01*
X15832020Y4753315D01*
X15790364Y4862281D02*
G01*
X15790364Y4753315D01*
X14308376Y4862281D02*
G01*
X14308376Y4753315D01*
X14308376Y4862281D02*
G01*
X14272054Y4862281D01*
X14256306Y4857201D01*
X14246146Y4846787D01*
X14240812Y4836373D01*
X14235732Y4820625D01*
X14235732Y4794717D01*
X14240812Y4779223D01*
X14246146Y4768809D01*
X14256306Y4758395D01*
X14272054Y4753315D01*
X14308376Y4753315D01*
X14201442Y4716739D02*
G01*
X14107716Y4716739D01*
X14073426Y4862281D02*
G01*
X14073426Y4753315D01*
X14073426Y4862281D02*
G01*
X14000782Y4753315D01*
X14000782Y4862281D02*
G01*
X14000782Y4753315D01*
X18008368Y8162274D02*
G01*
X18008368Y8053308D01*
X18008368Y8162274D02*
G01*
X17972046Y8162274D01*
X17956298Y8157194D01*
X17946138Y8146780D01*
X17940804Y8136366D01*
X17935724Y8120618D01*
X17935724Y8094710D01*
X17940804Y8079216D01*
X17946138Y8068802D01*
X17956298Y8058388D01*
X17972046Y8053308D01*
X18008368Y8053308D01*
X17901434Y8016732D02*
G01*
X17807708Y8016732D01*
X17742430Y8162274D02*
G01*
X17752844Y8157194D01*
X17763258Y8146780D01*
X17768338Y8136366D01*
X17773418Y8120618D01*
X17773418Y8094710D01*
X17768338Y8079216D01*
X17763258Y8068802D01*
X17752844Y8058388D01*
X17742430Y8053308D01*
X17721602Y8053308D01*
X17711188Y8058388D01*
X17700774Y8068802D01*
X17695694Y8079216D01*
X17690360Y8094710D01*
X17690360Y8120618D01*
X17695694Y8136366D01*
X17700774Y8146780D01*
X17711188Y8157194D01*
X17721602Y8162274D01*
X17742430Y8162274D01*
X19808365Y8162274D02*
G01*
X19808365Y8053308D01*
X19808365Y8162274D02*
G01*
X19772043Y8162274D01*
X19756295Y8157194D01*
X19746135Y8146780D01*
X19740801Y8136366D01*
X19735721Y8120618D01*
X19735721Y8094710D01*
X19740801Y8079216D01*
X19746135Y8068802D01*
X19756295Y8058388D01*
X19772043Y8053308D01*
X19808365Y8053308D01*
X19701431Y8016732D02*
G01*
X19607705Y8016732D01*
X19573415Y8162274D02*
G01*
X19573415Y8053308D01*
X19573415Y8162274D02*
G01*
X19526679Y8162274D01*
X19511185Y8157194D01*
X19506105Y8151860D01*
X19500771Y8141446D01*
X19500771Y8125952D01*
X19506105Y8115538D01*
X19511185Y8110458D01*
X19526679Y8105124D01*
X19573415Y8105124D01*
X3608397Y8162274D02*
G01*
X3608397Y8053308D01*
X3608397Y8162274D02*
G01*
X3572075Y8162274D01*
X3556327Y8157194D01*
X3546167Y8146780D01*
X3540833Y8136366D01*
X3535753Y8120618D01*
X3535753Y8094710D01*
X3540833Y8079216D01*
X3546167Y8068802D01*
X3556327Y8058388D01*
X3572075Y8053308D01*
X3608397Y8053308D01*
X3501463Y8016732D02*
G01*
X3407737Y8016732D01*
X3342459Y8162274D02*
G01*
X3352873Y8157194D01*
X3363287Y8146780D01*
X3368367Y8136366D01*
X3373447Y8120618D01*
X3373447Y8094710D01*
X3368367Y8079216D01*
X3363287Y8068802D01*
X3352873Y8058388D01*
X3342459Y8053308D01*
X3321631Y8053308D01*
X3311217Y8058388D01*
X3300803Y8068802D01*
X3295723Y8079216D01*
X3290389Y8094710D01*
X3290389Y8120618D01*
X3295723Y8136366D01*
X3300803Y8146780D01*
X3311217Y8157194D01*
X3321631Y8162274D01*
X3342459Y8162274D01*
X3326711Y8073882D02*
G01*
X3295723Y8042894D01*
X9008386Y8162274D02*
G01*
X9008386Y8053308D01*
X9008386Y8162274D02*
G01*
X8972064Y8162274D01*
X8956316Y8157194D01*
X8946156Y8146780D01*
X8940822Y8136366D01*
X8935742Y8120618D01*
X8935742Y8094710D01*
X8940822Y8079216D01*
X8946156Y8068802D01*
X8956316Y8058388D01*
X8972064Y8053308D01*
X9008386Y8053308D01*
X8901452Y8016732D02*
G01*
X8807726Y8016732D01*
X8773436Y8162274D02*
G01*
X8773436Y8053308D01*
X8773436Y8162274D02*
G01*
X8726700Y8162274D01*
X8711206Y8157194D01*
X8706126Y8151860D01*
X8700792Y8141446D01*
X8700792Y8131032D01*
X8706126Y8120618D01*
X8711206Y8115538D01*
X8726700Y8110458D01*
X8773436Y8110458D01*
X8737114Y8110458D02*
G01*
X8700792Y8053308D01*
X25108354Y3222284D02*
G01*
X25108354Y3113318D01*
X25108354Y3222284D02*
G01*
X25072032Y3222284D01*
X25056284Y3217204D01*
X25046124Y3206790D01*
X25040790Y3196376D01*
X25035710Y3180628D01*
X25035710Y3154720D01*
X25040790Y3139226D01*
X25046124Y3128812D01*
X25056284Y3118398D01*
X25072032Y3113318D01*
X25108354Y3113318D01*
X25001420Y3076742D02*
G01*
X24907694Y3076742D01*
X24873404Y3222284D02*
G01*
X24873404Y3113318D01*
X24873404Y3222284D02*
G01*
X24826668Y3222284D01*
X24811174Y3217204D01*
X24806094Y3211870D01*
X24800760Y3201456D01*
X24800760Y3191042D01*
X24806094Y3180628D01*
X24811174Y3175548D01*
X24826668Y3170468D01*
X24873404Y3170468D01*
X24837082Y3170468D02*
G01*
X24800760Y3113318D01*
X24766470Y3222284D02*
G01*
X24766470Y3113318D01*
X24654202Y3196376D02*
G01*
X24659536Y3206790D01*
X24669950Y3217204D01*
X24680364Y3222284D01*
X24700938Y3222284D01*
X24711352Y3217204D01*
X24721766Y3206790D01*
X24727100Y3196376D01*
X24732180Y3180628D01*
X24732180Y3154720D01*
X24727100Y3139226D01*
X24721766Y3128812D01*
X24711352Y3118398D01*
X24700938Y3113318D01*
X24680364Y3113318D01*
X24669950Y3118398D01*
X24659536Y3128812D01*
X24654202Y3139226D01*
X24654202Y3154720D01*
X24680364Y3154720D02*
G01*
X24654202Y3154720D01*
X24619912Y3222284D02*
G01*
X24619912Y3113318D01*
X24547268Y3222284D02*
G01*
X24547268Y3113318D01*
X24619912Y3170468D02*
G01*
X24547268Y3170468D01*
X24476656Y3222284D02*
G01*
X24476656Y3113318D01*
X24512978Y3222284D02*
G01*
X24440334Y3222284D01*
X6258392Y6522278D02*
G01*
X6258392Y6413312D01*
X6258392Y6522278D02*
G01*
X6222070Y6522278D01*
X6206322Y6517198D01*
X6196162Y6506784D01*
X6190828Y6496370D01*
X6185748Y6480622D01*
X6185748Y6454714D01*
X6190828Y6439220D01*
X6196162Y6428806D01*
X6206322Y6418392D01*
X6222070Y6413312D01*
X6258392Y6413312D01*
X6151458Y6376736D02*
G01*
X6057732Y6376736D01*
X5950798Y6506784D02*
G01*
X5961212Y6517198D01*
X5976706Y6522278D01*
X5997534Y6522278D01*
X6013282Y6517198D01*
X6023442Y6506784D01*
X6023442Y6496370D01*
X6018362Y6485956D01*
X6013282Y6480622D01*
X6002868Y6475542D01*
X5971626Y6465128D01*
X5961212Y6460048D01*
X5956132Y6454714D01*
X5950798Y6444300D01*
X5950798Y6428806D01*
X5961212Y6418392D01*
X5976706Y6413312D01*
X5997534Y6413312D01*
X6013282Y6418392D01*
X6023442Y6428806D01*
X2658399Y4862281D02*
G01*
X2658399Y4753315D01*
X2658399Y4862281D02*
G01*
X2622077Y4862281D01*
X2606329Y4857201D01*
X2596169Y4846787D01*
X2590835Y4836373D01*
X2585755Y4820625D01*
X2585755Y4794717D01*
X2590835Y4779223D01*
X2596169Y4768809D01*
X2606329Y4758395D01*
X2622077Y4753315D01*
X2658399Y4753315D01*
X2551465Y4716739D02*
G01*
X2457739Y4716739D01*
X2350805Y4846787D02*
G01*
X2361219Y4857201D01*
X2376713Y4862281D01*
X2397541Y4862281D01*
X2413289Y4857201D01*
X2423449Y4846787D01*
X2423449Y4836373D01*
X2418369Y4825959D01*
X2413289Y4820625D01*
X2402875Y4815545D01*
X2371633Y4805131D01*
X2361219Y4800051D01*
X2356139Y4794717D01*
X2350805Y4784303D01*
X2350805Y4768809D01*
X2361219Y4758395D01*
X2376713Y4753315D01*
X2397541Y4753315D01*
X2413289Y4758395D01*
X2423449Y4768809D01*
X2316515Y4862281D02*
G01*
X2316515Y4753315D01*
X2243871Y4862281D02*
G01*
X2243871Y4753315D01*
X2316515Y4810465D02*
G01*
X2243871Y4810465D01*
X2209581Y4862281D02*
G01*
X2209581Y4753315D01*
X2175291Y4862281D02*
G01*
X2175291Y4753315D01*
X2175291Y4862281D02*
G01*
X2107727Y4862281D01*
X2175291Y4810465D02*
G01*
X2133635Y4810465D01*
X2037115Y4862281D02*
G01*
X2037115Y4753315D01*
X2073437Y4862281D02*
G01*
X2000539Y4862281D01*
X25108354Y4862281D02*
G01*
X25108354Y4753315D01*
X25108354Y4862281D02*
G01*
X25072032Y4862281D01*
X25056284Y4857201D01*
X25046124Y4846787D01*
X25040790Y4836373D01*
X25035710Y4820625D01*
X25035710Y4794717D01*
X25040790Y4779223D01*
X25046124Y4768809D01*
X25056284Y4758395D01*
X25072032Y4753315D01*
X25108354Y4753315D01*
X25001420Y4716739D02*
G01*
X24907694Y4716739D01*
X24800760Y4846787D02*
G01*
X24811174Y4857201D01*
X24826668Y4862281D01*
X24847496Y4862281D01*
X24863244Y4857201D01*
X24873404Y4846787D01*
X24873404Y4836373D01*
X24868324Y4825959D01*
X24863244Y4820625D01*
X24852830Y4815545D01*
X24821588Y4805131D01*
X24811174Y4800051D01*
X24806094Y4794717D01*
X24800760Y4784303D01*
X24800760Y4768809D01*
X24811174Y4758395D01*
X24826668Y4753315D01*
X24847496Y4753315D01*
X24863244Y4758395D01*
X24873404Y4768809D01*
X24766470Y4862281D02*
G01*
X24766470Y4753315D01*
X24693826Y4862281D02*
G01*
X24693826Y4753315D01*
X24766470Y4810465D02*
G01*
X24693826Y4810465D01*
X24659536Y4862281D02*
G01*
X24659536Y4753315D01*
X24625246Y4862281D02*
G01*
X24625246Y4753315D01*
X24625246Y4862281D02*
G01*
X24557682Y4862281D01*
X24625246Y4810465D02*
G01*
X24583590Y4810465D01*
X24487070Y4862281D02*
G01*
X24487070Y4753315D01*
X24523392Y4862281D02*
G01*
X24450494Y4862281D01*
X24411124Y4836373D02*
G01*
X24411124Y4841453D01*
X24406044Y4851867D01*
X24400710Y4857201D01*
X24390296Y4862281D01*
X24369468Y4862281D01*
X24359054Y4857201D01*
X24353974Y4851867D01*
X24348894Y4841453D01*
X24348894Y4831039D01*
X24353974Y4820625D01*
X24364388Y4805131D01*
X24416204Y4753315D01*
X24343560Y4753315D01*
X9808385Y3222284D02*
G01*
X9808385Y3113318D01*
X9808385Y3222284D02*
G01*
X9772063Y3222284D01*
X9756315Y3217204D01*
X9746155Y3206790D01*
X9740821Y3196376D01*
X9735741Y3180628D01*
X9735741Y3154720D01*
X9740821Y3139226D01*
X9746155Y3128812D01*
X9756315Y3118398D01*
X9772063Y3113318D01*
X9808385Y3113318D01*
X9701451Y3076742D02*
G01*
X9607725Y3076742D01*
X9500791Y3206790D02*
G01*
X9511205Y3217204D01*
X9526699Y3222284D01*
X9547527Y3222284D01*
X9563275Y3217204D01*
X9573435Y3206790D01*
X9573435Y3196376D01*
X9568355Y3185962D01*
X9563275Y3180628D01*
X9552861Y3175548D01*
X9521619Y3165134D01*
X9511205Y3160054D01*
X9506125Y3154720D01*
X9500791Y3144306D01*
X9500791Y3128812D01*
X9511205Y3118398D01*
X9526699Y3113318D01*
X9547527Y3113318D01*
X9563275Y3118398D01*
X9573435Y3128812D01*
X9466501Y3222284D02*
G01*
X9466501Y3113318D01*
X9466501Y3222284D02*
G01*
X9419765Y3222284D01*
X9404271Y3217204D01*
X9398937Y3211870D01*
X9393857Y3201456D01*
X9393857Y3185962D01*
X9398937Y3175548D01*
X9404271Y3170468D01*
X9419765Y3165134D01*
X9466501Y3165134D01*
X9317911Y3222284D02*
G01*
X9359567Y3113318D01*
X9317911Y3222284D02*
G01*
X9276255Y3113318D01*
X9343819Y3149640D02*
G01*
X9292003Y3149640D01*
X9164241Y3196376D02*
G01*
X9169321Y3206790D01*
X9179735Y3217204D01*
X9190149Y3222284D01*
X9210977Y3222284D01*
X9221391Y3217204D01*
X9231805Y3206790D01*
X9236885Y3196376D01*
X9241965Y3180628D01*
X9241965Y3154720D01*
X9236885Y3139226D01*
X9231805Y3128812D01*
X9221391Y3118398D01*
X9210977Y3113318D01*
X9190149Y3113318D01*
X9179735Y3118398D01*
X9169321Y3128812D01*
X9164241Y3139226D01*
X9129951Y3222284D02*
G01*
X9129951Y3113318D01*
X9129951Y3222284D02*
G01*
X9062387Y3222284D01*
X9129951Y3170468D02*
G01*
X9088295Y3170468D01*
X9129951Y3113318D02*
G01*
X9062387Y3113318D01*
X15223004Y3226790D02*
G01*
X15223004Y3117824D01*
X15223004Y3226790D02*
G01*
X15186682Y3226790D01*
X15170934Y3221710D01*
X15160774Y3211296D01*
X15155440Y3200882D01*
X15150360Y3185134D01*
X15150360Y3159226D01*
X15155440Y3143732D01*
X15160774Y3133318D01*
X15170934Y3122904D01*
X15186682Y3117824D01*
X15223004Y3117824D01*
X15116070Y3081248D02*
G01*
X15022344Y3081248D01*
X14915410Y3211296D02*
G01*
X14925824Y3221710D01*
X14941318Y3226790D01*
X14962146Y3226790D01*
X14977894Y3221710D01*
X14988054Y3211296D01*
X14988054Y3200882D01*
X14982974Y3190468D01*
X14977894Y3185134D01*
X14967480Y3180054D01*
X14936238Y3169640D01*
X14925824Y3164560D01*
X14920744Y3159226D01*
X14915410Y3148812D01*
X14915410Y3133318D01*
X14925824Y3122904D01*
X14941318Y3117824D01*
X14962146Y3117824D01*
X14977894Y3122904D01*
X14988054Y3133318D01*
X14881120Y3226790D02*
G01*
X14881120Y3117824D01*
X14881120Y3226790D02*
G01*
X14834384Y3226790D01*
X14818890Y3221710D01*
X14813556Y3216376D01*
X14808476Y3205962D01*
X14808476Y3190468D01*
X14813556Y3180054D01*
X14818890Y3174974D01*
X14834384Y3169640D01*
X14881120Y3169640D01*
X14732530Y3226790D02*
G01*
X14774186Y3117824D01*
X14732530Y3226790D02*
G01*
X14690874Y3117824D01*
X14758438Y3154146D02*
G01*
X14706622Y3154146D01*
X14578860Y3200882D02*
G01*
X14583940Y3211296D01*
X14594354Y3221710D01*
X14604768Y3226790D01*
X14625596Y3226790D01*
X14636010Y3221710D01*
X14646424Y3211296D01*
X14651504Y3200882D01*
X14656584Y3185134D01*
X14656584Y3159226D01*
X14651504Y3143732D01*
X14646424Y3133318D01*
X14636010Y3122904D01*
X14625596Y3117824D01*
X14604768Y3117824D01*
X14594354Y3122904D01*
X14583940Y3133318D01*
X14578860Y3143732D01*
X14544570Y3226790D02*
G01*
X14544570Y3117824D01*
X14544570Y3226790D02*
G01*
X14477006Y3226790D01*
X14544570Y3174974D02*
G01*
X14502914Y3174974D01*
X14544570Y3117824D02*
G01*
X14477006Y3117824D01*
X14437382Y3200882D02*
G01*
X14437382Y3205962D01*
X14432302Y3216376D01*
X14426968Y3221710D01*
X14416554Y3226790D01*
X14395980Y3226790D01*
X14385566Y3221710D01*
X14380232Y3216376D01*
X14375152Y3205962D01*
X14375152Y3195548D01*
X14380232Y3185134D01*
X14390646Y3169640D01*
X14442716Y3117824D01*
X14369818Y3117824D01*
X10808383Y8162274D02*
G01*
X10808383Y8053308D01*
X10808383Y8162274D02*
G01*
X10772061Y8162274D01*
X10756313Y8157194D01*
X10746153Y8146780D01*
X10740819Y8136366D01*
X10735739Y8120618D01*
X10735739Y8094710D01*
X10740819Y8079216D01*
X10746153Y8068802D01*
X10756313Y8058388D01*
X10772061Y8053308D01*
X10808383Y8053308D01*
X10701449Y8016732D02*
G01*
X10607723Y8016732D01*
X10537111Y8162274D02*
G01*
X10537111Y8053308D01*
X10573433Y8162274D02*
G01*
X10500789Y8162274D01*
X1808401Y8162274D02*
G01*
X1808401Y8053308D01*
X1808401Y8162274D02*
G01*
X1772079Y8162274D01*
X1756331Y8157194D01*
X1746171Y8146780D01*
X1740837Y8136366D01*
X1735757Y8120618D01*
X1735757Y8094710D01*
X1740837Y8079216D01*
X1746171Y8068802D01*
X1756331Y8058388D01*
X1772079Y8053308D01*
X1808401Y8053308D01*
X1701467Y8016732D02*
G01*
X1607741Y8016732D01*
X1537129Y8162274D02*
G01*
X1537129Y8053308D01*
X1573451Y8162274D02*
G01*
X1500807Y8162274D01*
X1424861Y8162274D02*
G01*
X1466517Y8053308D01*
X1424861Y8162274D02*
G01*
X1383459Y8053308D01*
X1451023Y8089630D02*
G01*
X1398953Y8089630D01*
X1349169Y8162274D02*
G01*
X1349169Y8053308D01*
X1349169Y8162274D02*
G01*
X1302433Y8162274D01*
X1286685Y8157194D01*
X1281605Y8151860D01*
X1276271Y8141446D01*
X1276271Y8131032D01*
X1281605Y8120618D01*
X1286685Y8115538D01*
X1302433Y8110458D01*
X1349169Y8110458D02*
G01*
X1302433Y8110458D01*
X1286685Y8105124D01*
X1281605Y8100044D01*
X1276271Y8089630D01*
X1276271Y8073882D01*
X1281605Y8063468D01*
X1286685Y8058388D01*
X1302433Y8053308D01*
X1349169Y8053308D01*
X14408376Y8162274D02*
G01*
X14408376Y8053308D01*
X14408376Y8162274D02*
G01*
X14372054Y8162274D01*
X14356306Y8157194D01*
X14346146Y8146780D01*
X14340812Y8136366D01*
X14335732Y8120618D01*
X14335732Y8094710D01*
X14340812Y8079216D01*
X14346146Y8068802D01*
X14356306Y8058388D01*
X14372054Y8053308D01*
X14408376Y8053308D01*
X14301442Y8016732D02*
G01*
X14207716Y8016732D01*
X14173426Y8162274D02*
G01*
X14173426Y8084296D01*
X14168346Y8068802D01*
X14157932Y8058388D01*
X14142438Y8053308D01*
X14132024Y8053308D01*
X14116276Y8058388D01*
X14106116Y8068802D01*
X14100782Y8084296D01*
X14100782Y8162274D01*
X23308358Y4862281D02*
G01*
X23308358Y4753315D01*
X23308358Y4862281D02*
G01*
X23272036Y4862281D01*
X23256288Y4857201D01*
X23246128Y4846787D01*
X23240794Y4836373D01*
X23235714Y4820625D01*
X23235714Y4794717D01*
X23240794Y4779223D01*
X23246128Y4768809D01*
X23256288Y4758395D01*
X23272036Y4753315D01*
X23308358Y4753315D01*
X23201424Y4716739D02*
G01*
X23107698Y4716739D01*
X23073408Y4862281D02*
G01*
X23073408Y4784303D01*
X23068328Y4768809D01*
X23057914Y4758395D01*
X23042420Y4753315D01*
X23032006Y4753315D01*
X23016258Y4758395D01*
X23006098Y4768809D01*
X23000764Y4784303D01*
X23000764Y4862281D01*
X22966474Y4862281D02*
G01*
X22966474Y4753315D01*
X22966474Y4862281D02*
G01*
X22919738Y4862281D01*
X22904244Y4857201D01*
X22898910Y4851867D01*
X22893830Y4841453D01*
X22893830Y4825959D01*
X22898910Y4815545D01*
X22904244Y4810465D01*
X22919738Y4805131D01*
X22966474Y4805131D01*
X10708383Y4862281D02*
G01*
X10708383Y4753315D01*
X10708383Y4862281D02*
G01*
X10672061Y4862281D01*
X10656313Y4857201D01*
X10646153Y4846787D01*
X10640819Y4836373D01*
X10635739Y4820625D01*
X10635739Y4794717D01*
X10640819Y4779223D01*
X10646153Y4768809D01*
X10656313Y4758395D01*
X10672061Y4753315D01*
X10708383Y4753315D01*
X10601449Y4716739D02*
G01*
X10507723Y4716739D01*
X10473433Y4862281D02*
G01*
X10432031Y4753315D01*
X10390375Y4862281D02*
G01*
X10432031Y4753315D01*
X5408394Y8162274D02*
G01*
X5408394Y8053308D01*
X5408394Y8162274D02*
G01*
X5372072Y8162274D01*
X5356324Y8157194D01*
X5346164Y8146780D01*
X5340830Y8136366D01*
X5335750Y8120618D01*
X5335750Y8094710D01*
X5340830Y8079216D01*
X5346164Y8068802D01*
X5356324Y8058388D01*
X5372072Y8053308D01*
X5408394Y8053308D01*
X5301460Y8016732D02*
G01*
X5207734Y8016732D01*
X5173444Y8162274D02*
G01*
X5147536Y8053308D01*
X5121628Y8162274D02*
G01*
X5147536Y8053308D01*
X5121628Y8162274D02*
G01*
X5095720Y8053308D01*
X5069558Y8162274D02*
G01*
X5095720Y8053308D01*
X4458395Y3222284D02*
G01*
X4458395Y3113318D01*
X4458395Y3222284D02*
G01*
X4422073Y3222284D01*
X4406325Y3217204D01*
X4396165Y3206790D01*
X4390831Y3196376D01*
X4385751Y3180628D01*
X4385751Y3154720D01*
X4390831Y3139226D01*
X4396165Y3128812D01*
X4406325Y3118398D01*
X4422073Y3113318D01*
X4458395Y3113318D01*
X4351461Y3076742D02*
G01*
X4257735Y3076742D01*
X4223445Y3222284D02*
G01*
X4197537Y3113318D01*
X4171629Y3222284D02*
G01*
X4197537Y3113318D01*
X4171629Y3222284D02*
G01*
X4145721Y3113318D01*
X4119559Y3222284D02*
G01*
X4145721Y3113318D01*
X4085269Y3222284D02*
G01*
X4085269Y3113318D01*
X4050979Y3222284D02*
G01*
X4050979Y3113318D01*
X4050979Y3222284D02*
G01*
X3978335Y3113318D01*
X3978335Y3222284D02*
G01*
X3978335Y3113318D01*
X7108390Y4862281D02*
G01*
X7108390Y4753315D01*
X7108390Y4862281D02*
G01*
X7072068Y4862281D01*
X7056320Y4857201D01*
X7046160Y4846787D01*
X7040826Y4836373D01*
X7035746Y4820625D01*
X7035746Y4794717D01*
X7040826Y4779223D01*
X7046160Y4768809D01*
X7056320Y4758395D01*
X7072068Y4753315D01*
X7108390Y4753315D01*
X7001456Y4716739D02*
G01*
X6907730Y4716739D01*
X6873440Y4862281D02*
G01*
X6800796Y4753315D01*
X6800796Y4862281D02*
G01*
X6873440Y4753315D01*
X5308394Y4862281D02*
G01*
X5308394Y4753315D01*
X5308394Y4862281D02*
G01*
X5272072Y4862281D01*
X5256324Y4857201D01*
X5246164Y4846787D01*
X5240830Y4836373D01*
X5235750Y4820625D01*
X5235750Y4794717D01*
X5240830Y4779223D01*
X5246164Y4768809D01*
X5256324Y4758395D01*
X5272072Y4753315D01*
X5308394Y4753315D01*
X5201460Y4716739D02*
G01*
X5107734Y4716739D01*
X5073444Y4862281D02*
G01*
X5032042Y4810465D01*
X5032042Y4753315D01*
X4990386Y4862281D02*
G01*
X5032042Y4810465D01*
X12608379Y8162274D02*
G01*
X12608379Y8053308D01*
X12608379Y8162274D02*
G01*
X12572057Y8162274D01*
X12556309Y8157194D01*
X12546149Y8146780D01*
X12540815Y8136366D01*
X12535735Y8120618D01*
X12535735Y8094710D01*
X12540815Y8079216D01*
X12546149Y8068802D01*
X12556309Y8058388D01*
X12572057Y8053308D01*
X12608379Y8053308D01*
X12501445Y8016732D02*
G01*
X12407719Y8016732D01*
X12300785Y8162274D02*
G01*
X12373429Y8053308D01*
X12373429Y8162274D02*
G01*
X12300785Y8162274D01*
X12373429Y8053308D02*
G01*
X12300785Y8053308D01*
X25208354Y8162274D02*
G01*
X25208354Y8053308D01*
X25208354Y8162274D02*
G01*
X25172032Y8162274D01*
X25156284Y8157194D01*
X25146124Y8146780D01*
X25140790Y8136366D01*
X25135710Y8120618D01*
X25135710Y8094710D01*
X25140790Y8079216D01*
X25146124Y8068802D01*
X25156284Y8058388D01*
X25172032Y8053308D01*
X25208354Y8053308D01*
X25101420Y8016732D02*
G01*
X25007694Y8016732D01*
X24973404Y8162274D02*
G01*
X24900760Y8037560D01*
X21608361Y8162274D02*
G01*
X21608361Y8053308D01*
X21608361Y8162274D02*
G01*
X21572039Y8162274D01*
X21556291Y8157194D01*
X21546131Y8146780D01*
X21540797Y8136366D01*
X21535717Y8120618D01*
X21535717Y8094710D01*
X21540797Y8079216D01*
X21546131Y8068802D01*
X21556291Y8058388D01*
X21572039Y8053308D01*
X21608361Y8053308D01*
X21501427Y8016732D02*
G01*
X21407701Y8016732D01*
X21347503Y8183102D02*
G01*
X21357917Y8177768D01*
X21363251Y8172688D01*
X21368331Y8162274D01*
X21368331Y8151860D01*
X21363251Y8141446D01*
X21357917Y8136366D01*
X21352837Y8125952D01*
X21352837Y8115538D01*
X21363251Y8105124D01*
X21357917Y8177768D02*
G01*
X21363251Y8167608D01*
X21363251Y8157194D01*
X21357917Y8146780D01*
X21352837Y8141446D01*
X21347503Y8131032D01*
X21347503Y8120618D01*
X21352837Y8110458D01*
X21373411Y8100044D01*
X21352837Y8089630D01*
X21347503Y8079216D01*
X21347503Y8068802D01*
X21352837Y8058388D01*
X21357917Y8053308D01*
X21363251Y8042894D01*
X21363251Y8032480D01*
X21357917Y8022066D01*
X21363251Y8094710D02*
G01*
X21352837Y8084296D01*
X21352837Y8073882D01*
X21357917Y8063468D01*
X21363251Y8058388D01*
X21368331Y8047974D01*
X21368331Y8037560D01*
X21363251Y8027146D01*
X21357917Y8022066D01*
X21347503Y8016732D01*
X23408358Y8162274D02*
G01*
X23408358Y8053308D01*
X23408358Y8162274D02*
G01*
X23372036Y8162274D01*
X23356288Y8157194D01*
X23346128Y8146780D01*
X23340794Y8136366D01*
X23335714Y8120618D01*
X23335714Y8094710D01*
X23340794Y8079216D01*
X23346128Y8068802D01*
X23356288Y8058388D01*
X23372036Y8053308D01*
X23408358Y8053308D01*
X23301424Y8016732D02*
G01*
X23207698Y8016732D01*
X23173408Y8183102D02*
G01*
X23163248Y8177768D01*
X23157914Y8172688D01*
X23152834Y8162274D01*
X23152834Y8151860D01*
X23157914Y8141446D01*
X23163248Y8136366D01*
X23168328Y8125952D01*
X23168328Y8115538D01*
X23157914Y8105124D01*
X23163248Y8177768D02*
G01*
X23157914Y8167608D01*
X23157914Y8157194D01*
X23163248Y8146780D01*
X23168328Y8141446D01*
X23173408Y8131032D01*
X23173408Y8120618D01*
X23168328Y8110458D01*
X23147500Y8100044D01*
X23168328Y8089630D01*
X23173408Y8079216D01*
X23173408Y8068802D01*
X23168328Y8058388D01*
X23163248Y8053308D01*
X23157914Y8042894D01*
X23157914Y8032480D01*
X23163248Y8022066D01*
X23157914Y8094710D02*
G01*
X23168328Y8084296D01*
X23168328Y8073882D01*
X23163248Y8063468D01*
X23157914Y8058388D01*
X23152834Y8047974D01*
X23152834Y8037560D01*
X23157914Y8027146D01*
X23163248Y8022066D01*
X23173408Y8016732D01*
D20*
X27654953Y9821636D02*
G01*
X27654953Y9745263D01*
X27680411Y9821636D02*
G01*
X27629497Y9821636D01*
X27605494Y9821636D02*
G01*
X27554577Y9745263D01*
X27554577Y9821636D02*
G01*
X27605494Y9745263D01*
X27508753Y9821636D02*
G01*
X27519665Y9818001D01*
X27526937Y9807089D01*
X27530574Y9788905D01*
X27530574Y9777996D01*
X27526937Y9759810D01*
X27519665Y9748901D01*
X27508753Y9745263D01*
X27501481Y9745263D01*
X27490569Y9748901D01*
X27483295Y9759810D01*
X27479660Y9777996D01*
X27479660Y9788905D01*
X27483295Y9807089D01*
X27490569Y9818001D01*
X27501481Y9821636D01*
X27508753Y9821636D01*
X28677108Y7281636D02*
G01*
X28677108Y7205263D01*
X28677108Y7281636D02*
G01*
X28644377Y7281636D01*
X28633465Y7278001D01*
X28629828Y7274364D01*
X28626193Y7267089D01*
X28626193Y7259815D01*
X28629828Y7252543D01*
X28633465Y7248905D01*
X28644377Y7245268D01*
X28677108Y7245268D02*
G01*
X28644377Y7245268D01*
X28633465Y7241631D01*
X28629828Y7237996D01*
X28626193Y7230722D01*
X28626193Y7219810D01*
X28629828Y7212538D01*
X28633465Y7208901D01*
X28644377Y7205263D01*
X28677108Y7205263D01*
X28598553Y7263452D02*
G01*
X28598553Y7267089D01*
X28594916Y7274364D01*
X28591278Y7278001D01*
X28584004Y7281636D01*
X28569457Y7281636D01*
X28562185Y7278001D01*
X28558548Y7274364D01*
X28554911Y7267089D01*
X28554911Y7259815D01*
X28558548Y7252543D01*
X28565820Y7241631D01*
X28602190Y7205263D01*
X28551273Y7205263D01*
X28677108Y8043636D02*
G01*
X28677108Y7967263D01*
X28677108Y8043636D02*
G01*
X28629828Y8043636D01*
X28677108Y8007268D02*
G01*
X28648012Y8007268D01*
X28554911Y8043636D02*
G01*
X28591278Y7967263D01*
X28605825Y8043636D02*
G01*
X28554911Y8043636D01*
X28677108Y8297636D02*
G01*
X28677108Y8221263D01*
X28677108Y8297636D02*
G01*
X28629828Y8297636D01*
X28677108Y8261268D02*
G01*
X28648012Y8261268D01*
X28562185Y8286727D02*
G01*
X28565820Y8294001D01*
X28576732Y8297636D01*
X28584004Y8297636D01*
X28594916Y8294001D01*
X28602190Y8283089D01*
X28605825Y8264905D01*
X28605825Y8246722D01*
X28602190Y8232175D01*
X28594916Y8224901D01*
X28584004Y8221263D01*
X28580369Y8221263D01*
X28569457Y8224901D01*
X28562185Y8232175D01*
X28558548Y8243084D01*
X28558548Y8246722D01*
X28562185Y8257631D01*
X28569457Y8264905D01*
X28580369Y8268543D01*
X28584004Y8268543D01*
X28594916Y8264905D01*
X28602190Y8257631D01*
X28605825Y8246722D01*
X28677108Y8551636D02*
G01*
X28677108Y8475263D01*
X28677108Y8551636D02*
G01*
X28629828Y8551636D01*
X28677108Y8515268D02*
G01*
X28648012Y8515268D01*
X28562185Y8551636D02*
G01*
X28598553Y8551636D01*
X28602190Y8518905D01*
X28598553Y8522543D01*
X28587641Y8526180D01*
X28576732Y8526180D01*
X28565820Y8522543D01*
X28558548Y8515268D01*
X28554911Y8504359D01*
X28554911Y8497084D01*
X28558548Y8486175D01*
X28565820Y8478901D01*
X28576732Y8475263D01*
X28587641Y8475263D01*
X28598553Y8478901D01*
X28602190Y8482538D01*
X28605825Y8489810D01*
X28709086Y9821636D02*
G01*
X28709086Y9745263D01*
X28709086Y9821636D02*
G01*
X28676356Y9821636D01*
X28665444Y9818001D01*
X28661807Y9814364D01*
X28658172Y9807089D01*
X28658172Y9799815D01*
X28661807Y9792543D01*
X28665444Y9788905D01*
X28676356Y9785268D01*
X28709086Y9785268D01*
X28683628Y9785268D02*
G01*
X28658172Y9745263D01*
X28605073Y9821636D02*
G01*
X28634169Y9745263D01*
X28605073Y9821636D02*
G01*
X28575977Y9745263D01*
X28623257Y9770722D02*
G01*
X28586889Y9770722D01*
X28551974Y9821636D02*
G01*
X28533791Y9745263D01*
X28515607Y9821636D02*
G01*
X28533791Y9745263D01*
X28515607Y9821636D02*
G01*
X28497423Y9745263D01*
X28479239Y9821636D02*
G01*
X28497423Y9745263D01*
X28654535Y9549452D02*
G01*
X28658172Y9556727D01*
X28665444Y9564001D01*
X28672718Y9567636D01*
X28687265Y9567636D01*
X28694540Y9564001D01*
X28701812Y9556727D01*
X28705449Y9549452D01*
X28709086Y9538543D01*
X28709086Y9520359D01*
X28705449Y9509447D01*
X28701812Y9502175D01*
X28694540Y9494901D01*
X28687265Y9491263D01*
X28672718Y9491263D01*
X28665444Y9494901D01*
X28658172Y9502175D01*
X28654535Y9509447D01*
X28654535Y9520359D01*
X28672718Y9520359D02*
G01*
X28654535Y9520359D01*
X28630532Y9567636D02*
G01*
X28630532Y9491263D01*
X28630532Y9567636D02*
G01*
X28579615Y9491263D01*
X28579615Y9567636D02*
G01*
X28579615Y9491263D01*
X28555612Y9567636D02*
G01*
X28555612Y9491263D01*
X28555612Y9567636D02*
G01*
X28530156Y9567636D01*
X28519244Y9564001D01*
X28511969Y9556727D01*
X28508335Y9549452D01*
X28504697Y9538543D01*
X28504697Y9520359D01*
X28508335Y9509447D01*
X28511969Y9502175D01*
X28519244Y9494901D01*
X28530156Y9491263D01*
X28555612Y9491263D01*
X28709086Y9313636D02*
G01*
X28709086Y9237263D01*
X28709086Y9313636D02*
G01*
X28676356Y9313636D01*
X28665444Y9310001D01*
X28661807Y9306364D01*
X28658172Y9299089D01*
X28658172Y9291815D01*
X28661807Y9284543D01*
X28665444Y9280905D01*
X28676356Y9277268D01*
X28709086Y9277268D01*
X28683628Y9277268D02*
G01*
X28658172Y9237263D01*
X28583252Y9302727D02*
G01*
X28590527Y9310001D01*
X28601436Y9313636D01*
X28615982Y9313636D01*
X28626894Y9310001D01*
X28634169Y9302727D01*
X28634169Y9295452D01*
X28630532Y9288180D01*
X28626894Y9284543D01*
X28619620Y9280905D01*
X28597799Y9273631D01*
X28590527Y9269996D01*
X28586889Y9266359D01*
X28583252Y9259084D01*
X28583252Y9248175D01*
X28590527Y9240901D01*
X28601436Y9237263D01*
X28615982Y9237263D01*
X28626894Y9240901D01*
X28634169Y9248175D01*
X28533791Y9313636D02*
G01*
X28533791Y9237263D01*
X28559249Y9313636D02*
G01*
X28508335Y9313636D01*
X28709086Y9059636D02*
G01*
X28679990Y8983263D01*
X28650897Y9059636D02*
G01*
X28679990Y8983263D01*
X28572343Y9041452D02*
G01*
X28575977Y9048727D01*
X28583252Y9056001D01*
X28590527Y9059636D01*
X28605073Y9059636D01*
X28612348Y9056001D01*
X28619620Y9048727D01*
X28623257Y9041452D01*
X28626894Y9030543D01*
X28626894Y9012359D01*
X28623257Y9001447D01*
X28619620Y8994175D01*
X28612348Y8986901D01*
X28605073Y8983263D01*
X28590527Y8983263D01*
X28583252Y8986901D01*
X28575977Y8994175D01*
X28572343Y9001447D01*
X28493786Y9041452D02*
G01*
X28497423Y9048727D01*
X28504697Y9056001D01*
X28511969Y9059636D01*
X28526519Y9059636D01*
X28533791Y9056001D01*
X28541065Y9048727D01*
X28544702Y9041452D01*
X28548340Y9030543D01*
X28548340Y9012359D01*
X28544702Y9001447D01*
X28541065Y8994175D01*
X28533791Y8986901D01*
X28526519Y8983263D01*
X28511969Y8983263D01*
X28504697Y8986901D01*
X28497423Y8994175D01*
X28493786Y9001447D01*
X28677108Y8805636D02*
G01*
X28677108Y8729263D01*
X28677108Y8805636D02*
G01*
X28629828Y8805636D01*
X28677108Y8769268D02*
G01*
X28648012Y8769268D01*
X28569457Y8805636D02*
G01*
X28605825Y8754722D01*
X28551273Y8754722D01*
X28569457Y8805636D02*
G01*
X28569457Y8729263D01*
X28677108Y7789636D02*
G01*
X28677108Y7713263D01*
X28677108Y7789636D02*
G01*
X28644377Y7789636D01*
X28633465Y7786001D01*
X28629828Y7782364D01*
X28626193Y7775089D01*
X28626193Y7767815D01*
X28629828Y7760543D01*
X28633465Y7756905D01*
X28644377Y7753268D01*
X28677108Y7753268D02*
G01*
X28644377Y7753268D01*
X28633465Y7749631D01*
X28629828Y7745996D01*
X28626193Y7738722D01*
X28626193Y7727810D01*
X28629828Y7720538D01*
X28633465Y7716901D01*
X28644377Y7713263D01*
X28677108Y7713263D01*
X28602190Y7775089D02*
G01*
X28594916Y7778727D01*
X28584004Y7789636D01*
X28584004Y7713263D01*
X28677108Y7535636D02*
G01*
X28677108Y7459263D01*
X28677108Y7535636D02*
G01*
X28644377Y7535636D01*
X28633465Y7532001D01*
X28629828Y7528364D01*
X28626193Y7521089D01*
X28626193Y7513815D01*
X28629828Y7506543D01*
X28633465Y7502905D01*
X28644377Y7499268D01*
X28677108Y7499268D02*
G01*
X28644377Y7499268D01*
X28633465Y7495631D01*
X28629828Y7491996D01*
X28626193Y7484722D01*
X28626193Y7473810D01*
X28629828Y7466538D01*
X28633465Y7462901D01*
X28644377Y7459263D01*
X28677108Y7459263D01*
X28594916Y7535636D02*
G01*
X28554911Y7535636D01*
X28576732Y7506543D01*
X28565820Y7506543D01*
X28558548Y7502905D01*
X28554911Y7499268D01*
X28551273Y7488359D01*
X28551273Y7481084D01*
X28554911Y7470175D01*
X28562185Y7462901D01*
X28573095Y7459263D01*
X28584004Y7459263D01*
X28594916Y7462901D01*
X28598553Y7466538D01*
X28602190Y7473810D01*
X28677108Y7027636D02*
G01*
X28677108Y6951263D01*
X28677108Y7027636D02*
G01*
X28644377Y7027636D01*
X28633465Y7024001D01*
X28629828Y7020364D01*
X28626193Y7013089D01*
X28626193Y7005815D01*
X28629828Y6998543D01*
X28633465Y6994905D01*
X28644377Y6991268D01*
X28677108Y6991268D02*
G01*
X28644377Y6991268D01*
X28633465Y6987631D01*
X28629828Y6983996D01*
X28626193Y6976722D01*
X28626193Y6965810D01*
X28629828Y6958538D01*
X28633465Y6954901D01*
X28644377Y6951263D01*
X28677108Y6951263D01*
X28558548Y7016727D02*
G01*
X28562185Y7024001D01*
X28573095Y7027636D01*
X28580369Y7027636D01*
X28591278Y7024001D01*
X28598553Y7013089D01*
X28602190Y6994905D01*
X28602190Y6976722D01*
X28598553Y6962175D01*
X28591278Y6954901D01*
X28580369Y6951263D01*
X28576732Y6951263D01*
X28565820Y6954901D01*
X28558548Y6962175D01*
X28554911Y6973084D01*
X28554911Y6976722D01*
X28558548Y6987631D01*
X28565820Y6994905D01*
X28576732Y6998543D01*
X28580369Y6998543D01*
X28591278Y6994905D01*
X28598553Y6987631D01*
X28602190Y6976722D01*
X27584908Y7027636D02*
G01*
X27584908Y6951263D01*
X27584908Y7027636D02*
G01*
X27552177Y7027636D01*
X27541265Y7024001D01*
X27537628Y7020364D01*
X27533993Y7013089D01*
X27533993Y7005815D01*
X27537628Y6998543D01*
X27541265Y6994905D01*
X27552177Y6991268D01*
X27584908Y6991268D02*
G01*
X27552177Y6991268D01*
X27541265Y6987631D01*
X27537628Y6983996D01*
X27533993Y6976722D01*
X27533993Y6965810D01*
X27537628Y6958538D01*
X27541265Y6954901D01*
X27552177Y6951263D01*
X27584908Y6951263D01*
X27466348Y7027636D02*
G01*
X27502716Y7027636D01*
X27506353Y6994905D01*
X27502716Y6998543D01*
X27491804Y7002180D01*
X27480895Y7002180D01*
X27469985Y6998543D01*
X27462711Y6991268D01*
X27459073Y6980359D01*
X27459073Y6973084D01*
X27462711Y6962175D01*
X27469985Y6954901D01*
X27480895Y6951263D01*
X27491804Y6951263D01*
X27502716Y6954901D01*
X27506353Y6958538D01*
X27509990Y6965810D01*
X27584908Y7281636D02*
G01*
X27584908Y7205263D01*
X27584908Y7281636D02*
G01*
X27552177Y7281636D01*
X27541265Y7278001D01*
X27537628Y7274364D01*
X27533993Y7267089D01*
X27533993Y7259815D01*
X27537628Y7252543D01*
X27541265Y7248905D01*
X27552177Y7245268D01*
X27584908Y7245268D02*
G01*
X27552177Y7245268D01*
X27541265Y7241631D01*
X27537628Y7237996D01*
X27533993Y7230722D01*
X27533993Y7219810D01*
X27537628Y7212538D01*
X27541265Y7208901D01*
X27552177Y7205263D01*
X27584908Y7205263D01*
X27473620Y7281636D02*
G01*
X27509990Y7230722D01*
X27455436Y7230722D01*
X27473620Y7281636D02*
G01*
X27473620Y7205263D01*
X27584908Y7535636D02*
G01*
X27584908Y7459263D01*
X27584908Y7535636D02*
G01*
X27537628Y7535636D01*
X27584908Y7499268D02*
G01*
X27555812Y7499268D01*
X27584908Y7459263D02*
G01*
X27537628Y7459263D01*
X27469985Y7524727D02*
G01*
X27473620Y7532001D01*
X27484532Y7535636D01*
X27491804Y7535636D01*
X27502716Y7532001D01*
X27509990Y7521089D01*
X27513625Y7502905D01*
X27513625Y7484722D01*
X27509990Y7470175D01*
X27502716Y7462901D01*
X27491804Y7459263D01*
X27488169Y7459263D01*
X27477257Y7462901D01*
X27469985Y7470175D01*
X27466348Y7481084D01*
X27466348Y7484722D01*
X27469985Y7495631D01*
X27477257Y7502905D01*
X27488169Y7506543D01*
X27491804Y7506543D01*
X27502716Y7502905D01*
X27509990Y7495631D01*
X27513625Y7484722D01*
X27584908Y7789636D02*
G01*
X27584908Y7713263D01*
X27584908Y7789636D02*
G01*
X27559449Y7789636D01*
X27548540Y7786001D01*
X27541265Y7778727D01*
X27537628Y7771452D01*
X27533993Y7760543D01*
X27533993Y7742359D01*
X27537628Y7731447D01*
X27541265Y7724175D01*
X27548540Y7716901D01*
X27559449Y7713263D01*
X27584908Y7713263D01*
X27459073Y7789636D02*
G01*
X27495441Y7713263D01*
X27509990Y7789636D02*
G01*
X27459073Y7789636D01*
X27530356Y8025452D02*
G01*
X27533993Y8032727D01*
X27541265Y8040001D01*
X27548540Y8043636D01*
X27563086Y8043636D01*
X27570361Y8040001D01*
X27577633Y8032727D01*
X27581270Y8025452D01*
X27584908Y8014543D01*
X27584908Y7996359D01*
X27581270Y7985447D01*
X27577633Y7978175D01*
X27570361Y7970901D01*
X27563086Y7967263D01*
X27548540Y7967263D01*
X27541265Y7970901D01*
X27533993Y7978175D01*
X27530356Y7985447D01*
X27462711Y8032727D02*
G01*
X27466348Y8040001D01*
X27477257Y8043636D01*
X27484532Y8043636D01*
X27495441Y8040001D01*
X27502716Y8029089D01*
X27506353Y8010905D01*
X27506353Y7992722D01*
X27502716Y7978175D01*
X27495441Y7970901D01*
X27484532Y7967263D01*
X27480895Y7967263D01*
X27469985Y7970901D01*
X27462711Y7978175D01*
X27459073Y7989084D01*
X27459073Y7992722D01*
X27462711Y8003631D01*
X27469985Y8010905D01*
X27480895Y8014543D01*
X27484532Y8014543D01*
X27495441Y8010905D01*
X27502716Y8003631D01*
X27506353Y7992722D01*
X27584908Y8297636D02*
G01*
X27584908Y8221263D01*
X27584908Y8297636D02*
G01*
X27559449Y8297636D01*
X27548540Y8294001D01*
X27541265Y8286727D01*
X27537628Y8279452D01*
X27533993Y8268543D01*
X27533993Y8250359D01*
X27537628Y8239447D01*
X27541265Y8232175D01*
X27548540Y8224901D01*
X27559449Y8221263D01*
X27584908Y8221263D01*
X27473620Y8297636D02*
G01*
X27509990Y8246722D01*
X27455436Y8246722D01*
X27473620Y8297636D02*
G01*
X27473620Y8221263D01*
X27562360Y9295452D02*
G01*
X27565997Y9302727D01*
X27573269Y9310001D01*
X27580544Y9313636D01*
X27595090Y9313636D01*
X27602365Y9310001D01*
X27609637Y9302727D01*
X27613274Y9295452D01*
X27616911Y9284543D01*
X27616911Y9266359D01*
X27613274Y9255447D01*
X27609637Y9248175D01*
X27602365Y9240901D01*
X27595090Y9237263D01*
X27580544Y9237263D01*
X27573269Y9240901D01*
X27565997Y9248175D01*
X27562360Y9255447D01*
X27562360Y9266359D01*
X27580544Y9266359D02*
G01*
X27562360Y9266359D01*
X27538357Y9313636D02*
G01*
X27538357Y9237263D01*
X27538357Y9313636D02*
G01*
X27487440Y9237263D01*
X27487440Y9313636D02*
G01*
X27487440Y9237263D01*
X27463437Y9313636D02*
G01*
X27463437Y9237263D01*
X27463437Y9313636D02*
G01*
X27437981Y9313636D01*
X27427069Y9310001D01*
X27419795Y9302727D01*
X27416160Y9295452D01*
X27412523Y9284543D01*
X27412523Y9266359D01*
X27416160Y9255447D01*
X27419795Y9248175D01*
X27427069Y9240901D01*
X27437981Y9237263D01*
X27463437Y9237263D01*
X27562360Y9041452D02*
G01*
X27565997Y9048727D01*
X27573269Y9056001D01*
X27580544Y9059636D01*
X27595090Y9059636D01*
X27602365Y9056001D01*
X27609637Y9048727D01*
X27613274Y9041452D01*
X27616911Y9030543D01*
X27616911Y9012359D01*
X27613274Y9001447D01*
X27609637Y8994175D01*
X27602365Y8986901D01*
X27595090Y8983263D01*
X27580544Y8983263D01*
X27573269Y8986901D01*
X27565997Y8994175D01*
X27562360Y9001447D01*
X27562360Y9012359D01*
X27580544Y9012359D02*
G01*
X27562360Y9012359D01*
X27538357Y9059636D02*
G01*
X27538357Y8983263D01*
X27538357Y9059636D02*
G01*
X27487440Y8983263D01*
X27487440Y9059636D02*
G01*
X27487440Y8983263D01*
X27463437Y9059636D02*
G01*
X27463437Y8983263D01*
X27463437Y9059636D02*
G01*
X27437981Y9059636D01*
X27427069Y9056001D01*
X27419795Y9048727D01*
X27416160Y9041452D01*
X27412523Y9030543D01*
X27412523Y9012359D01*
X27416160Y9001447D01*
X27419795Y8994175D01*
X27427069Y8986901D01*
X27437981Y8983263D01*
X27463437Y8983263D01*
X27584908Y8805636D02*
G01*
X27584908Y8729263D01*
X27584908Y8805636D02*
G01*
X27559449Y8805636D01*
X27548540Y8802001D01*
X27541265Y8794727D01*
X27537628Y8787452D01*
X27533993Y8776543D01*
X27533993Y8758359D01*
X27537628Y8747447D01*
X27541265Y8740175D01*
X27548540Y8732901D01*
X27559449Y8729263D01*
X27584908Y8729263D01*
X27509990Y8791089D02*
G01*
X27502716Y8794727D01*
X27491804Y8805636D01*
X27491804Y8729263D01*
X27584908Y8551636D02*
G01*
X27584908Y8475263D01*
X27584908Y8551636D02*
G01*
X27559449Y8551636D01*
X27548540Y8548001D01*
X27541265Y8540727D01*
X27537628Y8533452D01*
X27533993Y8522543D01*
X27533993Y8504359D01*
X27537628Y8493447D01*
X27541265Y8486175D01*
X27548540Y8478901D01*
X27559449Y8475263D01*
X27584908Y8475263D01*
X27488169Y8551636D02*
G01*
X27499078Y8548001D01*
X27506353Y8537089D01*
X27509990Y8518905D01*
X27509990Y8507996D01*
X27506353Y8489810D01*
X27499078Y8478901D01*
X27488169Y8475263D01*
X27480895Y8475263D01*
X27469985Y8478901D01*
X27462711Y8489810D01*
X27459073Y8507996D01*
X27459073Y8518905D01*
X27462711Y8537089D01*
X27469985Y8548001D01*
X27480895Y8551636D01*
X27488169Y8551636D01*
X27584908Y9567636D02*
G01*
X27584908Y9491263D01*
X27584908Y9567636D02*
G01*
X27559449Y9567636D01*
X27548540Y9564001D01*
X27541265Y9556727D01*
X27537628Y9549452D01*
X27533993Y9538543D01*
X27533993Y9520359D01*
X27537628Y9509447D01*
X27541265Y9502175D01*
X27548540Y9494901D01*
X27559449Y9491263D01*
X27584908Y9491263D01*
X27506353Y9549452D02*
G01*
X27506353Y9553089D01*
X27502716Y9560364D01*
X27499078Y9564001D01*
X27491804Y9567636D01*
X27477257Y9567636D01*
X27469985Y9564001D01*
X27466348Y9560364D01*
X27462711Y9553089D01*
X27462711Y9545815D01*
X27466348Y9538543D01*
X27473620Y9527631D01*
X27509990Y9491263D01*
X27459073Y9491263D01*
D10*
X24814951Y6189987D02*
G01*
X24534952Y6189987D01*
X24814951Y6369987D02*
G01*
X24534952Y6369987D01*
X24724951Y6369987D02*
G01*
X24724951Y6189987D01*
X19939960Y9484979D02*
G01*
X19659960Y9484979D01*
X19939960Y9664979D02*
G01*
X19659960Y9664979D01*
X19849960Y9664979D02*
G01*
X19849960Y9484979D01*
X3739992Y9484979D02*
G01*
X3459993Y9484979D01*
X3739992Y9664979D02*
G01*
X3459993Y9664979D01*
X3649992Y9664979D02*
G01*
X3649992Y9484979D01*
X5539991Y9484979D02*
G01*
X5259989Y9484979D01*
X5539991Y9664979D02*
G01*
X5259989Y9664979D01*
X5449989Y9664979D02*
G01*
X5449989Y9484979D01*
X7339985Y9484979D02*
G01*
X7059985Y9484979D01*
X7339985Y9664979D02*
G01*
X7059985Y9664979D01*
X7249985Y9664979D02*
G01*
X7249985Y9484979D01*
X9139981Y9484979D02*
G01*
X8859982Y9484979D01*
X9139981Y9664979D02*
G01*
X8859982Y9664979D01*
X9049981Y9664979D02*
G01*
X9049981Y9484979D01*
X10939978Y9484979D02*
G01*
X10659978Y9484979D01*
X10939978Y9664979D02*
G01*
X10659978Y9664979D01*
X10849978Y9664979D02*
G01*
X10849978Y9484979D01*
X12739974Y9484979D02*
G01*
X12459975Y9484979D01*
X12739974Y9664979D02*
G01*
X12459975Y9664979D01*
X12649974Y9664979D02*
G01*
X12649974Y9484979D01*
X14539970Y9484979D02*
G01*
X14259971Y9484979D01*
X14539970Y9664979D02*
G01*
X14259971Y9664979D01*
X14449971Y9664979D02*
G01*
X14449971Y9484979D01*
X16339967Y9484979D02*
G01*
X16059967Y9484979D01*
X16339967Y9664979D02*
G01*
X16059967Y9664979D01*
X16249967Y9664979D02*
G01*
X16249967Y9484979D01*
X18139963Y9484979D02*
G01*
X17859964Y9484979D01*
X18139963Y9664979D02*
G01*
X17859964Y9664979D01*
X18049963Y9664979D02*
G01*
X18049963Y9484979D01*
X22589954Y6189987D02*
G01*
X22309955Y6189987D01*
X22589954Y6369987D02*
G01*
X22309955Y6369987D01*
X22499954Y6369987D02*
G01*
X22499954Y6189987D01*
X18039963Y4529990D02*
G01*
X17759964Y4529990D01*
X18039963Y4709990D02*
G01*
X17759964Y4709990D01*
X17949964Y4709990D02*
G01*
X17949964Y4529990D01*
X21739956Y9484979D02*
G01*
X21459957Y9484979D01*
X21739956Y9664979D02*
G01*
X21459957Y9664979D01*
X21649956Y9664979D02*
G01*
X21649956Y9484979D01*
X19839960Y4529990D02*
G01*
X19559960Y4529990D01*
X19839960Y4709990D02*
G01*
X19559960Y4709990D01*
X19749960Y4709990D02*
G01*
X19749960Y4529990D01*
X21639956Y4529990D02*
G01*
X21359957Y4529990D01*
X21639956Y4709990D02*
G01*
X21359957Y4709990D01*
X21549956Y4709990D02*
G01*
X21549956Y4529990D01*
X20789958Y6189987D02*
G01*
X20509958Y6189987D01*
X20789958Y6369987D02*
G01*
X20509958Y6369987D01*
X20699958Y6369987D02*
G01*
X20699958Y6189987D01*
X4589990Y6189987D02*
G01*
X4309991Y6189987D01*
X4589990Y6369987D02*
G01*
X4309991Y6369987D01*
X4499990Y6369987D02*
G01*
X4499990Y6189987D01*
X6819999Y2889999D02*
G01*
X6539999Y2889999D01*
X6819999Y3069998D02*
G01*
X6539999Y3069998D01*
X6729999Y3069998D02*
G01*
X6729999Y2889999D01*
X18039963Y2889994D02*
G01*
X17759964Y2889994D01*
X18039963Y3069993D02*
G01*
X17759964Y3069993D01*
X17949964Y3069993D02*
G01*
X17949964Y2889994D01*
X12639974Y4529990D02*
G01*
X12359975Y4529990D01*
X12639974Y4709990D02*
G01*
X12359975Y4709990D01*
X12549974Y4709990D02*
G01*
X12549974Y4529990D01*
X24389951Y9484979D02*
G01*
X24109951Y9484979D01*
X24389951Y9664979D02*
G01*
X24109951Y9664979D01*
X24299951Y9664979D02*
G01*
X24299951Y9484979D01*
X9039981Y4529990D02*
G01*
X8759982Y4529990D01*
X9039981Y4709990D02*
G01*
X8759982Y4709990D01*
X8949982Y4709990D02*
G01*
X8949982Y4529990D01*
X2364996Y6189987D02*
G01*
X2084997Y6189987D01*
X2364996Y6369987D02*
G01*
X2084997Y6369987D01*
X2274996Y6369987D02*
G01*
X2274996Y6189987D01*
X2364996Y2889994D02*
G01*
X2084997Y2889994D01*
X2364996Y3069993D02*
G01*
X2084997Y3069993D01*
X2274996Y3069993D02*
G01*
X2274996Y2889994D01*
X19839960Y2889994D02*
G01*
X19559960Y2889994D01*
X19839960Y3069993D02*
G01*
X19559960Y3069993D01*
X19749960Y3069993D02*
G01*
X19749960Y2889994D01*
X8189983Y6189987D02*
G01*
X7909984Y6189987D01*
X8189983Y6369987D02*
G01*
X7909984Y6369987D01*
X8099983Y6369987D02*
G01*
X8099983Y6189987D01*
X23439953Y2889994D02*
G01*
X23159953Y2889994D01*
X23439953Y3069993D02*
G01*
X23159953Y3069993D01*
X23349953Y3069993D02*
G01*
X23349953Y2889994D01*
X7339985Y7829984D02*
G01*
X7059985Y7829984D01*
X7339985Y8009983D02*
G01*
X7059985Y8009983D01*
X7249985Y8009983D02*
G01*
X7249985Y7829984D01*
X1939996Y9484979D02*
G01*
X1659996Y9484979D01*
X1939996Y9664979D02*
G01*
X1659996Y9664979D01*
X1849996Y9664979D02*
G01*
X1849996Y9484979D01*
X9989980Y6189987D02*
G01*
X9709980Y6189987D01*
X9989980Y6369987D02*
G01*
X9709980Y6369987D01*
X9899980Y6369987D02*
G01*
X9899980Y6189987D01*
X12639974Y2889994D02*
G01*
X12359975Y2889994D01*
X12639974Y3069993D02*
G01*
X12359975Y3069993D01*
X12549974Y3069993D02*
G01*
X12549974Y2889994D01*
X11789976Y6189987D02*
G01*
X11509976Y6189987D01*
X11789976Y6369987D02*
G01*
X11509976Y6369987D01*
X11699976Y6369987D02*
G01*
X11699976Y6189987D01*
X13589972Y6189987D02*
G01*
X13309973Y6189987D01*
X13589972Y6369987D02*
G01*
X13309973Y6369987D01*
X13499972Y6369987D02*
G01*
X13499972Y6189987D01*
X16339967Y7829984D02*
G01*
X16059967Y7829984D01*
X16339967Y8009983D02*
G01*
X16059967Y8009983D01*
X16249967Y8009983D02*
G01*
X16249967Y7829984D01*
X15389969Y6189987D02*
G01*
X15109969Y6189987D01*
X15389969Y6369987D02*
G01*
X15109969Y6369987D01*
X15299969Y6369987D02*
G01*
X15299969Y6189987D01*
X17189965Y6189987D02*
G01*
X16909966Y6189987D01*
X17189965Y6369987D02*
G01*
X16909966Y6369987D01*
X17099965Y6369987D02*
G01*
X17099965Y6189987D01*
X18989962Y6189987D02*
G01*
X18709962Y6189987D01*
X18989962Y6369987D02*
G01*
X18709962Y6369987D01*
X18899962Y6369987D02*
G01*
X18899962Y6189987D01*
X21639956Y2889994D02*
G01*
X21359957Y2889994D01*
X21639956Y3069993D02*
G01*
X21359957Y3069993D01*
X21549956Y3069993D02*
G01*
X21549956Y2889994D01*
X16239967Y4529990D02*
G01*
X15959968Y4529990D01*
X16239967Y4709990D02*
G01*
X15959968Y4709990D01*
X16149967Y4709990D02*
G01*
X16149967Y4529990D01*
X14439971Y4529990D02*
G01*
X14159971Y4529990D01*
X14439971Y4709990D02*
G01*
X14159971Y4709990D01*
X14349971Y4709990D02*
G01*
X14349971Y4529990D01*
X18139963Y7829984D02*
G01*
X17859964Y7829984D01*
X18139963Y8009983D02*
G01*
X17859964Y8009983D01*
X18049963Y8009983D02*
G01*
X18049963Y7829984D01*
X19939960Y7829984D02*
G01*
X19659960Y7829984D01*
X19939960Y8009983D02*
G01*
X19659960Y8009983D01*
X19849960Y8009983D02*
G01*
X19849960Y7829984D01*
X3739992Y7829984D02*
G01*
X3459993Y7829984D01*
X3739992Y8009983D02*
G01*
X3459993Y8009983D01*
X3649992Y8009983D02*
G01*
X3649992Y7829984D01*
X9139981Y7829984D02*
G01*
X8859982Y7829984D01*
X9139981Y8009983D02*
G01*
X8859982Y8009983D01*
X9049981Y8009983D02*
G01*
X9049981Y7829984D01*
X25239949Y2889994D02*
G01*
X24959950Y2889994D01*
X25239949Y3069993D02*
G01*
X24959950Y3069993D01*
X25149949Y3069993D02*
G01*
X25149949Y2889994D01*
X6389987Y6189987D02*
G01*
X6109987Y6189987D01*
X6389987Y6369987D02*
G01*
X6109987Y6369987D01*
X6299987Y6369987D02*
G01*
X6299987Y6189987D01*
X2789994Y4529990D02*
G01*
X2509994Y4529990D01*
X2789994Y4709990D02*
G01*
X2509994Y4709990D01*
X2699994Y4709990D02*
G01*
X2699994Y4529990D01*
X25239949Y4529990D02*
G01*
X24959950Y4529990D01*
X25239949Y4709990D02*
G01*
X24959950Y4709990D01*
X25149949Y4709990D02*
G01*
X25149949Y4529990D01*
X9939980Y2889994D02*
G01*
X9659980Y2889994D01*
X9939980Y3069993D02*
G01*
X9659980Y3069993D01*
X9849980Y3069993D02*
G01*
X9849980Y2889994D01*
X15354599Y2894500D02*
G01*
X15074600Y2894500D01*
X15354599Y3074499D02*
G01*
X15074600Y3074499D01*
X15264599Y3074499D02*
G01*
X15264599Y2894500D01*
X10939978Y7829984D02*
G01*
X10659978Y7829984D01*
X10939978Y8009983D02*
G01*
X10659978Y8009983D01*
X10849978Y8009983D02*
G01*
X10849978Y7829984D01*
X1939996Y7829984D02*
G01*
X1659996Y7829984D01*
X1939996Y8009983D02*
G01*
X1659996Y8009983D01*
X1849996Y8009983D02*
G01*
X1849996Y7829984D01*
X14539970Y7829984D02*
G01*
X14259971Y7829984D01*
X14539970Y8009983D02*
G01*
X14259971Y8009983D01*
X14449971Y8009983D02*
G01*
X14449971Y7829984D01*
X23439953Y4529990D02*
G01*
X23159953Y4529990D01*
X23439953Y4709990D02*
G01*
X23159953Y4709990D01*
X23349953Y4709990D02*
G01*
X23349953Y4529990D01*
X10839978Y4529990D02*
G01*
X10559978Y4529990D01*
X10839978Y4709990D02*
G01*
X10559978Y4709990D01*
X10749978Y4709990D02*
G01*
X10749978Y4529990D01*
X5539988Y7829984D02*
G01*
X5259989Y7829984D01*
X5539988Y8009983D02*
G01*
X5259989Y8009983D01*
X5449989Y8009983D02*
G01*
X5449989Y7829984D01*
X4589990Y2889994D02*
G01*
X4309991Y2889994D01*
X4589990Y3069993D02*
G01*
X4309991Y3069993D01*
X4499990Y3069993D02*
G01*
X4499990Y2889994D01*
X7239985Y4529990D02*
G01*
X6959986Y4529990D01*
X7239985Y4709990D02*
G01*
X6959986Y4709990D01*
X7149985Y4709990D02*
G01*
X7149985Y4529990D01*
X5439989Y4529990D02*
G01*
X5159989Y4529990D01*
X5439989Y4709990D02*
G01*
X5159989Y4709990D01*
X5349989Y4709990D02*
G01*
X5349989Y4529990D01*
X12739974Y7829984D02*
G01*
X12459975Y7829984D01*
X12739974Y8009983D02*
G01*
X12459975Y8009983D01*
X12649974Y8009983D02*
G01*
X12649974Y7829984D01*
X25339949Y7829984D02*
G01*
X25059949Y7829984D01*
X25339949Y8009983D02*
G01*
X25059949Y8009983D01*
X25249949Y8009983D02*
G01*
X25249949Y7829984D01*
X21739956Y7829984D02*
G01*
X21459957Y7829984D01*
X21739956Y8009983D02*
G01*
X21459957Y8009983D01*
X21649956Y8009983D02*
G01*
X21649956Y7829984D01*
X23539952Y7829984D02*
G01*
X23259953Y7829984D01*
X23539952Y8009983D02*
G01*
X23259953Y8009983D01*
X23449953Y8009983D02*
G01*
X23449953Y7829984D01*
X26619200Y5486400D02*
G01*
X29133800Y5486400D01*
X29133800Y3962400D01*
X26619200Y3962400D01*
X26619200Y5486400D01*
X26619200Y5486400D02*
G01*
X29133800Y5486400D01*
X29133800Y4216400D01*
X26619200Y4216400D01*
X26619200Y4216400D02*
G01*
X26619200Y5486400D01*
D20*
X28740100Y4216400D02*
G01*
X29121100Y4216400D01*
X29121100Y3962400D01*
X28740100Y3962400D01*
X28740100Y4216400D01*
D19*
X29133800Y3454400D02*
G01*
X28765500Y3454400D01*
X26606500Y6045200D02*
G01*
X29127450Y6045200D01*
X29133800Y6045200D02*
G01*
X29133800Y3454400D01*
X26987500Y3454400D02*
G01*
X26612850Y3454400D01*
X26606500Y3454400D02*
G01*
X26606500Y6045200D01*
D20*
X26606982Y4218378D02*
G01*
X26987982Y4218378D01*
X26987982Y3964378D01*
X26606982Y3964378D01*
X26606982Y4218378D01*
X27495982Y4218378D02*
G01*
X28257982Y4218378D01*
D19*
X28511728Y3709393D02*
G01*
X27241728Y3709393D01*
D20*
X28638754Y3540404D02*
G01*
X27111733Y3540404D01*
X27114754Y3963393D01*
X28638754Y3963393D01*
X28637738Y3539385D01*
D21*
X27432000Y9867900D02*
G01*
X27432000Y9613900D01*
X27178000Y9613900D01*
D19*
G75*
G01*
X28511759Y3709368D02*
G02*
X28765734Y3455393I7716J-246259D01*
G75*
G01*
X26987757Y3455368D02*
G02*
X27241734Y3709342I246259J7715D01*
G75*
G01*
X27368983Y4091386D02*
G02*
X27490979Y4218386I95028J30811D01*
G75*
G01*
X27495983Y3964386D02*
G02*
X27368955Y4091361I-28079J98938D01*
G75*
G01*
X28384983Y4091386D02*
G02*
X28258005Y3964361I-98938J-28077D01*
G75*
G01*
X28257983Y4218386D02*
G02*
X28385005Y4091412I28073J-98939D01*
D10*
G75*
G01
X26984960Y5842000D02*
G03X26984960Y5842000I-175260J0D01*
G75*
G01
X29105860Y5842000D02*
G03X29105860Y5842000I-175260J0D01*
G75*
G01
X29105860Y3708400D02*
G03X29105860Y3708400I-175260J0D01*
G75*
G01
X26959560Y3708400D02*
G03X26959560Y3708400I-175260J0D01*
M02*
