G04 Layer: TopSolderMaskLayer*
G04 EasyEDA v6.5.1, 2022-08-22 11:36:35*
G04 479a10040a424d6084b7507f6101f796,d603b60474844c32a05bd641800ef4e1,10*
G04 Gerber Generator version 0.2*
G04 Scale: 100 percent, Rotated: No, Reflected: No *
G04 Dimensions in millimeters *
G04 leading zeros omitted , absolute positions ,4 integer and 5 decimal *
%FSLAX45Y45*%
%MOMM*%

%ADD22C,1.9812*%
%ADD23C,2.1336*%
%ADD25C,1.8542*%

%LPD*%
D22*
X27495500Y5806300D02*
G01*
X27495500Y5928499D01*
X27749500Y5806300D02*
G01*
X27749500Y5928499D01*
X28003500Y5806300D02*
G01*
X28003500Y5928499D01*
X28257500Y5806300D02*
G01*
X28257500Y5928499D01*
D23*
G01*
X19799960Y8509990D03*
G01*
X19299961Y8719972D03*
G01*
X20299959Y8719972D03*
G01*
X3599992Y8509990D03*
G01*
X3099993Y8719972D03*
G01*
X4099991Y8719972D03*
G01*
X5399989Y8509990D03*
G01*
X4899990Y8719972D03*
G01*
X5899988Y8719972D03*
G01*
X7199985Y8509990D03*
G01*
X6699986Y8719972D03*
G01*
X7699984Y8719972D03*
G01*
X8999981Y8509990D03*
G01*
X8499983Y8719972D03*
G01*
X9499981Y8719972D03*
G01*
X12599974Y8509990D03*
G01*
X12099975Y8719972D03*
G01*
X13099973Y8719972D03*
G01*
X14399971Y8509990D03*
G01*
X13899972Y8719972D03*
G01*
X14899970Y8719972D03*
G01*
X16199967Y8509990D03*
G01*
X15699968Y8719972D03*
G01*
X16699966Y8719972D03*
G01*
X17999963Y8509990D03*
G01*
X17499965Y8719972D03*
G01*
X18499963Y8719972D03*
G01*
X22449967Y5209997D03*
G01*
X21949968Y5419979D03*
G01*
X22949966Y5419979D03*
G01*
X17899964Y3559987D03*
G01*
X17399965Y3769969D03*
G01*
X18399963Y3769969D03*
G01*
X21599956Y8509990D03*
G01*
X21099957Y8719972D03*
G01*
X22099955Y8719972D03*
G01*
X19699960Y3559987D03*
G01*
X19199961Y3769969D03*
G01*
X20199959Y3769969D03*
G01*
X21499956Y3559987D03*
G01*
X20999958Y3769969D03*
G01*
X21999956Y3769969D03*
G01*
X20649971Y5209997D03*
G01*
X20149972Y5419979D03*
G01*
X21149970Y5419979D03*
G01*
X4450003Y5209997D03*
G01*
X3949979Y5419979D03*
G01*
X4950002Y5419979D03*
G01*
X6675018Y1910003D03*
G01*
X6175019Y2119985D03*
G01*
X7175017Y2119985D03*
G01*
X17899964Y1910003D03*
G01*
X17399965Y2119985D03*
G01*
X18399963Y2119985D03*
G01*
X12499975Y3559987D03*
G01*
X11999975Y3769969D03*
G01*
X12999974Y3769969D03*
G01*
X24249964Y8509990D03*
G01*
X23749965Y8719972D03*
G01*
X24749963Y8719972D03*
G01*
X8899982Y3559987D03*
G01*
X8399983Y3769969D03*
G01*
X9399981Y3769969D03*
G01*
X2224989Y5209997D03*
G01*
X1724990Y5419979D03*
G01*
X2724988Y5419979D03*
G01*
X2224989Y1910003D03*
G01*
X1724990Y2119985D03*
G01*
X2724988Y2119985D03*
G01*
X19699960Y1910003D03*
G01*
X19199961Y2119985D03*
G01*
X20199959Y2119985D03*
G01*
X8049996Y5209997D03*
G01*
X7549997Y5419979D03*
G01*
X8549995Y5419979D03*
G01*
X23299953Y1910003D03*
G01*
X22799954Y2119985D03*
G01*
X23799952Y2119985D03*
G01*
X7199985Y6859981D03*
G01*
X6699986Y7069962D03*
G01*
X7699984Y7069962D03*
G01*
X24674956Y5209997D03*
G01*
X24174958Y5419979D03*
G01*
X25174956Y5419979D03*
G01*
X1799996Y8509990D03*
G01*
X1299997Y8719972D03*
G01*
X2299995Y8719972D03*
G01*
X9849993Y5209997D03*
G01*
X9349993Y5419979D03*
G01*
X10349991Y5419979D03*
G01*
X12499975Y1910003D03*
G01*
X11999975Y2119985D03*
G01*
X12999974Y2119985D03*
G01*
X11649989Y5209997D03*
G01*
X11149990Y5419979D03*
G01*
X12149988Y5419979D03*
G01*
X13449985Y5209997D03*
G01*
X12949986Y5419979D03*
G01*
X13949984Y5419979D03*
G01*
X16199967Y6859981D03*
G01*
X15699968Y7069962D03*
G01*
X16699966Y7069962D03*
G01*
X15249982Y5209997D03*
G01*
X14749983Y5419979D03*
G01*
X15749981Y5419979D03*
G01*
X17049978Y5209997D03*
G01*
X16549979Y5419979D03*
G01*
X17549977Y5419979D03*
G01*
X18849975Y5209997D03*
G01*
X18349975Y5419979D03*
G01*
X19349974Y5419979D03*
G01*
X21499956Y1910003D03*
G01*
X20999958Y2119985D03*
G01*
X21999956Y2119985D03*
G01*
X16099967Y3559987D03*
G01*
X15599968Y3769969D03*
G01*
X16599966Y3769969D03*
G01*
X14299971Y3559987D03*
G01*
X13799972Y3769969D03*
G01*
X14799970Y3769969D03*
G01*
X17999963Y6859981D03*
G01*
X17499965Y7069962D03*
G01*
X18499963Y7069962D03*
G01*
X19799960Y6859981D03*
G01*
X19299961Y7069962D03*
G01*
X20299959Y7069962D03*
G01*
X3599992Y6859981D03*
G01*
X3099993Y7069962D03*
G01*
X4099991Y7069962D03*
G01*
X8999981Y6859981D03*
G01*
X8499983Y7069962D03*
G01*
X9499981Y7069962D03*
G01*
X25099949Y1910003D03*
G01*
X24599950Y2119985D03*
G01*
X25599948Y2119985D03*
G01*
X6250000Y5209997D03*
G01*
X5750001Y5419979D03*
G01*
X6749999Y5419979D03*
G01*
X2650007Y3559987D03*
G01*
X2149983Y3769969D03*
G01*
X3150006Y3769969D03*
G01*
X25099949Y3559987D03*
G01*
X24599950Y3769969D03*
G01*
X25599948Y3769969D03*
G01*
X9799980Y1910003D03*
G01*
X9299981Y2119985D03*
G01*
X10299979Y2119985D03*
G01*
X15199969Y1910003D03*
G01*
X14699970Y2119985D03*
G01*
X15699968Y2119985D03*
G01*
X10799978Y6859981D03*
G01*
X10299979Y7069962D03*
G01*
X11299977Y7069962D03*
G01*
X1799996Y6859981D03*
G01*
X1299997Y7069962D03*
G01*
X2299995Y7069962D03*
G01*
X14399971Y6859981D03*
G01*
X13899972Y7069962D03*
G01*
X14899970Y7069962D03*
G01*
X23299953Y3559987D03*
G01*
X22799954Y3769969D03*
G01*
X23799952Y3769969D03*
G01*
X10699978Y3559987D03*
G01*
X10199979Y3769969D03*
G01*
X11199977Y3769969D03*
G01*
X5399989Y6859981D03*
G01*
X4899990Y7069962D03*
G01*
X5899988Y7069962D03*
G01*
X4450003Y1910003D03*
G01*
X3949979Y2119985D03*
G01*
X4950002Y2119985D03*
G01*
X7099985Y3559987D03*
G01*
X6599986Y3769969D03*
G01*
X7599984Y3769969D03*
G01*
X5299989Y3559987D03*
G01*
X4799990Y3769969D03*
G01*
X5799988Y3769969D03*
G01*
X12599974Y6859981D03*
G01*
X12099975Y7069962D03*
G01*
X13099973Y7069962D03*
G01*
X25199949Y6859981D03*
G01*
X24699950Y7069962D03*
G01*
X25699948Y7069962D03*
G01*
X21599956Y6859981D03*
G01*
X21099957Y7069962D03*
G01*
X22099955Y7069962D03*
G01*
X23399953Y6859981D03*
G01*
X22899954Y7069962D03*
G01*
X23899952Y7069962D03*
G36*
X29196029Y9459468D02*
G01*
X29196029Y9549637D01*
X29376370Y9549637D01*
X29376370Y9459468D01*
G37*
G36*
X29196029Y9119362D02*
G01*
X29196029Y9209531D01*
X29376370Y9209531D01*
X29376370Y9119362D01*
G37*
G01*
X10799978Y8509990D03*
G01*
X10299979Y8719972D03*
G01*
X11299977Y8719972D03*
D25*
G01*
X28829000Y9740900D03*
G01*
X27305000Y6946900D03*
G01*
X28829000Y9486900D03*
G01*
X28829000Y9232900D03*
G01*
X28829000Y8978900D03*
G01*
X28829000Y8724900D03*
G01*
X28829000Y8470900D03*
G01*
X28829000Y8216900D03*
G01*
X28829000Y7962900D03*
G01*
X28829000Y7708900D03*
G01*
X28829000Y7454900D03*
G01*
X28829000Y7200900D03*
G01*
X28829000Y6946900D03*
G01*
X27305000Y7200900D03*
G01*
X27305000Y7454900D03*
G01*
X27305000Y7708900D03*
G01*
X27305000Y7962900D03*
G01*
X27305000Y8216900D03*
G01*
X27305000Y8470900D03*
G01*
X27305000Y8724900D03*
G01*
X27305000Y8978900D03*
G01*
X27305000Y9232900D03*
G01*
X27305000Y9486900D03*
G36*
X27212290Y9648189D02*
G01*
X27212290Y9833610D01*
X27397709Y9833610D01*
X27397709Y9648189D01*
G37*
M02*
