G04 Layer: TopSilkscreenLayer*
G04 EasyEDA v6.5.1, 2022-08-22 11:36:35*
G04 479a10040a424d6084b7507f6101f796,d603b60474844c32a05bd641800ef4e1,10*
G04 Gerber Generator version 0.2*
G04 Scale: 100 percent, Rotated: No, Reflected: No *
G04 Dimensions in millimeters *
G04 leading zeros omitted , absolute positions ,4 integer and 5 decimal *
%FSLAX45Y45*%
%MOMM*%

%ADD10C,0.2540*%
%ADD19C,0.1524*%
%ADD20C,0.1501*%
%ADD21C,0.3810*%

%LPD*%
G36*
X27168246Y3183026D02*
G01*
X27115770Y3182213D01*
X26904797Y2993034D01*
X26806448Y2903982D01*
X26725626Y2831439D01*
X26618539Y2735732D01*
X26515060Y2642870D01*
X26441806Y2576372D01*
X26423213Y2559050D01*
X26396594Y2532430D01*
X26396594Y2485339D01*
X26433627Y2442210D01*
X26517549Y2432761D01*
X26605331Y2423972D01*
X26791970Y2406142D01*
X26867815Y2398471D01*
X26927860Y2391664D01*
X26954276Y2388209D01*
X26967840Y2386076D01*
X26971853Y2385263D01*
X26973784Y2384602D01*
X26982623Y2379167D01*
X26783487Y2104186D01*
X26659586Y1932178D01*
X26659586Y1903069D01*
X26693672Y1859737D01*
X26735176Y1859737D01*
X27212848Y2286762D01*
X27321510Y2384145D01*
X27404923Y2459888D01*
X27431593Y2484577D01*
X27445360Y2497886D01*
X27456841Y2512212D01*
X27456688Y2540914D01*
X27456180Y2546299D01*
X27454301Y2557322D01*
X27451507Y2567533D01*
X27449881Y2572004D01*
X27448103Y2575763D01*
X27439416Y2592019D01*
X27418131Y2600045D01*
X27412950Y2601264D01*
X27395932Y2604211D01*
X27371294Y2607614D01*
X27340712Y2611374D01*
X27305609Y2615184D01*
X27267712Y2618943D01*
X27187398Y2626309D01*
X27111756Y2633522D01*
X27043227Y2640330D01*
X26983842Y2646527D01*
X26935430Y2651912D01*
X26900022Y2656281D01*
X26879550Y2659380D01*
X26875181Y2660599D01*
X26875384Y2661615D01*
X26878838Y2667762D01*
X26886001Y2678938D01*
X26899615Y2699207D01*
X26930603Y2743911D01*
X26970380Y2800096D01*
X27123593Y3013100D01*
X27193849Y3111754D01*
X27193849Y3146501D01*
G37*
G36*
X28139034Y2773426D02*
G01*
X28139034Y2592222D01*
X28153766Y2583129D01*
X28158744Y2596083D01*
X28159710Y2599334D01*
X28160675Y2603652D01*
X28162250Y2614676D01*
X28163316Y2627731D01*
X28163672Y2641244D01*
X28163672Y2673451D01*
X28253182Y2673451D01*
X28258211Y2596642D01*
X28278785Y2589885D01*
X28278785Y2773426D01*
X28258211Y2766669D01*
X28253182Y2698089D01*
X28164637Y2698089D01*
X28159608Y2766669D01*
G37*
G36*
X28006802Y2772054D02*
G01*
X27966415Y2731719D01*
X27966415Y2706319D01*
X27998420Y2674366D01*
X28036164Y2668016D01*
X28060142Y2663393D01*
X28068524Y2661462D01*
X28081528Y2657500D01*
X28081528Y2623718D01*
X28040431Y2608072D01*
X28013863Y2618384D01*
X28009189Y2620721D01*
X28004566Y2623362D01*
X28000147Y2626207D01*
X27992324Y2632202D01*
X27989225Y2635199D01*
X27986837Y2638044D01*
X27977185Y2651252D01*
X27965653Y2632659D01*
X27983129Y2600045D01*
X28044495Y2581757D01*
X28088844Y2598724D01*
X28116276Y2640584D01*
X28090164Y2680411D01*
X27998267Y2699461D01*
X27988412Y2725115D01*
X28018892Y2747416D01*
X28054655Y2747416D01*
X28096768Y2714244D01*
X28108808Y2733649D01*
X28064155Y2772054D01*
G37*
G36*
X28392577Y2772054D02*
G01*
X28365043Y2772003D01*
X28338322Y2749194D01*
X28333700Y2744825D01*
X28325521Y2735935D01*
X28321965Y2731414D01*
X28318663Y2726791D01*
X28313126Y2717393D01*
X28310839Y2712567D01*
X28308858Y2707640D01*
X28307182Y2702661D01*
X28305810Y2697530D01*
X28304794Y2692349D01*
X28304032Y2687015D01*
X28303537Y2679496D01*
X28327654Y2679496D01*
X28336443Y2703169D01*
X28338881Y2709214D01*
X28341523Y2714853D01*
X28344368Y2719984D01*
X28347365Y2724658D01*
X28350565Y2728925D01*
X28353969Y2732735D01*
X28357576Y2736037D01*
X28361386Y2738932D01*
X28365399Y2741371D01*
X28369564Y2743352D01*
X28373933Y2744876D01*
X28378505Y2745943D01*
X28383230Y2746552D01*
X28388208Y2746705D01*
X28393339Y2746400D01*
X28398622Y2745638D01*
X28404159Y2744419D01*
X28409849Y2742742D01*
X28415742Y2740660D01*
X28442310Y2728722D01*
X28457804Y2684322D01*
X28449371Y2640076D01*
X28414827Y2615895D01*
X28363519Y2615895D01*
X28350870Y2630271D01*
X28345536Y2637231D01*
X28340405Y2645562D01*
X28335986Y2654198D01*
X28332938Y2662072D01*
X28327654Y2679496D01*
X28303537Y2679496D01*
X28303474Y2652877D01*
X28335528Y2600350D01*
X28399689Y2581148D01*
X28457499Y2608580D01*
X28486811Y2673604D01*
X28467405Y2738374D01*
X28420060Y2772054D01*
G37*
G36*
X28559455Y2772054D02*
G01*
X28510280Y2730703D01*
X28499612Y2667304D01*
X28524758Y2607106D01*
X28585210Y2581808D01*
X28626053Y2592070D01*
X28675584Y2641600D01*
X28657296Y2659888D01*
X28616554Y2615895D01*
X28559404Y2615895D01*
X28525317Y2659227D01*
X28525317Y2707081D01*
X28565703Y2747416D01*
X28583026Y2747416D01*
X28588512Y2747111D01*
X28594202Y2746248D01*
X28600095Y2744825D01*
X28605988Y2742996D01*
X28611830Y2740710D01*
X28617570Y2738069D01*
X28623006Y2735122D01*
X28628136Y2731922D01*
X28632759Y2728468D01*
X28636823Y2724912D01*
X28640227Y2721203D01*
X28642868Y2717444D01*
X28649422Y2706319D01*
X28661360Y2706319D01*
X28666439Y2706725D01*
X28669945Y2707944D01*
X28671977Y2710078D01*
X28672434Y2713177D01*
X28671316Y2717241D01*
X28668675Y2722422D01*
X28664458Y2728722D01*
X28658718Y2736189D01*
X28653841Y2741828D01*
X28648660Y2746959D01*
X28643224Y2751683D01*
X28637534Y2755900D01*
X28631591Y2759659D01*
X28625444Y2762910D01*
X28619043Y2765704D01*
X28612439Y2767990D01*
X28605632Y2769768D01*
X28598622Y2771038D01*
X28591408Y2771800D01*
X28584042Y2772054D01*
G37*
G36*
X28582772Y2460802D02*
G01*
X28577946Y2447848D01*
X28577184Y2442413D01*
X28576168Y2423922D01*
X28575812Y2390241D01*
X28576371Y2358440D01*
X28578759Y2278837D01*
X28595218Y2274824D01*
X28600349Y2328214D01*
X28607054Y2328214D01*
X28608883Y2327656D01*
X28611474Y2325928D01*
X28614674Y2323185D01*
X28622599Y2315210D01*
X28631642Y2304694D01*
X28658718Y2269286D01*
X28675533Y2286101D01*
X28624580Y2350414D01*
X28653841Y2378557D01*
X28662528Y2387904D01*
X28669132Y2396032D01*
X28671367Y2399334D01*
X28672789Y2401925D01*
X28673298Y2403754D01*
X28672840Y2406853D01*
X28671621Y2408986D01*
X28669589Y2410256D01*
X28666897Y2410612D01*
X28663544Y2410053D01*
X28659582Y2408732D01*
X28655060Y2406548D01*
X28650082Y2403551D01*
X28644646Y2399792D01*
X28638855Y2395321D01*
X28632759Y2390089D01*
X28599333Y2357882D01*
X28599333Y2450541D01*
G37*
G36*
X28871976Y2460498D02*
G01*
X28867963Y2453944D01*
X28867049Y2451709D01*
X28864712Y2442210D01*
X28862070Y2427630D01*
X28859378Y2409799D01*
X28852215Y2352903D01*
X28857549Y2352903D01*
X28861258Y2353970D01*
X28867404Y2356866D01*
X28875075Y2361133D01*
X28883508Y2366365D01*
X28904082Y2379878D01*
X28944519Y2361488D01*
X28944519Y2311450D01*
X28903066Y2292553D01*
X28854958Y2328062D01*
X28843274Y2309114D01*
X28887877Y2270709D01*
X28928822Y2270709D01*
X28969157Y2311044D01*
X28969157Y2368143D01*
X28924199Y2403500D01*
X28881679Y2397252D01*
X28888893Y2435098D01*
X28970528Y2435098D01*
X28963772Y2455621D01*
G37*
G36*
X29299408Y2460498D02*
G01*
X29295394Y2453944D01*
X29294429Y2451709D01*
X29292143Y2442210D01*
X29289451Y2427630D01*
X29286758Y2409799D01*
X29279596Y2352903D01*
X29284980Y2352903D01*
X29288587Y2353919D01*
X29294582Y2356713D01*
X29302049Y2360828D01*
X29310177Y2365908D01*
X29330040Y2378913D01*
X29362857Y2368499D01*
X29373017Y2336444D01*
X29362857Y2304440D01*
X29328922Y2293670D01*
X29282389Y2328062D01*
X29270655Y2309114D01*
X29315308Y2270709D01*
X29353256Y2270709D01*
X29396588Y2304796D01*
X29396588Y2368143D01*
X29351630Y2403500D01*
X29309060Y2397252D01*
X29316273Y2435098D01*
X29397960Y2435098D01*
X29391152Y2455621D01*
G37*
G36*
X28040431Y2459736D02*
G01*
X28040431Y2330043D01*
X28007462Y2291232D01*
X27967228Y2339848D01*
X27956459Y2311806D01*
X27965958Y2287016D01*
X28007513Y2268067D01*
X28047797Y2286406D01*
X28066187Y2354681D01*
X28054909Y2459736D01*
G37*
G36*
X28697427Y2459736D02*
G01*
X28693262Y2448864D01*
X28692449Y2445054D01*
X28691658Y2435098D01*
X28725672Y2435098D01*
X28732073Y2434691D01*
X28741065Y2433624D01*
X28751479Y2431999D01*
X28762147Y2430068D01*
X28787293Y2425039D01*
X28797097Y2399436D01*
X28790696Y2393442D01*
X28788664Y2392121D01*
X28781095Y2389124D01*
X28769919Y2385974D01*
X28756457Y2383028D01*
X28714395Y2376119D01*
X28714395Y2435098D01*
X28691658Y2435098D01*
X28691027Y2417267D01*
X28690874Y2388971D01*
X28691341Y2361133D01*
X28742487Y2361133D01*
X28754425Y2360726D01*
X28766160Y2359660D01*
X28776320Y2358085D01*
X28780384Y2357120D01*
X28783584Y2356104D01*
X28796589Y2351125D01*
X28796589Y2303576D01*
X28762553Y2303475D01*
X28750564Y2302713D01*
X28739439Y2301392D01*
X28730549Y2299614D01*
X28727400Y2298598D01*
X28714395Y2293620D01*
X28714395Y2361133D01*
X28691341Y2361133D01*
X28693821Y2274824D01*
X28768802Y2269947D01*
X28813302Y2286863D01*
X28831032Y2332329D01*
X28807359Y2374392D01*
X28819094Y2406294D01*
X28805225Y2443530D01*
X28783940Y2451658D01*
X28778962Y2453284D01*
X28773069Y2454808D01*
X28766465Y2456180D01*
X28751885Y2458364D01*
X28744367Y2459126D01*
X28737001Y2459583D01*
G37*
G36*
X29034181Y2459736D02*
G01*
X29008781Y2434234D01*
X29004463Y2429357D01*
X29000907Y2424836D01*
X28998214Y2420670D01*
X28996233Y2416606D01*
X28995065Y2412644D01*
X28994658Y2408631D01*
X28994912Y2404465D01*
X28995877Y2400096D01*
X28997554Y2395321D01*
X29001186Y2387549D01*
X29026713Y2387549D01*
X29026713Y2425496D01*
X29047236Y2432862D01*
X29076040Y2418080D01*
X29076040Y2407056D01*
X29075126Y2402027D01*
X29072687Y2396490D01*
X29069131Y2391156D01*
X29064762Y2386634D01*
X29053434Y2377287D01*
X29026713Y2387549D01*
X29001186Y2387549D01*
X29011778Y2367584D01*
X28993846Y2349601D01*
X28993846Y2312365D01*
X29018484Y2312365D01*
X29018484Y2327148D01*
X29018839Y2333802D01*
X29019906Y2339340D01*
X29021836Y2343810D01*
X29024732Y2347264D01*
X29028542Y2349855D01*
X29033520Y2351582D01*
X29039616Y2352598D01*
X29046982Y2352903D01*
X29064508Y2352903D01*
X29074364Y2343048D01*
X29078224Y2338374D01*
X29081323Y2332990D01*
X29083457Y2327605D01*
X29084270Y2322779D01*
X29084270Y2312365D01*
X29051351Y2294788D01*
X29018484Y2312365D01*
X28993846Y2312365D01*
X28993846Y2297226D01*
X29014115Y2283968D01*
X29018484Y2281326D01*
X29028085Y2276551D01*
X29037788Y2272995D01*
X29042309Y2271725D01*
X29046424Y2270963D01*
X29049980Y2270709D01*
X29065575Y2270709D01*
X29110432Y2305964D01*
X29104844Y2331466D01*
X29102761Y2344166D01*
X29101186Y2359761D01*
X29100221Y2376322D01*
X29100068Y2391867D01*
X29100830Y2426716D01*
X29067810Y2459736D01*
G37*
G36*
X29166413Y2459736D02*
G01*
X29133546Y2426868D01*
X29133546Y2402230D01*
X29142537Y2402230D01*
X29147211Y2403652D01*
X29153307Y2407615D01*
X29160063Y2413508D01*
X29166667Y2420721D01*
X29181856Y2439212D01*
X29211625Y2421077D01*
X29217264Y2383078D01*
X29133546Y2306167D01*
X29133546Y2270709D01*
X29249827Y2270709D01*
X29244391Y2299462D01*
X29173728Y2307691D01*
X29240429Y2368804D01*
X29240429Y2426208D01*
X29204412Y2459736D01*
G37*
G36*
X28530042Y2458059D02*
G01*
X28526232Y2456942D01*
X28522777Y2454452D01*
X28520593Y2451303D01*
X28518764Y2447036D01*
X28517545Y2442159D01*
X28517138Y2437231D01*
X28517138Y2425649D01*
X28545891Y2431186D01*
X28545891Y2442718D01*
X28545231Y2447290D01*
X28543503Y2451252D01*
X28540862Y2454402D01*
X28537560Y2456688D01*
X28533852Y2457958D01*
G37*
G36*
X28525368Y2411780D02*
G01*
X28520847Y2400046D01*
X28520237Y2397912D01*
X28519272Y2390952D01*
X28518612Y2380996D01*
X28518205Y2368600D01*
X28518154Y2354478D01*
X28518459Y2339289D01*
X28521253Y2274824D01*
X28545891Y2274824D01*
X28545891Y2404973D01*
G37*
G36*
X28124048Y2410409D02*
G01*
X28080055Y2358136D01*
X28088812Y2312365D01*
X28114396Y2312365D01*
X28114396Y2366060D01*
X28134106Y2385771D01*
X28168650Y2385771D01*
X28188361Y2366060D01*
X28188361Y2320391D01*
X28148381Y2294178D01*
X28114396Y2312365D01*
X28088812Y2312365D01*
X28089707Y2307691D01*
X28116326Y2284476D01*
X28121660Y2280513D01*
X28126740Y2277262D01*
X28131668Y2274722D01*
X28136443Y2272893D01*
X28141218Y2271776D01*
X28145994Y2271318D01*
X28150820Y2271522D01*
X28155747Y2272385D01*
X28160878Y2273960D01*
X28166263Y2276144D01*
X28171952Y2278938D01*
X28187345Y2287168D01*
X28192425Y2278938D01*
X28195015Y2275738D01*
X28198318Y2273147D01*
X28201874Y2271369D01*
X28205277Y2270709D01*
X28212999Y2270709D01*
X28212999Y2410409D01*
X28205480Y2410409D01*
X28202229Y2409596D01*
X28199029Y2407412D01*
X28196235Y2404160D01*
X28194152Y2400147D01*
X28190393Y2389886D01*
X28168650Y2410409D01*
G37*
G36*
X28237027Y2410409D02*
G01*
X28241802Y2276144D01*
X28262326Y2269337D01*
X28262326Y2343607D01*
X28278785Y2386838D01*
X28323946Y2381656D01*
X28332176Y2276094D01*
X28352750Y2269337D01*
X28352750Y2373884D01*
X28327146Y2410409D01*
X28310636Y2410409D01*
X28302965Y2409748D01*
X28294279Y2407920D01*
X28285694Y2405227D01*
X28278226Y2401925D01*
X28262326Y2393391D01*
X28262326Y2410409D01*
G37*
G36*
X28393593Y2410409D02*
G01*
X28389935Y2409545D01*
X28386328Y2407158D01*
X28383179Y2403652D01*
X28380842Y2399334D01*
X28380283Y2397302D01*
X28379369Y2390597D01*
X28378759Y2380843D01*
X28378454Y2368702D01*
X28378403Y2354834D01*
X28378759Y2339848D01*
X28381502Y2276144D01*
X28402026Y2269337D01*
X28402026Y2353970D01*
X28419044Y2385771D01*
X28459277Y2385771D01*
X28464306Y2362809D01*
X28466135Y2350719D01*
X28467812Y2335885D01*
X28469234Y2320137D01*
X28471926Y2276094D01*
X28492450Y2269337D01*
X28492450Y2373884D01*
X28466897Y2410409D01*
X28421787Y2410409D01*
X28402026Y2390698D01*
X28402026Y2410409D01*
G37*
D19*
X27851100Y6224015D02*
G01*
X27851100Y6146037D01*
X27856179Y6130544D01*
X27866593Y6120129D01*
X27882341Y6115050D01*
X27892756Y6115050D01*
X27908250Y6120129D01*
X27918663Y6130544D01*
X27923743Y6146037D01*
X27923743Y6224015D01*
X27963368Y6198107D02*
G01*
X27963368Y6203187D01*
X27968448Y6213602D01*
X27973782Y6218936D01*
X27984195Y6224015D01*
X28004770Y6224015D01*
X28015184Y6218936D01*
X28020518Y6213602D01*
X28025598Y6203187D01*
X28025598Y6192773D01*
X28020518Y6182360D01*
X28010104Y6166865D01*
X27958034Y6115050D01*
X28030932Y6115050D01*
X27445972Y5595876D02*
G01*
X27442416Y5602988D01*
X27435558Y5609846D01*
X27428446Y5613402D01*
X27414730Y5613402D01*
X27407872Y5609846D01*
X27400760Y5602988D01*
X27397458Y5595876D01*
X27393902Y5585716D01*
X27393902Y5568190D01*
X27397458Y5557776D01*
X27400760Y5550918D01*
X27407872Y5544060D01*
X27414730Y5540504D01*
X27428446Y5540504D01*
X27435558Y5544060D01*
X27442416Y5550918D01*
X27445972Y5557776D01*
X27445972Y5568190D01*
X27428446Y5568190D02*
G01*
X27445972Y5568190D01*
X27468832Y5613402D02*
G01*
X27468832Y5540504D01*
X27468832Y5613402D02*
G01*
X27517092Y5540504D01*
X27517092Y5613402D02*
G01*
X27517092Y5540504D01*
X27539952Y5613402D02*
G01*
X27539952Y5540504D01*
X27539952Y5613402D02*
G01*
X27564336Y5613402D01*
X27574750Y5609846D01*
X27581608Y5602988D01*
X27585164Y5595876D01*
X27588466Y5585716D01*
X27588466Y5568190D01*
X27585164Y5557776D01*
X27581608Y5550918D01*
X27574750Y5544060D01*
X27564336Y5540504D01*
X27539952Y5540504D01*
X27647902Y5613402D02*
G01*
X27675588Y5540504D01*
X27703274Y5613402D02*
G01*
X27675588Y5540504D01*
X27778204Y5595876D02*
G01*
X27774648Y5602988D01*
X27767790Y5609821D01*
X27760932Y5613402D01*
X27746962Y5613402D01*
X27740104Y5609821D01*
X27732992Y5602988D01*
X27729690Y5595876D01*
X27726134Y5585716D01*
X27726134Y5568190D01*
X27729690Y5557776D01*
X27732992Y5550893D01*
X27740104Y5544035D01*
X27746962Y5540504D01*
X27760932Y5540504D01*
X27767790Y5544035D01*
X27774648Y5550893D01*
X27778204Y5557776D01*
X27852880Y5595876D02*
G01*
X27849578Y5602988D01*
X27842466Y5609821D01*
X27835608Y5613402D01*
X27821892Y5613402D01*
X27814780Y5609821D01*
X27807922Y5602988D01*
X27804366Y5595876D01*
X27801064Y5585716D01*
X27801064Y5568190D01*
X27804366Y5557776D01*
X27807922Y5550893D01*
X27814780Y5544035D01*
X27821892Y5540504D01*
X27835608Y5540504D01*
X27842466Y5544035D01*
X27849578Y5550893D01*
X27852880Y5557776D01*
X28229816Y5602988D02*
G01*
X28222958Y5609846D01*
X28212544Y5613402D01*
X28198574Y5613402D01*
X28188160Y5609846D01*
X28181302Y5602988D01*
X28181302Y5595876D01*
X28184858Y5589018D01*
X28188160Y5585716D01*
X28195272Y5582160D01*
X28215846Y5575302D01*
X28222958Y5571746D01*
X28226260Y5568190D01*
X28229816Y5561332D01*
X28229816Y5550918D01*
X28222958Y5544060D01*
X28212544Y5540504D01*
X28198574Y5540504D01*
X28188160Y5544060D01*
X28181302Y5550918D01*
X28252676Y5613402D02*
G01*
X28252676Y5540504D01*
X28252676Y5613402D02*
G01*
X28276806Y5613402D01*
X28287220Y5609846D01*
X28294332Y5602988D01*
X28297634Y5595876D01*
X28301190Y5585716D01*
X28301190Y5568190D01*
X28297634Y5557776D01*
X28294332Y5550918D01*
X28287220Y5544060D01*
X28276806Y5540504D01*
X28252676Y5540504D01*
X28351736Y5613402D02*
G01*
X28324050Y5540504D01*
X28351736Y5613402D02*
G01*
X28379422Y5540504D01*
X28334464Y5564888D02*
G01*
X28369008Y5564888D01*
X27988513Y5602983D02*
G01*
X27981656Y5609841D01*
X27971241Y5613397D01*
X27957272Y5613397D01*
X27946858Y5609841D01*
X27940000Y5602983D01*
X27940000Y5595871D01*
X27943556Y5589015D01*
X27946858Y5585711D01*
X27953970Y5582155D01*
X27974543Y5575297D01*
X27981656Y5571741D01*
X27984958Y5568185D01*
X27988513Y5561327D01*
X27988513Y5550915D01*
X27981656Y5544055D01*
X27971241Y5540499D01*
X27957272Y5540499D01*
X27946858Y5544055D01*
X27940000Y5550915D01*
X28063190Y5595871D02*
G01*
X28059888Y5602983D01*
X28053029Y5609841D01*
X28045918Y5613397D01*
X28032202Y5613397D01*
X28025090Y5609841D01*
X28018232Y5602983D01*
X28014929Y5595871D01*
X28011374Y5585711D01*
X28011374Y5568185D01*
X28014929Y5557771D01*
X28018232Y5550915D01*
X28025090Y5544055D01*
X28032202Y5540499D01*
X28045918Y5540499D01*
X28053029Y5544055D01*
X28059888Y5550915D01*
X28063190Y5557771D01*
X28086050Y5613397D02*
G01*
X28086050Y5540499D01*
X28086050Y5540499D02*
G01*
X28127706Y5540499D01*
X19800824Y9856215D02*
G01*
X19785075Y9851136D01*
X19774661Y9835387D01*
X19769581Y9809479D01*
X19769581Y9793986D01*
X19774661Y9767824D01*
X19785075Y9752329D01*
X19800824Y9747250D01*
X19811238Y9747250D01*
X19826731Y9752329D01*
X19837145Y9767824D01*
X19842225Y9793986D01*
X19842225Y9809479D01*
X19837145Y9835387D01*
X19826731Y9851136D01*
X19811238Y9856215D01*
X19800824Y9856215D01*
X3569614Y9835387D02*
G01*
X3580028Y9840721D01*
X3595522Y9856215D01*
X3595522Y9747250D01*
X5374690Y9830308D02*
G01*
X5374690Y9835387D01*
X5380024Y9845802D01*
X5385104Y9851136D01*
X5395518Y9856215D01*
X5416346Y9856215D01*
X5426760Y9851136D01*
X5431840Y9845802D01*
X5437174Y9835387D01*
X5437174Y9824974D01*
X5431840Y9814560D01*
X5421680Y9799065D01*
X5369610Y9747250D01*
X5442254Y9747250D01*
X7180021Y9856215D02*
G01*
X7237171Y9856215D01*
X7205929Y9814560D01*
X7221677Y9814560D01*
X7231837Y9809479D01*
X7237171Y9804400D01*
X7242251Y9788652D01*
X7242251Y9778237D01*
X7237171Y9762744D01*
X7226757Y9752329D01*
X7211263Y9747250D01*
X7195515Y9747250D01*
X7180021Y9752329D01*
X7174687Y9757410D01*
X7169607Y9767824D01*
X9021673Y9856215D02*
G01*
X8969603Y9783571D01*
X9047581Y9783571D01*
X9021673Y9856215D02*
G01*
X9021673Y9747250D01*
X12631826Y9840721D02*
G01*
X12626746Y9851136D01*
X12611252Y9856215D01*
X12600838Y9856215D01*
X12585090Y9851136D01*
X12574676Y9835387D01*
X12569596Y9809479D01*
X12569596Y9783571D01*
X12574676Y9762744D01*
X12585090Y9752329D01*
X12600838Y9747250D01*
X12605918Y9747250D01*
X12621666Y9752329D01*
X12631826Y9762744D01*
X12637160Y9778237D01*
X12637160Y9783571D01*
X12631826Y9799065D01*
X12621666Y9809479D01*
X12605918Y9814560D01*
X12600838Y9814560D01*
X12585090Y9809479D01*
X12574676Y9799065D01*
X12569596Y9783571D01*
X14442236Y9856215D02*
G01*
X14390420Y9747250D01*
X14369592Y9856215D02*
G01*
X14442236Y9856215D01*
X16195497Y9856215D02*
G01*
X16180003Y9851136D01*
X16174669Y9840721D01*
X16174669Y9830308D01*
X16180003Y9819894D01*
X16190417Y9814560D01*
X16211245Y9809479D01*
X16226739Y9804400D01*
X16237153Y9793986D01*
X16242233Y9783571D01*
X16242233Y9767824D01*
X16237153Y9757410D01*
X16231819Y9752329D01*
X16216325Y9747250D01*
X16195497Y9747250D01*
X16180003Y9752329D01*
X16174669Y9757410D01*
X16169589Y9767824D01*
X16169589Y9783571D01*
X16174669Y9793986D01*
X16185083Y9804400D01*
X16200831Y9809479D01*
X16221659Y9814560D01*
X16231819Y9819894D01*
X16237153Y9830308D01*
X16237153Y9840721D01*
X16231819Y9851136D01*
X16216325Y9856215D01*
X16195497Y9856215D01*
X18037149Y9819894D02*
G01*
X18031815Y9804400D01*
X18021655Y9793986D01*
X18005907Y9788652D01*
X18000827Y9788652D01*
X17985079Y9793986D01*
X17974665Y9804400D01*
X17969585Y9819894D01*
X17969585Y9824974D01*
X17974665Y9840721D01*
X17985079Y9851136D01*
X18000827Y9856215D01*
X18005907Y9856215D01*
X18021655Y9851136D01*
X18031815Y9840721D01*
X18037149Y9819894D01*
X18037149Y9793986D01*
X18031815Y9767824D01*
X18021655Y9752329D01*
X18005907Y9747250D01*
X17995493Y9747250D01*
X17979999Y9752329D01*
X17974665Y9762744D01*
X22429990Y6571716D02*
G01*
X22429990Y6540728D01*
X17879999Y4817833D02*
G01*
X17874665Y4812753D01*
X17869585Y4817833D01*
X17874665Y4823167D01*
X17879999Y4817833D01*
X17879999Y4807419D01*
X17869585Y4797259D01*
X21569578Y9793986D02*
G01*
X21663050Y9793986D01*
X19674662Y4823167D02*
G01*
X19669582Y4817833D01*
X19674662Y4812753D01*
X19679996Y4817833D01*
X19674662Y4823167D01*
X21563050Y4927053D02*
G01*
X21469578Y4760683D01*
X20624660Y6509486D02*
G01*
X20619580Y6504406D01*
X20624660Y6499072D01*
X20629994Y6504406D01*
X20624660Y6509486D01*
X20629994Y6467830D02*
G01*
X20624660Y6462750D01*
X20619580Y6467830D01*
X20624660Y6473164D01*
X20629994Y6467830D01*
X20629994Y6457416D01*
X20619580Y6447256D01*
X4461268Y6556222D02*
G01*
X4419612Y6447256D01*
X4461268Y6556222D02*
G01*
X4502670Y6447256D01*
X4435106Y6483578D02*
G01*
X4487176Y6483578D01*
X6686265Y3256229D02*
G01*
X6644609Y3147263D01*
X6686265Y3256229D02*
G01*
X6727667Y3147263D01*
X6660100Y3183585D02*
G01*
X6712173Y3183585D01*
X6761957Y3256229D02*
G01*
X6761957Y3147263D01*
X6761957Y3147263D02*
G01*
X6824441Y3147263D01*
X6895050Y3256229D02*
G01*
X6895050Y3147263D01*
X6858731Y3256229D02*
G01*
X6931375Y3256229D01*
X17911241Y3256229D02*
G01*
X17869585Y3147263D01*
X17911241Y3256229D02*
G01*
X17952643Y3147263D01*
X17885079Y3183585D02*
G01*
X17937149Y3183585D01*
X17986933Y3256229D02*
G01*
X17986933Y3147263D01*
X17986933Y3147263D02*
G01*
X18049417Y3147263D01*
X18120029Y3256229D02*
G01*
X18120029Y3147263D01*
X18083707Y3256229D02*
G01*
X18156351Y3256229D01*
X18268619Y3230321D02*
G01*
X18263285Y3240735D01*
X18253125Y3251149D01*
X18242711Y3256229D01*
X18221883Y3256229D01*
X18211469Y3251149D01*
X18201055Y3240735D01*
X18195975Y3230321D01*
X18190641Y3214573D01*
X18190641Y3188665D01*
X18195975Y3173171D01*
X18201055Y3162757D01*
X18211469Y3152343D01*
X18221883Y3147263D01*
X18242711Y3147263D01*
X18253125Y3152343D01*
X18263285Y3162757D01*
X18268619Y3173171D01*
X18268619Y3188665D01*
X18242711Y3188665D02*
G01*
X18268619Y3188665D01*
X18302909Y3256229D02*
G01*
X18302909Y3147263D01*
X18302909Y3256229D02*
G01*
X18349645Y3256229D01*
X18365139Y3251149D01*
X18370473Y3245815D01*
X18375553Y3235401D01*
X18375553Y3224987D01*
X18370473Y3214573D01*
X18365139Y3209493D01*
X18349645Y3204413D01*
X18302909Y3204413D01*
X18339231Y3204413D02*
G01*
X18375553Y3147263D01*
X12469596Y4906225D02*
G01*
X12469596Y4797259D01*
X12469596Y4906225D02*
G01*
X12516332Y4906225D01*
X12531826Y4901145D01*
X12537160Y4895811D01*
X12542240Y4885397D01*
X12542240Y4874983D01*
X12537160Y4864569D01*
X12531826Y4859489D01*
X12516332Y4854409D01*
X12469596Y4854409D02*
G01*
X12516332Y4854409D01*
X12531826Y4849075D01*
X12537160Y4843995D01*
X12542240Y4833581D01*
X12542240Y4817833D01*
X12537160Y4807419D01*
X12531826Y4802339D01*
X12516332Y4797259D01*
X12469596Y4797259D01*
X24219573Y9856215D02*
G01*
X24219573Y9747250D01*
X24219573Y9856215D02*
G01*
X24266309Y9856215D01*
X24281803Y9851136D01*
X24287137Y9845802D01*
X24292217Y9835387D01*
X24292217Y9824974D01*
X24287137Y9814560D01*
X24281803Y9809479D01*
X24266309Y9804400D01*
X24219573Y9804400D02*
G01*
X24266309Y9804400D01*
X24281803Y9799065D01*
X24287137Y9793986D01*
X24292217Y9783571D01*
X24292217Y9767824D01*
X24287137Y9757410D01*
X24281803Y9752329D01*
X24266309Y9747250D01*
X24219573Y9747250D01*
X24368163Y9856215D02*
G01*
X24326507Y9747250D01*
X24368163Y9856215D02*
G01*
X24409819Y9747250D01*
X24342255Y9783571D02*
G01*
X24394071Y9783571D01*
X24521833Y9830308D02*
G01*
X24516753Y9840721D01*
X24506339Y9851136D01*
X24495925Y9856215D01*
X24475097Y9856215D01*
X24464683Y9851136D01*
X24454523Y9840721D01*
X24449189Y9830308D01*
X24444109Y9814560D01*
X24444109Y9788652D01*
X24449189Y9773158D01*
X24454523Y9762744D01*
X24464683Y9752329D01*
X24475097Y9747250D01*
X24495925Y9747250D01*
X24506339Y9752329D01*
X24516753Y9762744D01*
X24521833Y9773158D01*
X24556123Y9856215D02*
G01*
X24556123Y9747250D01*
X24629021Y9856215D02*
G01*
X24556123Y9783571D01*
X24582285Y9809479D02*
G01*
X24629021Y9747250D01*
X8947581Y4880317D02*
G01*
X8942247Y4890731D01*
X8931833Y4901145D01*
X8921673Y4906225D01*
X8900845Y4906225D01*
X8890431Y4901145D01*
X8880017Y4890731D01*
X8874683Y4880317D01*
X8869603Y4864569D01*
X8869603Y4838661D01*
X8874683Y4823167D01*
X8880017Y4812753D01*
X8890431Y4802339D01*
X8900845Y4797259D01*
X8921673Y4797259D01*
X8931833Y4802339D01*
X8942247Y4812753D01*
X8947581Y4823167D01*
X2272596Y6530314D02*
G01*
X2267262Y6540728D01*
X2256848Y6551142D01*
X2246688Y6556222D01*
X2225860Y6556222D01*
X2215446Y6551142D01*
X2205032Y6540728D01*
X2199698Y6530314D01*
X2194618Y6514566D01*
X2194618Y6488658D01*
X2199698Y6473164D01*
X2205032Y6462750D01*
X2215446Y6452336D01*
X2225860Y6447256D01*
X2246688Y6447256D01*
X2256848Y6452336D01*
X2267262Y6462750D01*
X2272596Y6473164D01*
X2348288Y6556222D02*
G01*
X2306886Y6447256D01*
X2348288Y6556222D02*
G01*
X2389941Y6447256D01*
X2322380Y6483578D02*
G01*
X2374450Y6483578D01*
X2424234Y6556222D02*
G01*
X2424234Y6447256D01*
X2424234Y6556222D02*
G01*
X2470970Y6556222D01*
X2486718Y6551142D01*
X2491798Y6545808D01*
X2496878Y6535394D01*
X2496878Y6519900D01*
X2491798Y6509486D01*
X2486718Y6504406D01*
X2470970Y6499072D01*
X2424234Y6499072D01*
X2604066Y6540728D02*
G01*
X2593652Y6551142D01*
X2578158Y6556222D01*
X2557330Y6556222D01*
X2541582Y6551142D01*
X2531168Y6540728D01*
X2531168Y6530314D01*
X2536502Y6519900D01*
X2541582Y6514566D01*
X2551996Y6509486D01*
X2583238Y6499072D01*
X2593652Y6493992D01*
X2598732Y6488658D01*
X2604066Y6478244D01*
X2604066Y6462750D01*
X2593652Y6452336D01*
X2578158Y6447256D01*
X2557330Y6447256D01*
X2541582Y6452336D01*
X2531168Y6462750D01*
X2272596Y3230321D02*
G01*
X2267262Y3240735D01*
X2256848Y3251149D01*
X2246685Y3256229D01*
X2225855Y3256229D01*
X2215446Y3251149D01*
X2205032Y3240735D01*
X2199698Y3230321D01*
X2194615Y3214573D01*
X2194615Y3188665D01*
X2199698Y3173171D01*
X2205032Y3162757D01*
X2215446Y3152343D01*
X2225855Y3147263D01*
X2246685Y3147263D01*
X2256848Y3152343D01*
X2267262Y3162757D01*
X2272596Y3173171D01*
X2306883Y3256229D02*
G01*
X2306883Y3147263D01*
X2306883Y3256229D02*
G01*
X2353619Y3256229D01*
X2369116Y3251149D01*
X2374450Y3245815D01*
X2379530Y3235401D01*
X2379530Y3224987D01*
X2374450Y3214573D01*
X2369116Y3209493D01*
X2353619Y3204413D01*
X2306883Y3204413D01*
X2343205Y3204413D02*
G01*
X2379530Y3147263D01*
X2450139Y3256229D02*
G01*
X2450139Y3147263D01*
X2413817Y3256229D02*
G01*
X2486715Y3256229D01*
X2521005Y3256229D02*
G01*
X2521005Y3147263D01*
X2521005Y3147263D02*
G01*
X2583235Y3147263D01*
X19747560Y3230321D02*
G01*
X19742226Y3240735D01*
X19731812Y3251149D01*
X19721652Y3256229D01*
X19700824Y3256229D01*
X19690410Y3251149D01*
X19679996Y3240735D01*
X19674662Y3230321D01*
X19669582Y3214573D01*
X19669582Y3188665D01*
X19674662Y3173171D01*
X19679996Y3162757D01*
X19690410Y3152343D01*
X19700824Y3147263D01*
X19721652Y3147263D01*
X19731812Y3152343D01*
X19742226Y3162757D01*
X19747560Y3173171D01*
X19818172Y3256229D02*
G01*
X19818172Y3147263D01*
X19781850Y3256229D02*
G01*
X19854494Y3256229D01*
X19888784Y3256229D02*
G01*
X19888784Y3147263D01*
X19888784Y3256229D02*
G01*
X19935520Y3256229D01*
X19951268Y3251149D01*
X19956348Y3245815D01*
X19961682Y3235401D01*
X19961682Y3224987D01*
X19956348Y3214573D01*
X19951268Y3209493D01*
X19935520Y3204413D01*
X19888784Y3204413D01*
X19925106Y3204413D02*
G01*
X19961682Y3147263D01*
X19995972Y3256229D02*
G01*
X19995972Y3147263D01*
X19995972Y3147263D02*
G01*
X20058202Y3147263D01*
X20097572Y3230321D02*
G01*
X20097572Y3235401D01*
X20102906Y3245815D01*
X20107986Y3251149D01*
X20118400Y3256229D01*
X20139228Y3256229D01*
X20149642Y3251149D01*
X20154722Y3245815D01*
X20160056Y3235401D01*
X20160056Y3224987D01*
X20154722Y3214573D01*
X20144562Y3199079D01*
X20092492Y3147263D01*
X20165136Y3147263D01*
X8019605Y6556222D02*
G01*
X8019605Y6447256D01*
X8019605Y6556222D02*
G01*
X8055927Y6556222D01*
X8071675Y6551142D01*
X8081835Y6540728D01*
X8087169Y6530314D01*
X8092249Y6514566D01*
X8092249Y6488658D01*
X8087169Y6473164D01*
X8081835Y6462750D01*
X8071675Y6452336D01*
X8055927Y6447256D01*
X8019605Y6447256D01*
X23269575Y3256229D02*
G01*
X23269575Y3147263D01*
X23269575Y3256229D02*
G01*
X23305897Y3256229D01*
X23321645Y3251149D01*
X23331804Y3240735D01*
X23337138Y3230321D01*
X23342218Y3214573D01*
X23342218Y3188665D01*
X23337138Y3173171D01*
X23331804Y3162757D01*
X23321645Y3152343D01*
X23305897Y3147263D01*
X23269575Y3147263D01*
X23407750Y3256229D02*
G01*
X23397336Y3251149D01*
X23386923Y3240735D01*
X23381843Y3230321D01*
X23376509Y3214573D01*
X23376509Y3188665D01*
X23381843Y3173171D01*
X23386923Y3162757D01*
X23397336Y3152343D01*
X23407750Y3147263D01*
X23428579Y3147263D01*
X23438993Y3152343D01*
X23449406Y3162757D01*
X23454486Y3173171D01*
X23459820Y3188665D01*
X23459820Y3214573D01*
X23454486Y3230321D01*
X23449406Y3240735D01*
X23438993Y3251149D01*
X23428579Y3256229D01*
X23407750Y3256229D01*
X23494111Y3256229D02*
G01*
X23520018Y3147263D01*
X23545927Y3256229D02*
G01*
X23520018Y3147263D01*
X23545927Y3256229D02*
G01*
X23571834Y3147263D01*
X23597997Y3256229D02*
G01*
X23571834Y3147263D01*
X23632286Y3256229D02*
G01*
X23632286Y3147263D01*
X23632286Y3256229D02*
G01*
X23704931Y3147263D01*
X23704931Y3256229D02*
G01*
X23704931Y3147263D01*
X7169607Y8206219D02*
G01*
X7169607Y8097253D01*
X7169607Y8206219D02*
G01*
X7237171Y8206219D01*
X7169607Y8154403D02*
G01*
X7211263Y8154403D01*
X7169607Y8097253D02*
G01*
X7237171Y8097253D01*
X24644573Y6556222D02*
G01*
X24644573Y6447256D01*
X24644573Y6556222D02*
G01*
X24712137Y6556222D01*
X24644573Y6504406D02*
G01*
X24686229Y6504406D01*
X24644573Y6447256D02*
G01*
X24712137Y6447256D01*
X24746427Y6556222D02*
G01*
X24746427Y6447256D01*
X24746427Y6556222D02*
G01*
X24819071Y6447256D01*
X24819071Y6556222D02*
G01*
X24819071Y6447256D01*
X24889680Y6556222D02*
G01*
X24889680Y6447256D01*
X24853361Y6556222D02*
G01*
X24926259Y6556222D01*
X24960546Y6556222D02*
G01*
X24960546Y6447256D01*
X24960546Y6556222D02*
G01*
X25028113Y6556222D01*
X24960546Y6504406D02*
G01*
X25001948Y6504406D01*
X24960546Y6447256D02*
G01*
X25028113Y6447256D01*
X25062403Y6556222D02*
G01*
X25062403Y6447256D01*
X25062403Y6556222D02*
G01*
X25109139Y6556222D01*
X25124630Y6551142D01*
X25129713Y6545808D01*
X25135047Y6535394D01*
X25135047Y6524980D01*
X25129713Y6514566D01*
X25124630Y6509486D01*
X25109139Y6504406D01*
X25062403Y6504406D01*
X25098725Y6504406D02*
G01*
X25135047Y6447256D01*
X1769618Y9856215D02*
G01*
X1769618Y9747250D01*
X1769618Y9856215D02*
G01*
X1837181Y9856215D01*
X1769618Y9804400D02*
G01*
X1811273Y9804400D01*
X1769618Y9747250D02*
G01*
X1837181Y9747250D01*
X1944115Y9840721D02*
G01*
X1933702Y9851136D01*
X1918207Y9856215D01*
X1897379Y9856215D01*
X1881886Y9851136D01*
X1871471Y9840721D01*
X1871471Y9830308D01*
X1876552Y9819894D01*
X1881886Y9814560D01*
X1892300Y9809479D01*
X1923287Y9799065D01*
X1933702Y9793986D01*
X1939036Y9788652D01*
X1944115Y9778237D01*
X1944115Y9762744D01*
X1933702Y9752329D01*
X1918207Y9747250D01*
X1897379Y9747250D01*
X1881886Y9752329D01*
X1871471Y9762744D01*
X2056384Y9830308D02*
G01*
X2051304Y9840721D01*
X2040890Y9851136D01*
X2030475Y9856215D01*
X2009647Y9856215D01*
X1999234Y9851136D01*
X1988820Y9840721D01*
X1983740Y9830308D01*
X1978406Y9814560D01*
X1978406Y9788652D01*
X1983740Y9773158D01*
X1988820Y9762744D01*
X1999234Y9752329D01*
X2009647Y9747250D01*
X2030475Y9747250D01*
X2040890Y9752329D01*
X2051304Y9762744D01*
X2056384Y9773158D01*
X9819601Y6556222D02*
G01*
X9819601Y6447256D01*
X9819601Y6556222D02*
G01*
X9887165Y6556222D01*
X9819601Y6504406D02*
G01*
X9861257Y6504406D01*
X12469596Y3256229D02*
G01*
X12469596Y3147263D01*
X12469596Y3256229D02*
G01*
X12537160Y3256229D01*
X12469596Y3204413D02*
G01*
X12511252Y3204413D01*
X12571450Y3256229D02*
G01*
X12571450Y3147263D01*
X12571450Y3256229D02*
G01*
X12644094Y3147263D01*
X12644094Y3256229D02*
G01*
X12644094Y3147263D01*
X11697576Y6530314D02*
G01*
X11692242Y6540728D01*
X11681828Y6551142D01*
X11671668Y6556222D01*
X11650840Y6556222D01*
X11640426Y6551142D01*
X11630012Y6540728D01*
X11624678Y6530314D01*
X11619598Y6514566D01*
X11619598Y6488658D01*
X11624678Y6473164D01*
X11630012Y6462750D01*
X11640426Y6452336D01*
X11650840Y6447256D01*
X11671668Y6447256D01*
X11681828Y6452336D01*
X11692242Y6462750D01*
X11697576Y6473164D01*
X11697576Y6488658D01*
X11671668Y6488658D02*
G01*
X11697576Y6488658D01*
X13419594Y6556222D02*
G01*
X13419594Y6447256D01*
X13492238Y6556222D02*
G01*
X13492238Y6447256D01*
X13419594Y6504406D02*
G01*
X13492238Y6504406D01*
X16169589Y8206219D02*
G01*
X16169589Y8097253D01*
X15271661Y6556222D02*
G01*
X15271661Y6473164D01*
X15266327Y6457416D01*
X15261247Y6452336D01*
X15250833Y6447256D01*
X15240419Y6447256D01*
X15230005Y6452336D01*
X15224671Y6457416D01*
X15219591Y6473164D01*
X15219591Y6483578D01*
X17019587Y6556222D02*
G01*
X17019587Y6447256D01*
X17092231Y6556222D02*
G01*
X17019587Y6483578D01*
X17045495Y6509486D02*
G01*
X17092231Y6447256D01*
X18819583Y6556222D02*
G01*
X18819583Y6447256D01*
X18819583Y6447256D02*
G01*
X18881813Y6447256D01*
X21469578Y3256229D02*
G01*
X21469578Y3147263D01*
X21469578Y3147263D02*
G01*
X21531808Y3147263D01*
X21566098Y3256229D02*
G01*
X21566098Y3147263D01*
X21566098Y3256229D02*
G01*
X21633662Y3256229D01*
X21566098Y3204413D02*
G01*
X21607754Y3204413D01*
X21566098Y3147263D02*
G01*
X21633662Y3147263D01*
X21667952Y3256229D02*
G01*
X21667952Y3147263D01*
X21667952Y3256229D02*
G01*
X21735516Y3256229D01*
X21667952Y3204413D02*
G01*
X21709608Y3204413D01*
X21806128Y3256229D02*
G01*
X21806128Y3147263D01*
X21769806Y3256229D02*
G01*
X21842704Y3256229D01*
X16069589Y4906225D02*
G01*
X16069589Y4797259D01*
X16069589Y4906225D02*
G01*
X16111245Y4797259D01*
X16152647Y4906225D02*
G01*
X16111245Y4797259D01*
X16152647Y4906225D02*
G01*
X16152647Y4797259D01*
X14269593Y4906225D02*
G01*
X14269593Y4797259D01*
X14269593Y4906225D02*
G01*
X14342236Y4797259D01*
X14342236Y4906225D02*
G01*
X14342236Y4797259D01*
X18000827Y8206219D02*
G01*
X17990413Y8201139D01*
X17979999Y8190725D01*
X17974665Y8180311D01*
X17969585Y8164563D01*
X17969585Y8138655D01*
X17974665Y8123161D01*
X17979999Y8112747D01*
X17990413Y8102333D01*
X18000827Y8097253D01*
X18021655Y8097253D01*
X18031815Y8102333D01*
X18042229Y8112747D01*
X18047563Y8123161D01*
X18052643Y8138655D01*
X18052643Y8164563D01*
X18047563Y8180311D01*
X18042229Y8190725D01*
X18031815Y8201139D01*
X18021655Y8206219D01*
X18000827Y8206219D01*
X19769581Y8206219D02*
G01*
X19769581Y8097253D01*
X19769581Y8206219D02*
G01*
X19816318Y8206219D01*
X19831811Y8201139D01*
X19837145Y8195805D01*
X19842225Y8185391D01*
X19842225Y8169897D01*
X19837145Y8159483D01*
X19831811Y8154403D01*
X19816318Y8149069D01*
X19769581Y8149069D01*
X3600856Y8206219D02*
G01*
X3590442Y8201139D01*
X3580028Y8190725D01*
X3574694Y8180311D01*
X3569614Y8164563D01*
X3569614Y8138655D01*
X3574694Y8123161D01*
X3580028Y8112747D01*
X3590442Y8102333D01*
X3600856Y8097253D01*
X3621684Y8097253D01*
X3631844Y8102333D01*
X3642258Y8112747D01*
X3647592Y8123161D01*
X3652672Y8138655D01*
X3652672Y8164563D01*
X3647592Y8180311D01*
X3642258Y8190725D01*
X3631844Y8201139D01*
X3621684Y8206219D01*
X3600856Y8206219D01*
X3616350Y8117827D02*
G01*
X3647592Y8086839D01*
X8969603Y8206219D02*
G01*
X8969603Y8097253D01*
X8969603Y8206219D02*
G01*
X9016339Y8206219D01*
X9031833Y8201139D01*
X9037167Y8195805D01*
X9042247Y8185391D01*
X9042247Y8174977D01*
X9037167Y8164563D01*
X9031833Y8159483D01*
X9016339Y8154403D01*
X8969603Y8154403D01*
X9005925Y8154403D02*
G01*
X9042247Y8097253D01*
X25069571Y3256229D02*
G01*
X25069571Y3147263D01*
X25069571Y3256229D02*
G01*
X25116307Y3256229D01*
X25131801Y3251149D01*
X25137135Y3245815D01*
X25142215Y3235401D01*
X25142215Y3224987D01*
X25137135Y3214573D01*
X25131801Y3209493D01*
X25116307Y3204413D01*
X25069571Y3204413D01*
X25105893Y3204413D02*
G01*
X25142215Y3147263D01*
X25176505Y3256229D02*
G01*
X25176505Y3147263D01*
X25288773Y3230321D02*
G01*
X25283693Y3240735D01*
X25273279Y3251149D01*
X25262865Y3256229D01*
X25242037Y3256229D01*
X25231623Y3251149D01*
X25221209Y3240735D01*
X25216129Y3230321D01*
X25210795Y3214573D01*
X25210795Y3188665D01*
X25216129Y3173171D01*
X25221209Y3162757D01*
X25231623Y3152343D01*
X25242037Y3147263D01*
X25262865Y3147263D01*
X25273279Y3152343D01*
X25283693Y3162757D01*
X25288773Y3173171D01*
X25288773Y3188665D01*
X25262865Y3188665D02*
G01*
X25288773Y3188665D01*
X25323063Y3256229D02*
G01*
X25323063Y3147263D01*
X25395961Y3256229D02*
G01*
X25395961Y3147263D01*
X25323063Y3204413D02*
G01*
X25395961Y3204413D01*
X25466573Y3256229D02*
G01*
X25466573Y3147263D01*
X25430251Y3256229D02*
G01*
X25502895Y3256229D01*
X6292253Y6540728D02*
G01*
X6281839Y6551142D01*
X6266345Y6556222D01*
X6245517Y6556222D01*
X6230023Y6551142D01*
X6219609Y6540728D01*
X6219609Y6530314D01*
X6224689Y6519900D01*
X6230023Y6514566D01*
X6240437Y6509486D01*
X6271679Y6499072D01*
X6281839Y6493992D01*
X6287173Y6488658D01*
X6292253Y6478244D01*
X6292253Y6462750D01*
X6281839Y6452336D01*
X6266345Y6447256D01*
X6245517Y6447256D01*
X6230023Y6452336D01*
X6219609Y6462750D01*
X2692260Y4890731D02*
G01*
X2681846Y4901145D01*
X2666352Y4906225D01*
X2645524Y4906225D01*
X2630030Y4901145D01*
X2619616Y4890731D01*
X2619616Y4880317D01*
X2624696Y4869903D01*
X2630030Y4864569D01*
X2640444Y4859489D01*
X2671686Y4849075D01*
X2681846Y4843995D01*
X2687180Y4838661D01*
X2692260Y4828247D01*
X2692260Y4812753D01*
X2681846Y4802339D01*
X2666352Y4797259D01*
X2645524Y4797259D01*
X2630030Y4802339D01*
X2619616Y4812753D01*
X2726550Y4906225D02*
G01*
X2726550Y4797259D01*
X2799448Y4906225D02*
G01*
X2799448Y4797259D01*
X2726550Y4854409D02*
G01*
X2799448Y4854409D01*
X2833738Y4906225D02*
G01*
X2833738Y4797259D01*
X2868028Y4906225D02*
G01*
X2868028Y4797259D01*
X2868028Y4906225D02*
G01*
X2935592Y4906225D01*
X2868028Y4854409D02*
G01*
X2909430Y4854409D01*
X3006204Y4906225D02*
G01*
X3006204Y4797259D01*
X2969882Y4906225D02*
G01*
X3042526Y4906225D01*
X25142215Y4890731D02*
G01*
X25131801Y4901145D01*
X25116307Y4906225D01*
X25095479Y4906225D01*
X25079985Y4901145D01*
X25069571Y4890731D01*
X25069571Y4880317D01*
X25074651Y4869903D01*
X25079985Y4864569D01*
X25090399Y4859489D01*
X25121641Y4849075D01*
X25131801Y4843995D01*
X25137135Y4838661D01*
X25142215Y4828247D01*
X25142215Y4812753D01*
X25131801Y4802339D01*
X25116307Y4797259D01*
X25095479Y4797259D01*
X25079985Y4802339D01*
X25069571Y4812753D01*
X25176505Y4906225D02*
G01*
X25176505Y4797259D01*
X25249403Y4906225D02*
G01*
X25249403Y4797259D01*
X25176505Y4854409D02*
G01*
X25249403Y4854409D01*
X25283693Y4906225D02*
G01*
X25283693Y4797259D01*
X25317983Y4906225D02*
G01*
X25317983Y4797259D01*
X25317983Y4906225D02*
G01*
X25385547Y4906225D01*
X25317983Y4854409D02*
G01*
X25359385Y4854409D01*
X25456159Y4906225D02*
G01*
X25456159Y4797259D01*
X25419837Y4906225D02*
G01*
X25492481Y4906225D01*
X25531851Y4880317D02*
G01*
X25531851Y4885397D01*
X25537185Y4895811D01*
X25542265Y4901145D01*
X25552679Y4906225D01*
X25573507Y4906225D01*
X25583921Y4901145D01*
X25589001Y4895811D01*
X25594335Y4885397D01*
X25594335Y4874983D01*
X25589001Y4864569D01*
X25578841Y4849075D01*
X25526771Y4797259D01*
X25599415Y4797259D01*
X9842245Y3240735D02*
G01*
X9831831Y3251149D01*
X9816338Y3256229D01*
X9795509Y3256229D01*
X9780015Y3251149D01*
X9769602Y3240735D01*
X9769602Y3230321D01*
X9774681Y3219907D01*
X9780015Y3214573D01*
X9790429Y3209493D01*
X9821672Y3199079D01*
X9831831Y3193999D01*
X9837165Y3188665D01*
X9842245Y3178251D01*
X9842245Y3162757D01*
X9831831Y3152343D01*
X9816338Y3147263D01*
X9795509Y3147263D01*
X9780015Y3152343D01*
X9769602Y3162757D01*
X9876536Y3256229D02*
G01*
X9876536Y3147263D01*
X9876536Y3256229D02*
G01*
X9923272Y3256229D01*
X9939020Y3251149D01*
X9944100Y3245815D01*
X9949434Y3235401D01*
X9949434Y3219907D01*
X9944100Y3209493D01*
X9939020Y3204413D01*
X9923272Y3199079D01*
X9876536Y3199079D01*
X10025125Y3256229D02*
G01*
X9983724Y3147263D01*
X10025125Y3256229D02*
G01*
X10066781Y3147263D01*
X9999218Y3183585D02*
G01*
X10051288Y3183585D01*
X10179050Y3230321D02*
G01*
X10173715Y3240735D01*
X10163302Y3251149D01*
X10153141Y3256229D01*
X10132313Y3256229D01*
X10121900Y3251149D01*
X10111486Y3240735D01*
X10106152Y3230321D01*
X10101072Y3214573D01*
X10101072Y3188665D01*
X10106152Y3173171D01*
X10111486Y3162757D01*
X10121900Y3152343D01*
X10132313Y3147263D01*
X10153141Y3147263D01*
X10163302Y3152343D01*
X10173715Y3162757D01*
X10179050Y3173171D01*
X10213340Y3256229D02*
G01*
X10213340Y3147263D01*
X10213340Y3256229D02*
G01*
X10280904Y3256229D01*
X10213340Y3204413D02*
G01*
X10254741Y3204413D01*
X10213340Y3147263D02*
G01*
X10280904Y3147263D01*
X15242235Y3240735D02*
G01*
X15231821Y3251149D01*
X15216327Y3256229D01*
X15195499Y3256229D01*
X15180005Y3251149D01*
X15169591Y3240735D01*
X15169591Y3230321D01*
X15174671Y3219907D01*
X15180005Y3214573D01*
X15190419Y3209493D01*
X15221661Y3199079D01*
X15231821Y3193999D01*
X15237155Y3188665D01*
X15242235Y3178251D01*
X15242235Y3162757D01*
X15231821Y3152343D01*
X15216327Y3147263D01*
X15195499Y3147263D01*
X15180005Y3152343D01*
X15169591Y3162757D01*
X15276525Y3256229D02*
G01*
X15276525Y3147263D01*
X15276525Y3256229D02*
G01*
X15323261Y3256229D01*
X15339009Y3251149D01*
X15344089Y3245815D01*
X15349423Y3235401D01*
X15349423Y3219907D01*
X15344089Y3209493D01*
X15339009Y3204413D01*
X15323261Y3199079D01*
X15276525Y3199079D01*
X15425115Y3256229D02*
G01*
X15383713Y3147263D01*
X15425115Y3256229D02*
G01*
X15466771Y3147263D01*
X15399207Y3183585D02*
G01*
X15451277Y3183585D01*
X15579039Y3230321D02*
G01*
X15573705Y3240735D01*
X15563291Y3251149D01*
X15553131Y3256229D01*
X15532303Y3256229D01*
X15521889Y3251149D01*
X15511475Y3240735D01*
X15506141Y3230321D01*
X15501061Y3214573D01*
X15501061Y3188665D01*
X15506141Y3173171D01*
X15511475Y3162757D01*
X15521889Y3152343D01*
X15532303Y3147263D01*
X15553131Y3147263D01*
X15563291Y3152343D01*
X15573705Y3162757D01*
X15579039Y3173171D01*
X15613329Y3256229D02*
G01*
X15613329Y3147263D01*
X15613329Y3256229D02*
G01*
X15680893Y3256229D01*
X15613329Y3204413D02*
G01*
X15654731Y3204413D01*
X15613329Y3147263D02*
G01*
X15680893Y3147263D01*
X15720263Y3230321D02*
G01*
X15720263Y3235401D01*
X15725597Y3245815D01*
X15730677Y3251149D01*
X15741091Y3256229D01*
X15761919Y3256229D01*
X15772333Y3251149D01*
X15777413Y3245815D01*
X15782747Y3235401D01*
X15782747Y3224987D01*
X15777413Y3214573D01*
X15766999Y3199079D01*
X15715183Y3147263D01*
X15787827Y3147263D01*
X10805922Y8206219D02*
G01*
X10805922Y8097253D01*
X10769600Y8206219D02*
G01*
X10842243Y8206219D01*
X1805939Y8206219D02*
G01*
X1805939Y8097253D01*
X1769618Y8206219D02*
G01*
X1842262Y8206219D01*
X1918207Y8206219D02*
G01*
X1876552Y8097253D01*
X1918207Y8206219D02*
G01*
X1959863Y8097253D01*
X1892300Y8133575D02*
G01*
X1944115Y8133575D01*
X1994154Y8206219D02*
G01*
X1994154Y8097253D01*
X1994154Y8206219D02*
G01*
X2040890Y8206219D01*
X2056384Y8201139D01*
X2061718Y8195805D01*
X2066797Y8185391D01*
X2066797Y8174977D01*
X2061718Y8164563D01*
X2056384Y8159483D01*
X2040890Y8154403D01*
X1994154Y8154403D02*
G01*
X2040890Y8154403D01*
X2056384Y8149069D01*
X2061718Y8143989D01*
X2066797Y8133575D01*
X2066797Y8117827D01*
X2061718Y8107413D01*
X2056384Y8102333D01*
X2040890Y8097253D01*
X1994154Y8097253D01*
X14369592Y8206219D02*
G01*
X14369592Y8128241D01*
X14374672Y8112747D01*
X14385086Y8102333D01*
X14400834Y8097253D01*
X14411248Y8097253D01*
X14426742Y8102333D01*
X14437156Y8112747D01*
X14442236Y8128241D01*
X14442236Y8206219D01*
X23269575Y4906225D02*
G01*
X23269575Y4828247D01*
X23274654Y4812753D01*
X23285068Y4802339D01*
X23300816Y4797259D01*
X23311231Y4797259D01*
X23326725Y4802339D01*
X23337138Y4812753D01*
X23342218Y4828247D01*
X23342218Y4906225D01*
X23376509Y4906225D02*
G01*
X23376509Y4797259D01*
X23376509Y4906225D02*
G01*
X23423245Y4906225D01*
X23438993Y4901145D01*
X23444073Y4895811D01*
X23449406Y4885397D01*
X23449406Y4869903D01*
X23444073Y4859489D01*
X23438993Y4854409D01*
X23423245Y4849075D01*
X23376509Y4849075D01*
X10669600Y4906225D02*
G01*
X10711256Y4797259D01*
X10752658Y4906225D02*
G01*
X10711256Y4797259D01*
X5369610Y8206219D02*
G01*
X5395518Y8097253D01*
X5421680Y8206219D02*
G01*
X5395518Y8097253D01*
X5421680Y8206219D02*
G01*
X5447588Y8097253D01*
X5473496Y8206219D02*
G01*
X5447588Y8097253D01*
X4419612Y3256229D02*
G01*
X4445520Y3147263D01*
X4471682Y3256229D02*
G01*
X4445520Y3147263D01*
X4471682Y3256229D02*
G01*
X4497590Y3147263D01*
X4523498Y3256229D02*
G01*
X4497590Y3147263D01*
X4557788Y3256229D02*
G01*
X4557788Y3147263D01*
X4592078Y3256229D02*
G01*
X4592078Y3147263D01*
X4592078Y3256229D02*
G01*
X4664722Y3147263D01*
X4664722Y3256229D02*
G01*
X4664722Y3147263D01*
X7069607Y4906225D02*
G01*
X7142251Y4797259D01*
X7142251Y4906225D02*
G01*
X7069607Y4797259D01*
X5269611Y4906225D02*
G01*
X5311266Y4854409D01*
X5311266Y4797259D01*
X5352668Y4906225D02*
G01*
X5311266Y4854409D01*
X12642240Y8206219D02*
G01*
X12569596Y8097253D01*
X12569596Y8206219D02*
G01*
X12642240Y8206219D01*
X12569596Y8097253D02*
G01*
X12642240Y8097253D01*
X25169571Y8206219D02*
G01*
X25242215Y8081505D01*
X21595486Y8227047D02*
G01*
X21585072Y8221713D01*
X21579992Y8216633D01*
X21574658Y8206219D01*
X21574658Y8195805D01*
X21579992Y8185391D01*
X21585072Y8180311D01*
X21590406Y8169897D01*
X21590406Y8159483D01*
X21579992Y8149069D01*
X21585072Y8221713D02*
G01*
X21579992Y8211553D01*
X21579992Y8201139D01*
X21585072Y8190725D01*
X21590406Y8185391D01*
X21595486Y8174977D01*
X21595486Y8164563D01*
X21590406Y8154403D01*
X21569578Y8143989D01*
X21590406Y8133575D01*
X21595486Y8123161D01*
X21595486Y8112747D01*
X21590406Y8102333D01*
X21585072Y8097253D01*
X21579992Y8086839D01*
X21579992Y8076425D01*
X21585072Y8066011D01*
X21579992Y8138655D02*
G01*
X21590406Y8128241D01*
X21590406Y8117827D01*
X21585072Y8107413D01*
X21579992Y8102333D01*
X21574658Y8091919D01*
X21574658Y8081505D01*
X21579992Y8071091D01*
X21585072Y8066011D01*
X21595486Y8060677D01*
X23369574Y8227047D02*
G01*
X23379988Y8221713D01*
X23385068Y8216633D01*
X23390402Y8206219D01*
X23390402Y8195805D01*
X23385068Y8185391D01*
X23379988Y8180311D01*
X23374654Y8169897D01*
X23374654Y8159483D01*
X23385068Y8149069D01*
X23379988Y8221713D02*
G01*
X23385068Y8211553D01*
X23385068Y8201139D01*
X23379988Y8190725D01*
X23374654Y8185391D01*
X23369574Y8174977D01*
X23369574Y8164563D01*
X23374654Y8154403D01*
X23395482Y8143989D01*
X23374654Y8133575D01*
X23369574Y8123161D01*
X23369574Y8112747D01*
X23374654Y8102333D01*
X23379988Y8097253D01*
X23385068Y8086839D01*
X23385068Y8076425D01*
X23379988Y8066011D01*
X23385068Y8138655D02*
G01*
X23374654Y8128241D01*
X23374654Y8117827D01*
X23379988Y8107413D01*
X23385068Y8102333D01*
X23390402Y8091919D01*
X23390402Y8081505D01*
X23385068Y8071091D01*
X23379988Y8066011D01*
X23369574Y8060677D01*
X28993084Y9318904D02*
G01*
X29102050Y9318904D01*
X28993084Y9318904D02*
G01*
X28993084Y9365640D01*
X28998163Y9381134D01*
X29003498Y9386468D01*
X29013911Y9391548D01*
X29024325Y9391548D01*
X29034740Y9386468D01*
X29039820Y9381134D01*
X29044900Y9365640D01*
X29044900Y9318904D01*
X29044900Y9355226D02*
G01*
X29102050Y9391548D01*
X29008577Y9498736D02*
G01*
X28998163Y9488322D01*
X28993084Y9472574D01*
X28993084Y9452000D01*
X28998163Y9436252D01*
X29008577Y9425838D01*
X29018991Y9425838D01*
X29029406Y9431172D01*
X29034740Y9436252D01*
X29039820Y9446666D01*
X29050234Y9477908D01*
X29055313Y9488322D01*
X29060648Y9493402D01*
X29071061Y9498736D01*
X29086556Y9498736D01*
X29096970Y9488322D01*
X29102050Y9472574D01*
X29102050Y9452000D01*
X29096970Y9436252D01*
X29086556Y9425838D01*
X28993084Y9569348D02*
G01*
X29102050Y9569348D01*
X28993084Y9533026D02*
G01*
X28993084Y9605670D01*
X10831829Y9856215D02*
G01*
X10780013Y9856215D01*
X10774679Y9809479D01*
X10780013Y9814560D01*
X10795508Y9819894D01*
X10811256Y9819894D01*
X10826750Y9814560D01*
X10837163Y9804400D01*
X10842243Y9788652D01*
X10842243Y9778237D01*
X10837163Y9762744D01*
X10826750Y9752329D01*
X10811256Y9747250D01*
X10795508Y9747250D01*
X10780013Y9752329D01*
X10774679Y9757410D01*
X10769600Y9767824D01*
X29096715Y8343900D02*
G01*
X29018738Y8343900D01*
X29003243Y8338820D01*
X28992829Y8328405D01*
X28987750Y8312658D01*
X28987750Y8302244D01*
X28992829Y8286750D01*
X29003243Y8276336D01*
X29018738Y8271255D01*
X29096715Y8271255D01*
X29075888Y8236965D02*
G01*
X29081222Y8226552D01*
X29096715Y8210804D01*
X28987750Y8210804D01*
D20*
X27526513Y9821646D02*
G01*
X27526513Y9745192D01*
X27501113Y9821646D02*
G01*
X27551913Y9821646D01*
X27576043Y9821646D02*
G01*
X27626843Y9745192D01*
X27626843Y9821646D02*
G01*
X27576043Y9745192D01*
X27672817Y9821646D02*
G01*
X27661895Y9818090D01*
X27654529Y9807168D01*
X27650973Y9788880D01*
X27650973Y9777958D01*
X27654529Y9759924D01*
X27661895Y9749002D01*
X27672817Y9745192D01*
X27679929Y9745192D01*
X27690851Y9749002D01*
X27698217Y9759924D01*
X27701773Y9777958D01*
X27701773Y9788880D01*
X27698217Y9807168D01*
X27690851Y9818090D01*
X27679929Y9821646D01*
X27672817Y9821646D01*
X27456891Y9567671D02*
G01*
X27456891Y9491218D01*
X27456891Y9567671D02*
G01*
X27482291Y9567671D01*
X27493213Y9564115D01*
X27500579Y9556750D01*
X27504136Y9549384D01*
X27507691Y9538462D01*
X27507691Y9520428D01*
X27504136Y9509505D01*
X27500579Y9502139D01*
X27493213Y9494774D01*
X27482291Y9491218D01*
X27456891Y9491218D01*
X27535377Y9549384D02*
G01*
X27535377Y9553194D01*
X27539188Y9560305D01*
X27542743Y9564115D01*
X27550109Y9567671D01*
X27564588Y9567671D01*
X27571700Y9564115D01*
X27575509Y9560305D01*
X27579065Y9553194D01*
X27579065Y9545828D01*
X27575509Y9538462D01*
X27568143Y9527539D01*
X27531822Y9491218D01*
X27582622Y9491218D01*
X27456891Y8551671D02*
G01*
X27456891Y8475218D01*
X27456891Y8551671D02*
G01*
X27482291Y8551671D01*
X27493213Y8548115D01*
X27500579Y8540750D01*
X27504136Y8533384D01*
X27507691Y8522462D01*
X27507691Y8504428D01*
X27504136Y8493505D01*
X27500579Y8486139D01*
X27493213Y8478774D01*
X27482291Y8475218D01*
X27456891Y8475218D01*
X27553665Y8551671D02*
G01*
X27542743Y8548115D01*
X27535377Y8537194D01*
X27531822Y8518905D01*
X27531822Y8507984D01*
X27535377Y8489695D01*
X27542743Y8478774D01*
X27553665Y8475218D01*
X27561032Y8475218D01*
X27571700Y8478774D01*
X27579065Y8489695D01*
X27582622Y8507984D01*
X27582622Y8518905D01*
X27579065Y8537194D01*
X27571700Y8548115D01*
X27561032Y8551671D01*
X27553665Y8551671D01*
X27456891Y8805671D02*
G01*
X27456891Y8729218D01*
X27456891Y8805671D02*
G01*
X27482291Y8805671D01*
X27493213Y8802115D01*
X27500579Y8794750D01*
X27504136Y8787384D01*
X27507691Y8776462D01*
X27507691Y8758428D01*
X27504136Y8747505D01*
X27500579Y8740139D01*
X27493213Y8732774D01*
X27482291Y8729218D01*
X27456891Y8729218D01*
X27531822Y8791194D02*
G01*
X27539188Y8794750D01*
X27550109Y8805671D01*
X27550109Y8729218D01*
X27479523Y9041358D02*
G01*
X27475713Y9048724D01*
X27468601Y9056090D01*
X27461235Y9059646D01*
X27446757Y9059646D01*
X27439391Y9056090D01*
X27432279Y9048724D01*
X27428469Y9041358D01*
X27424913Y9030436D01*
X27424913Y9012402D01*
X27428469Y9001480D01*
X27432279Y8994114D01*
X27439391Y8987002D01*
X27446757Y8983192D01*
X27461235Y8983192D01*
X27468601Y8987002D01*
X27475713Y8994114D01*
X27479523Y9001480D01*
X27479523Y9012402D01*
X27461235Y9012402D02*
G01*
X27479523Y9012402D01*
X27503399Y9059646D02*
G01*
X27503399Y8983192D01*
X27503399Y9059646D02*
G01*
X27554453Y8983192D01*
X27554453Y9059646D02*
G01*
X27554453Y8983192D01*
X27578329Y9059646D02*
G01*
X27578329Y8983192D01*
X27578329Y9059646D02*
G01*
X27603729Y9059646D01*
X27614651Y9056090D01*
X27622017Y9048724D01*
X27625573Y9041358D01*
X27629383Y9030436D01*
X27629383Y9012402D01*
X27625573Y9001480D01*
X27622017Y8994114D01*
X27614651Y8987002D01*
X27603729Y8983192D01*
X27578329Y8983192D01*
X27479523Y9295358D02*
G01*
X27475713Y9302724D01*
X27468601Y9310090D01*
X27461235Y9313646D01*
X27446757Y9313646D01*
X27439391Y9310090D01*
X27432279Y9302724D01*
X27428469Y9295358D01*
X27424913Y9284436D01*
X27424913Y9266402D01*
X27428469Y9255480D01*
X27432279Y9248114D01*
X27439391Y9241002D01*
X27446757Y9237192D01*
X27461235Y9237192D01*
X27468601Y9241002D01*
X27475713Y9248114D01*
X27479523Y9255480D01*
X27479523Y9266402D01*
X27461235Y9266402D02*
G01*
X27479523Y9266402D01*
X27503399Y9313646D02*
G01*
X27503399Y9237192D01*
X27503399Y9313646D02*
G01*
X27554453Y9237192D01*
X27554453Y9313646D02*
G01*
X27554453Y9237192D01*
X27578329Y9313646D02*
G01*
X27578329Y9237192D01*
X27578329Y9313646D02*
G01*
X27603729Y9313646D01*
X27614651Y9310090D01*
X27622017Y9302724D01*
X27625573Y9295358D01*
X27629383Y9284436D01*
X27629383Y9266402D01*
X27625573Y9255480D01*
X27622017Y9248114D01*
X27614651Y9241002D01*
X27603729Y9237192D01*
X27578329Y9237192D01*
X27456891Y8297671D02*
G01*
X27456891Y8221218D01*
X27456891Y8297671D02*
G01*
X27482291Y8297671D01*
X27493213Y8294115D01*
X27500579Y8286750D01*
X27504136Y8279384D01*
X27507691Y8268462D01*
X27507691Y8250428D01*
X27504136Y8239505D01*
X27500579Y8232139D01*
X27493213Y8224773D01*
X27482291Y8221218D01*
X27456891Y8221218D01*
X27568143Y8297671D02*
G01*
X27531822Y8246618D01*
X27586432Y8246618D01*
X27568143Y8297671D02*
G01*
X27568143Y8221218D01*
X27511502Y8025384D02*
G01*
X27507691Y8032750D01*
X27500579Y8040115D01*
X27493213Y8043671D01*
X27478736Y8043671D01*
X27471370Y8040115D01*
X27464258Y8032750D01*
X27460448Y8025384D01*
X27456891Y8014462D01*
X27456891Y7996428D01*
X27460448Y7985505D01*
X27464258Y7978139D01*
X27471370Y7970773D01*
X27478736Y7967218D01*
X27493213Y7967218D01*
X27500579Y7970773D01*
X27507691Y7978139D01*
X27511502Y7985505D01*
X27579065Y8032750D02*
G01*
X27575509Y8040115D01*
X27564588Y8043671D01*
X27557222Y8043671D01*
X27546300Y8040115D01*
X27539188Y8029194D01*
X27535377Y8010905D01*
X27535377Y7992618D01*
X27539188Y7978139D01*
X27546300Y7970773D01*
X27557222Y7967218D01*
X27561032Y7967218D01*
X27571700Y7970773D01*
X27579065Y7978139D01*
X27582622Y7989062D01*
X27582622Y7992618D01*
X27579065Y8003539D01*
X27571700Y8010905D01*
X27561032Y8014462D01*
X27557222Y8014462D01*
X27546300Y8010905D01*
X27539188Y8003539D01*
X27535377Y7992618D01*
X27456891Y7789671D02*
G01*
X27456891Y7713218D01*
X27456891Y7789671D02*
G01*
X27482291Y7789671D01*
X27493213Y7786115D01*
X27500579Y7778750D01*
X27504136Y7771384D01*
X27507691Y7760462D01*
X27507691Y7742428D01*
X27504136Y7731505D01*
X27500579Y7724139D01*
X27493213Y7716773D01*
X27482291Y7713218D01*
X27456891Y7713218D01*
X27582622Y7789671D02*
G01*
X27546300Y7713218D01*
X27531822Y7789671D02*
G01*
X27582622Y7789671D01*
X27456891Y7535671D02*
G01*
X27456891Y7459218D01*
X27456891Y7535671D02*
G01*
X27504136Y7535671D01*
X27456891Y7499350D02*
G01*
X27486102Y7499350D01*
X27456891Y7459218D02*
G01*
X27504136Y7459218D01*
X27571700Y7524750D02*
G01*
X27568143Y7532115D01*
X27557222Y7535671D01*
X27550109Y7535671D01*
X27539188Y7532115D01*
X27531822Y7521194D01*
X27528265Y7502905D01*
X27528265Y7484618D01*
X27531822Y7470139D01*
X27539188Y7462773D01*
X27550109Y7459218D01*
X27553665Y7459218D01*
X27564588Y7462773D01*
X27571700Y7470139D01*
X27575509Y7481062D01*
X27575509Y7484618D01*
X27571700Y7495539D01*
X27564588Y7502905D01*
X27553665Y7506462D01*
X27550109Y7506462D01*
X27539188Y7502905D01*
X27531822Y7495539D01*
X27528265Y7484618D01*
X27456891Y7281671D02*
G01*
X27456891Y7205218D01*
X27456891Y7281671D02*
G01*
X27489658Y7281671D01*
X27500579Y7278115D01*
X27504136Y7274305D01*
X27507691Y7267194D01*
X27507691Y7259828D01*
X27504136Y7252462D01*
X27500579Y7248905D01*
X27489658Y7245350D01*
X27456891Y7245350D02*
G01*
X27489658Y7245350D01*
X27500579Y7241539D01*
X27504136Y7237984D01*
X27507691Y7230618D01*
X27507691Y7219695D01*
X27504136Y7212584D01*
X27500579Y7208773D01*
X27489658Y7205218D01*
X27456891Y7205218D01*
X27568143Y7281671D02*
G01*
X27531822Y7230618D01*
X27586432Y7230618D01*
X27568143Y7281671D02*
G01*
X27568143Y7205218D01*
X27456891Y7027671D02*
G01*
X27456891Y6951218D01*
X27456891Y7027671D02*
G01*
X27489658Y7027671D01*
X27500579Y7024115D01*
X27504136Y7020305D01*
X27507691Y7013194D01*
X27507691Y7005828D01*
X27504136Y6998462D01*
X27500579Y6994905D01*
X27489658Y6991350D01*
X27456891Y6991350D02*
G01*
X27489658Y6991350D01*
X27500579Y6987539D01*
X27504136Y6983984D01*
X27507691Y6976618D01*
X27507691Y6965695D01*
X27504136Y6958584D01*
X27500579Y6954773D01*
X27489658Y6951218D01*
X27456891Y6951218D01*
X27575509Y7027671D02*
G01*
X27539188Y7027671D01*
X27535377Y6994905D01*
X27539188Y6998462D01*
X27550109Y7002271D01*
X27561032Y7002271D01*
X27571700Y6998462D01*
X27579065Y6991350D01*
X27582622Y6980428D01*
X27582622Y6973062D01*
X27579065Y6962139D01*
X27571700Y6954773D01*
X27561032Y6951218D01*
X27550109Y6951218D01*
X27539188Y6954773D01*
X27535377Y6958584D01*
X27531822Y6965695D01*
X28549091Y7027671D02*
G01*
X28549091Y6951218D01*
X28549091Y7027671D02*
G01*
X28581858Y7027671D01*
X28592779Y7024115D01*
X28596336Y7020305D01*
X28599891Y7013194D01*
X28599891Y7005828D01*
X28596336Y6998462D01*
X28592779Y6994905D01*
X28581858Y6991350D01*
X28549091Y6991350D02*
G01*
X28581858Y6991350D01*
X28592779Y6987539D01*
X28596336Y6983984D01*
X28599891Y6976618D01*
X28599891Y6965695D01*
X28596336Y6958584D01*
X28592779Y6954773D01*
X28581858Y6951218D01*
X28549091Y6951218D01*
X28667709Y7016750D02*
G01*
X28663900Y7024115D01*
X28653232Y7027671D01*
X28645865Y7027671D01*
X28634943Y7024115D01*
X28627577Y7013194D01*
X28624022Y6994905D01*
X28624022Y6976618D01*
X28627577Y6962139D01*
X28634943Y6954773D01*
X28645865Y6951218D01*
X28649422Y6951218D01*
X28660343Y6954773D01*
X28667709Y6962139D01*
X28671265Y6973062D01*
X28671265Y6976618D01*
X28667709Y6987539D01*
X28660343Y6994905D01*
X28649422Y6998462D01*
X28645865Y6998462D01*
X28634943Y6994905D01*
X28627577Y6987539D01*
X28624022Y6976618D01*
X28549091Y7535671D02*
G01*
X28549091Y7459218D01*
X28549091Y7535671D02*
G01*
X28581858Y7535671D01*
X28592779Y7532115D01*
X28596336Y7528305D01*
X28599891Y7521194D01*
X28599891Y7513828D01*
X28596336Y7506462D01*
X28592779Y7502905D01*
X28581858Y7499350D01*
X28549091Y7499350D02*
G01*
X28581858Y7499350D01*
X28592779Y7495539D01*
X28596336Y7491984D01*
X28599891Y7484618D01*
X28599891Y7473695D01*
X28596336Y7466584D01*
X28592779Y7462773D01*
X28581858Y7459218D01*
X28549091Y7459218D01*
X28631388Y7535671D02*
G01*
X28671265Y7535671D01*
X28649422Y7506462D01*
X28660343Y7506462D01*
X28667709Y7502905D01*
X28671265Y7499350D01*
X28674822Y7488428D01*
X28674822Y7481062D01*
X28671265Y7470139D01*
X28663900Y7462773D01*
X28653232Y7459218D01*
X28642309Y7459218D01*
X28631388Y7462773D01*
X28627577Y7466584D01*
X28624022Y7473695D01*
X28549091Y7789671D02*
G01*
X28549091Y7713218D01*
X28549091Y7789671D02*
G01*
X28581858Y7789671D01*
X28592779Y7786115D01*
X28596336Y7782305D01*
X28599891Y7775194D01*
X28599891Y7767828D01*
X28596336Y7760462D01*
X28592779Y7756905D01*
X28581858Y7753350D01*
X28549091Y7753350D02*
G01*
X28581858Y7753350D01*
X28592779Y7749539D01*
X28596336Y7745984D01*
X28599891Y7738618D01*
X28599891Y7727695D01*
X28596336Y7720584D01*
X28592779Y7716773D01*
X28581858Y7713218D01*
X28549091Y7713218D01*
X28624022Y7775194D02*
G01*
X28631388Y7778750D01*
X28642309Y7789671D01*
X28642309Y7713218D01*
X28549091Y8805671D02*
G01*
X28549091Y8729218D01*
X28549091Y8805671D02*
G01*
X28596336Y8805671D01*
X28549091Y8769350D02*
G01*
X28578302Y8769350D01*
X28656788Y8805671D02*
G01*
X28620465Y8754618D01*
X28674822Y8754618D01*
X28656788Y8805671D02*
G01*
X28656788Y8729218D01*
X28517088Y9059671D02*
G01*
X28546298Y8983218D01*
X28575254Y9059671D02*
G01*
X28546298Y8983218D01*
X28653740Y9041384D02*
G01*
X28650184Y9048750D01*
X28642818Y9056115D01*
X28635706Y9059671D01*
X28621227Y9059671D01*
X28613861Y9056115D01*
X28606495Y9048750D01*
X28602940Y9041384D01*
X28599384Y9030462D01*
X28599384Y9012428D01*
X28602940Y9001505D01*
X28606495Y8994139D01*
X28613861Y8986774D01*
X28621227Y8983218D01*
X28635706Y8983218D01*
X28642818Y8986774D01*
X28650184Y8994139D01*
X28653740Y9001505D01*
X28732479Y9041384D02*
G01*
X28728670Y9048750D01*
X28721558Y9056115D01*
X28714191Y9059671D01*
X28699713Y9059671D01*
X28692348Y9056115D01*
X28685236Y9048750D01*
X28681425Y9041384D01*
X28677870Y9030462D01*
X28677870Y9012428D01*
X28681425Y9001505D01*
X28685236Y8994139D01*
X28692348Y8986774D01*
X28699713Y8983218D01*
X28714191Y8983218D01*
X28721558Y8986774D01*
X28728670Y8994139D01*
X28732479Y9001505D01*
X28517088Y9313671D02*
G01*
X28517088Y9237218D01*
X28517088Y9313671D02*
G01*
X28549854Y9313671D01*
X28560775Y9310115D01*
X28564332Y9306305D01*
X28567888Y9299194D01*
X28567888Y9291828D01*
X28564332Y9284462D01*
X28560775Y9280905D01*
X28549854Y9277350D01*
X28517088Y9277350D01*
X28542488Y9277350D02*
G01*
X28567888Y9237218D01*
X28642818Y9302750D02*
G01*
X28635706Y9310115D01*
X28624784Y9313671D01*
X28610306Y9313671D01*
X28599384Y9310115D01*
X28592018Y9302750D01*
X28592018Y9295384D01*
X28595574Y9288271D01*
X28599384Y9284462D01*
X28606495Y9280905D01*
X28628340Y9273539D01*
X28635706Y9269984D01*
X28639261Y9266428D01*
X28642818Y9259062D01*
X28642818Y9248139D01*
X28635706Y9240774D01*
X28624784Y9237218D01*
X28610306Y9237218D01*
X28599384Y9240774D01*
X28592018Y9248139D01*
X28692348Y9313671D02*
G01*
X28692348Y9237218D01*
X28666948Y9313671D02*
G01*
X28717748Y9313671D01*
X28571698Y9549384D02*
G01*
X28567888Y9556750D01*
X28560775Y9564115D01*
X28553409Y9567671D01*
X28538932Y9567671D01*
X28531565Y9564115D01*
X28524454Y9556750D01*
X28520643Y9549384D01*
X28517088Y9538462D01*
X28517088Y9520428D01*
X28520643Y9509505D01*
X28524454Y9502139D01*
X28531565Y9494774D01*
X28538932Y9491218D01*
X28553409Y9491218D01*
X28560775Y9494774D01*
X28567888Y9502139D01*
X28571698Y9509505D01*
X28571698Y9520428D01*
X28553409Y9520428D02*
G01*
X28571698Y9520428D01*
X28595574Y9567671D02*
G01*
X28595574Y9491218D01*
X28595574Y9567671D02*
G01*
X28646627Y9491218D01*
X28646627Y9567671D02*
G01*
X28646627Y9491218D01*
X28670504Y9567671D02*
G01*
X28670504Y9491218D01*
X28670504Y9567671D02*
G01*
X28695904Y9567671D01*
X28706825Y9564115D01*
X28714191Y9556750D01*
X28717748Y9549384D01*
X28721558Y9538462D01*
X28721558Y9520428D01*
X28717748Y9509505D01*
X28714191Y9502139D01*
X28706825Y9494774D01*
X28695904Y9491218D01*
X28670504Y9491218D01*
X28517088Y9821671D02*
G01*
X28517088Y9745218D01*
X28517088Y9821671D02*
G01*
X28549854Y9821671D01*
X28560775Y9818115D01*
X28564332Y9814305D01*
X28567888Y9807194D01*
X28567888Y9799828D01*
X28564332Y9792462D01*
X28560775Y9788905D01*
X28549854Y9785350D01*
X28517088Y9785350D01*
X28542488Y9785350D02*
G01*
X28567888Y9745218D01*
X28621227Y9821671D02*
G01*
X28592018Y9745218D01*
X28621227Y9821671D02*
G01*
X28650184Y9745218D01*
X28602940Y9770618D02*
G01*
X28639261Y9770618D01*
X28674313Y9821671D02*
G01*
X28692348Y9745218D01*
X28710636Y9821671D02*
G01*
X28692348Y9745218D01*
X28710636Y9821671D02*
G01*
X28728670Y9745218D01*
X28746958Y9821671D02*
G01*
X28728670Y9745218D01*
X28549091Y8551671D02*
G01*
X28549091Y8475218D01*
X28549091Y8551671D02*
G01*
X28596336Y8551671D01*
X28549091Y8515350D02*
G01*
X28578302Y8515350D01*
X28663900Y8551671D02*
G01*
X28627577Y8551671D01*
X28624022Y8518905D01*
X28627577Y8522462D01*
X28638500Y8526271D01*
X28649422Y8526271D01*
X28660343Y8522462D01*
X28667709Y8515350D01*
X28671265Y8504428D01*
X28671265Y8497062D01*
X28667709Y8486139D01*
X28660343Y8478774D01*
X28649422Y8475218D01*
X28638500Y8475218D01*
X28627577Y8478774D01*
X28624022Y8482584D01*
X28620465Y8489695D01*
X28549091Y8297671D02*
G01*
X28549091Y8221218D01*
X28549091Y8297671D02*
G01*
X28596336Y8297671D01*
X28549091Y8261350D02*
G01*
X28578302Y8261350D01*
X28663900Y8286750D02*
G01*
X28660343Y8294115D01*
X28649422Y8297671D01*
X28642309Y8297671D01*
X28631388Y8294115D01*
X28624022Y8283194D01*
X28620465Y8264905D01*
X28620465Y8246618D01*
X28624022Y8232139D01*
X28631388Y8224773D01*
X28642309Y8221218D01*
X28645865Y8221218D01*
X28656788Y8224773D01*
X28663900Y8232139D01*
X28667709Y8243062D01*
X28667709Y8246618D01*
X28663900Y8257539D01*
X28656788Y8264905D01*
X28645865Y8268462D01*
X28642309Y8268462D01*
X28631388Y8264905D01*
X28624022Y8257539D01*
X28620465Y8246618D01*
X28549091Y8043671D02*
G01*
X28549091Y7967218D01*
X28549091Y8043671D02*
G01*
X28596336Y8043671D01*
X28549091Y8007350D02*
G01*
X28578302Y8007350D01*
X28671265Y8043671D02*
G01*
X28634943Y7967218D01*
X28620465Y8043671D02*
G01*
X28671265Y8043671D01*
X28549091Y7281671D02*
G01*
X28549091Y7205218D01*
X28549091Y7281671D02*
G01*
X28581858Y7281671D01*
X28592779Y7278115D01*
X28596336Y7274305D01*
X28599891Y7267194D01*
X28599891Y7259828D01*
X28596336Y7252462D01*
X28592779Y7248905D01*
X28581858Y7245350D01*
X28549091Y7245350D02*
G01*
X28581858Y7245350D01*
X28592779Y7241539D01*
X28596336Y7237984D01*
X28599891Y7230618D01*
X28599891Y7219695D01*
X28596336Y7212584D01*
X28592779Y7208773D01*
X28581858Y7205218D01*
X28549091Y7205218D01*
X28627577Y7263384D02*
G01*
X28627577Y7267194D01*
X28631388Y7274305D01*
X28634943Y7278115D01*
X28642309Y7281671D01*
X28656788Y7281671D01*
X28663900Y7278115D01*
X28667709Y7274305D01*
X28671265Y7267194D01*
X28671265Y7259828D01*
X28667709Y7252462D01*
X28660343Y7241539D01*
X28624022Y7205218D01*
X28674822Y7205218D01*
D10*
X26619200Y5486400D02*
G01*
X29133800Y5486400D01*
X29133800Y4216400D01*
X26619200Y4216400D01*
X26619200Y5486400D01*
X26619200Y5486400D02*
G01*
X29133800Y5486400D01*
X29133800Y3962400D01*
X26619200Y3962400D01*
X26619200Y5486400D01*
D19*
X26606500Y3454400D02*
G01*
X26606500Y6045200D01*
D20*
X26619200Y4216400D02*
G01*
X27000200Y4216400D01*
X27000200Y3962400D01*
X26619200Y3962400D01*
X26619200Y4216400D01*
X28740100Y4216400D02*
G01*
X29121100Y4216400D01*
X29121100Y3962400D01*
X28740100Y3962400D01*
X28740100Y4216400D01*
D19*
X29133800Y3454400D02*
G01*
X28765728Y3455393D01*
X26606500Y6045200D02*
G01*
X29133800Y6045200D01*
X29133800Y6045200D02*
G01*
X29133800Y3454400D01*
X26987728Y3455393D02*
G01*
X26606500Y3454400D01*
D20*
X28638728Y3540404D02*
G01*
X27111759Y3540404D01*
X27114728Y3963393D01*
X28638728Y3963393D01*
X28637738Y3539385D01*
X27495500Y3962400D02*
G01*
X28257500Y3962400D01*
X27495500Y4216400D02*
G01*
X28257500Y4216400D01*
D19*
X28511728Y3709393D02*
G01*
X27241728Y3709393D01*
D20*
X27495982Y3964378D02*
G01*
X28257982Y3964378D01*
D10*
X29161201Y9184500D02*
G01*
X29161204Y9484499D01*
X29411203Y9184500D02*
G01*
X29411201Y9484499D01*
X29178084Y9184500D02*
G01*
X29161201Y9184500D01*
X29161201Y9184500D02*
G01*
X29161201Y9484499D01*
X29161201Y9484499D02*
G01*
X29178087Y9484499D01*
X29394315Y9484499D02*
G01*
X29411201Y9484499D01*
X29411201Y9484499D02*
G01*
X29411201Y9184500D01*
X29411201Y9184500D02*
G01*
X29394886Y9184500D01*
D21*
X27432000Y9867900D02*
G01*
X27432000Y9613900D01*
X27178000Y9613900D01*
X27178000Y9867900D02*
G01*
X27178000Y6819900D01*
X28956000Y6819900D01*
X28956000Y9867900D01*
X27178000Y9867900D01*
D19*
G75*
G01*
X28511774Y3709368D02*
G02*
X28765749Y3455393I7716J-246259D01*
G75*
G01*
X26987774Y3455416D02*
G02*
X27241749Y3709391I246259J7715D01*
G75*
G01*
X27368500Y4089400D02*
G02*
X27490496Y4216400I95028J30811D01*
G75*
G01*
X27495500Y3962400D02*
G02*
X27368475Y4089375I-28076J98938D01*
G75*
G01*
X28384500Y4089400D02*
G02*
X28257525Y3962375I-98938J-28076D01*
G75*
G01*
X28257500Y4216400D02*
G02*
X28384525Y4089425I28076J-98938D01*
D10*
G75*
G01
X26984960Y5842000D02*
G03X26984960Y5842000I-175260J0D01*
G75*
G01
X29105860Y5842000D02*
G03X29105860Y5842000I-175260J0D01*
G75*
G01
X29105860Y3708400D02*
G03X29105860Y3708400I-175260J0D01*
G75*
G01
X26959560Y3708400D02*
G03X26959560Y3708400I-175260J0D01*
G75*
G01
X29366210Y9334500D02*
G03X29366210Y9334500I-80010J0D01*
M02*
