G04 Layer: BottomSolderMaskLayer*
G04 EasyEDA v6.5.1, 2022-08-22 11:36:35*
G04 479a10040a424d6084b7507f6101f796,d603b60474844c32a05bd641800ef4e1,10*
G04 Gerber Generator version 0.2*
G04 Scale: 100 percent, Rotated: No, Reflected: No *
G04 Dimensions in millimeters *
G04 leading zeros omitted , absolute positions ,4 integer and 5 decimal *
%FSLAX45Y45*%
%MOMM*%

%ADD22C,1.9812*%
%ADD23C,2.1336*%
%ADD25C,1.8542*%

%LPD*%
D22*
X27495500Y5806300D02*
G01*
X27495500Y5928499D01*
X27749500Y5806300D02*
G01*
X27749500Y5928499D01*
X28003500Y5806300D02*
G01*
X28003500Y5928499D01*
X28257500Y5806300D02*
G01*
X28257500Y5928499D01*
G36*
X24455374Y6208776D02*
G01*
X24455374Y6351270D01*
X24600661Y6351270D01*
X24600661Y6208776D01*
G37*
G36*
X24749252Y6208776D02*
G01*
X24749252Y6351270D01*
X24894540Y6351270D01*
X24894540Y6208776D01*
G37*
G36*
X19580352Y9503918D02*
G01*
X19580352Y9646158D01*
X19725640Y9646158D01*
X19725640Y9503918D01*
G37*
G36*
X19874229Y9503918D02*
G01*
X19874229Y9646158D01*
X20019518Y9646158D01*
X20019518Y9503918D01*
G37*
G36*
X3380231Y9503918D02*
G01*
X3380231Y9646158D01*
X3525774Y9646158D01*
X3525774Y9503918D01*
G37*
G36*
X3674363Y9503918D02*
G01*
X3674363Y9646158D01*
X3819652Y9646158D01*
X3819652Y9503918D01*
G37*
G36*
X5180329Y9503918D02*
G01*
X5180329Y9646158D01*
X5325618Y9646158D01*
X5325618Y9503918D01*
G37*
G36*
X5474208Y9503918D02*
G01*
X5474208Y9646158D01*
X5619750Y9646158D01*
X5619750Y9503918D01*
G37*
G36*
X6980427Y9503918D02*
G01*
X6980427Y9646158D01*
X7125715Y9646158D01*
X7125715Y9503918D01*
G37*
G36*
X7274306Y9503918D02*
G01*
X7274306Y9646158D01*
X7419593Y9646158D01*
X7419593Y9503918D01*
G37*
G36*
X8780272Y9503918D02*
G01*
X8780272Y9646158D01*
X8925559Y9646158D01*
X8925559Y9503918D01*
G37*
G36*
X9074404Y9503918D02*
G01*
X9074404Y9646158D01*
X9219691Y9646158D01*
X9219691Y9503918D01*
G37*
G36*
X10580370Y9503918D02*
G01*
X10580370Y9646158D01*
X10725658Y9646158D01*
X10725658Y9503918D01*
G37*
G36*
X10874247Y9503918D02*
G01*
X10874247Y9646158D01*
X11019536Y9646158D01*
X11019536Y9503918D01*
G37*
G36*
X12380213Y9503918D02*
G01*
X12380213Y9646158D01*
X12525756Y9646158D01*
X12525756Y9503918D01*
G37*
G36*
X12674345Y9503918D02*
G01*
X12674345Y9646158D01*
X12819634Y9646158D01*
X12819634Y9503918D01*
G37*
G36*
X14180311Y9503918D02*
G01*
X14180311Y9646158D01*
X14325600Y9646158D01*
X14325600Y9503918D01*
G37*
G36*
X14474190Y9503918D02*
G01*
X14474190Y9646158D01*
X14619731Y9646158D01*
X14619731Y9503918D01*
G37*
G36*
X15980409Y9503918D02*
G01*
X15980409Y9646158D01*
X16125697Y9646158D01*
X16125697Y9503918D01*
G37*
G36*
X16274288Y9503918D02*
G01*
X16274288Y9646158D01*
X16419575Y9646158D01*
X16419575Y9503918D01*
G37*
G36*
X17780254Y9503918D02*
G01*
X17780254Y9646158D01*
X17925541Y9646158D01*
X17925541Y9503918D01*
G37*
G36*
X18074386Y9503918D02*
G01*
X18074386Y9646158D01*
X18219674Y9646158D01*
X18219674Y9503918D01*
G37*
G36*
X22230334Y6208776D02*
G01*
X22230334Y6351270D01*
X22375622Y6351270D01*
X22375622Y6208776D01*
G37*
G36*
X22524211Y6208776D02*
G01*
X22524211Y6351270D01*
X22669500Y6351270D01*
X22669500Y6208776D01*
G37*
G36*
X17680431Y4548886D02*
G01*
X17680431Y4691126D01*
X17825720Y4691126D01*
X17825720Y4548886D01*
G37*
G36*
X17974309Y4548886D02*
G01*
X17974309Y4691126D01*
X18119598Y4691126D01*
X18119598Y4548886D01*
G37*
G36*
X21380195Y9503918D02*
G01*
X21380195Y9646158D01*
X21525738Y9646158D01*
X21525738Y9503918D01*
G37*
G36*
X21674327Y9503918D02*
G01*
X21674327Y9646158D01*
X21819616Y9646158D01*
X21819616Y9503918D01*
G37*
G36*
X19480275Y4548886D02*
G01*
X19480275Y4691126D01*
X19625563Y4691126D01*
X19625563Y4548886D01*
G37*
G36*
X19774408Y4548886D02*
G01*
X19774408Y4691126D01*
X19919695Y4691126D01*
X19919695Y4548886D01*
G37*
G36*
X21280374Y4548886D02*
G01*
X21280374Y4691126D01*
X21425661Y4691126D01*
X21425661Y4548886D01*
G37*
G36*
X21574252Y4548886D02*
G01*
X21574252Y4691126D01*
X21719540Y4691126D01*
X21719540Y4548886D01*
G37*
G36*
X20430236Y6208776D02*
G01*
X20430236Y6351270D01*
X20575524Y6351270D01*
X20575524Y6208776D01*
G37*
G36*
X20724368Y6208776D02*
G01*
X20724368Y6351270D01*
X20869656Y6351270D01*
X20869656Y6208776D01*
G37*
G36*
X4230370Y6208776D02*
G01*
X4230370Y6351270D01*
X4375658Y6351270D01*
X4375658Y6208776D01*
G37*
G36*
X4524247Y6208776D02*
G01*
X4524247Y6351270D01*
X4669536Y6351270D01*
X4669536Y6208776D01*
G37*
G36*
X6460236Y2908807D02*
G01*
X6460236Y3051047D01*
X6605777Y3051047D01*
X6605777Y2908807D01*
G37*
G36*
X6754368Y2908807D02*
G01*
X6754368Y3051047D01*
X6899656Y3051047D01*
X6899656Y2908807D01*
G37*
G36*
X17680431Y2908807D02*
G01*
X17680431Y3051047D01*
X17825720Y3051047D01*
X17825720Y2908807D01*
G37*
G36*
X17974309Y2908807D02*
G01*
X17974309Y3051047D01*
X18119598Y3051047D01*
X18119598Y2908807D01*
G37*
G36*
X12280391Y4548886D02*
G01*
X12280391Y4691126D01*
X12425679Y4691126D01*
X12425679Y4548886D01*
G37*
G36*
X12574270Y4548886D02*
G01*
X12574270Y4691126D01*
X12719558Y4691126D01*
X12719558Y4548886D01*
G37*
G36*
X24030177Y9503918D02*
G01*
X24030177Y9646158D01*
X24175720Y9646158D01*
X24175720Y9503918D01*
G37*
G36*
X24324309Y9503918D02*
G01*
X24324309Y9646158D01*
X24469598Y9646158D01*
X24469598Y9503918D01*
G37*
G36*
X8680450Y4548886D02*
G01*
X8680450Y4691126D01*
X8825738Y4691126D01*
X8825738Y4548886D01*
G37*
G36*
X8974327Y4548886D02*
G01*
X8974327Y4691126D01*
X9119615Y4691126D01*
X9119615Y4548886D01*
G37*
G36*
X2005329Y6208776D02*
G01*
X2005329Y6351270D01*
X2150618Y6351270D01*
X2150618Y6208776D01*
G37*
G36*
X2299461Y6208776D02*
G01*
X2299461Y6351270D01*
X2444750Y6351270D01*
X2444750Y6208776D01*
G37*
G36*
X2005329Y2908807D02*
G01*
X2005329Y3051047D01*
X2150618Y3051047D01*
X2150618Y2908807D01*
G37*
G36*
X2299461Y2908807D02*
G01*
X2299461Y3051047D01*
X2444750Y3051047D01*
X2444750Y2908807D01*
G37*
G36*
X19480275Y2908807D02*
G01*
X19480275Y3051047D01*
X19625563Y3051047D01*
X19625563Y2908807D01*
G37*
G36*
X19774408Y2908807D02*
G01*
X19774408Y3051047D01*
X19919695Y3051047D01*
X19919695Y2908807D01*
G37*
G36*
X7830311Y6208776D02*
G01*
X7830311Y6351270D01*
X7975600Y6351270D01*
X7975600Y6208776D01*
G37*
G36*
X8124443Y6208776D02*
G01*
X8124443Y6351270D01*
X8269731Y6351270D01*
X8269731Y6208776D01*
G37*
G36*
X23080218Y2908807D02*
G01*
X23080218Y3051047D01*
X23225506Y3051047D01*
X23225506Y2908807D01*
G37*
G36*
X23374350Y2908807D02*
G01*
X23374350Y3051047D01*
X23519638Y3051047D01*
X23519638Y2908807D01*
G37*
G36*
X6980427Y7848854D02*
G01*
X6980427Y7991094D01*
X7125715Y7991094D01*
X7125715Y7848854D01*
G37*
G36*
X7274306Y7848854D02*
G01*
X7274306Y7991094D01*
X7419593Y7991094D01*
X7419593Y7848854D01*
G37*
G36*
X1580387Y9503918D02*
G01*
X1580387Y9646158D01*
X1725676Y9646158D01*
X1725676Y9503918D01*
G37*
G36*
X1874265Y9503918D02*
G01*
X1874265Y9646158D01*
X2019554Y9646158D01*
X2019554Y9503918D01*
G37*
G36*
X9630409Y6208776D02*
G01*
X9630409Y6351270D01*
X9775697Y6351270D01*
X9775697Y6208776D01*
G37*
G36*
X9924288Y6208776D02*
G01*
X9924288Y6351270D01*
X10069575Y6351270D01*
X10069575Y6208776D01*
G37*
G36*
X12280391Y2908807D02*
G01*
X12280391Y3051047D01*
X12425679Y3051047D01*
X12425679Y2908807D01*
G37*
G36*
X12574270Y2908807D02*
G01*
X12574270Y3051047D01*
X12719558Y3051047D01*
X12719558Y2908807D01*
G37*
G36*
X11430254Y6208776D02*
G01*
X11430254Y6351270D01*
X11575541Y6351270D01*
X11575541Y6208776D01*
G37*
G36*
X11724386Y6208776D02*
G01*
X11724386Y6351270D01*
X11869674Y6351270D01*
X11869674Y6208776D01*
G37*
G36*
X13230352Y6208776D02*
G01*
X13230352Y6351270D01*
X13375640Y6351270D01*
X13375640Y6208776D01*
G37*
G36*
X13524229Y6208776D02*
G01*
X13524229Y6351270D01*
X13669518Y6351270D01*
X13669518Y6208776D01*
G37*
G36*
X15980409Y7848854D02*
G01*
X15980409Y7991094D01*
X16125697Y7991094D01*
X16125697Y7848854D01*
G37*
G36*
X16274288Y7848854D02*
G01*
X16274288Y7991094D01*
X16419575Y7991094D01*
X16419575Y7848854D01*
G37*
G36*
X15030195Y6208776D02*
G01*
X15030195Y6351270D01*
X15175738Y6351270D01*
X15175738Y6208776D01*
G37*
G36*
X15324327Y6208776D02*
G01*
X15324327Y6351270D01*
X15469616Y6351270D01*
X15469616Y6208776D01*
G37*
G36*
X16830293Y6208776D02*
G01*
X16830293Y6351270D01*
X16975581Y6351270D01*
X16975581Y6208776D01*
G37*
G36*
X17124425Y6208776D02*
G01*
X17124425Y6351270D01*
X17269713Y6351270D01*
X17269713Y6208776D01*
G37*
G36*
X18630391Y6208776D02*
G01*
X18630391Y6351270D01*
X18775679Y6351270D01*
X18775679Y6208776D01*
G37*
G36*
X18924270Y6208776D02*
G01*
X18924270Y6351270D01*
X19069558Y6351270D01*
X19069558Y6208776D01*
G37*
G36*
X21280374Y2908807D02*
G01*
X21280374Y3051047D01*
X21425661Y3051047D01*
X21425661Y2908807D01*
G37*
G36*
X21574252Y2908807D02*
G01*
X21574252Y3051047D01*
X21719540Y3051047D01*
X21719540Y2908807D01*
G37*
G36*
X15880334Y4548886D02*
G01*
X15880334Y4691126D01*
X16025622Y4691126D01*
X16025622Y4548886D01*
G37*
G36*
X16174211Y4548886D02*
G01*
X16174211Y4691126D01*
X16319500Y4691126D01*
X16319500Y4548886D01*
G37*
G36*
X14080236Y4548886D02*
G01*
X14080236Y4691126D01*
X14225524Y4691126D01*
X14225524Y4548886D01*
G37*
G36*
X14374368Y4548886D02*
G01*
X14374368Y4691126D01*
X14519656Y4691126D01*
X14519656Y4548886D01*
G37*
G36*
X17780254Y7848854D02*
G01*
X17780254Y7991094D01*
X17925541Y7991094D01*
X17925541Y7848854D01*
G37*
G36*
X18074386Y7848854D02*
G01*
X18074386Y7991094D01*
X18219674Y7991094D01*
X18219674Y7848854D01*
G37*
G36*
X19580352Y7848854D02*
G01*
X19580352Y7991094D01*
X19725640Y7991094D01*
X19725640Y7848854D01*
G37*
G36*
X19874229Y7848854D02*
G01*
X19874229Y7991094D01*
X20019518Y7991094D01*
X20019518Y7848854D01*
G37*
G36*
X3380231Y7848854D02*
G01*
X3380231Y7991094D01*
X3525774Y7991094D01*
X3525774Y7848854D01*
G37*
G36*
X3674363Y7848854D02*
G01*
X3674363Y7991094D01*
X3819652Y7991094D01*
X3819652Y7848854D01*
G37*
G36*
X8780272Y7848854D02*
G01*
X8780272Y7991094D01*
X8925559Y7991094D01*
X8925559Y7848854D01*
G37*
G36*
X9074404Y7848854D02*
G01*
X9074404Y7991094D01*
X9219691Y7991094D01*
X9219691Y7848854D01*
G37*
G36*
X24880316Y2908807D02*
G01*
X24880316Y3051047D01*
X25025604Y3051047D01*
X25025604Y2908807D01*
G37*
G36*
X25174193Y2908807D02*
G01*
X25174193Y3051047D01*
X25319736Y3051047D01*
X25319736Y2908807D01*
G37*
G36*
X6030213Y6208776D02*
G01*
X6030213Y6351270D01*
X6175756Y6351270D01*
X6175756Y6208776D01*
G37*
G36*
X6324345Y6208776D02*
G01*
X6324345Y6351270D01*
X6469634Y6351270D01*
X6469634Y6208776D01*
G37*
G36*
X2430272Y4548886D02*
G01*
X2430272Y4691126D01*
X2575559Y4691126D01*
X2575559Y4548886D01*
G37*
G36*
X2724404Y4548886D02*
G01*
X2724404Y4691126D01*
X2869691Y4691126D01*
X2869691Y4548886D01*
G37*
G36*
X24880316Y4548886D02*
G01*
X24880316Y4691126D01*
X25025604Y4691126D01*
X25025604Y4548886D01*
G37*
G36*
X25174193Y4548886D02*
G01*
X25174193Y4691126D01*
X25319736Y4691126D01*
X25319736Y4548886D01*
G37*
G36*
X9580372Y2908807D02*
G01*
X9580372Y3051047D01*
X9725659Y3051047D01*
X9725659Y2908807D01*
G37*
G36*
X9874250Y2908807D02*
G01*
X9874250Y3051047D01*
X10019538Y3051047D01*
X10019538Y2908807D01*
G37*
G36*
X14994890Y2913379D02*
G01*
X14994890Y3055620D01*
X15140177Y3055620D01*
X15140177Y2913379D01*
G37*
G36*
X15289022Y2913379D02*
G01*
X15289022Y3055620D01*
X15434309Y3055620D01*
X15434309Y2913379D01*
G37*
G36*
X10580370Y7848854D02*
G01*
X10580370Y7991094D01*
X10725658Y7991094D01*
X10725658Y7848854D01*
G37*
G36*
X10874247Y7848854D02*
G01*
X10874247Y7991094D01*
X11019536Y7991094D01*
X11019536Y7848854D01*
G37*
G36*
X1580387Y7848854D02*
G01*
X1580387Y7991094D01*
X1725676Y7991094D01*
X1725676Y7848854D01*
G37*
G36*
X1874265Y7848854D02*
G01*
X1874265Y7991094D01*
X2019554Y7991094D01*
X2019554Y7848854D01*
G37*
G36*
X14180311Y7848854D02*
G01*
X14180311Y7991094D01*
X14325600Y7991094D01*
X14325600Y7848854D01*
G37*
G36*
X14474190Y7848854D02*
G01*
X14474190Y7991094D01*
X14619731Y7991094D01*
X14619731Y7848854D01*
G37*
G36*
X23080218Y4548886D02*
G01*
X23080218Y4691126D01*
X23225506Y4691126D01*
X23225506Y4548886D01*
G37*
G36*
X23374350Y4548886D02*
G01*
X23374350Y4691126D01*
X23519638Y4691126D01*
X23519638Y4548886D01*
G37*
G36*
X10480293Y4548886D02*
G01*
X10480293Y4691126D01*
X10625581Y4691126D01*
X10625581Y4548886D01*
G37*
G36*
X10774425Y4548886D02*
G01*
X10774425Y4691126D01*
X10919713Y4691126D01*
X10919713Y4548886D01*
G37*
G36*
X5180329Y7848854D02*
G01*
X5180329Y7991094D01*
X5325618Y7991094D01*
X5325618Y7848854D01*
G37*
G36*
X5474208Y7848854D02*
G01*
X5474208Y7991094D01*
X5619750Y7991094D01*
X5619750Y7848854D01*
G37*
G36*
X4230370Y2908807D02*
G01*
X4230370Y3051047D01*
X4375658Y3051047D01*
X4375658Y2908807D01*
G37*
G36*
X4524247Y2908807D02*
G01*
X4524247Y3051047D01*
X4669536Y3051047D01*
X4669536Y2908807D01*
G37*
G36*
X6880352Y4548886D02*
G01*
X6880352Y4691126D01*
X7025640Y4691126D01*
X7025640Y4548886D01*
G37*
G36*
X7174229Y4548886D02*
G01*
X7174229Y4691126D01*
X7319518Y4691126D01*
X7319518Y4548886D01*
G37*
G36*
X5080254Y4548886D02*
G01*
X5080254Y4691126D01*
X5225541Y4691126D01*
X5225541Y4548886D01*
G37*
G36*
X5374386Y4548886D02*
G01*
X5374386Y4691126D01*
X5519674Y4691126D01*
X5519674Y4548886D01*
G37*
G36*
X12380213Y7848854D02*
G01*
X12380213Y7991094D01*
X12525756Y7991094D01*
X12525756Y7848854D01*
G37*
G36*
X12674345Y7848854D02*
G01*
X12674345Y7991094D01*
X12819634Y7991094D01*
X12819634Y7848854D01*
G37*
G36*
X24980391Y7848854D02*
G01*
X24980391Y7991094D01*
X25125679Y7991094D01*
X25125679Y7848854D01*
G37*
G36*
X25274270Y7848854D02*
G01*
X25274270Y7991094D01*
X25419558Y7991094D01*
X25419558Y7848854D01*
G37*
G36*
X21380195Y7848854D02*
G01*
X21380195Y7991094D01*
X21525738Y7991094D01*
X21525738Y7848854D01*
G37*
G36*
X21674327Y7848854D02*
G01*
X21674327Y7991094D01*
X21819616Y7991094D01*
X21819616Y7848854D01*
G37*
G36*
X23180293Y7848854D02*
G01*
X23180293Y7991094D01*
X23325581Y7991094D01*
X23325581Y7848854D01*
G37*
G36*
X23474172Y7848854D02*
G01*
X23474172Y7991094D01*
X23619713Y7991094D01*
X23619713Y7848854D01*
G37*
D23*
G01*
X19799960Y8509990D03*
G01*
X19299961Y8719972D03*
G01*
X20299959Y8719972D03*
G01*
X3599992Y8509990D03*
G01*
X3099993Y8719972D03*
G01*
X4099991Y8719972D03*
G01*
X5399989Y8509990D03*
G01*
X4899990Y8719972D03*
G01*
X5899988Y8719972D03*
G01*
X7199985Y8509990D03*
G01*
X6699986Y8719972D03*
G01*
X7699984Y8719972D03*
G01*
X8999981Y8509990D03*
G01*
X8499983Y8719972D03*
G01*
X9499981Y8719972D03*
G01*
X12599974Y8509990D03*
G01*
X12099975Y8719972D03*
G01*
X13099973Y8719972D03*
G01*
X14399971Y8509990D03*
G01*
X13899972Y8719972D03*
G01*
X14899970Y8719972D03*
G01*
X16199967Y8509990D03*
G01*
X15699968Y8719972D03*
G01*
X16699966Y8719972D03*
G01*
X17999963Y8509990D03*
G01*
X17499965Y8719972D03*
G01*
X18499963Y8719972D03*
G01*
X22449967Y5209997D03*
G01*
X21949968Y5419979D03*
G01*
X22949966Y5419979D03*
G01*
X17899964Y3559987D03*
G01*
X17399965Y3769969D03*
G01*
X18399963Y3769969D03*
G01*
X21599956Y8509990D03*
G01*
X21099957Y8719972D03*
G01*
X22099955Y8719972D03*
G01*
X19699960Y3559987D03*
G01*
X19199961Y3769969D03*
G01*
X20199959Y3769969D03*
G01*
X21499956Y3559987D03*
G01*
X20999958Y3769969D03*
G01*
X21999956Y3769969D03*
G01*
X20649971Y5209997D03*
G01*
X20149972Y5419979D03*
G01*
X21149970Y5419979D03*
G01*
X4450003Y5209997D03*
G01*
X3949979Y5419979D03*
G01*
X4950002Y5419979D03*
G01*
X6675018Y1910003D03*
G01*
X6175019Y2119985D03*
G01*
X7175017Y2119985D03*
G01*
X17899964Y1910003D03*
G01*
X17399965Y2119985D03*
G01*
X18399963Y2119985D03*
G01*
X12499975Y3559987D03*
G01*
X11999975Y3769969D03*
G01*
X12999974Y3769969D03*
G01*
X24249964Y8509990D03*
G01*
X23749965Y8719972D03*
G01*
X24749963Y8719972D03*
G01*
X8899982Y3559987D03*
G01*
X8399983Y3769969D03*
G01*
X9399981Y3769969D03*
G01*
X2224989Y5209997D03*
G01*
X1724990Y5419979D03*
G01*
X2724988Y5419979D03*
G01*
X2224989Y1910003D03*
G01*
X1724990Y2119985D03*
G01*
X2724988Y2119985D03*
G01*
X19699960Y1910003D03*
G01*
X19199961Y2119985D03*
G01*
X20199959Y2119985D03*
G01*
X8049996Y5209997D03*
G01*
X7549997Y5419979D03*
G01*
X8549995Y5419979D03*
G01*
X23299953Y1910003D03*
G01*
X22799954Y2119985D03*
G01*
X23799952Y2119985D03*
G01*
X7199985Y6859981D03*
G01*
X6699986Y7069962D03*
G01*
X7699984Y7069962D03*
G01*
X24674956Y5209997D03*
G01*
X24174958Y5419979D03*
G01*
X25174956Y5419979D03*
G01*
X1799996Y8509990D03*
G01*
X1299997Y8719972D03*
G01*
X2299995Y8719972D03*
G01*
X9849993Y5209997D03*
G01*
X9349993Y5419979D03*
G01*
X10349991Y5419979D03*
G01*
X12499975Y1910003D03*
G01*
X11999975Y2119985D03*
G01*
X12999974Y2119985D03*
G01*
X11649989Y5209997D03*
G01*
X11149990Y5419979D03*
G01*
X12149988Y5419979D03*
G01*
X13449985Y5209997D03*
G01*
X12949986Y5419979D03*
G01*
X13949984Y5419979D03*
G01*
X16199967Y6859981D03*
G01*
X15699968Y7069962D03*
G01*
X16699966Y7069962D03*
G01*
X15249982Y5209997D03*
G01*
X14749983Y5419979D03*
G01*
X15749981Y5419979D03*
G01*
X17049978Y5209997D03*
G01*
X16549979Y5419979D03*
G01*
X17549977Y5419979D03*
G01*
X18849975Y5209997D03*
G01*
X18349975Y5419979D03*
G01*
X19349974Y5419979D03*
G01*
X21499956Y1910003D03*
G01*
X20999958Y2119985D03*
G01*
X21999956Y2119985D03*
G01*
X16099967Y3559987D03*
G01*
X15599968Y3769969D03*
G01*
X16599966Y3769969D03*
G01*
X14299971Y3559987D03*
G01*
X13799972Y3769969D03*
G01*
X14799970Y3769969D03*
G01*
X17999963Y6859981D03*
G01*
X17499965Y7069962D03*
G01*
X18499963Y7069962D03*
G01*
X19799960Y6859981D03*
G01*
X19299961Y7069962D03*
G01*
X20299959Y7069962D03*
G01*
X3599992Y6859981D03*
G01*
X3099993Y7069962D03*
G01*
X4099991Y7069962D03*
G01*
X8999981Y6859981D03*
G01*
X8499983Y7069962D03*
G01*
X9499981Y7069962D03*
G01*
X25099949Y1910003D03*
G01*
X24599950Y2119985D03*
G01*
X25599948Y2119985D03*
G01*
X6250000Y5209997D03*
G01*
X5750001Y5419979D03*
G01*
X6749999Y5419979D03*
G01*
X2650007Y3559987D03*
G01*
X2149983Y3769969D03*
G01*
X3150006Y3769969D03*
G01*
X25099949Y3559987D03*
G01*
X24599950Y3769969D03*
G01*
X25599948Y3769969D03*
G01*
X9799980Y1910003D03*
G01*
X9299981Y2119985D03*
G01*
X10299979Y2119985D03*
G01*
X15199969Y1910003D03*
G01*
X14699970Y2119985D03*
G01*
X15699968Y2119985D03*
G01*
X10799978Y6859981D03*
G01*
X10299979Y7069962D03*
G01*
X11299977Y7069962D03*
G01*
X1799996Y6859981D03*
G01*
X1299997Y7069962D03*
G01*
X2299995Y7069962D03*
G01*
X14399971Y6859981D03*
G01*
X13899972Y7069962D03*
G01*
X14899970Y7069962D03*
G01*
X23299953Y3559987D03*
G01*
X22799954Y3769969D03*
G01*
X23799952Y3769969D03*
G01*
X10699978Y3559987D03*
G01*
X10199979Y3769969D03*
G01*
X11199977Y3769969D03*
G01*
X5399989Y6859981D03*
G01*
X4899990Y7069962D03*
G01*
X5899988Y7069962D03*
G01*
X4450003Y1910003D03*
G01*
X3949979Y2119985D03*
G01*
X4950002Y2119985D03*
G01*
X7099985Y3559987D03*
G01*
X6599986Y3769969D03*
G01*
X7599984Y3769969D03*
G01*
X5299989Y3559987D03*
G01*
X4799990Y3769969D03*
G01*
X5799988Y3769969D03*
G01*
X12599974Y6859981D03*
G01*
X12099975Y7069962D03*
G01*
X13099973Y7069962D03*
G01*
X25199949Y6859981D03*
G01*
X24699950Y7069962D03*
G01*
X25699948Y7069962D03*
G01*
X21599956Y6859981D03*
G01*
X21099957Y7069962D03*
G01*
X22099955Y7069962D03*
G01*
X23399953Y6859981D03*
G01*
X22899954Y7069962D03*
G01*
X23899952Y7069962D03*
G01*
X10799978Y8509990D03*
G01*
X10299979Y8719972D03*
G01*
X11299977Y8719972D03*
D25*
G01*
X28829000Y9740900D03*
G01*
X27305000Y6946900D03*
G01*
X28829000Y9486900D03*
G01*
X28829000Y9232900D03*
G01*
X28829000Y8978900D03*
G01*
X28829000Y8724900D03*
G01*
X28829000Y8470900D03*
G01*
X28829000Y8216900D03*
G01*
X28829000Y7962900D03*
G01*
X28829000Y7708900D03*
G01*
X28829000Y7454900D03*
G01*
X28829000Y7200900D03*
G01*
X28829000Y6946900D03*
G01*
X27305000Y7200900D03*
G01*
X27305000Y7454900D03*
G01*
X27305000Y7708900D03*
G01*
X27305000Y7962900D03*
G01*
X27305000Y8216900D03*
G01*
X27305000Y8470900D03*
G01*
X27305000Y8724900D03*
G01*
X27305000Y8978900D03*
G01*
X27305000Y9232900D03*
G01*
X27305000Y9486900D03*
G36*
X27212290Y9648189D02*
G01*
X27212290Y9833610D01*
X27397709Y9833610D01*
X27397709Y9648189D01*
G37*
M02*
