G04 Layer: BottomPasteMaskLayer*
G04 EasyEDA v6.5.1, 2022-08-03 07:20:24*
G04 1b37d3b93c644ee4b3c1aa7f483211d0,d603b60474844c32a05bd641800ef4e1,10*
G04 Gerber Generator version 0.2*
G04 Scale: 100 percent, Rotated: No, Reflected: No *
G04 Dimensions in millimeters *
G04 leading zeros omitted , absolute positions ,4 integer and 5 decimal *
%FSLAX45Y45*%
%MOMM*%

%ADD10C,0.0001*%

%LPD*%
G36*
X24465452Y6218986D02*
G01*
X24590451Y6218986D01*
X24590451Y6340988D01*
X24465452Y6340988D01*
G37*
G36*
X24759452Y6218986D02*
G01*
X24884451Y6218986D01*
X24884451Y6340988D01*
X24759452Y6340988D01*
G37*
G36*
X19590461Y9513978D02*
G01*
X19715459Y9513978D01*
X19715459Y9635980D01*
X19590461Y9635980D01*
G37*
G36*
X19884461Y9513978D02*
G01*
X20009459Y9513978D01*
X20009459Y9635980D01*
X19884461Y9635980D01*
G37*
G36*
X3390493Y9513978D02*
G01*
X3515492Y9513978D01*
X3515492Y9635980D01*
X3390493Y9635980D01*
G37*
G36*
X3684493Y9513978D02*
G01*
X3809491Y9513978D01*
X3809491Y9635980D01*
X3684493Y9635980D01*
G37*
G36*
X5190492Y9513978D02*
G01*
X5315491Y9513978D01*
X5315491Y9635980D01*
X5190492Y9635980D01*
G37*
G36*
X5484489Y9513978D02*
G01*
X5609490Y9513978D01*
X5609490Y9635980D01*
X5484489Y9635980D01*
G37*
G36*
X6990486Y9513978D02*
G01*
X7115484Y9513978D01*
X7115484Y9635980D01*
X6990486Y9635980D01*
G37*
G36*
X7284486Y9513978D02*
G01*
X7409484Y9513978D01*
X7409484Y9635980D01*
X7284486Y9635980D01*
G37*
G36*
X8790482Y9513978D02*
G01*
X8915481Y9513978D01*
X8915481Y9635980D01*
X8790482Y9635980D01*
G37*
G36*
X9084482Y9513978D02*
G01*
X9209481Y9513978D01*
X9209481Y9635980D01*
X9084482Y9635980D01*
G37*
G36*
X10590479Y9513978D02*
G01*
X10715477Y9513978D01*
X10715477Y9635980D01*
X10590479Y9635980D01*
G37*
G36*
X10884479Y9513978D02*
G01*
X11009477Y9513978D01*
X11009477Y9635980D01*
X10884479Y9635980D01*
G37*
G36*
X12390475Y9513978D02*
G01*
X12515474Y9513978D01*
X12515474Y9635980D01*
X12390475Y9635980D01*
G37*
G36*
X12684475Y9513978D02*
G01*
X12809474Y9513978D01*
X12809474Y9635980D01*
X12684475Y9635980D01*
G37*
G36*
X14190472Y9513978D02*
G01*
X14315470Y9513978D01*
X14315470Y9635980D01*
X14190472Y9635980D01*
G37*
G36*
X14484471Y9513978D02*
G01*
X14609470Y9513978D01*
X14609470Y9635980D01*
X14484471Y9635980D01*
G37*
G36*
X15990468Y9513978D02*
G01*
X16115466Y9513978D01*
X16115466Y9635980D01*
X15990468Y9635980D01*
G37*
G36*
X16284468Y9513978D02*
G01*
X16409466Y9513978D01*
X16409466Y9635980D01*
X16284468Y9635980D01*
G37*
G36*
X17790464Y9513978D02*
G01*
X17915463Y9513978D01*
X17915463Y9635980D01*
X17790464Y9635980D01*
G37*
G36*
X18084464Y9513978D02*
G01*
X18209463Y9513978D01*
X18209463Y9635980D01*
X18084464Y9635980D01*
G37*
G36*
X22240455Y6218986D02*
G01*
X22365454Y6218986D01*
X22365454Y6340988D01*
X22240455Y6340988D01*
G37*
G36*
X22534455Y6218986D02*
G01*
X22659454Y6218986D01*
X22659454Y6340988D01*
X22534455Y6340988D01*
G37*
G36*
X17690465Y4558990D02*
G01*
X17815463Y4558990D01*
X17815463Y4680991D01*
X17690465Y4680991D01*
G37*
G36*
X17984464Y4558990D02*
G01*
X18109463Y4558990D01*
X18109463Y4680991D01*
X17984464Y4680991D01*
G37*
G36*
X21390457Y9513978D02*
G01*
X21515456Y9513978D01*
X21515456Y9635980D01*
X21390457Y9635980D01*
G37*
G36*
X21684457Y9513978D02*
G01*
X21809456Y9513978D01*
X21809456Y9635980D01*
X21684457Y9635980D01*
G37*
G36*
X19490461Y4558990D02*
G01*
X19615459Y4558990D01*
X19615459Y4680991D01*
X19490461Y4680991D01*
G37*
G36*
X19784461Y4558990D02*
G01*
X19909459Y4558990D01*
X19909459Y4680991D01*
X19784461Y4680991D01*
G37*
G36*
X21290457Y4558990D02*
G01*
X21415456Y4558990D01*
X21415456Y4680991D01*
X21290457Y4680991D01*
G37*
G36*
X21584457Y4558990D02*
G01*
X21709456Y4558990D01*
X21709456Y4680991D01*
X21584457Y4680991D01*
G37*
G36*
X20440459Y6218986D02*
G01*
X20565457Y6218986D01*
X20565457Y6340988D01*
X20440459Y6340988D01*
G37*
G36*
X20734459Y6218986D02*
G01*
X20859457Y6218986D01*
X20859457Y6340988D01*
X20734459Y6340988D01*
G37*
G36*
X4240491Y6218986D02*
G01*
X4365490Y6218986D01*
X4365490Y6340988D01*
X4240491Y6340988D01*
G37*
G36*
X4534491Y6218986D02*
G01*
X4659490Y6218986D01*
X4659490Y6340988D01*
X4534491Y6340988D01*
G37*
G36*
X6470500Y2918998D02*
G01*
X6595498Y2918998D01*
X6595498Y3040999D01*
X6470500Y3040999D01*
G37*
G36*
X6764500Y2918998D02*
G01*
X6889495Y2918998D01*
X6889495Y3040999D01*
X6764500Y3040999D01*
G37*
G36*
X17690465Y2918993D02*
G01*
X17815463Y2918993D01*
X17815463Y3040994D01*
X17690465Y3040994D01*
G37*
G36*
X17984464Y2918993D02*
G01*
X18109463Y2918993D01*
X18109463Y3040994D01*
X17984464Y3040994D01*
G37*
G36*
X12290475Y4558990D02*
G01*
X12415474Y4558990D01*
X12415474Y4680991D01*
X12290475Y4680991D01*
G37*
G36*
X12584475Y4558990D02*
G01*
X12709474Y4558990D01*
X12709474Y4680991D01*
X12584475Y4680991D01*
G37*
G36*
X24040452Y9513978D02*
G01*
X24165450Y9513978D01*
X24165450Y9635980D01*
X24040452Y9635980D01*
G37*
G36*
X24334452Y9513978D02*
G01*
X24459450Y9513978D01*
X24459450Y9635980D01*
X24334452Y9635980D01*
G37*
G36*
X8690483Y4558990D02*
G01*
X8815481Y4558990D01*
X8815481Y4680991D01*
X8690483Y4680991D01*
G37*
G36*
X8984482Y4558990D02*
G01*
X9109481Y4558990D01*
X9109481Y4680991D01*
X8984482Y4680991D01*
G37*
G36*
X2015497Y6218986D02*
G01*
X2140496Y6218986D01*
X2140496Y6340988D01*
X2015497Y6340988D01*
G37*
G36*
X2309497Y6218986D02*
G01*
X2434493Y6218986D01*
X2434493Y6340988D01*
X2309497Y6340988D01*
G37*
G36*
X2015497Y2918993D02*
G01*
X2140496Y2918993D01*
X2140496Y3040994D01*
X2015497Y3040994D01*
G37*
G36*
X2309497Y2918993D02*
G01*
X2434493Y2918993D01*
X2434493Y3040994D01*
X2309497Y3040994D01*
G37*
G36*
X19490461Y2918993D02*
G01*
X19615459Y2918993D01*
X19615459Y3040994D01*
X19490461Y3040994D01*
G37*
G36*
X19784461Y2918993D02*
G01*
X19909459Y2918993D01*
X19909459Y3040994D01*
X19784461Y3040994D01*
G37*
G36*
X7840484Y6218986D02*
G01*
X7965483Y6218986D01*
X7965483Y6340988D01*
X7840484Y6340988D01*
G37*
G36*
X8134484Y6218986D02*
G01*
X8259483Y6218986D01*
X8259483Y6340988D01*
X8134484Y6340988D01*
G37*
G36*
X23090454Y2918993D02*
G01*
X23215452Y2918993D01*
X23215452Y3040994D01*
X23090454Y3040994D01*
G37*
G36*
X23384454Y2918993D02*
G01*
X23509452Y2918993D01*
X23509452Y3040994D01*
X23384454Y3040994D01*
G37*
G36*
X6990486Y7858983D02*
G01*
X7115484Y7858983D01*
X7115484Y7980984D01*
X6990486Y7980984D01*
G37*
G36*
X7284486Y7858983D02*
G01*
X7409484Y7858983D01*
X7409484Y7980984D01*
X7284486Y7980984D01*
G37*
G36*
X1590497Y9513978D02*
G01*
X1715495Y9513978D01*
X1715495Y9635980D01*
X1590497Y9635980D01*
G37*
G36*
X1884497Y9513978D02*
G01*
X2009495Y9513978D01*
X2009495Y9635980D01*
X1884497Y9635980D01*
G37*
G36*
X9640481Y6218986D02*
G01*
X9765479Y6218986D01*
X9765479Y6340988D01*
X9640481Y6340988D01*
G37*
G36*
X9934481Y6218986D02*
G01*
X10059479Y6218986D01*
X10059479Y6340988D01*
X9934481Y6340988D01*
G37*
G36*
X12290475Y2918993D02*
G01*
X12415474Y2918993D01*
X12415474Y3040994D01*
X12290475Y3040994D01*
G37*
G36*
X12584475Y2918993D02*
G01*
X12709474Y2918993D01*
X12709474Y3040994D01*
X12584475Y3040994D01*
G37*
G36*
X11440477Y6218986D02*
G01*
X11565475Y6218986D01*
X11565475Y6340988D01*
X11440477Y6340988D01*
G37*
G36*
X11734477Y6218986D02*
G01*
X11859475Y6218986D01*
X11859475Y6340988D01*
X11734477Y6340988D01*
G37*
G36*
X13240473Y6218986D02*
G01*
X13365472Y6218986D01*
X13365472Y6340988D01*
X13240473Y6340988D01*
G37*
G36*
X13534473Y6218986D02*
G01*
X13659472Y6218986D01*
X13659472Y6340988D01*
X13534473Y6340988D01*
G37*
G36*
X15990468Y7858983D02*
G01*
X16115466Y7858983D01*
X16115466Y7980984D01*
X15990468Y7980984D01*
G37*
G36*
X16284468Y7858983D02*
G01*
X16409466Y7858983D01*
X16409466Y7980984D01*
X16284468Y7980984D01*
G37*
G36*
X15040470Y6218986D02*
G01*
X15165468Y6218986D01*
X15165468Y6340988D01*
X15040470Y6340988D01*
G37*
G36*
X15334470Y6218986D02*
G01*
X15459468Y6218986D01*
X15459468Y6340988D01*
X15334470Y6340988D01*
G37*
G36*
X16840466Y6218986D02*
G01*
X16965465Y6218986D01*
X16965465Y6340988D01*
X16840466Y6340988D01*
G37*
G36*
X17134466Y6218986D02*
G01*
X17259465Y6218986D01*
X17259465Y6340988D01*
X17134466Y6340988D01*
G37*
G36*
X18640463Y6218986D02*
G01*
X18765461Y6218986D01*
X18765461Y6340988D01*
X18640463Y6340988D01*
G37*
G36*
X18934463Y6218986D02*
G01*
X19059461Y6218986D01*
X19059461Y6340988D01*
X18934463Y6340988D01*
G37*
G36*
X21290457Y2918993D02*
G01*
X21415456Y2918993D01*
X21415456Y3040994D01*
X21290457Y3040994D01*
G37*
G36*
X21584457Y2918993D02*
G01*
X21709456Y2918993D01*
X21709456Y3040994D01*
X21584457Y3040994D01*
G37*
G36*
X15890468Y4558990D02*
G01*
X16015467Y4558990D01*
X16015467Y4680991D01*
X15890468Y4680991D01*
G37*
G36*
X16184468Y4558990D02*
G01*
X16309466Y4558990D01*
X16309466Y4680991D01*
X16184468Y4680991D01*
G37*
G36*
X14090472Y4558990D02*
G01*
X14215470Y4558990D01*
X14215470Y4680991D01*
X14090472Y4680991D01*
G37*
G36*
X14384472Y4558990D02*
G01*
X14509470Y4558990D01*
X14509470Y4680991D01*
X14384472Y4680991D01*
G37*
G36*
X17790464Y7858983D02*
G01*
X17915463Y7858983D01*
X17915463Y7980984D01*
X17790464Y7980984D01*
G37*
G36*
X18084464Y7858983D02*
G01*
X18209463Y7858983D01*
X18209463Y7980984D01*
X18084464Y7980984D01*
G37*
G36*
X19590461Y7858983D02*
G01*
X19715459Y7858983D01*
X19715459Y7980984D01*
X19590461Y7980984D01*
G37*
G36*
X19884461Y7858983D02*
G01*
X20009459Y7858983D01*
X20009459Y7980984D01*
X19884461Y7980984D01*
G37*
G36*
X3390493Y7858983D02*
G01*
X3515492Y7858983D01*
X3515492Y7980984D01*
X3390493Y7980984D01*
G37*
G36*
X3684493Y7858983D02*
G01*
X3809491Y7858983D01*
X3809491Y7980984D01*
X3684493Y7980984D01*
G37*
G36*
X8790482Y7858983D02*
G01*
X8915481Y7858983D01*
X8915481Y7980984D01*
X8790482Y7980984D01*
G37*
G36*
X9084482Y7858983D02*
G01*
X9209481Y7858983D01*
X9209481Y7980984D01*
X9084482Y7980984D01*
G37*
G36*
X24890450Y2918993D02*
G01*
X25015449Y2918993D01*
X25015449Y3040994D01*
X24890450Y3040994D01*
G37*
G36*
X25184450Y2918993D02*
G01*
X25309449Y2918993D01*
X25309449Y3040994D01*
X25184450Y3040994D01*
G37*
G36*
X6040488Y6218986D02*
G01*
X6165486Y6218986D01*
X6165486Y6340988D01*
X6040488Y6340988D01*
G37*
G36*
X6334488Y6218986D02*
G01*
X6459486Y6218986D01*
X6459486Y6340988D01*
X6334488Y6340988D01*
G37*
G36*
X2440495Y4558990D02*
G01*
X2565493Y4558990D01*
X2565493Y4680991D01*
X2440495Y4680991D01*
G37*
G36*
X2734495Y4558990D02*
G01*
X2859493Y4558990D01*
X2859493Y4680991D01*
X2734495Y4680991D01*
G37*
G36*
X24890450Y4558990D02*
G01*
X25015449Y4558990D01*
X25015449Y4680991D01*
X24890450Y4680991D01*
G37*
G36*
X25184450Y4558990D02*
G01*
X25309449Y4558990D01*
X25309449Y4680991D01*
X25184450Y4680991D01*
G37*
G36*
X9590481Y2918993D02*
G01*
X9715479Y2918993D01*
X9715479Y3040994D01*
X9590481Y3040994D01*
G37*
G36*
X9884481Y2918993D02*
G01*
X10009479Y2918993D01*
X10009479Y3040994D01*
X9884481Y3040994D01*
G37*
G36*
X14916200Y2923499D02*
G01*
X15041199Y2923499D01*
X15041199Y3045500D01*
X14916200Y3045500D01*
G37*
G36*
X15210200Y2923499D02*
G01*
X15335199Y2923499D01*
X15335199Y3045500D01*
X15210200Y3045500D01*
G37*
G36*
X10590479Y7858983D02*
G01*
X10715477Y7858983D01*
X10715477Y7980984D01*
X10590479Y7980984D01*
G37*
G36*
X10884479Y7858983D02*
G01*
X11009477Y7858983D01*
X11009477Y7980984D01*
X10884479Y7980984D01*
G37*
G36*
X1590497Y7858983D02*
G01*
X1715495Y7858983D01*
X1715495Y7980984D01*
X1590497Y7980984D01*
G37*
G36*
X1884497Y7858983D02*
G01*
X2009495Y7858983D01*
X2009495Y7980984D01*
X1884497Y7980984D01*
G37*
G36*
X14190472Y7858983D02*
G01*
X14315470Y7858983D01*
X14315470Y7980984D01*
X14190472Y7980984D01*
G37*
G36*
X14484471Y7858983D02*
G01*
X14609470Y7858983D01*
X14609470Y7980984D01*
X14484471Y7980984D01*
G37*
G36*
X23090454Y4558990D02*
G01*
X23215452Y4558990D01*
X23215452Y4680991D01*
X23090454Y4680991D01*
G37*
G36*
X23384454Y4558990D02*
G01*
X23509452Y4558990D01*
X23509452Y4680991D01*
X23384454Y4680991D01*
G37*
G36*
X10490479Y4558990D02*
G01*
X10615477Y4558990D01*
X10615477Y4680991D01*
X10490479Y4680991D01*
G37*
G36*
X10784479Y4558990D02*
G01*
X10909477Y4558990D01*
X10909477Y4680991D01*
X10784479Y4680991D01*
G37*
G36*
X5190490Y7858983D02*
G01*
X5315488Y7858983D01*
X5315488Y7980984D01*
X5190490Y7980984D01*
G37*
G36*
X5484489Y7858983D02*
G01*
X5609488Y7858983D01*
X5609488Y7980984D01*
X5484489Y7980984D01*
G37*
G36*
X4240491Y2918993D02*
G01*
X4365490Y2918993D01*
X4365490Y3040994D01*
X4240491Y3040994D01*
G37*
G36*
X4534491Y2918993D02*
G01*
X4659490Y2918993D01*
X4659490Y3040994D01*
X4534491Y3040994D01*
G37*
G36*
X6890486Y4558990D02*
G01*
X7015485Y4558990D01*
X7015485Y4680991D01*
X6890486Y4680991D01*
G37*
G36*
X7184486Y4558990D02*
G01*
X7309484Y4558990D01*
X7309484Y4680991D01*
X7184486Y4680991D01*
G37*
G36*
X5090490Y4558990D02*
G01*
X5215488Y4558990D01*
X5215488Y4680991D01*
X5090490Y4680991D01*
G37*
G36*
X5384490Y4558990D02*
G01*
X5509488Y4558990D01*
X5509488Y4680991D01*
X5384490Y4680991D01*
G37*
G36*
X12390475Y7858983D02*
G01*
X12515474Y7858983D01*
X12515474Y7980984D01*
X12390475Y7980984D01*
G37*
G36*
X12684475Y7858983D02*
G01*
X12809474Y7858983D01*
X12809474Y7980984D01*
X12684475Y7980984D01*
G37*
G36*
X24990450Y7858983D02*
G01*
X25115448Y7858983D01*
X25115448Y7980984D01*
X24990450Y7980984D01*
G37*
G36*
X25284450Y7858983D02*
G01*
X25409448Y7858983D01*
X25409448Y7980984D01*
X25284450Y7980984D01*
G37*
G36*
X21390457Y7858983D02*
G01*
X21515456Y7858983D01*
X21515456Y7980984D01*
X21390457Y7980984D01*
G37*
G36*
X21684457Y7858983D02*
G01*
X21809456Y7858983D01*
X21809456Y7980984D01*
X21684457Y7980984D01*
G37*
G36*
X23190454Y7858983D02*
G01*
X23315452Y7858983D01*
X23315452Y7980984D01*
X23190454Y7980984D01*
G37*
G36*
X23484453Y7858983D02*
G01*
X23609452Y7858983D01*
X23609452Y7980984D01*
X23484453Y7980984D01*
G37*
M02*
