G04 Layer: TopLayer*
G04 EasyEDA v6.5.1, 2022-08-03 07:20:24*
G04 1b37d3b93c644ee4b3c1aa7f483211d0,d603b60474844c32a05bd641800ef4e1,10*
G04 Gerber Generator version 0.2*
G04 Scale: 100 percent, Rotated: No, Reflected: No *
G04 Dimensions in millimeters *
G04 leading zeros omitted , absolute positions ,4 integer and 5 decimal *
%FSLAX45Y45*%
%MOMM*%

%ADD10C,0.2540*%
%ADD11C,0.6100*%
%ADD12C,0.6096*%
%ADD13R,1.7000X0.8000*%
%ADD14C,2.0320*%
%ADD16C,1.5240*%
%ADD17C,1.7526*%
%ADD18R,1.7526X1.7526*%

%LPD*%
D10*
X24434800Y8280400D02*
G01*
X24790400Y8280400D01*
X25209500Y8699500D01*
X25209500Y9423400D01*
X25463500Y9677400D01*
X27114500Y9677400D01*
X27305000Y9486900D01*
X1724990Y5419979D02*
G01*
X1333500Y5811469D01*
X1333500Y7036460D01*
X1299997Y7069962D01*
X3099993Y7069962D02*
G01*
X3556000Y6616700D01*
X3556000Y5813958D01*
X3949979Y5419979D01*
X4899990Y7069962D02*
G01*
X5346700Y6616700D01*
X5346700Y5823280D01*
X5750001Y5419979D01*
X6699986Y7069962D02*
G01*
X7150100Y6616700D01*
X7150100Y5819876D01*
X7549997Y5419979D01*
X8499983Y7069962D02*
G01*
X8953500Y6616700D01*
X8953500Y5816472D01*
X9349993Y5419979D01*
X10299979Y7069962D02*
G01*
X10756900Y6616700D01*
X10756900Y5813044D01*
X11150091Y5420105D01*
X12099975Y7069962D02*
G01*
X12560300Y6616700D01*
X12560300Y5809742D01*
X12949936Y5420105D01*
X13899972Y7069962D02*
G01*
X14351000Y6616700D01*
X14351000Y5818962D01*
X14749983Y5419979D01*
X2149983Y3769969D02*
G01*
X1752600Y4167352D01*
X1752600Y5392369D01*
X1724990Y5419979D01*
X2724988Y5419979D02*
G01*
X1724990Y5419979D01*
X3949979Y5419979D02*
G01*
X4406900Y4965700D01*
X4406900Y4163060D01*
X4799990Y3769969D01*
X5750001Y5419979D02*
G01*
X6197600Y4965700D01*
X6197600Y4172457D01*
X6599936Y3769868D01*
X7549997Y5419979D02*
G01*
X8001000Y4965700D01*
X8001000Y4168952D01*
X8399983Y3769969D01*
X11150091Y5420105D02*
G01*
X11607800Y4965700D01*
X11607800Y4162044D01*
X11999975Y3769868D01*
X9349993Y5420105D02*
G01*
X9804400Y4965700D01*
X9804400Y4165600D01*
X10199877Y3769868D01*
X12949936Y5420105D02*
G01*
X13398500Y4936489D01*
X13398500Y4171442D01*
X13800074Y3769868D01*
X22800056Y2119884D02*
G01*
X22216872Y1536700D01*
X5533390Y1536700D01*
X4949952Y2119884D01*
X24599900Y2119884D02*
G01*
X23965916Y1485900D01*
X3359150Y1485900D01*
X2724911Y2119884D01*
X16549966Y5419979D02*
G01*
X17549964Y5419979D01*
X22949966Y5419979D02*
G01*
X22402800Y4872812D01*
X22402800Y4167123D01*
X22799954Y3769969D01*
X18399963Y2119985D02*
G01*
X17399965Y2119985D01*
X17400016Y3769868D02*
G01*
X17005300Y3375405D01*
X17005300Y2514600D01*
X17400016Y2119884D01*
X14799970Y3769969D02*
G01*
X15194534Y3375405D01*
X17005300Y3375405D01*
X5899911Y8720074D02*
G01*
X6299200Y9119108D01*
X6299200Y9944100D01*
X6413500Y10058400D01*
X18783300Y10058400D01*
X18897600Y9944100D01*
X18897600Y9122410D01*
X19299936Y8720074D01*
X24174950Y5419979D02*
G01*
X25174950Y5419979D01*
X27292300Y9245600D02*
G01*
X27533600Y9486900D01*
X28829000Y9486900D01*
X24749968Y8719969D02*
G01*
X25158700Y9128706D01*
X25158700Y9461500D01*
X25438100Y9740900D01*
X27305000Y9740900D01*
X11299952Y8720074D02*
G01*
X11696700Y9116821D01*
X11696700Y9791700D01*
X11811000Y9906000D01*
X15125700Y9906000D01*
X15252700Y9779000D01*
X15252700Y7517129D01*
X15699993Y7069836D01*
X21099957Y8719972D02*
G01*
X20701000Y8321014D01*
X20701000Y7468920D01*
X21099957Y7069962D01*
X23750016Y8720074D02*
G01*
X24307800Y8162036D01*
X24307800Y7477760D01*
X23899875Y7069836D01*
X9499981Y8719972D02*
G01*
X9906000Y9125991D01*
X9906000Y9855200D01*
X10007600Y9956800D01*
X15163800Y9956800D01*
X15303500Y9817100D01*
X15303500Y9116440D01*
X15699968Y8719972D01*
X7700009Y8720074D02*
G01*
X8102600Y9122663D01*
X8102600Y9944100D01*
X8166100Y10007600D01*
X17030700Y10007600D01*
X17094200Y9944100D01*
X17094200Y9125712D01*
X17500091Y8720074D01*
X4100068Y8720074D02*
G01*
X4495800Y9115805D01*
X4495800Y9144000D01*
X4508500Y9156700D01*
X4508500Y9944100D01*
X4673600Y10109200D01*
X20535900Y10109200D01*
X20701000Y9944100D01*
X20701000Y9118854D01*
X21100034Y8720074D01*
X2299970Y8720074D02*
G01*
X2705100Y9125204D01*
X2705100Y9944100D01*
X2921000Y10160000D01*
X23139400Y10160000D01*
X23355300Y9944100D01*
X23355300Y9114536D01*
X23750016Y8720074D01*
X21150072Y5420105D02*
G01*
X20660578Y4930612D01*
X20660578Y4930612D02*
G01*
X20599400Y4869434D01*
X20599400Y4170426D01*
X20999958Y3769868D01*
X19199859Y3769868D02*
G01*
X18796000Y3366007D01*
X18796000Y2523997D01*
X19199859Y2119884D01*
X16549877Y5420105D02*
G01*
X17005300Y4964684D01*
X17005300Y4175252D01*
X16599916Y3769868D01*
X15749981Y5419979D02*
G01*
X16549979Y5419979D01*
X13899972Y8719972D02*
G01*
X13500100Y8320100D01*
X13500100Y7469835D01*
X13899972Y7069962D01*
X12099975Y8719972D02*
G01*
X11696700Y8316696D01*
X11696700Y7473238D01*
X12099975Y7069962D01*
X10299979Y8719972D02*
G01*
X9906000Y8325993D01*
X9906000Y7463942D01*
X10299979Y7069962D01*
X11199977Y3769969D02*
G01*
X11595100Y3374847D01*
X11595100Y2524861D01*
X11999975Y2119985D01*
X8499983Y8719972D02*
G01*
X8102600Y8322589D01*
X8102600Y7467345D01*
X8499983Y7069962D01*
X9400031Y3769868D02*
G01*
X8902700Y3272789D01*
X8902700Y2517139D01*
X9299956Y2119884D01*
X6699986Y8719972D02*
G01*
X6299200Y8319185D01*
X6299200Y7470749D01*
X6699986Y7069962D01*
X4899990Y8719972D02*
G01*
X4495800Y8315782D01*
X4495800Y7474153D01*
X4899990Y7069962D01*
X4799990Y3769969D02*
G01*
X5346700Y3223260D01*
X5346700Y2516682D01*
X4950002Y2119985D01*
X3099993Y8719972D02*
G01*
X2705100Y8325078D01*
X2705100Y7464856D01*
X3099993Y7069962D01*
X1299997Y8719972D02*
G01*
X901700Y8321675D01*
X901700Y7468260D01*
X1299997Y7069962D01*
X11149977Y5419979D02*
G01*
X12149975Y5419979D01*
X4949990Y2119985D02*
G01*
X3949992Y2119985D01*
X24599950Y3769982D02*
G01*
X25599948Y3769982D01*
X24599950Y2119985D02*
G01*
X25599948Y2119985D01*
X22799954Y3769982D02*
G01*
X23799952Y3769982D01*
X19299961Y7069975D02*
G01*
X20299959Y7069975D01*
X17499965Y7069975D02*
G01*
X18499963Y7069975D01*
X15699968Y7069975D02*
G01*
X16699966Y7069975D01*
X13899972Y7069975D02*
G01*
X14899970Y7069975D01*
X21099957Y7069975D02*
G01*
X22099955Y7069975D01*
X18349963Y5419979D02*
G01*
X19349961Y5419979D01*
X20149959Y5419979D02*
G01*
X21149957Y5419979D01*
X21949956Y5419979D02*
G01*
X22949954Y5419979D01*
X9349981Y5419979D02*
G01*
X10349979Y5419979D01*
X12949974Y5419979D02*
G01*
X13949972Y5419979D01*
X14749970Y5419979D02*
G01*
X15749968Y5419979D01*
X12099975Y7069975D02*
G01*
X13099973Y7069975D01*
X10299979Y7069975D02*
G01*
X11299977Y7069975D01*
X8499983Y7069975D02*
G01*
X9499981Y7069975D01*
X6699986Y7069975D02*
G01*
X7699984Y7069975D01*
X4899990Y7069975D02*
G01*
X5899988Y7069975D01*
X3099993Y7069975D02*
G01*
X4099991Y7069975D01*
X1299997Y7069975D02*
G01*
X2299995Y7069975D01*
X1724997Y5419979D02*
G01*
X2724995Y5419979D01*
X3949992Y5419979D02*
G01*
X4949990Y5419979D01*
X5749988Y5419979D02*
G01*
X6749986Y5419979D01*
X7549984Y5419979D02*
G01*
X8549982Y5419979D01*
X23749952Y8719972D02*
G01*
X24749950Y8719972D01*
X24699950Y7069975D02*
G01*
X25699948Y7069975D01*
X22899954Y7069975D02*
G01*
X23899952Y7069975D01*
X15699968Y8719972D02*
G01*
X16699966Y8719972D01*
X17499965Y8719972D02*
G01*
X18499963Y8719972D01*
X19299961Y8719972D02*
G01*
X20299959Y8719972D01*
X21099957Y8719972D02*
G01*
X22099955Y8719972D01*
X8499983Y8719972D02*
G01*
X9499981Y8719972D01*
X10299979Y8719972D02*
G01*
X11299977Y8719972D01*
X12099975Y8719972D02*
G01*
X13099973Y8719972D01*
X13899972Y8719972D02*
G01*
X14899970Y8719972D01*
X1299997Y8719972D02*
G01*
X2299995Y8719972D01*
X3099993Y8719972D02*
G01*
X4099991Y8719972D01*
X4899990Y8719972D02*
G01*
X5899988Y8719972D01*
X6699986Y8719972D02*
G01*
X7699984Y8719972D01*
X28829000Y9486900D02*
G01*
X28846604Y9504504D01*
X29286200Y9504504D01*
X28829000Y9232900D02*
G01*
X28897404Y9164495D01*
X29286200Y9164495D01*
X23799952Y2119985D02*
G01*
X22799954Y2119985D01*
X20999958Y3769982D02*
G01*
X21999956Y3769982D01*
X21999956Y2119985D02*
G01*
X20999958Y2119985D01*
X20199959Y2119985D02*
G01*
X19199961Y2119985D01*
X19199961Y3769982D02*
G01*
X20199959Y3769982D01*
X17399965Y3769982D02*
G01*
X18399963Y3769982D01*
X16599966Y3769982D02*
G01*
X15599968Y3769982D01*
X13799972Y3769982D02*
G01*
X14799970Y3769982D01*
X12999974Y3769982D02*
G01*
X11999975Y3769982D01*
X11999975Y2119985D02*
G01*
X12999974Y2119985D01*
X11199977Y3769982D02*
G01*
X10199979Y3769982D01*
X10299979Y2119985D02*
G01*
X9299981Y2119985D01*
X9399981Y3769982D02*
G01*
X8399983Y3769982D01*
X7599984Y3769982D02*
G01*
X6599986Y3769982D01*
X7274986Y2119985D02*
G01*
X6274986Y2119985D01*
X5799988Y3769982D02*
G01*
X4799990Y3769982D01*
X3149993Y3769982D02*
G01*
X2149995Y3769982D01*
X2724995Y2119985D02*
G01*
X1724995Y2119985D01*
X25476200Y5283200D02*
G01*
X26390600Y6197600D01*
X26390600Y6896100D01*
X26695400Y7200900D01*
X27305000Y7200900D01*
X25349200Y5384800D02*
G01*
X26238200Y6273800D01*
X26238200Y7251700D01*
X26695400Y7708900D01*
X27305000Y7708900D01*
X26162000Y3568700D02*
G01*
X26162000Y5867400D01*
X26466800Y6172200D01*
X26466800Y6718300D01*
X26695400Y6946900D01*
X27305000Y6946900D01*
X16699991Y7069836D02*
G01*
X17140427Y6629400D01*
X17780000Y6629400D01*
X17894300Y6515100D01*
X17894300Y5156200D01*
X18034000Y5016500D01*
X19746468Y5016500D01*
X20150074Y5420105D01*
X25412700Y5334000D02*
G01*
X26314400Y6235700D01*
X26314400Y7073900D01*
X26695400Y7454900D01*
X27305000Y7454900D01*
X25174958Y5420103D02*
G01*
X25282786Y5420090D01*
X26162000Y6299083D01*
X26162000Y7429500D01*
X26695400Y7962900D01*
X27305000Y7962900D01*
X27305000Y8216900D02*
G01*
X26695400Y8216900D01*
X26098500Y7620000D01*
X26098500Y7188200D01*
X25980130Y7069838D01*
X25699976Y7069838D01*
X20999958Y2119884D02*
G01*
X20467574Y1587500D01*
X7807452Y1587500D01*
X7275068Y2119884D01*
X25174956Y5419979D02*
G01*
X25168479Y5419979D01*
X24206200Y4457700D01*
X24206200Y4163720D01*
X24599950Y3769969D01*
X18499963Y8719972D02*
G01*
X18948400Y8271535D01*
X18948400Y6769100D01*
X19050000Y6667500D01*
X23520400Y6667500D01*
X23774400Y6413500D01*
X23774400Y5820537D01*
X24174958Y5419979D01*
X19299936Y8720074D02*
G01*
X19286474Y8720074D01*
X18999200Y8432800D01*
X18999200Y6794500D01*
X19075400Y6718300D01*
X24348440Y6718300D01*
X24699975Y7069836D01*
X16699991Y8720074D02*
G01*
X17101566Y8318500D01*
X18796000Y8318500D01*
X18897600Y8216900D01*
X18897600Y6743700D01*
X19024600Y6616700D01*
X21336000Y6616700D01*
X21551900Y6400800D01*
X21551900Y5818123D01*
X21949918Y5420105D01*
X17549875Y5420105D02*
G01*
X18016981Y4953000D01*
X18643600Y4953000D01*
X18808700Y4787900D01*
X18808700Y4161281D01*
X19199859Y3769868D01*
X17500091Y7069836D02*
G01*
X17500091Y6998208D01*
X17945100Y6553200D01*
X17945100Y5824728D01*
X18349975Y5420105D01*
X28829000Y8978900D02*
G01*
X29184600Y8978900D01*
X29286200Y8877300D01*
X29286200Y6743700D01*
X29197300Y6654800D01*
X27825700Y6654800D01*
X27749500Y6578600D01*
X27751024Y5874004D01*
X27496998Y5873902D02*
G01*
X27496998Y8786901D01*
X27305000Y8978900D01*
X6599936Y3769868D02*
G01*
X5778500Y2948431D01*
X5778500Y2616454D01*
X6275070Y2119884D01*
X2150109Y3769868D02*
G01*
X3124200Y2794000D01*
X3124200Y2519171D01*
X2724911Y2119884D01*
X15595600Y2120900D02*
G01*
X14595602Y2120900D01*
X12999974Y3769868D02*
G01*
X13467841Y3302000D01*
X14071600Y3302000D01*
X14198600Y3175000D01*
X14198600Y2514600D01*
X14593316Y2119884D01*
X14800072Y2119884D01*
D13*
G01*
X29286200Y9504502D03*
G01*
X29286200Y9164497D03*
D14*
G01*
X19799960Y8509990D03*
G01*
X19299961Y8719972D03*
G01*
X20299959Y8719972D03*
G01*
X3599992Y8509990D03*
G01*
X3099993Y8719972D03*
G01*
X4099991Y8719972D03*
G01*
X5399989Y8509990D03*
G01*
X4899990Y8719972D03*
G01*
X5899988Y8719972D03*
G01*
X7199985Y8509990D03*
G01*
X6699986Y8719972D03*
G01*
X7699984Y8719972D03*
G01*
X8999981Y8509990D03*
G01*
X8499983Y8719972D03*
G01*
X9499981Y8719972D03*
G01*
X12599974Y8509990D03*
G01*
X12099975Y8719972D03*
G01*
X13099973Y8719972D03*
G01*
X14399971Y8509990D03*
G01*
X13899972Y8719972D03*
G01*
X14899970Y8719972D03*
G01*
X16199967Y8509990D03*
G01*
X15699968Y8719972D03*
G01*
X16699966Y8719972D03*
G01*
X17999963Y8509990D03*
G01*
X17499965Y8719972D03*
G01*
X18499963Y8719972D03*
G01*
X22449967Y5209997D03*
G01*
X21949968Y5419979D03*
G01*
X22949966Y5419979D03*
G01*
X17899964Y3559987D03*
G01*
X17399965Y3769969D03*
G01*
X18399963Y3769969D03*
G01*
X21599956Y8509990D03*
G01*
X21099957Y8719972D03*
G01*
X22099955Y8719972D03*
G01*
X19699960Y3559987D03*
G01*
X19199961Y3769969D03*
G01*
X20199959Y3769969D03*
G01*
X21499956Y3559987D03*
G01*
X20999958Y3769969D03*
G01*
X21999956Y3769969D03*
G01*
X20649971Y5209997D03*
G01*
X20149972Y5419979D03*
G01*
X21149970Y5419979D03*
G01*
X4450003Y5209997D03*
G01*
X3949979Y5419979D03*
G01*
X4950002Y5419979D03*
G01*
X6675018Y1910003D03*
G01*
X6175019Y2119985D03*
G01*
X7175017Y2119985D03*
G01*
X17899964Y1910003D03*
G01*
X17399965Y2119985D03*
G01*
X18399963Y2119985D03*
G01*
X12499975Y3559987D03*
G01*
X11999975Y3769969D03*
G01*
X12999974Y3769969D03*
G01*
X24249964Y8509990D03*
G01*
X23749965Y8719972D03*
G01*
X24749963Y8719972D03*
G01*
X8899982Y3559987D03*
G01*
X8399983Y3769969D03*
G01*
X9399981Y3769969D03*
G01*
X2224989Y5209997D03*
G01*
X1724990Y5419979D03*
G01*
X2724988Y5419979D03*
G01*
X2224989Y1910003D03*
G01*
X1724990Y2119985D03*
G01*
X2724988Y2119985D03*
G01*
X19699960Y1910003D03*
G01*
X19199961Y2119985D03*
G01*
X20199959Y2119985D03*
G01*
X8049996Y5209997D03*
G01*
X7549997Y5419979D03*
G01*
X8549995Y5419979D03*
G01*
X23299953Y1910003D03*
G01*
X22799954Y2119985D03*
G01*
X23799952Y2119985D03*
G01*
X7199985Y6859981D03*
G01*
X6699986Y7069962D03*
G01*
X7699984Y7069962D03*
G01*
X24674956Y5209997D03*
G01*
X24174958Y5419979D03*
G01*
X25174956Y5419979D03*
G01*
X1799996Y8509990D03*
G01*
X1299997Y8719972D03*
G01*
X2299995Y8719972D03*
G01*
X9849993Y5209997D03*
G01*
X9349993Y5419979D03*
G01*
X10349991Y5419979D03*
G01*
X12499975Y1910003D03*
G01*
X11999975Y2119985D03*
G01*
X12999974Y2119985D03*
G01*
X11649989Y5209997D03*
G01*
X11149990Y5419979D03*
G01*
X12149988Y5419979D03*
G01*
X13449985Y5209997D03*
G01*
X12949986Y5419979D03*
G01*
X13949984Y5419979D03*
G01*
X16199967Y6859981D03*
G01*
X15699968Y7069962D03*
G01*
X16699966Y7069962D03*
G01*
X15249982Y5209997D03*
G01*
X14749983Y5419979D03*
G01*
X15749981Y5419979D03*
G01*
X17049978Y5209997D03*
G01*
X16549979Y5419979D03*
G01*
X17549977Y5419979D03*
G01*
X18849975Y5209997D03*
G01*
X18349975Y5419979D03*
G01*
X19349974Y5419979D03*
G01*
X21499956Y1910003D03*
G01*
X20999958Y2119985D03*
G01*
X21999956Y2119985D03*
G01*
X16099967Y3559987D03*
G01*
X15599968Y3769969D03*
G01*
X16599966Y3769969D03*
G01*
X14299971Y3559987D03*
G01*
X13799972Y3769969D03*
G01*
X14799970Y3769969D03*
G01*
X17999963Y6859981D03*
G01*
X17499965Y7069962D03*
G01*
X18499963Y7069962D03*
G01*
X19799960Y6859981D03*
G01*
X19299961Y7069962D03*
G01*
X20299959Y7069962D03*
G01*
X3599992Y6859981D03*
G01*
X3099993Y7069962D03*
G01*
X4099991Y7069962D03*
G01*
X8999981Y6859981D03*
G01*
X8499983Y7069962D03*
G01*
X9499981Y7069962D03*
G01*
X25099949Y1910003D03*
G01*
X24599950Y2119985D03*
G01*
X25599948Y2119985D03*
G01*
X6250000Y5209997D03*
G01*
X5750001Y5419979D03*
G01*
X6749999Y5419979D03*
G01*
X2650007Y3559987D03*
G01*
X2149983Y3769969D03*
G01*
X3150006Y3769969D03*
G01*
X25099949Y3559987D03*
G01*
X24599950Y3769969D03*
G01*
X25599948Y3769969D03*
G01*
X9799980Y1910003D03*
G01*
X9299981Y2119985D03*
G01*
X10299979Y2119985D03*
G01*
X15099969Y1910003D03*
G01*
X14599970Y2119985D03*
G01*
X15599968Y2119985D03*
G01*
X10799978Y6859981D03*
G01*
X10299979Y7069962D03*
G01*
X11299977Y7069962D03*
G01*
X1799996Y6859981D03*
G01*
X1299997Y7069962D03*
G01*
X2299995Y7069962D03*
G01*
X14399971Y6859981D03*
G01*
X13899972Y7069962D03*
G01*
X14899970Y7069962D03*
G01*
X23299953Y3559987D03*
G01*
X22799954Y3769969D03*
G01*
X23799952Y3769969D03*
G01*
X10699978Y3559987D03*
G01*
X10199979Y3769969D03*
G01*
X11199977Y3769969D03*
G01*
X5399989Y6859981D03*
G01*
X4899990Y7069962D03*
G01*
X5899988Y7069962D03*
G01*
X4450003Y1910003D03*
G01*
X3949979Y2119985D03*
G01*
X4950002Y2119985D03*
G01*
X7099985Y3559987D03*
G01*
X6599986Y3769969D03*
G01*
X7599984Y3769969D03*
G01*
X5299989Y3559987D03*
G01*
X4799990Y3769969D03*
G01*
X5799988Y3769969D03*
G01*
X12599974Y6859981D03*
G01*
X12099975Y7069962D03*
G01*
X13099973Y7069962D03*
G01*
X25199949Y6859981D03*
G01*
X24699950Y7069962D03*
G01*
X25699948Y7069962D03*
G01*
X21599956Y6859981D03*
G01*
X21099957Y7069962D03*
G01*
X22099955Y7069962D03*
G01*
X23399953Y6859981D03*
G01*
X22899954Y7069962D03*
G01*
X23899952Y7069962D03*
G01*
X10799978Y8509990D03*
G01*
X10299979Y8719972D03*
G01*
X11299977Y8719972D03*
G36*
X27420785Y5950104D02*
G01*
X27573185Y5950104D01*
X27573185Y5797704D01*
X27420785Y5797704D01*
G37*
D16*
G01*
X27750998Y5873978D03*
G01*
X28004998Y5873978D03*
G01*
X28258998Y5873978D03*
D17*
G01*
X28829000Y9740900D03*
G01*
X27305000Y6946900D03*
G01*
X28829000Y9486900D03*
G01*
X28829000Y9232900D03*
G01*
X28829000Y8978900D03*
G01*
X28829000Y8724900D03*
G01*
X28829000Y8470900D03*
G01*
X28829000Y8216900D03*
G01*
X28829000Y7962900D03*
G01*
X28829000Y7708900D03*
G01*
X28829000Y7454900D03*
G01*
X28829000Y7200900D03*
G01*
X28829000Y6946900D03*
G01*
X27305000Y7200900D03*
G01*
X27305000Y7454900D03*
G01*
X27305000Y7708900D03*
G01*
X27305000Y7962900D03*
G01*
X27305000Y8216900D03*
G01*
X27305000Y8470900D03*
G01*
X27305000Y8724900D03*
G01*
X27305000Y8978900D03*
G01*
X27305000Y9232900D03*
G01*
X27305000Y9486900D03*
D18*
G01*
X27305000Y9740900D03*
D11*
G01*
X24434800Y8280400D03*
D12*
G01*
X20660588Y4930622D03*
D11*
G01*
X25349200Y5384800D03*
G01*
X25412700Y5334000D03*
D12*
G01*
X25476200Y5283200D03*
G01*
X26162000Y3568700D03*
M02*
