G04 Layer: TopSilkscreenLayer*
G04 EasyEDA v6.5.1, 2022-08-03 07:20:24*
G04 1b37d3b93c644ee4b3c1aa7f483211d0,d603b60474844c32a05bd641800ef4e1,10*
G04 Gerber Generator version 0.2*
G04 Scale: 100 percent, Rotated: No, Reflected: No *
G04 Dimensions in millimeters *
G04 leading zeros omitted , absolute positions ,4 integer and 5 decimal *
%FSLAX45Y45*%
%MOMM*%

%ADD10C,0.2540*%
%ADD20C,0.3810*%
%ADD21C,0.1524*%
%ADD23C,0.1501*%

%LPD*%
G36*
X27168246Y3183026D02*
G01*
X27115770Y3182213D01*
X26904797Y2993034D01*
X26806448Y2903982D01*
X26725626Y2831439D01*
X26618539Y2735732D01*
X26515060Y2642870D01*
X26441806Y2576372D01*
X26423213Y2559050D01*
X26396594Y2532430D01*
X26396594Y2485339D01*
X26433627Y2442210D01*
X26517549Y2432761D01*
X26605331Y2423972D01*
X26791970Y2406142D01*
X26867815Y2398471D01*
X26927860Y2391664D01*
X26954276Y2388209D01*
X26967840Y2386076D01*
X26971853Y2385263D01*
X26973784Y2384602D01*
X26982623Y2379167D01*
X26783487Y2104186D01*
X26659586Y1932178D01*
X26659586Y1903069D01*
X26693672Y1859737D01*
X26735176Y1859737D01*
X27212848Y2286762D01*
X27321510Y2384145D01*
X27404923Y2459888D01*
X27431593Y2484577D01*
X27445360Y2497886D01*
X27456841Y2512212D01*
X27456688Y2540914D01*
X27456180Y2546299D01*
X27454301Y2557322D01*
X27451507Y2567533D01*
X27449881Y2572004D01*
X27448103Y2575763D01*
X27439416Y2592019D01*
X27418131Y2600045D01*
X27412950Y2601264D01*
X27395932Y2604211D01*
X27371294Y2607614D01*
X27340712Y2611374D01*
X27305609Y2615184D01*
X27267712Y2618943D01*
X27187398Y2626309D01*
X27111756Y2633522D01*
X27043227Y2640330D01*
X26983842Y2646527D01*
X26935430Y2651912D01*
X26900022Y2656281D01*
X26879550Y2659380D01*
X26875181Y2660599D01*
X26875384Y2661615D01*
X26878838Y2667762D01*
X26886001Y2678938D01*
X26899615Y2699207D01*
X26930603Y2743911D01*
X26970380Y2800096D01*
X27123593Y3013100D01*
X27193849Y3111754D01*
X27193849Y3146501D01*
G37*
G36*
X28139034Y2773426D02*
G01*
X28139034Y2592222D01*
X28153766Y2583129D01*
X28158744Y2596083D01*
X28159710Y2599334D01*
X28160675Y2603652D01*
X28162250Y2614676D01*
X28163316Y2627731D01*
X28163672Y2641244D01*
X28163672Y2673451D01*
X28253182Y2673451D01*
X28258211Y2596642D01*
X28278785Y2589885D01*
X28278785Y2773426D01*
X28258211Y2766669D01*
X28253182Y2698089D01*
X28164637Y2698089D01*
X28159608Y2766669D01*
G37*
G36*
X28006802Y2772054D02*
G01*
X27966415Y2731719D01*
X27966415Y2706319D01*
X27998420Y2674366D01*
X28036164Y2668016D01*
X28060142Y2663393D01*
X28068524Y2661462D01*
X28081528Y2657500D01*
X28081528Y2623718D01*
X28040431Y2608072D01*
X28013863Y2618384D01*
X28009189Y2620721D01*
X28004566Y2623362D01*
X28000147Y2626207D01*
X27992324Y2632202D01*
X27989225Y2635199D01*
X27986837Y2638044D01*
X27977185Y2651252D01*
X27965653Y2632659D01*
X27983129Y2600045D01*
X28044495Y2581757D01*
X28088844Y2598724D01*
X28116276Y2640584D01*
X28090164Y2680411D01*
X27998267Y2699461D01*
X27988412Y2725115D01*
X28018892Y2747416D01*
X28054655Y2747416D01*
X28096768Y2714244D01*
X28108808Y2733649D01*
X28064155Y2772054D01*
G37*
G36*
X28392577Y2772054D02*
G01*
X28365043Y2772003D01*
X28338322Y2749194D01*
X28333700Y2744825D01*
X28325521Y2735935D01*
X28321965Y2731414D01*
X28318663Y2726791D01*
X28313126Y2717393D01*
X28310839Y2712567D01*
X28308858Y2707640D01*
X28307182Y2702661D01*
X28305810Y2697530D01*
X28304794Y2692349D01*
X28304032Y2687015D01*
X28303537Y2679496D01*
X28327654Y2679496D01*
X28336443Y2703169D01*
X28338881Y2709214D01*
X28341523Y2714853D01*
X28344368Y2719984D01*
X28347365Y2724658D01*
X28350565Y2728925D01*
X28353969Y2732735D01*
X28357576Y2736037D01*
X28361386Y2738932D01*
X28365399Y2741371D01*
X28369564Y2743352D01*
X28373933Y2744876D01*
X28378505Y2745943D01*
X28383230Y2746552D01*
X28388208Y2746705D01*
X28393339Y2746400D01*
X28398622Y2745638D01*
X28404159Y2744419D01*
X28409849Y2742742D01*
X28415742Y2740660D01*
X28442310Y2728722D01*
X28457804Y2684322D01*
X28449371Y2640076D01*
X28414827Y2615895D01*
X28363519Y2615895D01*
X28350870Y2630271D01*
X28345536Y2637231D01*
X28340405Y2645562D01*
X28335986Y2654198D01*
X28332938Y2662072D01*
X28327654Y2679496D01*
X28303537Y2679496D01*
X28303474Y2652877D01*
X28335528Y2600350D01*
X28399689Y2581148D01*
X28457499Y2608580D01*
X28486811Y2673604D01*
X28467405Y2738374D01*
X28420060Y2772054D01*
G37*
G36*
X28559455Y2772054D02*
G01*
X28510280Y2730703D01*
X28499612Y2667304D01*
X28524758Y2607106D01*
X28585210Y2581808D01*
X28626053Y2592070D01*
X28675584Y2641600D01*
X28657296Y2659888D01*
X28616554Y2615895D01*
X28559404Y2615895D01*
X28525317Y2659227D01*
X28525317Y2707081D01*
X28565703Y2747416D01*
X28583026Y2747416D01*
X28588512Y2747111D01*
X28594202Y2746248D01*
X28600095Y2744825D01*
X28605988Y2742996D01*
X28611830Y2740710D01*
X28617570Y2738069D01*
X28623006Y2735122D01*
X28628136Y2731922D01*
X28632759Y2728468D01*
X28636823Y2724912D01*
X28640227Y2721203D01*
X28642868Y2717444D01*
X28649422Y2706319D01*
X28661360Y2706319D01*
X28666439Y2706725D01*
X28669945Y2707944D01*
X28671977Y2710078D01*
X28672434Y2713177D01*
X28671316Y2717241D01*
X28668675Y2722422D01*
X28664458Y2728722D01*
X28658718Y2736189D01*
X28653841Y2741828D01*
X28648660Y2746959D01*
X28643224Y2751683D01*
X28637534Y2755900D01*
X28631591Y2759659D01*
X28625444Y2762910D01*
X28619043Y2765704D01*
X28612439Y2767990D01*
X28605632Y2769768D01*
X28598622Y2771038D01*
X28591408Y2771800D01*
X28584042Y2772054D01*
G37*
G36*
X28582772Y2460802D02*
G01*
X28577946Y2447848D01*
X28577184Y2442413D01*
X28576168Y2423922D01*
X28575812Y2390241D01*
X28576371Y2358440D01*
X28578759Y2278837D01*
X28595218Y2274824D01*
X28600349Y2328214D01*
X28607054Y2328214D01*
X28608883Y2327656D01*
X28611474Y2325928D01*
X28614674Y2323185D01*
X28622599Y2315210D01*
X28631642Y2304694D01*
X28658718Y2269286D01*
X28675533Y2286101D01*
X28624580Y2350414D01*
X28653841Y2378557D01*
X28662528Y2387904D01*
X28669132Y2396032D01*
X28671367Y2399334D01*
X28672789Y2401925D01*
X28673298Y2403754D01*
X28672840Y2406853D01*
X28671621Y2408986D01*
X28669589Y2410256D01*
X28666897Y2410612D01*
X28663544Y2410053D01*
X28659582Y2408732D01*
X28655060Y2406548D01*
X28650082Y2403551D01*
X28644646Y2399792D01*
X28638855Y2395321D01*
X28632759Y2390089D01*
X28599333Y2357882D01*
X28599333Y2450541D01*
G37*
G36*
X28871976Y2460498D02*
G01*
X28867963Y2453944D01*
X28867049Y2451709D01*
X28864712Y2442210D01*
X28862070Y2427630D01*
X28859378Y2409799D01*
X28852215Y2352903D01*
X28857549Y2352903D01*
X28861258Y2353970D01*
X28867404Y2356866D01*
X28875075Y2361133D01*
X28883508Y2366365D01*
X28904082Y2379878D01*
X28944519Y2361488D01*
X28944519Y2311450D01*
X28903066Y2292553D01*
X28854958Y2328062D01*
X28843274Y2309114D01*
X28887877Y2270709D01*
X28928822Y2270709D01*
X28969157Y2311044D01*
X28969157Y2368143D01*
X28924199Y2403500D01*
X28881679Y2397252D01*
X28888893Y2435098D01*
X28970528Y2435098D01*
X28963772Y2455621D01*
G37*
G36*
X29299408Y2460498D02*
G01*
X29295394Y2453944D01*
X29294429Y2451709D01*
X29292143Y2442210D01*
X29289451Y2427630D01*
X29286758Y2409799D01*
X29279596Y2352903D01*
X29284980Y2352903D01*
X29288587Y2353919D01*
X29294582Y2356713D01*
X29302049Y2360828D01*
X29310177Y2365908D01*
X29330040Y2378913D01*
X29362857Y2368499D01*
X29373017Y2336444D01*
X29362857Y2304440D01*
X29328922Y2293670D01*
X29282389Y2328062D01*
X29270655Y2309114D01*
X29315308Y2270709D01*
X29353256Y2270709D01*
X29396588Y2304796D01*
X29396588Y2368143D01*
X29351630Y2403500D01*
X29309060Y2397252D01*
X29316273Y2435098D01*
X29397960Y2435098D01*
X29391152Y2455621D01*
G37*
G36*
X28040431Y2459736D02*
G01*
X28040431Y2330043D01*
X28007462Y2291232D01*
X27967228Y2339848D01*
X27956459Y2311806D01*
X27965958Y2287016D01*
X28007513Y2268067D01*
X28047797Y2286406D01*
X28066187Y2354681D01*
X28054909Y2459736D01*
G37*
G36*
X28697427Y2459736D02*
G01*
X28693262Y2448864D01*
X28692449Y2445054D01*
X28691658Y2435098D01*
X28725672Y2435098D01*
X28732073Y2434691D01*
X28741065Y2433624D01*
X28751479Y2431999D01*
X28762147Y2430068D01*
X28787293Y2425039D01*
X28797097Y2399436D01*
X28790696Y2393442D01*
X28788664Y2392121D01*
X28781095Y2389124D01*
X28769919Y2385974D01*
X28756457Y2383028D01*
X28714395Y2376119D01*
X28714395Y2435098D01*
X28691658Y2435098D01*
X28691027Y2417267D01*
X28690874Y2388971D01*
X28691341Y2361133D01*
X28742487Y2361133D01*
X28754425Y2360726D01*
X28766160Y2359660D01*
X28776320Y2358085D01*
X28780384Y2357120D01*
X28783584Y2356104D01*
X28796589Y2351125D01*
X28796589Y2303576D01*
X28762553Y2303475D01*
X28750564Y2302713D01*
X28739439Y2301392D01*
X28730549Y2299614D01*
X28727400Y2298598D01*
X28714395Y2293620D01*
X28714395Y2361133D01*
X28691341Y2361133D01*
X28693821Y2274824D01*
X28768802Y2269947D01*
X28813302Y2286863D01*
X28831032Y2332329D01*
X28807359Y2374392D01*
X28819094Y2406294D01*
X28805225Y2443530D01*
X28783940Y2451658D01*
X28778962Y2453284D01*
X28773069Y2454808D01*
X28766465Y2456180D01*
X28751885Y2458364D01*
X28744367Y2459126D01*
X28737001Y2459583D01*
G37*
G36*
X29034181Y2459736D02*
G01*
X29008781Y2434234D01*
X29004463Y2429357D01*
X29000907Y2424836D01*
X28998214Y2420670D01*
X28996233Y2416606D01*
X28995065Y2412644D01*
X28994658Y2408631D01*
X28994912Y2404465D01*
X28995877Y2400096D01*
X28997554Y2395321D01*
X29001186Y2387549D01*
X29026713Y2387549D01*
X29026713Y2425496D01*
X29047236Y2432862D01*
X29076040Y2418080D01*
X29076040Y2407056D01*
X29075126Y2402027D01*
X29072687Y2396490D01*
X29069131Y2391156D01*
X29064762Y2386634D01*
X29053434Y2377287D01*
X29026713Y2387549D01*
X29001186Y2387549D01*
X29011778Y2367584D01*
X28993846Y2349601D01*
X28993846Y2312365D01*
X29018484Y2312365D01*
X29018484Y2327148D01*
X29018839Y2333802D01*
X29019906Y2339340D01*
X29021836Y2343810D01*
X29024732Y2347264D01*
X29028542Y2349855D01*
X29033520Y2351582D01*
X29039616Y2352598D01*
X29046982Y2352903D01*
X29064508Y2352903D01*
X29074364Y2343048D01*
X29078224Y2338374D01*
X29081323Y2332990D01*
X29083457Y2327605D01*
X29084270Y2322779D01*
X29084270Y2312365D01*
X29051351Y2294788D01*
X29018484Y2312365D01*
X28993846Y2312365D01*
X28993846Y2297226D01*
X29014115Y2283968D01*
X29018484Y2281326D01*
X29028085Y2276551D01*
X29037788Y2272995D01*
X29042309Y2271725D01*
X29046424Y2270963D01*
X29049980Y2270709D01*
X29065575Y2270709D01*
X29110432Y2305964D01*
X29104844Y2331466D01*
X29102761Y2344166D01*
X29101186Y2359761D01*
X29100221Y2376322D01*
X29100068Y2391867D01*
X29100830Y2426716D01*
X29067810Y2459736D01*
G37*
G36*
X29166413Y2459736D02*
G01*
X29133546Y2426868D01*
X29133546Y2402230D01*
X29142537Y2402230D01*
X29147211Y2403652D01*
X29153307Y2407615D01*
X29160063Y2413508D01*
X29166667Y2420721D01*
X29181856Y2439212D01*
X29211625Y2421077D01*
X29217264Y2383078D01*
X29133546Y2306167D01*
X29133546Y2270709D01*
X29249827Y2270709D01*
X29244391Y2299462D01*
X29173728Y2307691D01*
X29240429Y2368804D01*
X29240429Y2426208D01*
X29204412Y2459736D01*
G37*
G36*
X28530042Y2458059D02*
G01*
X28526232Y2456942D01*
X28522777Y2454452D01*
X28520593Y2451303D01*
X28518764Y2447036D01*
X28517545Y2442159D01*
X28517138Y2437231D01*
X28517138Y2425649D01*
X28545891Y2431186D01*
X28545891Y2442718D01*
X28545231Y2447290D01*
X28543503Y2451252D01*
X28540862Y2454402D01*
X28537560Y2456688D01*
X28533852Y2457958D01*
G37*
G36*
X28525368Y2411780D02*
G01*
X28520847Y2400046D01*
X28520237Y2397912D01*
X28519272Y2390952D01*
X28518612Y2380996D01*
X28518205Y2368600D01*
X28518154Y2354478D01*
X28518459Y2339289D01*
X28521253Y2274824D01*
X28545891Y2274824D01*
X28545891Y2404973D01*
G37*
G36*
X28124048Y2410409D02*
G01*
X28080055Y2358136D01*
X28088812Y2312365D01*
X28114396Y2312365D01*
X28114396Y2366060D01*
X28134106Y2385771D01*
X28168650Y2385771D01*
X28188361Y2366060D01*
X28188361Y2320391D01*
X28148381Y2294178D01*
X28114396Y2312365D01*
X28088812Y2312365D01*
X28089707Y2307691D01*
X28116326Y2284476D01*
X28121660Y2280513D01*
X28126740Y2277262D01*
X28131668Y2274722D01*
X28136443Y2272893D01*
X28141218Y2271776D01*
X28145994Y2271318D01*
X28150820Y2271522D01*
X28155747Y2272385D01*
X28160878Y2273960D01*
X28166263Y2276144D01*
X28171952Y2278938D01*
X28187345Y2287168D01*
X28192425Y2278938D01*
X28195015Y2275738D01*
X28198318Y2273147D01*
X28201874Y2271369D01*
X28205277Y2270709D01*
X28212999Y2270709D01*
X28212999Y2410409D01*
X28205480Y2410409D01*
X28202229Y2409596D01*
X28199029Y2407412D01*
X28196235Y2404160D01*
X28194152Y2400147D01*
X28190393Y2389886D01*
X28168650Y2410409D01*
G37*
G36*
X28237027Y2410409D02*
G01*
X28241802Y2276144D01*
X28262326Y2269337D01*
X28262326Y2343607D01*
X28278785Y2386838D01*
X28323946Y2381656D01*
X28332176Y2276094D01*
X28352750Y2269337D01*
X28352750Y2373884D01*
X28327146Y2410409D01*
X28310636Y2410409D01*
X28302965Y2409748D01*
X28294279Y2407920D01*
X28285694Y2405227D01*
X28278226Y2401925D01*
X28262326Y2393391D01*
X28262326Y2410409D01*
G37*
G36*
X28393593Y2410409D02*
G01*
X28389935Y2409545D01*
X28386328Y2407158D01*
X28383179Y2403652D01*
X28380842Y2399334D01*
X28380283Y2397302D01*
X28379369Y2390597D01*
X28378759Y2380843D01*
X28378454Y2368702D01*
X28378403Y2354834D01*
X28378759Y2339848D01*
X28381502Y2276144D01*
X28402026Y2269337D01*
X28402026Y2353970D01*
X28419044Y2385771D01*
X28459277Y2385771D01*
X28464306Y2362809D01*
X28466135Y2350719D01*
X28467812Y2335885D01*
X28469234Y2320137D01*
X28471926Y2276094D01*
X28492450Y2269337D01*
X28492450Y2373884D01*
X28466897Y2410409D01*
X28421787Y2410409D01*
X28402026Y2390698D01*
X28402026Y2410409D01*
G37*
G36*
X27766467Y5753354D02*
G01*
X27761336Y5752795D01*
X27756662Y5751322D01*
X27752497Y5748832D01*
X27748941Y5745530D01*
X27746045Y5741365D01*
X27743912Y5736386D01*
X27742540Y5730748D01*
X27742083Y5724398D01*
X27742540Y5717946D01*
X27743912Y5712256D01*
X27746045Y5707278D01*
X27748890Y5703112D01*
X27752395Y5699810D01*
X27756459Y5697423D01*
X27761031Y5695899D01*
X27765959Y5695442D01*
X27771039Y5695950D01*
X27775509Y5697474D01*
X27779522Y5700014D01*
X27782977Y5703570D01*
X27779421Y5707380D01*
X27776627Y5704636D01*
X27773477Y5702655D01*
X27770023Y5701436D01*
X27766213Y5701030D01*
X27758847Y5702655D01*
X27753259Y5707380D01*
X27749703Y5714746D01*
X27748433Y5724398D01*
X27749703Y5734151D01*
X27753360Y5741466D01*
X27759050Y5746140D01*
X27766467Y5747766D01*
X27769921Y5747359D01*
X27772969Y5746242D01*
X27775712Y5744514D01*
X27778151Y5742432D01*
X27781707Y5746496D01*
X27778862Y5749036D01*
X27775357Y5751220D01*
X27771191Y5752744D01*
G37*
G36*
X27812441Y5753354D02*
G01*
X27807310Y5752795D01*
X27802636Y5751322D01*
X27798471Y5748832D01*
X27794915Y5745530D01*
X27792019Y5741365D01*
X27789886Y5736386D01*
X27788514Y5730748D01*
X27788057Y5724398D01*
X27788514Y5717946D01*
X27789886Y5712256D01*
X27792019Y5707278D01*
X27794864Y5703112D01*
X27798369Y5699810D01*
X27802433Y5697423D01*
X27807005Y5695899D01*
X27811933Y5695442D01*
X27817114Y5695950D01*
X27821585Y5697474D01*
X27825496Y5700014D01*
X27828951Y5703570D01*
X27825395Y5707380D01*
X27822652Y5704636D01*
X27819553Y5702655D01*
X27816098Y5701436D01*
X27812187Y5701030D01*
X27804821Y5702655D01*
X27799233Y5707380D01*
X27795677Y5714746D01*
X27794407Y5724398D01*
X27795677Y5734151D01*
X27799334Y5741466D01*
X27805024Y5746140D01*
X27812441Y5747766D01*
X27815946Y5747359D01*
X27819045Y5746242D01*
X27821788Y5744514D01*
X27824125Y5742432D01*
X27827681Y5746496D01*
X27824887Y5749036D01*
X27821382Y5751220D01*
X27817267Y5752744D01*
G37*
G36*
X27695347Y5752338D02*
G01*
X27713127Y5696458D01*
X27720493Y5696458D01*
X27738273Y5752338D01*
X27731923Y5752338D01*
X27718512Y5707735D01*
X27716937Y5703062D01*
X27716683Y5703062D01*
X27711349Y5721350D01*
X27701951Y5752338D01*
G37*
G36*
X27445411Y5753354D02*
G01*
X27440127Y5752795D01*
X27435302Y5751322D01*
X27430984Y5748832D01*
X27427326Y5745530D01*
X27424329Y5741365D01*
X27422144Y5736386D01*
X27420773Y5730748D01*
X27420265Y5724398D01*
X27420722Y5717946D01*
X27422094Y5712256D01*
X27424278Y5707278D01*
X27427174Y5703112D01*
X27430780Y5699810D01*
X27434946Y5697423D01*
X27439721Y5695899D01*
X27444903Y5695442D01*
X27450338Y5695899D01*
X27455063Y5697270D01*
X27459076Y5699252D01*
X27462175Y5701792D01*
X27462175Y5724906D01*
X27444141Y5724906D01*
X27444141Y5719826D01*
X27456333Y5719826D01*
X27456333Y5704586D01*
X27454301Y5703062D01*
X27451659Y5701944D01*
X27448713Y5701233D01*
X27445665Y5701030D01*
X27437537Y5702655D01*
X27431593Y5707380D01*
X27427885Y5714746D01*
X27426615Y5724398D01*
X27427986Y5734151D01*
X27431796Y5741466D01*
X27437791Y5746140D01*
X27445665Y5747766D01*
X27449678Y5747308D01*
X27452929Y5746140D01*
X27455622Y5744413D01*
X27457857Y5742432D01*
X27461413Y5746496D01*
X27458619Y5748934D01*
X27455164Y5751118D01*
X27450796Y5752744D01*
G37*
G36*
X27475637Y5752338D02*
G01*
X27475637Y5696458D01*
X27481479Y5696458D01*
X27481428Y5731256D01*
X27480717Y5743956D01*
X27481225Y5743956D01*
X27487321Y5732526D01*
X27508149Y5696458D01*
X27514753Y5696458D01*
X27514753Y5752338D01*
X27508657Y5752338D01*
X27508758Y5717692D01*
X27509673Y5704586D01*
X27509165Y5704586D01*
X27503069Y5716016D01*
X27481987Y5752338D01*
G37*
G36*
X27530247Y5752338D02*
G01*
X27530247Y5747004D01*
X27543455Y5747004D01*
X27548179Y5746597D01*
X27552294Y5745480D01*
X27555748Y5743651D01*
X27558542Y5741162D01*
X27560727Y5737961D01*
X27562302Y5734100D01*
X27563216Y5729681D01*
X27563521Y5724652D01*
X27563216Y5719572D01*
X27562302Y5715000D01*
X27560727Y5711088D01*
X27558542Y5707735D01*
X27555748Y5705094D01*
X27552294Y5703112D01*
X27548179Y5701944D01*
X27543455Y5701538D01*
X27536597Y5701538D01*
X27536597Y5747004D01*
X27530247Y5747004D01*
X27530247Y5696458D01*
X27544217Y5696458D01*
X27550211Y5696915D01*
X27555444Y5698388D01*
X27559914Y5700725D01*
X27563572Y5703976D01*
X27566416Y5707989D01*
X27568499Y5712815D01*
X27569718Y5718403D01*
X27570125Y5724652D01*
X27569718Y5730849D01*
X27568499Y5736336D01*
X27566416Y5741111D01*
X27563521Y5745022D01*
X27559863Y5748172D01*
X27555342Y5750458D01*
X27550059Y5751830D01*
X27543963Y5752338D01*
G37*
G36*
X27972715Y5753354D02*
G01*
X27965857Y5752236D01*
X27960370Y5749188D01*
X27956764Y5744565D01*
X27955443Y5738622D01*
X27956510Y5733288D01*
X27959253Y5729274D01*
X27962961Y5726430D01*
X27966873Y5724398D01*
X27978709Y5719064D01*
X27981706Y5717082D01*
X27983688Y5714390D01*
X27984399Y5710682D01*
X27983586Y5706668D01*
X27981198Y5703620D01*
X27977338Y5701690D01*
X27972207Y5701030D01*
X27967889Y5701487D01*
X27963672Y5702960D01*
X27959812Y5705195D01*
X27956459Y5708142D01*
X27952649Y5703824D01*
X27956611Y5700369D01*
X27961183Y5697728D01*
X27966415Y5696000D01*
X27972207Y5695442D01*
X27979928Y5696610D01*
X27985770Y5699963D01*
X27989479Y5704941D01*
X27990749Y5711190D01*
X27989885Y5716524D01*
X27987447Y5720537D01*
X27983789Y5723585D01*
X27979319Y5725922D01*
X27967889Y5730951D01*
X27964892Y5732830D01*
X27962656Y5735472D01*
X27961793Y5739130D01*
X27962606Y5742686D01*
X27964892Y5745429D01*
X27968346Y5747156D01*
X27972715Y5747766D01*
X27976525Y5747359D01*
X27979877Y5746292D01*
X27982926Y5744616D01*
X27985669Y5742432D01*
X27988971Y5746496D01*
X27985770Y5749137D01*
X27981910Y5751322D01*
X27977541Y5752795D01*
G37*
G36*
X28023261Y5753354D02*
G01*
X28018130Y5752795D01*
X28013406Y5751322D01*
X28009240Y5748832D01*
X28005633Y5745530D01*
X28002687Y5741365D01*
X28000502Y5736386D01*
X27999131Y5730748D01*
X27998623Y5724398D01*
X27999131Y5717946D01*
X28000452Y5712256D01*
X28002636Y5707278D01*
X28005582Y5703112D01*
X28009088Y5699810D01*
X28013202Y5697423D01*
X28017774Y5695899D01*
X28022753Y5695442D01*
X28027833Y5695950D01*
X28032303Y5697474D01*
X28036316Y5700014D01*
X28039771Y5703570D01*
X28036215Y5707380D01*
X28033421Y5704636D01*
X28030271Y5702655D01*
X28026817Y5701436D01*
X28023007Y5701030D01*
X28015641Y5702655D01*
X28010053Y5707380D01*
X28006497Y5714746D01*
X28005227Y5724398D01*
X28006497Y5734151D01*
X28010154Y5741466D01*
X28015844Y5746140D01*
X28023261Y5747766D01*
X28026715Y5747359D01*
X28029763Y5746242D01*
X28032506Y5744514D01*
X28034945Y5742432D01*
X28038247Y5746496D01*
X28035554Y5749036D01*
X28032100Y5751220D01*
X28027985Y5752744D01*
G37*
G36*
X28050185Y5752338D02*
G01*
X28050185Y5696458D01*
X28081173Y5696458D01*
X28081173Y5701792D01*
X28056535Y5701792D01*
X28056535Y5752338D01*
G37*
G36*
X28226715Y5753354D02*
G01*
X28219857Y5752236D01*
X28214370Y5749188D01*
X28210764Y5744565D01*
X28209443Y5738622D01*
X28210510Y5733288D01*
X28213253Y5729274D01*
X28216961Y5726430D01*
X28220873Y5724398D01*
X28232709Y5719064D01*
X28235706Y5717082D01*
X28237688Y5714390D01*
X28238399Y5710682D01*
X28237586Y5706668D01*
X28235198Y5703620D01*
X28231338Y5701690D01*
X28226207Y5701030D01*
X28221889Y5701487D01*
X28217672Y5702960D01*
X28213812Y5705195D01*
X28210459Y5708142D01*
X28206649Y5703824D01*
X28210611Y5700369D01*
X28215183Y5697728D01*
X28220415Y5696000D01*
X28226207Y5695442D01*
X28233928Y5696610D01*
X28239770Y5699963D01*
X28243479Y5704941D01*
X28244749Y5711190D01*
X28243885Y5716524D01*
X28241447Y5720537D01*
X28237789Y5723585D01*
X28233319Y5725922D01*
X28221889Y5730951D01*
X28218892Y5732830D01*
X28216656Y5735472D01*
X28215793Y5739130D01*
X28216606Y5742686D01*
X28218892Y5745429D01*
X28222346Y5747156D01*
X28226715Y5747766D01*
X28230525Y5747359D01*
X28233877Y5746292D01*
X28236926Y5744616D01*
X28239669Y5742432D01*
X28242971Y5746496D01*
X28239770Y5749137D01*
X28235910Y5751322D01*
X28231541Y5752795D01*
G37*
G36*
X28255925Y5752338D02*
G01*
X28255925Y5747004D01*
X28269133Y5747004D01*
X28273857Y5746597D01*
X28277972Y5745480D01*
X28281426Y5743651D01*
X28284220Y5741162D01*
X28286405Y5737961D01*
X28287980Y5734100D01*
X28288894Y5729681D01*
X28289199Y5724652D01*
X28288894Y5719572D01*
X28287980Y5715000D01*
X28286405Y5711088D01*
X28284220Y5707735D01*
X28281426Y5705094D01*
X28277972Y5703112D01*
X28273857Y5701944D01*
X28269133Y5701538D01*
X28262275Y5701538D01*
X28262275Y5747004D01*
X28255925Y5747004D01*
X28255925Y5696458D01*
X28269895Y5696458D01*
X28275889Y5696915D01*
X28281122Y5698388D01*
X28285592Y5700725D01*
X28289250Y5703976D01*
X28292094Y5707989D01*
X28294177Y5712815D01*
X28295396Y5718403D01*
X28295803Y5724652D01*
X28295396Y5730849D01*
X28294177Y5736336D01*
X28292094Y5741111D01*
X28289199Y5745022D01*
X28285541Y5748172D01*
X28281020Y5750458D01*
X28275737Y5751830D01*
X28269641Y5752338D01*
G37*
G36*
X28318917Y5752338D02*
G01*
X28307573Y5719064D01*
X28313329Y5719064D01*
X28317850Y5732780D01*
X28321965Y5747004D01*
X28322219Y5747004D01*
X28328061Y5728208D01*
X28331109Y5719064D01*
X28307573Y5719064D01*
X28299867Y5696458D01*
X28306217Y5696458D01*
X28311805Y5713984D01*
X28332633Y5713984D01*
X28338221Y5696458D01*
X28344825Y5696458D01*
X28325775Y5752338D01*
G37*
G36*
X27330857Y5505196D02*
G01*
X27323694Y5504637D01*
X27317090Y5503011D01*
X27311248Y5500420D01*
X27306168Y5496966D01*
X27302053Y5492699D01*
X27298954Y5487720D01*
X27296973Y5482082D01*
X27296313Y5475986D01*
X27296872Y5470245D01*
X27298446Y5465318D01*
X27300834Y5461050D01*
X27303831Y5457393D01*
X27307387Y5454294D01*
X27311197Y5451703D01*
X27315210Y5449570D01*
X27335175Y5440680D01*
X27342642Y5437073D01*
X27348738Y5433060D01*
X27352752Y5427675D01*
X27354225Y5420106D01*
X27353818Y5415991D01*
X27352548Y5412232D01*
X27350516Y5408930D01*
X27347773Y5406136D01*
X27344268Y5403850D01*
X27340102Y5402173D01*
X27335276Y5401157D01*
X27329841Y5400802D01*
X27321103Y5401767D01*
X27312823Y5404662D01*
X27305253Y5409133D01*
X27298599Y5415026D01*
X27290979Y5406390D01*
X27294789Y5402681D01*
X27298903Y5399379D01*
X27303272Y5396484D01*
X27307997Y5394096D01*
X27313026Y5392166D01*
X27318258Y5390743D01*
X27323796Y5389880D01*
X27329587Y5389626D01*
X27337867Y5390235D01*
X27345233Y5392013D01*
X27351634Y5394858D01*
X27357070Y5398668D01*
X27361388Y5403240D01*
X27364588Y5408574D01*
X27366518Y5414467D01*
X27367179Y5420868D01*
X27366722Y5426710D01*
X27365350Y5431790D01*
X27363216Y5436209D01*
X27360422Y5440019D01*
X27356968Y5443321D01*
X27353056Y5446115D01*
X27348738Y5448604D01*
X27344065Y5450840D01*
X27321306Y5460593D01*
X27315312Y5464352D01*
X27310943Y5469636D01*
X27309267Y5477002D01*
X27310842Y5484012D01*
X27315210Y5489397D01*
X27322018Y5492800D01*
X27330857Y5494020D01*
X27338426Y5493258D01*
X27345132Y5491124D01*
X27351126Y5487771D01*
X27356511Y5483352D01*
X27363369Y5491480D01*
X27356968Y5497017D01*
X27349297Y5501386D01*
X27340560Y5504180D01*
G37*
G36*
X27418741Y5505196D02*
G01*
X27411578Y5504637D01*
X27405025Y5503011D01*
X27399183Y5500420D01*
X27394153Y5496966D01*
X27390089Y5492699D01*
X27387042Y5487720D01*
X27385111Y5482082D01*
X27384451Y5475986D01*
X27385010Y5470245D01*
X27386534Y5465318D01*
X27388870Y5461050D01*
X27391868Y5457393D01*
X27395322Y5454294D01*
X27399132Y5451703D01*
X27403094Y5449570D01*
X27423313Y5440680D01*
X27430780Y5437073D01*
X27436826Y5433060D01*
X27440889Y5427675D01*
X27442363Y5420106D01*
X27441956Y5415991D01*
X27440686Y5412232D01*
X27438603Y5408930D01*
X27435759Y5406136D01*
X27432253Y5403850D01*
X27428037Y5402173D01*
X27423160Y5401157D01*
X27417725Y5400802D01*
X27408987Y5401767D01*
X27400707Y5404662D01*
X27393138Y5409133D01*
X27386483Y5415026D01*
X27378863Y5406390D01*
X27382673Y5402681D01*
X27386788Y5399379D01*
X27391156Y5396484D01*
X27395881Y5394096D01*
X27400910Y5392166D01*
X27406142Y5390743D01*
X27411680Y5389880D01*
X27417471Y5389626D01*
X27425751Y5390235D01*
X27433117Y5392013D01*
X27439518Y5394858D01*
X27444953Y5398668D01*
X27449272Y5403240D01*
X27452472Y5408574D01*
X27454402Y5414467D01*
X27455063Y5420868D01*
X27454606Y5426710D01*
X27453234Y5431790D01*
X27451100Y5436209D01*
X27448256Y5440019D01*
X27444852Y5443321D01*
X27440940Y5446115D01*
X27436622Y5448604D01*
X27431949Y5450840D01*
X27415693Y5457698D01*
X27409292Y5460593D01*
X27403298Y5464352D01*
X27398878Y5469636D01*
X27397151Y5477002D01*
X27398726Y5484012D01*
X27403094Y5489397D01*
X27409902Y5492800D01*
X27418741Y5494020D01*
X27426361Y5493258D01*
X27433117Y5491124D01*
X27439213Y5487771D01*
X27444649Y5483352D01*
X27451253Y5491480D01*
X27444852Y5497017D01*
X27437181Y5501386D01*
X27428444Y5504180D01*
G37*
G36*
X27688997Y5505196D02*
G01*
X27680005Y5504180D01*
X27671928Y5501436D01*
X27664714Y5497220D01*
X27658263Y5491988D01*
X27665121Y5484114D01*
X27670048Y5488482D01*
X27675687Y5491937D01*
X27681834Y5494223D01*
X27688489Y5495036D01*
X27696718Y5493715D01*
X27702865Y5489956D01*
X27706726Y5484215D01*
X27708047Y5476748D01*
X27707640Y5472226D01*
X27706421Y5468010D01*
X27704237Y5464251D01*
X27701087Y5461000D01*
X27696820Y5458358D01*
X27691334Y5456326D01*
X27684628Y5455056D01*
X27676551Y5454650D01*
X27676551Y5444744D01*
X27685542Y5444286D01*
X27693061Y5443067D01*
X27699208Y5441086D01*
X27704084Y5438444D01*
X27707691Y5435142D01*
X27710231Y5431231D01*
X27711653Y5426760D01*
X27712111Y5421884D01*
X27711653Y5417058D01*
X27710384Y5412790D01*
X27708301Y5409031D01*
X27705507Y5405882D01*
X27702052Y5403392D01*
X27698090Y5401513D01*
X27693620Y5400395D01*
X27688743Y5400040D01*
X27679700Y5401106D01*
X27672182Y5404002D01*
X27665883Y5408168D01*
X27660549Y5412994D01*
X27654199Y5404866D01*
X27657044Y5402021D01*
X27660244Y5399227D01*
X27663902Y5396687D01*
X27667965Y5394350D01*
X27672538Y5392420D01*
X27677618Y5390896D01*
X27683256Y5389930D01*
X27689505Y5389626D01*
X27696617Y5390134D01*
X27703221Y5391759D01*
X27709215Y5394401D01*
X27714397Y5398058D01*
X27718613Y5402580D01*
X27721864Y5408015D01*
X27723846Y5414314D01*
X27724557Y5421376D01*
X27724100Y5426913D01*
X27722677Y5431891D01*
X27720493Y5436362D01*
X27717597Y5440222D01*
X27714041Y5443524D01*
X27709977Y5446268D01*
X27705507Y5448350D01*
X27700681Y5449824D01*
X27700681Y5450586D01*
X27704999Y5452313D01*
X27708860Y5454548D01*
X27712314Y5457240D01*
X27715210Y5460390D01*
X27717546Y5463997D01*
X27719324Y5468061D01*
X27720391Y5472582D01*
X27720747Y5477510D01*
X27720137Y5483707D01*
X27718359Y5489194D01*
X27715514Y5493969D01*
X27711755Y5497880D01*
X27707082Y5501030D01*
X27701697Y5503316D01*
X27695601Y5504688D01*
G37*
G36*
X27775103Y5505196D02*
G01*
X27770023Y5504789D01*
X27765248Y5503621D01*
X27760879Y5501690D01*
X27756865Y5498947D01*
X27753259Y5495391D01*
X27750058Y5491022D01*
X27747315Y5485892D01*
X27745029Y5479948D01*
X27743200Y5473141D01*
X27741880Y5465521D01*
X27741118Y5457037D01*
X27740813Y5447792D01*
X27752751Y5447792D01*
X27753157Y5459222D01*
X27754376Y5468975D01*
X27756358Y5477103D01*
X27758999Y5483656D01*
X27762250Y5488686D01*
X27766060Y5492242D01*
X27770378Y5494324D01*
X27775103Y5495036D01*
X27779827Y5494324D01*
X27784094Y5492242D01*
X27787853Y5488686D01*
X27791003Y5483656D01*
X27793543Y5477103D01*
X27795423Y5468975D01*
X27796540Y5459222D01*
X27796947Y5447792D01*
X27796794Y5439867D01*
X27796236Y5432755D01*
X27795423Y5426354D01*
X27794254Y5420664D01*
X27792730Y5415686D01*
X27791003Y5411368D01*
X27788971Y5407812D01*
X27786634Y5404866D01*
X27784094Y5402630D01*
X27781300Y5401005D01*
X27778303Y5400090D01*
X27775103Y5399786D01*
X27771902Y5400090D01*
X27768854Y5401005D01*
X27766060Y5402630D01*
X27763470Y5404866D01*
X27761082Y5407812D01*
X27758999Y5411368D01*
X27757170Y5415686D01*
X27755646Y5420664D01*
X27754376Y5426354D01*
X27753513Y5432755D01*
X27752954Y5439867D01*
X27752751Y5447792D01*
X27740813Y5447792D01*
X27741118Y5438444D01*
X27741880Y5429961D01*
X27743200Y5422290D01*
X27745029Y5415432D01*
X27747315Y5409336D01*
X27750058Y5404104D01*
X27753259Y5399684D01*
X27756865Y5396026D01*
X27760879Y5393232D01*
X27765248Y5391200D01*
X27770023Y5389981D01*
X27775103Y5389626D01*
X27780183Y5389981D01*
X27784856Y5391200D01*
X27789225Y5393232D01*
X27793188Y5396026D01*
X27796794Y5399684D01*
X27799944Y5404104D01*
X27802687Y5409336D01*
X27804973Y5415432D01*
X27806751Y5422290D01*
X27808072Y5429961D01*
X27808885Y5438444D01*
X27809139Y5447792D01*
X27808885Y5456986D01*
X27808072Y5465419D01*
X27806751Y5473039D01*
X27804973Y5479796D01*
X27802687Y5485790D01*
X27799944Y5490972D01*
X27796794Y5495290D01*
X27793188Y5498846D01*
X27789225Y5501640D01*
X27784856Y5503621D01*
X27780183Y5504789D01*
G37*
G36*
X27866289Y5505196D02*
G01*
X27862326Y5504992D01*
X27858415Y5504383D01*
X27854605Y5503367D01*
X27850947Y5501894D01*
X27847442Y5500014D01*
X27844089Y5497626D01*
X27840889Y5494782D01*
X27837993Y5491429D01*
X27835301Y5487568D01*
X27832913Y5483148D01*
X27830780Y5478221D01*
X27829002Y5472684D01*
X27827579Y5466638D01*
X27826512Y5459933D01*
X27825903Y5452618D01*
X27825649Y5444744D01*
X27825931Y5436616D01*
X27837587Y5436616D01*
X27843480Y5443372D01*
X27849576Y5447944D01*
X27855519Y5450535D01*
X27860955Y5451348D01*
X27866035Y5450840D01*
X27870353Y5449519D01*
X27874010Y5447284D01*
X27876957Y5444286D01*
X27879192Y5440578D01*
X27880767Y5436209D01*
X27881732Y5431231D01*
X27882037Y5425694D01*
X27881681Y5420106D01*
X27880564Y5415026D01*
X27878786Y5410606D01*
X27876449Y5406796D01*
X27873604Y5403697D01*
X27870251Y5401411D01*
X27866543Y5399989D01*
X27862479Y5399532D01*
X27857246Y5400141D01*
X27852624Y5401970D01*
X27848560Y5405018D01*
X27845105Y5409184D01*
X27842260Y5414467D01*
X27840076Y5420817D01*
X27838501Y5428234D01*
X27837587Y5436616D01*
X27825931Y5436616D01*
X27826868Y5427929D01*
X27828392Y5420664D01*
X27830424Y5414162D01*
X27832964Y5408422D01*
X27835961Y5403443D01*
X27839466Y5399227D01*
X27843327Y5395772D01*
X27847645Y5393080D01*
X27852268Y5391150D01*
X27857246Y5389981D01*
X27862479Y5389626D01*
X27868626Y5390286D01*
X27874468Y5392216D01*
X27879751Y5395366D01*
X27884424Y5399633D01*
X27888285Y5404866D01*
X27891232Y5411012D01*
X27893060Y5417972D01*
X27893721Y5425694D01*
X27893213Y5433872D01*
X27891587Y5440984D01*
X27889047Y5447030D01*
X27885491Y5451957D01*
X27881072Y5455818D01*
X27875839Y5458510D01*
X27869794Y5460187D01*
X27862987Y5460746D01*
X27856230Y5459780D01*
X27849423Y5456986D01*
X27843022Y5452668D01*
X27837333Y5447030D01*
X27837739Y5455462D01*
X27838603Y5462981D01*
X27839924Y5469585D01*
X27841702Y5475325D01*
X27843835Y5480202D01*
X27846375Y5484317D01*
X27849169Y5487670D01*
X27852268Y5490362D01*
X27855621Y5492343D01*
X27859177Y5493715D01*
X27862936Y5494528D01*
X27866797Y5494782D01*
X27871877Y5494223D01*
X27876703Y5492546D01*
X27881072Y5489956D01*
X27884831Y5486400D01*
X27891943Y5494020D01*
X27886964Y5498439D01*
X27881122Y5501944D01*
X27874264Y5504332D01*
G37*
G36*
X28056789Y5505196D02*
G01*
X28051760Y5504891D01*
X28047086Y5503976D01*
X28042717Y5502554D01*
X28038653Y5500674D01*
X28034792Y5498287D01*
X28031135Y5495544D01*
X28027680Y5492394D01*
X28024277Y5488940D01*
X28031643Y5481828D01*
X28036723Y5487060D01*
X28042412Y5491276D01*
X28048610Y5494020D01*
X28055265Y5495036D01*
X28060345Y5494578D01*
X28064714Y5493258D01*
X28068371Y5491175D01*
X28071368Y5488432D01*
X28073705Y5485079D01*
X28075331Y5481167D01*
X28076296Y5476849D01*
X28076601Y5472176D01*
X28076448Y5468518D01*
X28075839Y5464759D01*
X28074924Y5460898D01*
X28073553Y5456986D01*
X28071826Y5452922D01*
X28069692Y5448757D01*
X28067152Y5444490D01*
X28060802Y5435498D01*
X28052776Y5425948D01*
X28043022Y5415686D01*
X28031490Y5404764D01*
X28025039Y5399024D01*
X28025039Y5391658D01*
X28094127Y5391658D01*
X28094127Y5402326D01*
X28057754Y5402275D01*
X28048407Y5401767D01*
X28043835Y5401310D01*
X28053588Y5410809D01*
X28062326Y5420106D01*
X28069997Y5429199D01*
X28076499Y5438140D01*
X28079293Y5442508D01*
X28083865Y5451246D01*
X28085592Y5455564D01*
X28086964Y5459882D01*
X28087980Y5464149D01*
X28088589Y5468416D01*
X28088793Y5472684D01*
X28088234Y5479745D01*
X28086608Y5486095D01*
X28083916Y5491632D01*
X28080208Y5496356D01*
X28075636Y5500116D01*
X28070149Y5502859D01*
X28063850Y5504586D01*
G37*
G36*
X28309011Y5505196D02*
G01*
X28305048Y5504992D01*
X28301137Y5504383D01*
X28297327Y5503367D01*
X28293669Y5501894D01*
X28290164Y5500014D01*
X28286811Y5497626D01*
X28283611Y5494782D01*
X28280715Y5491429D01*
X28278023Y5487568D01*
X28275635Y5483148D01*
X28273502Y5478221D01*
X28271724Y5472684D01*
X28270301Y5466638D01*
X28269234Y5459933D01*
X28268625Y5452618D01*
X28268371Y5444744D01*
X28268653Y5436616D01*
X28280309Y5436616D01*
X28286202Y5443372D01*
X28292298Y5447944D01*
X28298241Y5450535D01*
X28303677Y5451348D01*
X28308757Y5450840D01*
X28313075Y5449519D01*
X28316732Y5447284D01*
X28319679Y5444286D01*
X28321914Y5440578D01*
X28323489Y5436209D01*
X28324454Y5431231D01*
X28324759Y5425694D01*
X28324403Y5420106D01*
X28323286Y5415026D01*
X28321508Y5410606D01*
X28319171Y5406796D01*
X28316326Y5403697D01*
X28312973Y5401411D01*
X28309265Y5399989D01*
X28305201Y5399532D01*
X28299968Y5400141D01*
X28295346Y5401970D01*
X28291282Y5405018D01*
X28287827Y5409184D01*
X28284982Y5414467D01*
X28282798Y5420817D01*
X28281223Y5428234D01*
X28280309Y5436616D01*
X28268653Y5436616D01*
X28269590Y5427929D01*
X28271114Y5420664D01*
X28273146Y5414162D01*
X28275686Y5408422D01*
X28278683Y5403443D01*
X28282188Y5399227D01*
X28286049Y5395772D01*
X28290367Y5393080D01*
X28294990Y5391150D01*
X28299968Y5389981D01*
X28305201Y5389626D01*
X28311348Y5390286D01*
X28317189Y5392216D01*
X28322473Y5395366D01*
X28327146Y5399633D01*
X28331007Y5404866D01*
X28333953Y5411012D01*
X28335782Y5417972D01*
X28336443Y5425694D01*
X28335935Y5433872D01*
X28334309Y5440984D01*
X28331769Y5447030D01*
X28328213Y5451957D01*
X28323794Y5455818D01*
X28318561Y5458510D01*
X28312516Y5460187D01*
X28305709Y5460746D01*
X28298952Y5459780D01*
X28292145Y5456986D01*
X28285694Y5452668D01*
X28280055Y5447030D01*
X28280461Y5455462D01*
X28281325Y5462981D01*
X28282646Y5469585D01*
X28284424Y5475325D01*
X28286557Y5480202D01*
X28289097Y5484317D01*
X28291891Y5487670D01*
X28294990Y5490362D01*
X28298343Y5492343D01*
X28301899Y5493715D01*
X28305658Y5494528D01*
X28309519Y5494782D01*
X28314599Y5494223D01*
X28319425Y5492546D01*
X28323794Y5489956D01*
X28327553Y5486400D01*
X28334665Y5494020D01*
X28329686Y5498439D01*
X28323844Y5501944D01*
X28316986Y5504332D01*
G37*
G36*
X28144419Y5504942D02*
G01*
X28138272Y5504383D01*
X28132582Y5502859D01*
X28127452Y5500420D01*
X28123083Y5497118D01*
X28119476Y5493004D01*
X28116733Y5488178D01*
X28115056Y5482742D01*
X28114447Y5476748D01*
X28125877Y5476748D01*
X28127248Y5484368D01*
X28131008Y5490311D01*
X28136799Y5494172D01*
X28144165Y5495544D01*
X28152547Y5493867D01*
X28158744Y5489448D01*
X28162656Y5482894D01*
X28163977Y5474970D01*
X28163215Y5468620D01*
X28160827Y5462574D01*
X28157017Y5456885D01*
X28151785Y5451602D01*
X28142082Y5455818D01*
X28137662Y5458206D01*
X28133802Y5460898D01*
X28130550Y5464048D01*
X28128061Y5467654D01*
X28126436Y5471871D01*
X28125877Y5476748D01*
X28114447Y5476748D01*
X28115666Y5468569D01*
X28118917Y5461609D01*
X28123692Y5455818D01*
X28129433Y5451094D01*
X28129433Y5450586D01*
X28125623Y5448249D01*
X28121914Y5445455D01*
X28118409Y5442254D01*
X28115209Y5438546D01*
X28112516Y5434431D01*
X28110434Y5429859D01*
X28109113Y5424830D01*
X28108699Y5420360D01*
X28120035Y5420360D01*
X28121203Y5428335D01*
X28124505Y5435396D01*
X28129585Y5441543D01*
X28136037Y5446522D01*
X28147670Y5441543D01*
X28152852Y5438851D01*
X28157373Y5435854D01*
X28161183Y5432450D01*
X28164078Y5428538D01*
X28165907Y5423916D01*
X28166517Y5418582D01*
X28164942Y5410809D01*
X28160421Y5404612D01*
X28153360Y5400497D01*
X28144165Y5399024D01*
X28139186Y5399430D01*
X28134614Y5400598D01*
X28130500Y5402529D01*
X28126944Y5405120D01*
X28124048Y5408218D01*
X28121914Y5411876D01*
X28120543Y5415940D01*
X28120035Y5420360D01*
X28108699Y5420360D01*
X28108605Y5419344D01*
X28109316Y5413095D01*
X28111297Y5407406D01*
X28114447Y5402326D01*
X28118663Y5398008D01*
X28123896Y5394452D01*
X28129941Y5391810D01*
X28136748Y5390184D01*
X28144165Y5389626D01*
X28151582Y5390184D01*
X28158236Y5391861D01*
X28164078Y5394452D01*
X28169057Y5397957D01*
X28173019Y5402173D01*
X28176016Y5407050D01*
X28177845Y5412486D01*
X28178455Y5418328D01*
X28178048Y5423712D01*
X28176880Y5428488D01*
X28175051Y5432755D01*
X28172714Y5436514D01*
X28169870Y5439816D01*
X28166669Y5442712D01*
X28163265Y5445302D01*
X28159659Y5447538D01*
X28159659Y5448300D01*
X28164789Y5453126D01*
X28169666Y5459476D01*
X28173222Y5467045D01*
X28174645Y5475478D01*
X28174137Y5481624D01*
X28172562Y5487263D01*
X28170073Y5492242D01*
X28166568Y5496560D01*
X28162250Y5500065D01*
X28157068Y5502706D01*
X28151124Y5504332D01*
G37*
G36*
X27477415Y5503164D02*
G01*
X27477415Y5492750D01*
X27503577Y5492750D01*
X27510079Y5492394D01*
X27516023Y5491378D01*
X27521357Y5489752D01*
X27526132Y5487466D01*
X27530348Y5484520D01*
X27533955Y5481015D01*
X27537054Y5476900D01*
X27539543Y5472176D01*
X27541474Y5466892D01*
X27542896Y5461050D01*
X27543709Y5454700D01*
X27543963Y5447792D01*
X27543709Y5440883D01*
X27542896Y5434482D01*
X27541474Y5428640D01*
X27539543Y5423255D01*
X27537054Y5418480D01*
X27533955Y5414264D01*
X27530348Y5410606D01*
X27526132Y5407558D01*
X27521357Y5405170D01*
X27516023Y5403443D01*
X27510079Y5402427D01*
X27503577Y5402072D01*
X27489861Y5402072D01*
X27489861Y5492750D01*
X27477415Y5492750D01*
X27477415Y5391658D01*
X27505101Y5391658D01*
X27511298Y5391861D01*
X27517089Y5392623D01*
X27522525Y5393791D01*
X27527554Y5395468D01*
X27532228Y5397601D01*
X27536444Y5400141D01*
X27540305Y5403138D01*
X27543760Y5406542D01*
X27546858Y5410403D01*
X27549500Y5414619D01*
X27551786Y5419242D01*
X27553615Y5424220D01*
X27555088Y5429554D01*
X27556104Y5435295D01*
X27556714Y5441340D01*
X27556917Y5447792D01*
X27556714Y5454142D01*
X27556104Y5460187D01*
X27555088Y5465876D01*
X27553615Y5471210D01*
X27551735Y5476138D01*
X27549500Y5480710D01*
X27546808Y5484825D01*
X27543760Y5488584D01*
X27540254Y5491937D01*
X27536394Y5494883D01*
X27532126Y5497372D01*
X27527453Y5499404D01*
X27522373Y5501030D01*
X27516937Y5502198D01*
X27511095Y5502910D01*
X27504847Y5503164D01*
G37*
G36*
X27607209Y5503164D02*
G01*
X27602688Y5500725D01*
X27597455Y5498642D01*
X27591562Y5496966D01*
X27584857Y5495544D01*
X27584857Y5487416D01*
X27604415Y5487416D01*
X27604415Y5402072D01*
X27579523Y5402072D01*
X27579523Y5391658D01*
X27639467Y5391658D01*
X27639467Y5402072D01*
X27616861Y5402072D01*
X27616861Y5503164D01*
G37*
G36*
X27976017Y5503164D02*
G01*
X27971394Y5500725D01*
X27966162Y5498642D01*
X27960218Y5496966D01*
X27953411Y5495544D01*
X27953411Y5487416D01*
X27972969Y5487416D01*
X27972969Y5402072D01*
X27948077Y5402072D01*
X27948077Y5391658D01*
X28008021Y5391658D01*
X28008021Y5402072D01*
X27985415Y5402072D01*
X27985415Y5503164D01*
G37*
G36*
X28393593Y5503164D02*
G01*
X28347261Y5432552D01*
X28359303Y5432552D01*
X28386481Y5472684D01*
X28391002Y5480659D01*
X28395117Y5488686D01*
X28395879Y5488686D01*
X28395117Y5468874D01*
X28395117Y5432552D01*
X28347261Y5432552D01*
X28346095Y5430774D01*
X28346095Y5422646D01*
X28395117Y5422646D01*
X28395117Y5391658D01*
X28406801Y5391658D01*
X28406801Y5422646D01*
X28422041Y5422646D01*
X28422041Y5432552D01*
X28406801Y5432552D01*
X28406801Y5503164D01*
G37*
G36*
X28189885Y5473954D02*
G01*
X28215031Y5434584D01*
X28187853Y5391658D01*
X28200807Y5391658D01*
X28221381Y5426456D01*
X28222143Y5426456D01*
X28231033Y5411724D01*
X28243733Y5391658D01*
X28257195Y5391658D01*
X28230271Y5433314D01*
X28255163Y5473954D01*
X28242463Y5473954D01*
X28223921Y5441442D01*
X28223413Y5441442D01*
X28219044Y5448300D01*
X28215031Y5455158D01*
X28203347Y5473954D01*
G37*
D21*
X19800824Y9856215D02*
G01*
X19785075Y9851136D01*
X19774661Y9835387D01*
X19769581Y9809479D01*
X19769581Y9793986D01*
X19774661Y9767824D01*
X19785075Y9752329D01*
X19800824Y9747250D01*
X19811238Y9747250D01*
X19826731Y9752329D01*
X19837145Y9767824D01*
X19842225Y9793986D01*
X19842225Y9809479D01*
X19837145Y9835387D01*
X19826731Y9851136D01*
X19811238Y9856215D01*
X19800824Y9856215D01*
X3569614Y9835387D02*
G01*
X3580028Y9840721D01*
X3595522Y9856215D01*
X3595522Y9747250D01*
X5374690Y9830308D02*
G01*
X5374690Y9835387D01*
X5380024Y9845802D01*
X5385104Y9851136D01*
X5395518Y9856215D01*
X5416346Y9856215D01*
X5426760Y9851136D01*
X5431840Y9845802D01*
X5437174Y9835387D01*
X5437174Y9824974D01*
X5431840Y9814560D01*
X5421680Y9799065D01*
X5369610Y9747250D01*
X5442254Y9747250D01*
X7180021Y9856215D02*
G01*
X7237171Y9856215D01*
X7205929Y9814560D01*
X7221677Y9814560D01*
X7231837Y9809479D01*
X7237171Y9804400D01*
X7242251Y9788652D01*
X7242251Y9778237D01*
X7237171Y9762744D01*
X7226757Y9752329D01*
X7211263Y9747250D01*
X7195515Y9747250D01*
X7180021Y9752329D01*
X7174687Y9757410D01*
X7169607Y9767824D01*
X9021673Y9856215D02*
G01*
X8969603Y9783571D01*
X9047581Y9783571D01*
X9021673Y9856215D02*
G01*
X9021673Y9747250D01*
X12631826Y9840721D02*
G01*
X12626746Y9851136D01*
X12611252Y9856215D01*
X12600838Y9856215D01*
X12585090Y9851136D01*
X12574676Y9835387D01*
X12569596Y9809479D01*
X12569596Y9783571D01*
X12574676Y9762744D01*
X12585090Y9752329D01*
X12600838Y9747250D01*
X12605918Y9747250D01*
X12621666Y9752329D01*
X12631826Y9762744D01*
X12637160Y9778237D01*
X12637160Y9783571D01*
X12631826Y9799065D01*
X12621666Y9809479D01*
X12605918Y9814560D01*
X12600838Y9814560D01*
X12585090Y9809479D01*
X12574676Y9799065D01*
X12569596Y9783571D01*
X14442236Y9856215D02*
G01*
X14390420Y9747250D01*
X14369592Y9856215D02*
G01*
X14442236Y9856215D01*
X16195497Y9856215D02*
G01*
X16180003Y9851136D01*
X16174669Y9840721D01*
X16174669Y9830308D01*
X16180003Y9819894D01*
X16190417Y9814560D01*
X16211245Y9809479D01*
X16226739Y9804400D01*
X16237153Y9793986D01*
X16242233Y9783571D01*
X16242233Y9767824D01*
X16237153Y9757410D01*
X16231819Y9752329D01*
X16216325Y9747250D01*
X16195497Y9747250D01*
X16180003Y9752329D01*
X16174669Y9757410D01*
X16169589Y9767824D01*
X16169589Y9783571D01*
X16174669Y9793986D01*
X16185083Y9804400D01*
X16200831Y9809479D01*
X16221659Y9814560D01*
X16231819Y9819894D01*
X16237153Y9830308D01*
X16237153Y9840721D01*
X16231819Y9851136D01*
X16216325Y9856215D01*
X16195497Y9856215D01*
X18037149Y9819894D02*
G01*
X18031815Y9804400D01*
X18021655Y9793986D01*
X18005907Y9788652D01*
X18000827Y9788652D01*
X17985079Y9793986D01*
X17974665Y9804400D01*
X17969585Y9819894D01*
X17969585Y9824974D01*
X17974665Y9840721D01*
X17985079Y9851136D01*
X18000827Y9856215D01*
X18005907Y9856215D01*
X18021655Y9851136D01*
X18031815Y9840721D01*
X18037149Y9819894D01*
X18037149Y9793986D01*
X18031815Y9767824D01*
X18021655Y9752329D01*
X18005907Y9747250D01*
X17995493Y9747250D01*
X17979999Y9752329D01*
X17974665Y9762744D01*
X22429990Y6571716D02*
G01*
X22429990Y6540728D01*
X17879999Y4817833D02*
G01*
X17874665Y4812753D01*
X17869585Y4817833D01*
X17874665Y4823167D01*
X17879999Y4817833D01*
X17879999Y4807419D01*
X17869585Y4797259D01*
X21569578Y9793986D02*
G01*
X21663050Y9793986D01*
X19674662Y4823167D02*
G01*
X19669582Y4817833D01*
X19674662Y4812753D01*
X19679996Y4817833D01*
X19674662Y4823167D01*
X21563050Y4927053D02*
G01*
X21469578Y4760683D01*
X20624660Y6509486D02*
G01*
X20619580Y6504406D01*
X20624660Y6499072D01*
X20629994Y6504406D01*
X20624660Y6509486D01*
X20629994Y6467830D02*
G01*
X20624660Y6462750D01*
X20619580Y6467830D01*
X20624660Y6473164D01*
X20629994Y6467830D01*
X20629994Y6457416D01*
X20619580Y6447256D01*
X4461268Y6556222D02*
G01*
X4419612Y6447256D01*
X4461268Y6556222D02*
G01*
X4502670Y6447256D01*
X4435106Y6483578D02*
G01*
X4487176Y6483578D01*
X6686265Y3256229D02*
G01*
X6644609Y3147263D01*
X6686265Y3256229D02*
G01*
X6727667Y3147263D01*
X6660100Y3183585D02*
G01*
X6712173Y3183585D01*
X6761957Y3256229D02*
G01*
X6761957Y3147263D01*
X6761957Y3147263D02*
G01*
X6824441Y3147263D01*
X6895050Y3256229D02*
G01*
X6895050Y3147263D01*
X6858731Y3256229D02*
G01*
X6931375Y3256229D01*
X17911241Y3256229D02*
G01*
X17869585Y3147263D01*
X17911241Y3256229D02*
G01*
X17952643Y3147263D01*
X17885079Y3183585D02*
G01*
X17937149Y3183585D01*
X17986933Y3256229D02*
G01*
X17986933Y3147263D01*
X17986933Y3147263D02*
G01*
X18049417Y3147263D01*
X18120029Y3256229D02*
G01*
X18120029Y3147263D01*
X18083707Y3256229D02*
G01*
X18156351Y3256229D01*
X18268619Y3230321D02*
G01*
X18263285Y3240735D01*
X18253125Y3251149D01*
X18242711Y3256229D01*
X18221883Y3256229D01*
X18211469Y3251149D01*
X18201055Y3240735D01*
X18195975Y3230321D01*
X18190641Y3214573D01*
X18190641Y3188665D01*
X18195975Y3173171D01*
X18201055Y3162757D01*
X18211469Y3152343D01*
X18221883Y3147263D01*
X18242711Y3147263D01*
X18253125Y3152343D01*
X18263285Y3162757D01*
X18268619Y3173171D01*
X18268619Y3188665D01*
X18242711Y3188665D02*
G01*
X18268619Y3188665D01*
X18302909Y3256229D02*
G01*
X18302909Y3147263D01*
X18302909Y3256229D02*
G01*
X18349645Y3256229D01*
X18365139Y3251149D01*
X18370473Y3245815D01*
X18375553Y3235401D01*
X18375553Y3224987D01*
X18370473Y3214573D01*
X18365139Y3209493D01*
X18349645Y3204413D01*
X18302909Y3204413D01*
X18339231Y3204413D02*
G01*
X18375553Y3147263D01*
X12469596Y4906225D02*
G01*
X12469596Y4797259D01*
X12469596Y4906225D02*
G01*
X12516332Y4906225D01*
X12531826Y4901145D01*
X12537160Y4895811D01*
X12542240Y4885397D01*
X12542240Y4874983D01*
X12537160Y4864569D01*
X12531826Y4859489D01*
X12516332Y4854409D01*
X12469596Y4854409D02*
G01*
X12516332Y4854409D01*
X12531826Y4849075D01*
X12537160Y4843995D01*
X12542240Y4833581D01*
X12542240Y4817833D01*
X12537160Y4807419D01*
X12531826Y4802339D01*
X12516332Y4797259D01*
X12469596Y4797259D01*
X24219573Y9856215D02*
G01*
X24219573Y9747250D01*
X24219573Y9856215D02*
G01*
X24266309Y9856215D01*
X24281803Y9851136D01*
X24287137Y9845802D01*
X24292217Y9835387D01*
X24292217Y9824974D01*
X24287137Y9814560D01*
X24281803Y9809479D01*
X24266309Y9804400D01*
X24219573Y9804400D02*
G01*
X24266309Y9804400D01*
X24281803Y9799065D01*
X24287137Y9793986D01*
X24292217Y9783571D01*
X24292217Y9767824D01*
X24287137Y9757410D01*
X24281803Y9752329D01*
X24266309Y9747250D01*
X24219573Y9747250D01*
X24368163Y9856215D02*
G01*
X24326507Y9747250D01*
X24368163Y9856215D02*
G01*
X24409819Y9747250D01*
X24342255Y9783571D02*
G01*
X24394071Y9783571D01*
X24521833Y9830308D02*
G01*
X24516753Y9840721D01*
X24506339Y9851136D01*
X24495925Y9856215D01*
X24475097Y9856215D01*
X24464683Y9851136D01*
X24454523Y9840721D01*
X24449189Y9830308D01*
X24444109Y9814560D01*
X24444109Y9788652D01*
X24449189Y9773158D01*
X24454523Y9762744D01*
X24464683Y9752329D01*
X24475097Y9747250D01*
X24495925Y9747250D01*
X24506339Y9752329D01*
X24516753Y9762744D01*
X24521833Y9773158D01*
X24556123Y9856215D02*
G01*
X24556123Y9747250D01*
X24629021Y9856215D02*
G01*
X24556123Y9783571D01*
X24582285Y9809479D02*
G01*
X24629021Y9747250D01*
X8947581Y4880317D02*
G01*
X8942247Y4890731D01*
X8931833Y4901145D01*
X8921673Y4906225D01*
X8900845Y4906225D01*
X8890431Y4901145D01*
X8880017Y4890731D01*
X8874683Y4880317D01*
X8869603Y4864569D01*
X8869603Y4838661D01*
X8874683Y4823167D01*
X8880017Y4812753D01*
X8890431Y4802339D01*
X8900845Y4797259D01*
X8921673Y4797259D01*
X8931833Y4802339D01*
X8942247Y4812753D01*
X8947581Y4823167D01*
X2272596Y6530314D02*
G01*
X2267262Y6540728D01*
X2256848Y6551142D01*
X2246688Y6556222D01*
X2225860Y6556222D01*
X2215446Y6551142D01*
X2205032Y6540728D01*
X2199698Y6530314D01*
X2194618Y6514566D01*
X2194618Y6488658D01*
X2199698Y6473164D01*
X2205032Y6462750D01*
X2215446Y6452336D01*
X2225860Y6447256D01*
X2246688Y6447256D01*
X2256848Y6452336D01*
X2267262Y6462750D01*
X2272596Y6473164D01*
X2348288Y6556222D02*
G01*
X2306886Y6447256D01*
X2348288Y6556222D02*
G01*
X2389941Y6447256D01*
X2322380Y6483578D02*
G01*
X2374450Y6483578D01*
X2424234Y6556222D02*
G01*
X2424234Y6447256D01*
X2424234Y6556222D02*
G01*
X2470970Y6556222D01*
X2486718Y6551142D01*
X2491798Y6545808D01*
X2496878Y6535394D01*
X2496878Y6519900D01*
X2491798Y6509486D01*
X2486718Y6504406D01*
X2470970Y6499072D01*
X2424234Y6499072D01*
X2604066Y6540728D02*
G01*
X2593652Y6551142D01*
X2578158Y6556222D01*
X2557330Y6556222D01*
X2541582Y6551142D01*
X2531168Y6540728D01*
X2531168Y6530314D01*
X2536502Y6519900D01*
X2541582Y6514566D01*
X2551996Y6509486D01*
X2583238Y6499072D01*
X2593652Y6493992D01*
X2598732Y6488658D01*
X2604066Y6478244D01*
X2604066Y6462750D01*
X2593652Y6452336D01*
X2578158Y6447256D01*
X2557330Y6447256D01*
X2541582Y6452336D01*
X2531168Y6462750D01*
X2272596Y3230321D02*
G01*
X2267262Y3240735D01*
X2256848Y3251149D01*
X2246685Y3256229D01*
X2225855Y3256229D01*
X2215446Y3251149D01*
X2205032Y3240735D01*
X2199698Y3230321D01*
X2194615Y3214573D01*
X2194615Y3188665D01*
X2199698Y3173171D01*
X2205032Y3162757D01*
X2215446Y3152343D01*
X2225855Y3147263D01*
X2246685Y3147263D01*
X2256848Y3152343D01*
X2267262Y3162757D01*
X2272596Y3173171D01*
X2306883Y3256229D02*
G01*
X2306883Y3147263D01*
X2306883Y3256229D02*
G01*
X2353619Y3256229D01*
X2369116Y3251149D01*
X2374450Y3245815D01*
X2379530Y3235401D01*
X2379530Y3224987D01*
X2374450Y3214573D01*
X2369116Y3209493D01*
X2353619Y3204413D01*
X2306883Y3204413D01*
X2343205Y3204413D02*
G01*
X2379530Y3147263D01*
X2450139Y3256229D02*
G01*
X2450139Y3147263D01*
X2413817Y3256229D02*
G01*
X2486715Y3256229D01*
X2521005Y3256229D02*
G01*
X2521005Y3147263D01*
X2521005Y3147263D02*
G01*
X2583235Y3147263D01*
X19747560Y3230321D02*
G01*
X19742226Y3240735D01*
X19731812Y3251149D01*
X19721652Y3256229D01*
X19700824Y3256229D01*
X19690410Y3251149D01*
X19679996Y3240735D01*
X19674662Y3230321D01*
X19669582Y3214573D01*
X19669582Y3188665D01*
X19674662Y3173171D01*
X19679996Y3162757D01*
X19690410Y3152343D01*
X19700824Y3147263D01*
X19721652Y3147263D01*
X19731812Y3152343D01*
X19742226Y3162757D01*
X19747560Y3173171D01*
X19818172Y3256229D02*
G01*
X19818172Y3147263D01*
X19781850Y3256229D02*
G01*
X19854494Y3256229D01*
X19888784Y3256229D02*
G01*
X19888784Y3147263D01*
X19888784Y3256229D02*
G01*
X19935520Y3256229D01*
X19951268Y3251149D01*
X19956348Y3245815D01*
X19961682Y3235401D01*
X19961682Y3224987D01*
X19956348Y3214573D01*
X19951268Y3209493D01*
X19935520Y3204413D01*
X19888784Y3204413D01*
X19925106Y3204413D02*
G01*
X19961682Y3147263D01*
X19995972Y3256229D02*
G01*
X19995972Y3147263D01*
X19995972Y3147263D02*
G01*
X20058202Y3147263D01*
X20097572Y3230321D02*
G01*
X20097572Y3235401D01*
X20102906Y3245815D01*
X20107986Y3251149D01*
X20118400Y3256229D01*
X20139228Y3256229D01*
X20149642Y3251149D01*
X20154722Y3245815D01*
X20160056Y3235401D01*
X20160056Y3224987D01*
X20154722Y3214573D01*
X20144562Y3199079D01*
X20092492Y3147263D01*
X20165136Y3147263D01*
X8019605Y6556222D02*
G01*
X8019605Y6447256D01*
X8019605Y6556222D02*
G01*
X8055927Y6556222D01*
X8071675Y6551142D01*
X8081835Y6540728D01*
X8087169Y6530314D01*
X8092249Y6514566D01*
X8092249Y6488658D01*
X8087169Y6473164D01*
X8081835Y6462750D01*
X8071675Y6452336D01*
X8055927Y6447256D01*
X8019605Y6447256D01*
X23269575Y3256229D02*
G01*
X23269575Y3147263D01*
X23269575Y3256229D02*
G01*
X23305897Y3256229D01*
X23321645Y3251149D01*
X23331804Y3240735D01*
X23337138Y3230321D01*
X23342218Y3214573D01*
X23342218Y3188665D01*
X23337138Y3173171D01*
X23331804Y3162757D01*
X23321645Y3152343D01*
X23305897Y3147263D01*
X23269575Y3147263D01*
X23407750Y3256229D02*
G01*
X23397336Y3251149D01*
X23386923Y3240735D01*
X23381843Y3230321D01*
X23376509Y3214573D01*
X23376509Y3188665D01*
X23381843Y3173171D01*
X23386923Y3162757D01*
X23397336Y3152343D01*
X23407750Y3147263D01*
X23428579Y3147263D01*
X23438993Y3152343D01*
X23449406Y3162757D01*
X23454486Y3173171D01*
X23459820Y3188665D01*
X23459820Y3214573D01*
X23454486Y3230321D01*
X23449406Y3240735D01*
X23438993Y3251149D01*
X23428579Y3256229D01*
X23407750Y3256229D01*
X23494111Y3256229D02*
G01*
X23520018Y3147263D01*
X23545927Y3256229D02*
G01*
X23520018Y3147263D01*
X23545927Y3256229D02*
G01*
X23571834Y3147263D01*
X23597997Y3256229D02*
G01*
X23571834Y3147263D01*
X23632286Y3256229D02*
G01*
X23632286Y3147263D01*
X23632286Y3256229D02*
G01*
X23704931Y3147263D01*
X23704931Y3256229D02*
G01*
X23704931Y3147263D01*
X7169607Y8206219D02*
G01*
X7169607Y8097253D01*
X7169607Y8206219D02*
G01*
X7237171Y8206219D01*
X7169607Y8154403D02*
G01*
X7211263Y8154403D01*
X7169607Y8097253D02*
G01*
X7237171Y8097253D01*
X24644573Y6556222D02*
G01*
X24644573Y6447256D01*
X24644573Y6556222D02*
G01*
X24712137Y6556222D01*
X24644573Y6504406D02*
G01*
X24686229Y6504406D01*
X24644573Y6447256D02*
G01*
X24712137Y6447256D01*
X24746427Y6556222D02*
G01*
X24746427Y6447256D01*
X24746427Y6556222D02*
G01*
X24819071Y6447256D01*
X24819071Y6556222D02*
G01*
X24819071Y6447256D01*
X24889680Y6556222D02*
G01*
X24889680Y6447256D01*
X24853361Y6556222D02*
G01*
X24926259Y6556222D01*
X24960546Y6556222D02*
G01*
X24960546Y6447256D01*
X24960546Y6556222D02*
G01*
X25028113Y6556222D01*
X24960546Y6504406D02*
G01*
X25001948Y6504406D01*
X24960546Y6447256D02*
G01*
X25028113Y6447256D01*
X25062403Y6556222D02*
G01*
X25062403Y6447256D01*
X25062403Y6556222D02*
G01*
X25109139Y6556222D01*
X25124630Y6551142D01*
X25129713Y6545808D01*
X25135047Y6535394D01*
X25135047Y6524980D01*
X25129713Y6514566D01*
X25124630Y6509486D01*
X25109139Y6504406D01*
X25062403Y6504406D01*
X25098725Y6504406D02*
G01*
X25135047Y6447256D01*
X1769618Y9856215D02*
G01*
X1769618Y9747250D01*
X1769618Y9856215D02*
G01*
X1837181Y9856215D01*
X1769618Y9804400D02*
G01*
X1811273Y9804400D01*
X1769618Y9747250D02*
G01*
X1837181Y9747250D01*
X1944115Y9840721D02*
G01*
X1933702Y9851136D01*
X1918207Y9856215D01*
X1897379Y9856215D01*
X1881886Y9851136D01*
X1871471Y9840721D01*
X1871471Y9830308D01*
X1876552Y9819894D01*
X1881886Y9814560D01*
X1892300Y9809479D01*
X1923287Y9799065D01*
X1933702Y9793986D01*
X1939036Y9788652D01*
X1944115Y9778237D01*
X1944115Y9762744D01*
X1933702Y9752329D01*
X1918207Y9747250D01*
X1897379Y9747250D01*
X1881886Y9752329D01*
X1871471Y9762744D01*
X2056384Y9830308D02*
G01*
X2051304Y9840721D01*
X2040890Y9851136D01*
X2030475Y9856215D01*
X2009647Y9856215D01*
X1999234Y9851136D01*
X1988820Y9840721D01*
X1983740Y9830308D01*
X1978406Y9814560D01*
X1978406Y9788652D01*
X1983740Y9773158D01*
X1988820Y9762744D01*
X1999234Y9752329D01*
X2009647Y9747250D01*
X2030475Y9747250D01*
X2040890Y9752329D01*
X2051304Y9762744D01*
X2056384Y9773158D01*
X9819601Y6556222D02*
G01*
X9819601Y6447256D01*
X9819601Y6556222D02*
G01*
X9887165Y6556222D01*
X9819601Y6504406D02*
G01*
X9861257Y6504406D01*
X12469596Y3256229D02*
G01*
X12469596Y3147263D01*
X12469596Y3256229D02*
G01*
X12537160Y3256229D01*
X12469596Y3204413D02*
G01*
X12511252Y3204413D01*
X12571450Y3256229D02*
G01*
X12571450Y3147263D01*
X12571450Y3256229D02*
G01*
X12644094Y3147263D01*
X12644094Y3256229D02*
G01*
X12644094Y3147263D01*
X11697576Y6530314D02*
G01*
X11692242Y6540728D01*
X11681828Y6551142D01*
X11671668Y6556222D01*
X11650840Y6556222D01*
X11640426Y6551142D01*
X11630012Y6540728D01*
X11624678Y6530314D01*
X11619598Y6514566D01*
X11619598Y6488658D01*
X11624678Y6473164D01*
X11630012Y6462750D01*
X11640426Y6452336D01*
X11650840Y6447256D01*
X11671668Y6447256D01*
X11681828Y6452336D01*
X11692242Y6462750D01*
X11697576Y6473164D01*
X11697576Y6488658D01*
X11671668Y6488658D02*
G01*
X11697576Y6488658D01*
X13419594Y6556222D02*
G01*
X13419594Y6447256D01*
X13492238Y6556222D02*
G01*
X13492238Y6447256D01*
X13419594Y6504406D02*
G01*
X13492238Y6504406D01*
X16169589Y8206219D02*
G01*
X16169589Y8097253D01*
X15271661Y6556222D02*
G01*
X15271661Y6473164D01*
X15266327Y6457416D01*
X15261247Y6452336D01*
X15250833Y6447256D01*
X15240419Y6447256D01*
X15230005Y6452336D01*
X15224671Y6457416D01*
X15219591Y6473164D01*
X15219591Y6483578D01*
X17019587Y6556222D02*
G01*
X17019587Y6447256D01*
X17092231Y6556222D02*
G01*
X17019587Y6483578D01*
X17045495Y6509486D02*
G01*
X17092231Y6447256D01*
X18819583Y6556222D02*
G01*
X18819583Y6447256D01*
X18819583Y6447256D02*
G01*
X18881813Y6447256D01*
X21469578Y3256229D02*
G01*
X21469578Y3147263D01*
X21469578Y3147263D02*
G01*
X21531808Y3147263D01*
X21566098Y3256229D02*
G01*
X21566098Y3147263D01*
X21566098Y3256229D02*
G01*
X21633662Y3256229D01*
X21566098Y3204413D02*
G01*
X21607754Y3204413D01*
X21566098Y3147263D02*
G01*
X21633662Y3147263D01*
X21667952Y3256229D02*
G01*
X21667952Y3147263D01*
X21667952Y3256229D02*
G01*
X21735516Y3256229D01*
X21667952Y3204413D02*
G01*
X21709608Y3204413D01*
X21806128Y3256229D02*
G01*
X21806128Y3147263D01*
X21769806Y3256229D02*
G01*
X21842704Y3256229D01*
X16069589Y4906225D02*
G01*
X16069589Y4797259D01*
X16069589Y4906225D02*
G01*
X16111245Y4797259D01*
X16152647Y4906225D02*
G01*
X16111245Y4797259D01*
X16152647Y4906225D02*
G01*
X16152647Y4797259D01*
X14269593Y4906225D02*
G01*
X14269593Y4797259D01*
X14269593Y4906225D02*
G01*
X14342236Y4797259D01*
X14342236Y4906225D02*
G01*
X14342236Y4797259D01*
X18000827Y8206219D02*
G01*
X17990413Y8201139D01*
X17979999Y8190725D01*
X17974665Y8180311D01*
X17969585Y8164563D01*
X17969585Y8138655D01*
X17974665Y8123161D01*
X17979999Y8112747D01*
X17990413Y8102333D01*
X18000827Y8097253D01*
X18021655Y8097253D01*
X18031815Y8102333D01*
X18042229Y8112747D01*
X18047563Y8123161D01*
X18052643Y8138655D01*
X18052643Y8164563D01*
X18047563Y8180311D01*
X18042229Y8190725D01*
X18031815Y8201139D01*
X18021655Y8206219D01*
X18000827Y8206219D01*
X19769581Y8206219D02*
G01*
X19769581Y8097253D01*
X19769581Y8206219D02*
G01*
X19816318Y8206219D01*
X19831811Y8201139D01*
X19837145Y8195805D01*
X19842225Y8185391D01*
X19842225Y8169897D01*
X19837145Y8159483D01*
X19831811Y8154403D01*
X19816318Y8149069D01*
X19769581Y8149069D01*
X3600856Y8206219D02*
G01*
X3590442Y8201139D01*
X3580028Y8190725D01*
X3574694Y8180311D01*
X3569614Y8164563D01*
X3569614Y8138655D01*
X3574694Y8123161D01*
X3580028Y8112747D01*
X3590442Y8102333D01*
X3600856Y8097253D01*
X3621684Y8097253D01*
X3631844Y8102333D01*
X3642258Y8112747D01*
X3647592Y8123161D01*
X3652672Y8138655D01*
X3652672Y8164563D01*
X3647592Y8180311D01*
X3642258Y8190725D01*
X3631844Y8201139D01*
X3621684Y8206219D01*
X3600856Y8206219D01*
X3616350Y8117827D02*
G01*
X3647592Y8086839D01*
X8969603Y8206219D02*
G01*
X8969603Y8097253D01*
X8969603Y8206219D02*
G01*
X9016339Y8206219D01*
X9031833Y8201139D01*
X9037167Y8195805D01*
X9042247Y8185391D01*
X9042247Y8174977D01*
X9037167Y8164563D01*
X9031833Y8159483D01*
X9016339Y8154403D01*
X8969603Y8154403D01*
X9005925Y8154403D02*
G01*
X9042247Y8097253D01*
X25069571Y3256229D02*
G01*
X25069571Y3147263D01*
X25069571Y3256229D02*
G01*
X25116307Y3256229D01*
X25131801Y3251149D01*
X25137135Y3245815D01*
X25142215Y3235401D01*
X25142215Y3224987D01*
X25137135Y3214573D01*
X25131801Y3209493D01*
X25116307Y3204413D01*
X25069571Y3204413D01*
X25105893Y3204413D02*
G01*
X25142215Y3147263D01*
X25176505Y3256229D02*
G01*
X25176505Y3147263D01*
X25288773Y3230321D02*
G01*
X25283693Y3240735D01*
X25273279Y3251149D01*
X25262865Y3256229D01*
X25242037Y3256229D01*
X25231623Y3251149D01*
X25221209Y3240735D01*
X25216129Y3230321D01*
X25210795Y3214573D01*
X25210795Y3188665D01*
X25216129Y3173171D01*
X25221209Y3162757D01*
X25231623Y3152343D01*
X25242037Y3147263D01*
X25262865Y3147263D01*
X25273279Y3152343D01*
X25283693Y3162757D01*
X25288773Y3173171D01*
X25288773Y3188665D01*
X25262865Y3188665D02*
G01*
X25288773Y3188665D01*
X25323063Y3256229D02*
G01*
X25323063Y3147263D01*
X25395961Y3256229D02*
G01*
X25395961Y3147263D01*
X25323063Y3204413D02*
G01*
X25395961Y3204413D01*
X25466573Y3256229D02*
G01*
X25466573Y3147263D01*
X25430251Y3256229D02*
G01*
X25502895Y3256229D01*
X6292253Y6540728D02*
G01*
X6281839Y6551142D01*
X6266345Y6556222D01*
X6245517Y6556222D01*
X6230023Y6551142D01*
X6219609Y6540728D01*
X6219609Y6530314D01*
X6224689Y6519900D01*
X6230023Y6514566D01*
X6240437Y6509486D01*
X6271679Y6499072D01*
X6281839Y6493992D01*
X6287173Y6488658D01*
X6292253Y6478244D01*
X6292253Y6462750D01*
X6281839Y6452336D01*
X6266345Y6447256D01*
X6245517Y6447256D01*
X6230023Y6452336D01*
X6219609Y6462750D01*
X2692260Y4890731D02*
G01*
X2681846Y4901145D01*
X2666352Y4906225D01*
X2645524Y4906225D01*
X2630030Y4901145D01*
X2619616Y4890731D01*
X2619616Y4880317D01*
X2624696Y4869903D01*
X2630030Y4864569D01*
X2640444Y4859489D01*
X2671686Y4849075D01*
X2681846Y4843995D01*
X2687180Y4838661D01*
X2692260Y4828247D01*
X2692260Y4812753D01*
X2681846Y4802339D01*
X2666352Y4797259D01*
X2645524Y4797259D01*
X2630030Y4802339D01*
X2619616Y4812753D01*
X2726550Y4906225D02*
G01*
X2726550Y4797259D01*
X2799448Y4906225D02*
G01*
X2799448Y4797259D01*
X2726550Y4854409D02*
G01*
X2799448Y4854409D01*
X2833738Y4906225D02*
G01*
X2833738Y4797259D01*
X2868028Y4906225D02*
G01*
X2868028Y4797259D01*
X2868028Y4906225D02*
G01*
X2935592Y4906225D01*
X2868028Y4854409D02*
G01*
X2909430Y4854409D01*
X3006204Y4906225D02*
G01*
X3006204Y4797259D01*
X2969882Y4906225D02*
G01*
X3042526Y4906225D01*
X25142215Y4890731D02*
G01*
X25131801Y4901145D01*
X25116307Y4906225D01*
X25095479Y4906225D01*
X25079985Y4901145D01*
X25069571Y4890731D01*
X25069571Y4880317D01*
X25074651Y4869903D01*
X25079985Y4864569D01*
X25090399Y4859489D01*
X25121641Y4849075D01*
X25131801Y4843995D01*
X25137135Y4838661D01*
X25142215Y4828247D01*
X25142215Y4812753D01*
X25131801Y4802339D01*
X25116307Y4797259D01*
X25095479Y4797259D01*
X25079985Y4802339D01*
X25069571Y4812753D01*
X25176505Y4906225D02*
G01*
X25176505Y4797259D01*
X25249403Y4906225D02*
G01*
X25249403Y4797259D01*
X25176505Y4854409D02*
G01*
X25249403Y4854409D01*
X25283693Y4906225D02*
G01*
X25283693Y4797259D01*
X25317983Y4906225D02*
G01*
X25317983Y4797259D01*
X25317983Y4906225D02*
G01*
X25385547Y4906225D01*
X25317983Y4854409D02*
G01*
X25359385Y4854409D01*
X25456159Y4906225D02*
G01*
X25456159Y4797259D01*
X25419837Y4906225D02*
G01*
X25492481Y4906225D01*
X25531851Y4880317D02*
G01*
X25531851Y4885397D01*
X25537185Y4895811D01*
X25542265Y4901145D01*
X25552679Y4906225D01*
X25573507Y4906225D01*
X25583921Y4901145D01*
X25589001Y4895811D01*
X25594335Y4885397D01*
X25594335Y4874983D01*
X25589001Y4864569D01*
X25578841Y4849075D01*
X25526771Y4797259D01*
X25599415Y4797259D01*
X9842245Y3240735D02*
G01*
X9831831Y3251149D01*
X9816338Y3256229D01*
X9795509Y3256229D01*
X9780015Y3251149D01*
X9769602Y3240735D01*
X9769602Y3230321D01*
X9774681Y3219907D01*
X9780015Y3214573D01*
X9790429Y3209493D01*
X9821672Y3199079D01*
X9831831Y3193999D01*
X9837165Y3188665D01*
X9842245Y3178251D01*
X9842245Y3162757D01*
X9831831Y3152343D01*
X9816338Y3147263D01*
X9795509Y3147263D01*
X9780015Y3152343D01*
X9769602Y3162757D01*
X9876536Y3256229D02*
G01*
X9876536Y3147263D01*
X9876536Y3256229D02*
G01*
X9923272Y3256229D01*
X9939020Y3251149D01*
X9944100Y3245815D01*
X9949434Y3235401D01*
X9949434Y3219907D01*
X9944100Y3209493D01*
X9939020Y3204413D01*
X9923272Y3199079D01*
X9876536Y3199079D01*
X10025125Y3256229D02*
G01*
X9983724Y3147263D01*
X10025125Y3256229D02*
G01*
X10066781Y3147263D01*
X9999218Y3183585D02*
G01*
X10051288Y3183585D01*
X10179050Y3230321D02*
G01*
X10173715Y3240735D01*
X10163302Y3251149D01*
X10153141Y3256229D01*
X10132313Y3256229D01*
X10121900Y3251149D01*
X10111486Y3240735D01*
X10106152Y3230321D01*
X10101072Y3214573D01*
X10101072Y3188665D01*
X10106152Y3173171D01*
X10111486Y3162757D01*
X10121900Y3152343D01*
X10132313Y3147263D01*
X10153141Y3147263D01*
X10163302Y3152343D01*
X10173715Y3162757D01*
X10179050Y3173171D01*
X10213340Y3256229D02*
G01*
X10213340Y3147263D01*
X10213340Y3256229D02*
G01*
X10280904Y3256229D01*
X10213340Y3204413D02*
G01*
X10254741Y3204413D01*
X10213340Y3147263D02*
G01*
X10280904Y3147263D01*
X15142235Y3240735D02*
G01*
X15131821Y3251149D01*
X15116327Y3256229D01*
X15095499Y3256229D01*
X15080005Y3251149D01*
X15069591Y3240735D01*
X15069591Y3230321D01*
X15074671Y3219907D01*
X15080005Y3214573D01*
X15090419Y3209493D01*
X15121661Y3199079D01*
X15131821Y3193999D01*
X15137155Y3188665D01*
X15142235Y3178251D01*
X15142235Y3162757D01*
X15131821Y3152343D01*
X15116327Y3147263D01*
X15095499Y3147263D01*
X15080005Y3152343D01*
X15069591Y3162757D01*
X15176525Y3256229D02*
G01*
X15176525Y3147263D01*
X15176525Y3256229D02*
G01*
X15223261Y3256229D01*
X15239009Y3251149D01*
X15244089Y3245815D01*
X15249423Y3235401D01*
X15249423Y3219907D01*
X15244089Y3209493D01*
X15239009Y3204413D01*
X15223261Y3199079D01*
X15176525Y3199079D01*
X15325115Y3256229D02*
G01*
X15283713Y3147263D01*
X15325115Y3256229D02*
G01*
X15366771Y3147263D01*
X15299207Y3183585D02*
G01*
X15351277Y3183585D01*
X15479039Y3230321D02*
G01*
X15473705Y3240735D01*
X15463291Y3251149D01*
X15453131Y3256229D01*
X15432303Y3256229D01*
X15421889Y3251149D01*
X15411475Y3240735D01*
X15406141Y3230321D01*
X15401061Y3214573D01*
X15401061Y3188665D01*
X15406141Y3173171D01*
X15411475Y3162757D01*
X15421889Y3152343D01*
X15432303Y3147263D01*
X15453131Y3147263D01*
X15463291Y3152343D01*
X15473705Y3162757D01*
X15479039Y3173171D01*
X15513329Y3256229D02*
G01*
X15513329Y3147263D01*
X15513329Y3256229D02*
G01*
X15580893Y3256229D01*
X15513329Y3204413D02*
G01*
X15554731Y3204413D01*
X15513329Y3147263D02*
G01*
X15580893Y3147263D01*
X15620263Y3230321D02*
G01*
X15620263Y3235401D01*
X15625597Y3245815D01*
X15630677Y3251149D01*
X15641091Y3256229D01*
X15661919Y3256229D01*
X15672333Y3251149D01*
X15677413Y3245815D01*
X15682747Y3235401D01*
X15682747Y3224987D01*
X15677413Y3214573D01*
X15666999Y3199079D01*
X15615183Y3147263D01*
X15687827Y3147263D01*
X10805922Y8206219D02*
G01*
X10805922Y8097253D01*
X10769600Y8206219D02*
G01*
X10842243Y8206219D01*
X1805939Y8206219D02*
G01*
X1805939Y8097253D01*
X1769618Y8206219D02*
G01*
X1842262Y8206219D01*
X1918207Y8206219D02*
G01*
X1876552Y8097253D01*
X1918207Y8206219D02*
G01*
X1959863Y8097253D01*
X1892300Y8133575D02*
G01*
X1944115Y8133575D01*
X1994154Y8206219D02*
G01*
X1994154Y8097253D01*
X1994154Y8206219D02*
G01*
X2040890Y8206219D01*
X2056384Y8201139D01*
X2061718Y8195805D01*
X2066797Y8185391D01*
X2066797Y8174977D01*
X2061718Y8164563D01*
X2056384Y8159483D01*
X2040890Y8154403D01*
X1994154Y8154403D02*
G01*
X2040890Y8154403D01*
X2056384Y8149069D01*
X2061718Y8143989D01*
X2066797Y8133575D01*
X2066797Y8117827D01*
X2061718Y8107413D01*
X2056384Y8102333D01*
X2040890Y8097253D01*
X1994154Y8097253D01*
X14369592Y8206219D02*
G01*
X14369592Y8128241D01*
X14374672Y8112747D01*
X14385086Y8102333D01*
X14400834Y8097253D01*
X14411248Y8097253D01*
X14426742Y8102333D01*
X14437156Y8112747D01*
X14442236Y8128241D01*
X14442236Y8206219D01*
X23269575Y4906225D02*
G01*
X23269575Y4828247D01*
X23274654Y4812753D01*
X23285068Y4802339D01*
X23300816Y4797259D01*
X23311231Y4797259D01*
X23326725Y4802339D01*
X23337138Y4812753D01*
X23342218Y4828247D01*
X23342218Y4906225D01*
X23376509Y4906225D02*
G01*
X23376509Y4797259D01*
X23376509Y4906225D02*
G01*
X23423245Y4906225D01*
X23438993Y4901145D01*
X23444073Y4895811D01*
X23449406Y4885397D01*
X23449406Y4869903D01*
X23444073Y4859489D01*
X23438993Y4854409D01*
X23423245Y4849075D01*
X23376509Y4849075D01*
X10669600Y4906225D02*
G01*
X10711256Y4797259D01*
X10752658Y4906225D02*
G01*
X10711256Y4797259D01*
X5369610Y8206219D02*
G01*
X5395518Y8097253D01*
X5421680Y8206219D02*
G01*
X5395518Y8097253D01*
X5421680Y8206219D02*
G01*
X5447588Y8097253D01*
X5473496Y8206219D02*
G01*
X5447588Y8097253D01*
X4419612Y3256229D02*
G01*
X4445520Y3147263D01*
X4471682Y3256229D02*
G01*
X4445520Y3147263D01*
X4471682Y3256229D02*
G01*
X4497590Y3147263D01*
X4523498Y3256229D02*
G01*
X4497590Y3147263D01*
X4557788Y3256229D02*
G01*
X4557788Y3147263D01*
X4592078Y3256229D02*
G01*
X4592078Y3147263D01*
X4592078Y3256229D02*
G01*
X4664722Y3147263D01*
X4664722Y3256229D02*
G01*
X4664722Y3147263D01*
X7069607Y4906225D02*
G01*
X7142251Y4797259D01*
X7142251Y4906225D02*
G01*
X7069607Y4797259D01*
X5269611Y4906225D02*
G01*
X5311266Y4854409D01*
X5311266Y4797259D01*
X5352668Y4906225D02*
G01*
X5311266Y4854409D01*
X12642240Y8206219D02*
G01*
X12569596Y8097253D01*
X12569596Y8206219D02*
G01*
X12642240Y8206219D01*
X12569596Y8097253D02*
G01*
X12642240Y8097253D01*
X25169571Y8206219D02*
G01*
X25242215Y8081505D01*
X21595486Y8227047D02*
G01*
X21585072Y8221713D01*
X21579992Y8216633D01*
X21574658Y8206219D01*
X21574658Y8195805D01*
X21579992Y8185391D01*
X21585072Y8180311D01*
X21590406Y8169897D01*
X21590406Y8159483D01*
X21579992Y8149069D01*
X21585072Y8221713D02*
G01*
X21579992Y8211553D01*
X21579992Y8201139D01*
X21585072Y8190725D01*
X21590406Y8185391D01*
X21595486Y8174977D01*
X21595486Y8164563D01*
X21590406Y8154403D01*
X21569578Y8143989D01*
X21590406Y8133575D01*
X21595486Y8123161D01*
X21595486Y8112747D01*
X21590406Y8102333D01*
X21585072Y8097253D01*
X21579992Y8086839D01*
X21579992Y8076425D01*
X21585072Y8066011D01*
X21579992Y8138655D02*
G01*
X21590406Y8128241D01*
X21590406Y8117827D01*
X21585072Y8107413D01*
X21579992Y8102333D01*
X21574658Y8091919D01*
X21574658Y8081505D01*
X21579992Y8071091D01*
X21585072Y8066011D01*
X21595486Y8060677D01*
X23369574Y8227047D02*
G01*
X23379988Y8221713D01*
X23385068Y8216633D01*
X23390402Y8206219D01*
X23390402Y8195805D01*
X23385068Y8185391D01*
X23379988Y8180311D01*
X23374654Y8169897D01*
X23374654Y8159483D01*
X23385068Y8149069D01*
X23379988Y8221713D02*
G01*
X23385068Y8211553D01*
X23385068Y8201139D01*
X23379988Y8190725D01*
X23374654Y8185391D01*
X23369574Y8174977D01*
X23369574Y8164563D01*
X23374654Y8154403D01*
X23395482Y8143989D01*
X23374654Y8133575D01*
X23369574Y8123161D01*
X23369574Y8112747D01*
X23374654Y8102333D01*
X23379988Y8097253D01*
X23385068Y8086839D01*
X23385068Y8076425D01*
X23379988Y8066011D01*
X23385068Y8138655D02*
G01*
X23374654Y8128241D01*
X23374654Y8117827D01*
X23379988Y8107413D01*
X23385068Y8102333D01*
X23390402Y8091919D01*
X23390402Y8081505D01*
X23385068Y8071091D01*
X23379988Y8066011D01*
X23369574Y8060677D01*
X28993084Y9318904D02*
G01*
X29102050Y9318904D01*
X28993084Y9318904D02*
G01*
X28993084Y9365640D01*
X28998163Y9381134D01*
X29003498Y9386468D01*
X29013911Y9391548D01*
X29024325Y9391548D01*
X29034740Y9386468D01*
X29039820Y9381134D01*
X29044900Y9365640D01*
X29044900Y9318904D01*
X29044900Y9355226D02*
G01*
X29102050Y9391548D01*
X29008577Y9498736D02*
G01*
X28998163Y9488322D01*
X28993084Y9472574D01*
X28993084Y9452000D01*
X28998163Y9436252D01*
X29008577Y9425838D01*
X29018991Y9425838D01*
X29029406Y9431172D01*
X29034740Y9436252D01*
X29039820Y9446666D01*
X29050234Y9477908D01*
X29055313Y9488322D01*
X29060648Y9493402D01*
X29071061Y9498736D01*
X29086556Y9498736D01*
X29096970Y9488322D01*
X29102050Y9472574D01*
X29102050Y9452000D01*
X29096970Y9436252D01*
X29086556Y9425838D01*
X28993084Y9569348D02*
G01*
X29102050Y9569348D01*
X28993084Y9533026D02*
G01*
X28993084Y9605670D01*
X10831829Y9856215D02*
G01*
X10780013Y9856215D01*
X10774679Y9809479D01*
X10780013Y9814560D01*
X10795508Y9819894D01*
X10811256Y9819894D01*
X10826750Y9814560D01*
X10837163Y9804400D01*
X10842243Y9788652D01*
X10842243Y9778237D01*
X10837163Y9762744D01*
X10826750Y9752329D01*
X10811256Y9747250D01*
X10795508Y9747250D01*
X10780013Y9752329D01*
X10774679Y9757410D01*
X10769600Y9767824D01*
X27852585Y6197831D02*
G01*
X27852585Y6088865D01*
X27852585Y6197831D02*
G01*
X27899321Y6197831D01*
X27914815Y6192751D01*
X27920149Y6187417D01*
X27925229Y6177003D01*
X27925229Y6161509D01*
X27920149Y6151095D01*
X27914815Y6146015D01*
X27899321Y6140681D01*
X27852585Y6140681D01*
X28037497Y6171923D02*
G01*
X28032417Y6182337D01*
X28022003Y6192751D01*
X28011589Y6197831D01*
X27990761Y6197831D01*
X27980347Y6192751D01*
X27969933Y6182337D01*
X27964853Y6171923D01*
X27959519Y6156175D01*
X27959519Y6130267D01*
X27964853Y6114773D01*
X27969933Y6104359D01*
X27980347Y6093945D01*
X27990761Y6088865D01*
X28011589Y6088865D01*
X28022003Y6093945D01*
X28032417Y6104359D01*
X28037497Y6114773D01*
X28071787Y6197831D02*
G01*
X28071787Y6088865D01*
X28071787Y6197831D02*
G01*
X28118523Y6197831D01*
X28134271Y6192751D01*
X28139351Y6187417D01*
X28144685Y6177003D01*
X28144685Y6166589D01*
X28139351Y6156175D01*
X28134271Y6151095D01*
X28118523Y6146015D01*
X28071787Y6146015D02*
G01*
X28118523Y6146015D01*
X28134271Y6140681D01*
X28139351Y6135601D01*
X28144685Y6125187D01*
X28144685Y6109439D01*
X28139351Y6099025D01*
X28134271Y6093945D01*
X28118523Y6088865D01*
X28071787Y6088865D01*
X28178975Y6177003D02*
G01*
X28189135Y6182337D01*
X28204883Y6197831D01*
X28204883Y6088865D01*
X29096715Y8343900D02*
G01*
X29018738Y8343900D01*
X29003243Y8338820D01*
X28992829Y8328405D01*
X28987750Y8312658D01*
X28987750Y8302244D01*
X28992829Y8286750D01*
X29003243Y8276336D01*
X29018738Y8271255D01*
X29096715Y8271255D01*
X29075888Y8236965D02*
G01*
X29081222Y8226552D01*
X29096715Y8210804D01*
X28987750Y8210804D01*
D23*
X27526513Y9821646D02*
G01*
X27526513Y9745192D01*
X27501113Y9821646D02*
G01*
X27551913Y9821646D01*
X27576043Y9821646D02*
G01*
X27626843Y9745192D01*
X27626843Y9821646D02*
G01*
X27576043Y9745192D01*
X27672817Y9821646D02*
G01*
X27661895Y9818090D01*
X27654529Y9807168D01*
X27650973Y9788880D01*
X27650973Y9777958D01*
X27654529Y9759924D01*
X27661895Y9749002D01*
X27672817Y9745192D01*
X27679929Y9745192D01*
X27690851Y9749002D01*
X27698217Y9759924D01*
X27701773Y9777958D01*
X27701773Y9788880D01*
X27698217Y9807168D01*
X27690851Y9818090D01*
X27679929Y9821646D01*
X27672817Y9821646D01*
X27456891Y9567671D02*
G01*
X27456891Y9491218D01*
X27456891Y9567671D02*
G01*
X27482291Y9567671D01*
X27493213Y9564115D01*
X27500579Y9556750D01*
X27504136Y9549384D01*
X27507691Y9538462D01*
X27507691Y9520428D01*
X27504136Y9509505D01*
X27500579Y9502139D01*
X27493213Y9494774D01*
X27482291Y9491218D01*
X27456891Y9491218D01*
X27535377Y9549384D02*
G01*
X27535377Y9553194D01*
X27539188Y9560305D01*
X27542743Y9564115D01*
X27550109Y9567671D01*
X27564588Y9567671D01*
X27571700Y9564115D01*
X27575509Y9560305D01*
X27579065Y9553194D01*
X27579065Y9545828D01*
X27575509Y9538462D01*
X27568143Y9527539D01*
X27531822Y9491218D01*
X27582622Y9491218D01*
X27456891Y8551671D02*
G01*
X27456891Y8475218D01*
X27456891Y8551671D02*
G01*
X27482291Y8551671D01*
X27493213Y8548115D01*
X27500579Y8540750D01*
X27504136Y8533384D01*
X27507691Y8522462D01*
X27507691Y8504428D01*
X27504136Y8493505D01*
X27500579Y8486139D01*
X27493213Y8478774D01*
X27482291Y8475218D01*
X27456891Y8475218D01*
X27553665Y8551671D02*
G01*
X27542743Y8548115D01*
X27535377Y8537194D01*
X27531822Y8518905D01*
X27531822Y8507984D01*
X27535377Y8489695D01*
X27542743Y8478774D01*
X27553665Y8475218D01*
X27561032Y8475218D01*
X27571700Y8478774D01*
X27579065Y8489695D01*
X27582622Y8507984D01*
X27582622Y8518905D01*
X27579065Y8537194D01*
X27571700Y8548115D01*
X27561032Y8551671D01*
X27553665Y8551671D01*
X27456891Y8805671D02*
G01*
X27456891Y8729218D01*
X27456891Y8805671D02*
G01*
X27482291Y8805671D01*
X27493213Y8802115D01*
X27500579Y8794750D01*
X27504136Y8787384D01*
X27507691Y8776462D01*
X27507691Y8758428D01*
X27504136Y8747505D01*
X27500579Y8740139D01*
X27493213Y8732774D01*
X27482291Y8729218D01*
X27456891Y8729218D01*
X27531822Y8791194D02*
G01*
X27539188Y8794750D01*
X27550109Y8805671D01*
X27550109Y8729218D01*
X27479523Y9041358D02*
G01*
X27475713Y9048724D01*
X27468601Y9056090D01*
X27461235Y9059646D01*
X27446757Y9059646D01*
X27439391Y9056090D01*
X27432279Y9048724D01*
X27428469Y9041358D01*
X27424913Y9030436D01*
X27424913Y9012402D01*
X27428469Y9001480D01*
X27432279Y8994114D01*
X27439391Y8987002D01*
X27446757Y8983192D01*
X27461235Y8983192D01*
X27468601Y8987002D01*
X27475713Y8994114D01*
X27479523Y9001480D01*
X27479523Y9012402D01*
X27461235Y9012402D02*
G01*
X27479523Y9012402D01*
X27503399Y9059646D02*
G01*
X27503399Y8983192D01*
X27503399Y9059646D02*
G01*
X27554453Y8983192D01*
X27554453Y9059646D02*
G01*
X27554453Y8983192D01*
X27578329Y9059646D02*
G01*
X27578329Y8983192D01*
X27578329Y9059646D02*
G01*
X27603729Y9059646D01*
X27614651Y9056090D01*
X27622017Y9048724D01*
X27625573Y9041358D01*
X27629383Y9030436D01*
X27629383Y9012402D01*
X27625573Y9001480D01*
X27622017Y8994114D01*
X27614651Y8987002D01*
X27603729Y8983192D01*
X27578329Y8983192D01*
X27479523Y9295358D02*
G01*
X27475713Y9302724D01*
X27468601Y9310090D01*
X27461235Y9313646D01*
X27446757Y9313646D01*
X27439391Y9310090D01*
X27432279Y9302724D01*
X27428469Y9295358D01*
X27424913Y9284436D01*
X27424913Y9266402D01*
X27428469Y9255480D01*
X27432279Y9248114D01*
X27439391Y9241002D01*
X27446757Y9237192D01*
X27461235Y9237192D01*
X27468601Y9241002D01*
X27475713Y9248114D01*
X27479523Y9255480D01*
X27479523Y9266402D01*
X27461235Y9266402D02*
G01*
X27479523Y9266402D01*
X27503399Y9313646D02*
G01*
X27503399Y9237192D01*
X27503399Y9313646D02*
G01*
X27554453Y9237192D01*
X27554453Y9313646D02*
G01*
X27554453Y9237192D01*
X27578329Y9313646D02*
G01*
X27578329Y9237192D01*
X27578329Y9313646D02*
G01*
X27603729Y9313646D01*
X27614651Y9310090D01*
X27622017Y9302724D01*
X27625573Y9295358D01*
X27629383Y9284436D01*
X27629383Y9266402D01*
X27625573Y9255480D01*
X27622017Y9248114D01*
X27614651Y9241002D01*
X27603729Y9237192D01*
X27578329Y9237192D01*
X27456891Y8297671D02*
G01*
X27456891Y8221218D01*
X27456891Y8297671D02*
G01*
X27482291Y8297671D01*
X27493213Y8294115D01*
X27500579Y8286750D01*
X27504136Y8279384D01*
X27507691Y8268462D01*
X27507691Y8250428D01*
X27504136Y8239505D01*
X27500579Y8232139D01*
X27493213Y8224773D01*
X27482291Y8221218D01*
X27456891Y8221218D01*
X27568143Y8297671D02*
G01*
X27531822Y8246618D01*
X27586432Y8246618D01*
X27568143Y8297671D02*
G01*
X27568143Y8221218D01*
X27511502Y8025384D02*
G01*
X27507691Y8032750D01*
X27500579Y8040115D01*
X27493213Y8043671D01*
X27478736Y8043671D01*
X27471370Y8040115D01*
X27464258Y8032750D01*
X27460448Y8025384D01*
X27456891Y8014462D01*
X27456891Y7996428D01*
X27460448Y7985505D01*
X27464258Y7978139D01*
X27471370Y7970773D01*
X27478736Y7967218D01*
X27493213Y7967218D01*
X27500579Y7970773D01*
X27507691Y7978139D01*
X27511502Y7985505D01*
X27579065Y8032750D02*
G01*
X27575509Y8040115D01*
X27564588Y8043671D01*
X27557222Y8043671D01*
X27546300Y8040115D01*
X27539188Y8029194D01*
X27535377Y8010905D01*
X27535377Y7992618D01*
X27539188Y7978139D01*
X27546300Y7970773D01*
X27557222Y7967218D01*
X27561032Y7967218D01*
X27571700Y7970773D01*
X27579065Y7978139D01*
X27582622Y7989062D01*
X27582622Y7992618D01*
X27579065Y8003539D01*
X27571700Y8010905D01*
X27561032Y8014462D01*
X27557222Y8014462D01*
X27546300Y8010905D01*
X27539188Y8003539D01*
X27535377Y7992618D01*
X27456891Y7789671D02*
G01*
X27456891Y7713218D01*
X27456891Y7789671D02*
G01*
X27482291Y7789671D01*
X27493213Y7786115D01*
X27500579Y7778750D01*
X27504136Y7771384D01*
X27507691Y7760462D01*
X27507691Y7742428D01*
X27504136Y7731505D01*
X27500579Y7724139D01*
X27493213Y7716773D01*
X27482291Y7713218D01*
X27456891Y7713218D01*
X27582622Y7789671D02*
G01*
X27546300Y7713218D01*
X27531822Y7789671D02*
G01*
X27582622Y7789671D01*
X27456891Y7535671D02*
G01*
X27456891Y7459218D01*
X27456891Y7535671D02*
G01*
X27504136Y7535671D01*
X27456891Y7499350D02*
G01*
X27486102Y7499350D01*
X27456891Y7459218D02*
G01*
X27504136Y7459218D01*
X27571700Y7524750D02*
G01*
X27568143Y7532115D01*
X27557222Y7535671D01*
X27550109Y7535671D01*
X27539188Y7532115D01*
X27531822Y7521194D01*
X27528265Y7502905D01*
X27528265Y7484618D01*
X27531822Y7470139D01*
X27539188Y7462773D01*
X27550109Y7459218D01*
X27553665Y7459218D01*
X27564588Y7462773D01*
X27571700Y7470139D01*
X27575509Y7481062D01*
X27575509Y7484618D01*
X27571700Y7495539D01*
X27564588Y7502905D01*
X27553665Y7506462D01*
X27550109Y7506462D01*
X27539188Y7502905D01*
X27531822Y7495539D01*
X27528265Y7484618D01*
X27456891Y7281671D02*
G01*
X27456891Y7205218D01*
X27456891Y7281671D02*
G01*
X27489658Y7281671D01*
X27500579Y7278115D01*
X27504136Y7274305D01*
X27507691Y7267194D01*
X27507691Y7259828D01*
X27504136Y7252462D01*
X27500579Y7248905D01*
X27489658Y7245350D01*
X27456891Y7245350D02*
G01*
X27489658Y7245350D01*
X27500579Y7241539D01*
X27504136Y7237984D01*
X27507691Y7230618D01*
X27507691Y7219695D01*
X27504136Y7212584D01*
X27500579Y7208773D01*
X27489658Y7205218D01*
X27456891Y7205218D01*
X27568143Y7281671D02*
G01*
X27531822Y7230618D01*
X27586432Y7230618D01*
X27568143Y7281671D02*
G01*
X27568143Y7205218D01*
X27456891Y7027671D02*
G01*
X27456891Y6951218D01*
X27456891Y7027671D02*
G01*
X27489658Y7027671D01*
X27500579Y7024115D01*
X27504136Y7020305D01*
X27507691Y7013194D01*
X27507691Y7005828D01*
X27504136Y6998462D01*
X27500579Y6994905D01*
X27489658Y6991350D01*
X27456891Y6991350D02*
G01*
X27489658Y6991350D01*
X27500579Y6987539D01*
X27504136Y6983984D01*
X27507691Y6976618D01*
X27507691Y6965695D01*
X27504136Y6958584D01*
X27500579Y6954773D01*
X27489658Y6951218D01*
X27456891Y6951218D01*
X27575509Y7027671D02*
G01*
X27539188Y7027671D01*
X27535377Y6994905D01*
X27539188Y6998462D01*
X27550109Y7002271D01*
X27561032Y7002271D01*
X27571700Y6998462D01*
X27579065Y6991350D01*
X27582622Y6980428D01*
X27582622Y6973062D01*
X27579065Y6962139D01*
X27571700Y6954773D01*
X27561032Y6951218D01*
X27550109Y6951218D01*
X27539188Y6954773D01*
X27535377Y6958584D01*
X27531822Y6965695D01*
X28549091Y7027671D02*
G01*
X28549091Y6951218D01*
X28549091Y7027671D02*
G01*
X28581858Y7027671D01*
X28592779Y7024115D01*
X28596336Y7020305D01*
X28599891Y7013194D01*
X28599891Y7005828D01*
X28596336Y6998462D01*
X28592779Y6994905D01*
X28581858Y6991350D01*
X28549091Y6991350D02*
G01*
X28581858Y6991350D01*
X28592779Y6987539D01*
X28596336Y6983984D01*
X28599891Y6976618D01*
X28599891Y6965695D01*
X28596336Y6958584D01*
X28592779Y6954773D01*
X28581858Y6951218D01*
X28549091Y6951218D01*
X28667709Y7016750D02*
G01*
X28663900Y7024115D01*
X28653232Y7027671D01*
X28645865Y7027671D01*
X28634943Y7024115D01*
X28627577Y7013194D01*
X28624022Y6994905D01*
X28624022Y6976618D01*
X28627577Y6962139D01*
X28634943Y6954773D01*
X28645865Y6951218D01*
X28649422Y6951218D01*
X28660343Y6954773D01*
X28667709Y6962139D01*
X28671265Y6973062D01*
X28671265Y6976618D01*
X28667709Y6987539D01*
X28660343Y6994905D01*
X28649422Y6998462D01*
X28645865Y6998462D01*
X28634943Y6994905D01*
X28627577Y6987539D01*
X28624022Y6976618D01*
X28549091Y7535671D02*
G01*
X28549091Y7459218D01*
X28549091Y7535671D02*
G01*
X28581858Y7535671D01*
X28592779Y7532115D01*
X28596336Y7528305D01*
X28599891Y7521194D01*
X28599891Y7513828D01*
X28596336Y7506462D01*
X28592779Y7502905D01*
X28581858Y7499350D01*
X28549091Y7499350D02*
G01*
X28581858Y7499350D01*
X28592779Y7495539D01*
X28596336Y7491984D01*
X28599891Y7484618D01*
X28599891Y7473695D01*
X28596336Y7466584D01*
X28592779Y7462773D01*
X28581858Y7459218D01*
X28549091Y7459218D01*
X28631388Y7535671D02*
G01*
X28671265Y7535671D01*
X28649422Y7506462D01*
X28660343Y7506462D01*
X28667709Y7502905D01*
X28671265Y7499350D01*
X28674822Y7488428D01*
X28674822Y7481062D01*
X28671265Y7470139D01*
X28663900Y7462773D01*
X28653232Y7459218D01*
X28642309Y7459218D01*
X28631388Y7462773D01*
X28627577Y7466584D01*
X28624022Y7473695D01*
X28549091Y7789671D02*
G01*
X28549091Y7713218D01*
X28549091Y7789671D02*
G01*
X28581858Y7789671D01*
X28592779Y7786115D01*
X28596336Y7782305D01*
X28599891Y7775194D01*
X28599891Y7767828D01*
X28596336Y7760462D01*
X28592779Y7756905D01*
X28581858Y7753350D01*
X28549091Y7753350D02*
G01*
X28581858Y7753350D01*
X28592779Y7749539D01*
X28596336Y7745984D01*
X28599891Y7738618D01*
X28599891Y7727695D01*
X28596336Y7720584D01*
X28592779Y7716773D01*
X28581858Y7713218D01*
X28549091Y7713218D01*
X28624022Y7775194D02*
G01*
X28631388Y7778750D01*
X28642309Y7789671D01*
X28642309Y7713218D01*
X28549091Y8805671D02*
G01*
X28549091Y8729218D01*
X28549091Y8805671D02*
G01*
X28596336Y8805671D01*
X28549091Y8769350D02*
G01*
X28578302Y8769350D01*
X28656788Y8805671D02*
G01*
X28620465Y8754618D01*
X28674822Y8754618D01*
X28656788Y8805671D02*
G01*
X28656788Y8729218D01*
X28517088Y9059671D02*
G01*
X28546298Y8983218D01*
X28575254Y9059671D02*
G01*
X28546298Y8983218D01*
X28653740Y9041384D02*
G01*
X28650184Y9048750D01*
X28642818Y9056115D01*
X28635706Y9059671D01*
X28621227Y9059671D01*
X28613861Y9056115D01*
X28606495Y9048750D01*
X28602940Y9041384D01*
X28599384Y9030462D01*
X28599384Y9012428D01*
X28602940Y9001505D01*
X28606495Y8994139D01*
X28613861Y8986774D01*
X28621227Y8983218D01*
X28635706Y8983218D01*
X28642818Y8986774D01*
X28650184Y8994139D01*
X28653740Y9001505D01*
X28732479Y9041384D02*
G01*
X28728670Y9048750D01*
X28721558Y9056115D01*
X28714191Y9059671D01*
X28699713Y9059671D01*
X28692348Y9056115D01*
X28685236Y9048750D01*
X28681425Y9041384D01*
X28677870Y9030462D01*
X28677870Y9012428D01*
X28681425Y9001505D01*
X28685236Y8994139D01*
X28692348Y8986774D01*
X28699713Y8983218D01*
X28714191Y8983218D01*
X28721558Y8986774D01*
X28728670Y8994139D01*
X28732479Y9001505D01*
X28517088Y9313671D02*
G01*
X28517088Y9237218D01*
X28517088Y9313671D02*
G01*
X28549854Y9313671D01*
X28560775Y9310115D01*
X28564332Y9306305D01*
X28567888Y9299194D01*
X28567888Y9291828D01*
X28564332Y9284462D01*
X28560775Y9280905D01*
X28549854Y9277350D01*
X28517088Y9277350D01*
X28542488Y9277350D02*
G01*
X28567888Y9237218D01*
X28642818Y9302750D02*
G01*
X28635706Y9310115D01*
X28624784Y9313671D01*
X28610306Y9313671D01*
X28599384Y9310115D01*
X28592018Y9302750D01*
X28592018Y9295384D01*
X28595574Y9288271D01*
X28599384Y9284462D01*
X28606495Y9280905D01*
X28628340Y9273539D01*
X28635706Y9269984D01*
X28639261Y9266428D01*
X28642818Y9259062D01*
X28642818Y9248139D01*
X28635706Y9240774D01*
X28624784Y9237218D01*
X28610306Y9237218D01*
X28599384Y9240774D01*
X28592018Y9248139D01*
X28692348Y9313671D02*
G01*
X28692348Y9237218D01*
X28666948Y9313671D02*
G01*
X28717748Y9313671D01*
X28571698Y9549384D02*
G01*
X28567888Y9556750D01*
X28560775Y9564115D01*
X28553409Y9567671D01*
X28538932Y9567671D01*
X28531565Y9564115D01*
X28524454Y9556750D01*
X28520643Y9549384D01*
X28517088Y9538462D01*
X28517088Y9520428D01*
X28520643Y9509505D01*
X28524454Y9502139D01*
X28531565Y9494774D01*
X28538932Y9491218D01*
X28553409Y9491218D01*
X28560775Y9494774D01*
X28567888Y9502139D01*
X28571698Y9509505D01*
X28571698Y9520428D01*
X28553409Y9520428D02*
G01*
X28571698Y9520428D01*
X28595574Y9567671D02*
G01*
X28595574Y9491218D01*
X28595574Y9567671D02*
G01*
X28646627Y9491218D01*
X28646627Y9567671D02*
G01*
X28646627Y9491218D01*
X28670504Y9567671D02*
G01*
X28670504Y9491218D01*
X28670504Y9567671D02*
G01*
X28695904Y9567671D01*
X28706825Y9564115D01*
X28714191Y9556750D01*
X28717748Y9549384D01*
X28721558Y9538462D01*
X28721558Y9520428D01*
X28717748Y9509505D01*
X28714191Y9502139D01*
X28706825Y9494774D01*
X28695904Y9491218D01*
X28670504Y9491218D01*
X28517088Y9821671D02*
G01*
X28517088Y9745218D01*
X28517088Y9821671D02*
G01*
X28549854Y9821671D01*
X28560775Y9818115D01*
X28564332Y9814305D01*
X28567888Y9807194D01*
X28567888Y9799828D01*
X28564332Y9792462D01*
X28560775Y9788905D01*
X28549854Y9785350D01*
X28517088Y9785350D01*
X28542488Y9785350D02*
G01*
X28567888Y9745218D01*
X28621227Y9821671D02*
G01*
X28592018Y9745218D01*
X28621227Y9821671D02*
G01*
X28650184Y9745218D01*
X28602940Y9770618D02*
G01*
X28639261Y9770618D01*
X28674313Y9821671D02*
G01*
X28692348Y9745218D01*
X28710636Y9821671D02*
G01*
X28692348Y9745218D01*
X28710636Y9821671D02*
G01*
X28728670Y9745218D01*
X28746958Y9821671D02*
G01*
X28728670Y9745218D01*
X28549091Y8551671D02*
G01*
X28549091Y8475218D01*
X28549091Y8551671D02*
G01*
X28596336Y8551671D01*
X28549091Y8515350D02*
G01*
X28578302Y8515350D01*
X28663900Y8551671D02*
G01*
X28627577Y8551671D01*
X28624022Y8518905D01*
X28627577Y8522462D01*
X28638500Y8526271D01*
X28649422Y8526271D01*
X28660343Y8522462D01*
X28667709Y8515350D01*
X28671265Y8504428D01*
X28671265Y8497062D01*
X28667709Y8486139D01*
X28660343Y8478774D01*
X28649422Y8475218D01*
X28638500Y8475218D01*
X28627577Y8478774D01*
X28624022Y8482584D01*
X28620465Y8489695D01*
X28549091Y8297671D02*
G01*
X28549091Y8221218D01*
X28549091Y8297671D02*
G01*
X28596336Y8297671D01*
X28549091Y8261350D02*
G01*
X28578302Y8261350D01*
X28663900Y8286750D02*
G01*
X28660343Y8294115D01*
X28649422Y8297671D01*
X28642309Y8297671D01*
X28631388Y8294115D01*
X28624022Y8283194D01*
X28620465Y8264905D01*
X28620465Y8246618D01*
X28624022Y8232139D01*
X28631388Y8224773D01*
X28642309Y8221218D01*
X28645865Y8221218D01*
X28656788Y8224773D01*
X28663900Y8232139D01*
X28667709Y8243062D01*
X28667709Y8246618D01*
X28663900Y8257539D01*
X28656788Y8264905D01*
X28645865Y8268462D01*
X28642309Y8268462D01*
X28631388Y8264905D01*
X28624022Y8257539D01*
X28620465Y8246618D01*
X28549091Y8043671D02*
G01*
X28549091Y7967218D01*
X28549091Y8043671D02*
G01*
X28596336Y8043671D01*
X28549091Y8007350D02*
G01*
X28578302Y8007350D01*
X28671265Y8043671D02*
G01*
X28634943Y7967218D01*
X28620465Y8043671D02*
G01*
X28671265Y8043671D01*
X28549091Y7281671D02*
G01*
X28549091Y7205218D01*
X28549091Y7281671D02*
G01*
X28581858Y7281671D01*
X28592779Y7278115D01*
X28596336Y7274305D01*
X28599891Y7267194D01*
X28599891Y7259828D01*
X28596336Y7252462D01*
X28592779Y7248905D01*
X28581858Y7245350D01*
X28549091Y7245350D02*
G01*
X28581858Y7245350D01*
X28592779Y7241539D01*
X28596336Y7237984D01*
X28599891Y7230618D01*
X28599891Y7219695D01*
X28596336Y7212584D01*
X28592779Y7208773D01*
X28581858Y7205218D01*
X28549091Y7205218D01*
X28627577Y7263384D02*
G01*
X28627577Y7267194D01*
X28631388Y7274305D01*
X28634943Y7278115D01*
X28642309Y7281671D01*
X28656788Y7281671D01*
X28663900Y7278115D01*
X28667709Y7274305D01*
X28671265Y7267194D01*
X28671265Y7259828D01*
X28667709Y7252462D01*
X28660343Y7241539D01*
X28624022Y7205218D01*
X28674822Y7205218D01*
D10*
X29161201Y9184500D02*
G01*
X29161204Y9484499D01*
X29411203Y9184500D02*
G01*
X29411201Y9484499D01*
X29178084Y9184500D02*
G01*
X29161201Y9184500D01*
X29161201Y9184500D02*
G01*
X29161201Y9484499D01*
X29161201Y9484499D02*
G01*
X29178087Y9484499D01*
X29394315Y9484499D02*
G01*
X29411201Y9484499D01*
X29411201Y9484499D02*
G01*
X29411201Y9184500D01*
X29411201Y9184500D02*
G01*
X29394886Y9184500D01*
X26504267Y3460998D02*
G01*
X26506385Y5713910D01*
X29236377Y5843907D02*
G01*
X29235361Y3461082D01*
X26709585Y3263115D02*
G01*
X27009585Y3263115D01*
X27209584Y3463114D01*
X28539579Y3463114D01*
X28739579Y3263115D01*
X29039578Y3263115D01*
X26506385Y5713910D02*
G01*
X26506385Y5843907D01*
X26706385Y6043907D02*
G01*
X29036378Y6043907D01*
X26506385Y3720315D02*
G01*
X29206380Y3720315D01*
X29206380Y3720315D02*
G01*
X29236377Y3720315D01*
X26506385Y5620311D02*
G01*
X29236377Y5620311D01*
D20*
X27432000Y9867900D02*
G01*
X27432000Y9613900D01*
X27178000Y9613900D01*
X27178000Y9867900D02*
G01*
X27178000Y6819900D01*
X28956000Y6819900D01*
X28956000Y9867900D01*
X27178000Y9867900D01*
D10*
G75*
G01*
X26506132Y5843755D02*
G02*
X26706030Y6043653I199898J0D01*
G75*
G01*
X29038004Y6044669D02*
G02*
X29237902Y5844771I0J-199898D01*
G75*
G01*
X29236378Y3465299D02*
G02*
X29036480Y3265401I-199898J0D01*
G75*
G01*
X26706386Y3263115D02*
G02*
X26506386Y3463115I0J200000D01*
G75*
G01
X29366210Y9334500D02*
G03X29366210Y9334500I-80010J0D01*
M02*
