M48
METRIC,LZ,000.000
;FILE_FORMAT=3:3
;TYPE=NON_PLATED
;Layer: NPTH_Through
;EasyEDA v6.5.1, 2022-07-13 07:01:50
;5ba7d446201f4704a459628eea357821,d603b60474844c32a05bd641800ef4e1,10
;Gerber Generator version 0.2
;Holesize 1 = 0.991 mm
T01C0.991
;Holesize 2 = 1.702 mm
T02C1.702
;Holesize 3 = 2.032 mm
T03C2.032
;Holesize 4 = 3.200 mm
T04C3.200
;Holesize 5 = 3.430 mm
T05C3.430
%
G05
G90
T01
X203221Y095200
X192781Y095200
X041219Y095200
X030779Y095200
X059220Y095200
X048780Y095200
X077219Y095200
X066779Y095200
X095220Y095200
X084780Y095200
X113221Y095200
X102781Y095200
X131219Y095200
X120779Y095200
X149220Y095200
X138780Y095200
X167221Y095200
X156781Y095200
X185220Y095200
X174780Y095200
X229720Y062201
X219280Y062201
X184219Y045701
X173779Y045701
X221219Y095200
X210779Y095200
X202220Y045701
X191780Y045701
X220221Y045701
X209781Y045701
X211719Y062201
X201280Y062201
X049721Y062201
X039281Y062201
X072969Y029201
X062529Y029201
X184219Y029201
X173779Y029201
X130221Y045701
X119781Y045701
X247719Y095200
X237279Y095200
X094219Y045701
X083779Y045701
X027470Y062201
X017030Y062201
X027470Y029201
X017030Y029201
X202220Y029201
X191780Y029201
X085720Y062201
X075280Y062201
X238219Y029201
X227779Y029201
X077219Y078701
X066779Y078701
X251971Y062201
X241531Y062201
X023221Y095200
X012781Y095200
X103721Y062201
X093281Y062201
X130221Y029201
X119781Y029201
X121720Y062201
X111280Y062201
X139721Y062201
X129281Y062201
X167221Y078701
X156781Y078701
X157719Y062201
X147279Y062201
X175720Y062201
X165280Y062201
X193721Y062201
X183281Y062201
X220221Y029201
X209781Y029201
X166220Y045701
X155780Y045701
X148219Y045701
X137780Y045701
X185220Y078701
X174780Y078701
X203221Y078701
X192781Y078701
X041219Y078701
X030779Y078701
X095220Y078701
X084780Y078701
X256220Y029201
X245780Y029201
X067719Y062201
X057279Y062201
X031720Y045701
X021280Y045701
X256220Y045701
X245780Y045701
X103221Y029201
X092781Y029201
X158219Y029201
X147779Y029201
X113221Y078701
X102781Y078701
X023221Y078701
X012781Y078701
X149220Y078701
X138780Y078701
X238219Y045701
X227779Y045701
X112220Y045701
X101780Y045701
X059220Y078701
X048780Y078701
X049721Y029201
X039281Y029201
X076221Y045701
X065781Y045701
X058220Y045701
X047780Y045701
X131219Y078701
X120779Y078701
X257221Y078701
X246781Y078701
X221219Y078701
X210779Y078701
X239220Y078701
X228780Y078701
T02
X192501Y091001
X203501Y091001
X030499Y091001
X041500Y091001
X048500Y091001
X059501Y091001
X066499Y091001
X077499Y091001
X084500Y091001
X095500Y091001
X102501Y091001
X113501Y091001
X120499Y091001
X131499Y091001
X138500Y091001
X149500Y091001
X156501Y091001
X167501Y091001
X174500Y091001
X185500Y091001
X219000Y058001
X230001Y058001
X173499Y041501
X184499Y041501
X210499Y091001
X221499Y091001
X191500Y041501
X202500Y041501
X209501Y041501
X220501Y041501
X200999Y058001
X212000Y058001
X039001Y058001
X050001Y058001
X062249Y025001
X073250Y025001
X173499Y025001
X184499Y025001
X119501Y041501
X130501Y041501
X236999Y091001
X247999Y091001
X083499Y041501
X094499Y041501
X016750Y058001
X027751Y058001
X016750Y025001
X027751Y025001
X191500Y025001
X202500Y025001
X075000Y058001
X086000Y058001
X227499Y025001
X238499Y025001
X066499Y074501
X077499Y074501
X241251Y058001
X252251Y058001
X012501Y091001
X023501Y091001
X093001Y058001
X104001Y058001
X119501Y025001
X130501Y025001
X111000Y058001
X122000Y058001
X129001Y058001
X140001Y058001
X156501Y074501
X167501Y074501
X146999Y058001
X157999Y058001
X165000Y058001
X176000Y058001
X183001Y058001
X194001Y058001
X209501Y025001
X220501Y025001
X155500Y041501
X166501Y041501
X137499Y041501
X148500Y041501
X174500Y074501
X185500Y074501
X192501Y074501
X203501Y074501
X030499Y074501
X041500Y074501
X084500Y074501
X095500Y074501
X245500Y025001
X256500Y025001
X056999Y058001
X067999Y058001
X021000Y041501
X032000Y041501
X245500Y041501
X256500Y041501
X092501Y025001
X103501Y025001
X147499Y025001
X158500Y025001
X102501Y074501
X113501Y074501
X012501Y074501
X023501Y074501
X138500Y074501
X149500Y074501
X227499Y041501
X238499Y041501
X101500Y041501
X112500Y041501
X048500Y074501
X059501Y074501
X039001Y025001
X050001Y025001
X065501Y041501
X076501Y041501
X047500Y041501
X058500Y041501
X120499Y074501
X131499Y074501
X246501Y074501
X257501Y074501
X210499Y074501
X221499Y074501
X228500Y074501
X239500Y074501
T03
X268859Y036576
X289560Y036576
X268859Y059776
X289560Y059776
X112776Y029464
X221234Y026289
T04
X293544Y017478
X293544Y098981
X009477Y098981
X009477Y017478
T05
X198001Y091001
X035999Y091001
X054000Y091001
X071999Y091001
X090000Y091001
X108001Y091001
X125999Y091001
X144000Y091001
X162001Y091001
X180000Y091001
X224500Y058001
X178999Y041501
X215999Y091001
X197000Y041501
X215001Y041501
X206499Y058001
X044501Y058001
X067749Y025001
X178999Y025001
X125001Y041501
X242499Y091001
X088999Y041501
X022250Y058001
X022250Y025001
X197000Y025001
X080500Y058001
X232999Y025001
X071999Y074501
X246751Y058001
X018001Y091001
X098501Y058001
X125001Y025001
X116500Y058001
X134501Y058001
X162001Y074501
X152499Y058001
X170500Y058001
X188501Y058001
X215001Y025001
X161000Y041501
X142999Y041501
X180000Y074501
X198001Y074501
X035999Y074501
X090000Y074501
X251000Y025001
X062499Y058001
X026500Y041501
X251000Y041501
X098001Y025001
X152999Y025001
X108001Y074501
X018001Y074501
X144000Y074501
X232999Y041501
X107000Y041501
X054000Y074501
X044501Y025001
X071001Y041501
X053000Y041501
X125999Y074501
X252001Y074501
X215999Y074501
X234000Y074501
M30
