M48
METRIC,LZ,000.000
;FILE_FORMAT=3:3
;TYPE=PLATED
;Layer: PTH_Through
;EasyEDA v6.5.1, 2022-07-13 07:01:50
;5ba7d446201f4704a459628eea357821,d603b60474844c32a05bd641800ef4e1,10
;Gerber Generator version 0.2
;Holesize 1 = 0.306 mm
T01C0.306
;Holesize 2 = 0.915 mm
T02C0.915
;Holesize 3 = 1.052 mm
T03C1.052
;Holesize 4 = 1.093 mm
T04C1.093
;Holesize 5 = 1.270 mm
T05C1.270
%
G05
G90
T01
X256666Y082169
X266364Y065659
X261112Y055880
X262763Y055880
X264414Y055880
T02
X275463Y060144
X278003Y060145
X280543Y060145
X283083Y060145
T03
X271144Y084608G85X271144Y084556
T04
X271144Y097284G85X271144Y097279
X271144Y094744G85X271144Y094739
X271144Y092204G85X271144Y092199
X271144Y089664G85X271144Y089659
X271144Y087124G85X271144Y087119
X271144Y082044G85X271144Y082039
X271144Y079504G85X271144Y079499
X271144Y076964G85X271144Y076959
X271144Y074424G85X271144Y074419
X271144Y071884G85X271144Y071879
X286384Y069344G85X286384Y069339
X286384Y071884G85X286384Y071879
X286384Y074424G85X286384Y074419
X286384Y076964G85X286384Y076959
X286384Y079504G85X286384Y079499
X286384Y082044G85X286384Y082039
X286384Y084584G85X286384Y084579
X286384Y087124G85X286384Y087119
X286384Y089664G85X286384Y089659
X286384Y092204G85X286384Y092199
X286384Y094744G85X286384Y094739
X271373Y069344G85X271373Y069339
X286384Y097284G85X286384Y097279
X283844Y069344G85X283844Y069339
X281304Y069344G85X281304Y069339
X278764Y069344G85X278764Y069339
X276224Y069344G85X276224Y069339
X273684Y069344G85X273684Y069339
X286384Y099570G85X286384Y099565
T05
X197998Y085101G85X198003Y085101
X192998Y087200G85X193003Y087200
X203001Y087203G85X203001Y087198
X035997Y085101G85X036002Y085101
X030997Y087200G85X031002Y087200
X040999Y087203G85X040999Y087198
X053998Y085101G85X054003Y085101
X048998Y087200G85X049003Y087200
X059000Y087203G85X059000Y087198
X071996Y085101G85X072001Y085101
X066996Y087200G85X067001Y087200
X076999Y087203G85X076999Y087198
X089997Y085101G85X090002Y085101
X084997Y087200G85X085002Y087200
X095000Y087203G85X095000Y087198
X107998Y085101G85X108003Y085101
X102998Y087200G85X103003Y087200
X113001Y087203G85X113001Y087198
X125997Y085101G85X126002Y085101
X120997Y087200G85X121002Y087200
X130999Y087203G85X130999Y087198
X143998Y085101G85X144003Y085101
X138998Y087200G85X139003Y087200
X149000Y087203G85X149000Y087198
X161999Y085101G85X162004Y085101
X156999Y087200G85X157004Y087200
X167001Y087203G85X167001Y087198
X179997Y085101G85X180002Y085101
X174997Y087200G85X175002Y087200
X185000Y087203G85X185000Y087198
X224498Y052101G85X224503Y052101
X219498Y054201G85X219503Y054201
X229500Y054203G85X229500Y054198
X178996Y035601G85X179001Y035601
X173996Y037701G85X174001Y037701
X183999Y037704G85X183999Y037698
X215997Y085101G85X216002Y085101
X210997Y087200G85X211002Y087200
X220999Y087203G85X220999Y087198
X196997Y035601G85X197002Y035601
X191997Y037701G85X192002Y037701
X202000Y037704G85X202000Y037698
X214998Y035601G85X215003Y035601
X209998Y037701G85X210003Y037701
X220001Y037704G85X220001Y037698
X206497Y052101G85X206502Y052101
X201497Y054201G85X201502Y054201
X211499Y054203G85X211499Y054198
X044498Y052101G85X044503Y052101
X039498Y054201G85X039503Y054201
X049501Y054203G85X049501Y054198
X067747Y019101G85X067752Y019101
X062747Y021201G85X062752Y021201
X072749Y021204G85X072749Y021199
X178996Y019101G85X179001Y019101
X173996Y021201G85X174001Y021201
X183999Y021204G85X183999Y021199
X124998Y035601G85X125004Y035601
X119998Y037701G85X120004Y037701
X130001Y037704G85X130001Y037698
X242496Y085101G85X242501Y085101
X237496Y087200G85X237501Y087200
X247499Y087203G85X247499Y087198
X088997Y035601G85X089002Y035601
X083997Y037701G85X084002Y037701
X093999Y037704G85X093999Y037698
X022248Y052101G85X022253Y052101
X017248Y054201G85X017253Y054201
X027250Y054203G85X027250Y054198
X022248Y019101G85X022253Y019101
X017248Y021201G85X017253Y021201
X027250Y021204G85X027250Y021199
X196997Y019101G85X197002Y019101
X191997Y021201G85X192002Y021201
X202000Y021204G85X202000Y021199
X080498Y052101G85X080503Y052101
X075498Y054201G85X075503Y054201
X085500Y054203G85X085500Y054198
X232997Y019101G85X233002Y019101
X227997Y021201G85X228002Y021201
X237999Y021204G85X237999Y021199
X071996Y068601G85X072001Y068601
X066996Y070701G85X067001Y070701
X076999Y070703G85X076999Y070698
X246748Y052101G85X246753Y052101
X241748Y054201G85X241753Y054201
X251751Y054203G85X251751Y054198
X017998Y085101G85X018004Y085101
X012998Y087200G85X013004Y087200
X023001Y087203G85X023001Y087198
X098499Y052101G85X098504Y052101
X093499Y054201G85X093504Y054201
X103501Y054203G85X103501Y054198
X124998Y019101G85X125004Y019101
X119998Y021201G85X120004Y021201
X130001Y021204G85X130001Y021199
X116497Y052101G85X116502Y052101
X111497Y054201G85X111502Y054201
X121500Y054203G85X121500Y054198
X134498Y052101G85X134503Y052101
X129498Y054201G85X129503Y054201
X139501Y054203G85X139501Y054198
X161999Y068601G85X162004Y068601
X156999Y070701G85X157004Y070701
X167001Y070703G85X167001Y070698
X152497Y052101G85X152502Y052101
X147497Y054201G85X147502Y054201
X157499Y054203G85X157499Y054198
X170498Y052101G85X170503Y052101
X165498Y054201G85X165503Y054201
X175500Y054203G85X175500Y054198
X188498Y052101G85X188504Y052101
X183498Y054201G85X183504Y054201
X193501Y054203G85X193501Y054198
X214998Y019101G85X215003Y019101
X209998Y021201G85X210003Y021201
X220001Y021204G85X220001Y021199
X160998Y035601G85X161003Y035601
X155998Y037701G85X156003Y037701
X166000Y037704G85X166000Y037698
X142997Y035601G85X143002Y035601
X137997Y037701G85X138002Y037701
X147999Y037704G85X147999Y037698
X179997Y068601G85X180002Y068601
X174997Y070701G85X175002Y070701
X185000Y070703G85X185000Y070698
X197998Y068601G85X198003Y068601
X192998Y070701G85X193003Y070701
X203001Y070703G85X203001Y070698
X035997Y068601G85X036002Y068601
X030997Y070701G85X031002Y070701
X040999Y070703G85X040999Y070698
X089997Y068601G85X090002Y068601
X084997Y070701G85X085002Y070701
X095000Y070703G85X095000Y070698
X250998Y019101G85X251003Y019101
X245998Y021201G85X246003Y021201
X256000Y021204G85X256000Y021199
X062497Y052101G85X062502Y052101
X057497Y054201G85X057502Y054201
X067499Y054203G85X067499Y054198
X026497Y035601G85X026502Y035601
X021497Y037701G85X021502Y037701
X031500Y037704G85X031500Y037698
X250998Y035601G85X251003Y035601
X245998Y037701G85X246003Y037701
X256000Y037704G85X256000Y037698
X097998Y019101G85X098003Y019101
X092998Y021201G85X093003Y021201
X103001Y021204G85X103001Y021199
X152997Y019101G85X153002Y019101
X147997Y021201G85X148002Y021201
X157999Y021204G85X157999Y021199
X107998Y068601G85X108003Y068601
X102998Y070701G85X103003Y070701
X113001Y070703G85X113001Y070698
X017998Y068601G85X018004Y068601
X012998Y070701G85X013004Y070701
X023001Y070703G85X023001Y070698
X143998Y068601G85X144003Y068601
X138998Y070701G85X139003Y070701
X149000Y070703G85X149000Y070698
X232997Y035601G85X233002Y035601
X227997Y037701G85X228002Y037701
X237999Y037704G85X237999Y037698
X106998Y035601G85X107003Y035601
X101998Y037701G85X102003Y037701
X112000Y037704G85X112000Y037698
X053998Y068601G85X054003Y068601
X048998Y070701G85X049003Y070701
X059000Y070703G85X059000Y070698
X044498Y019101G85X044503Y019101
X039498Y021201G85X039503Y021201
X049501Y021204G85X049501Y021199
X070998Y035601G85X071003Y035601
X065998Y037701G85X066003Y037701
X076001Y037704G85X076001Y037698
X052997Y035601G85X053002Y035601
X047997Y037701G85X048002Y037701
X058000Y037704G85X058000Y037698
X125997Y068601G85X126002Y068601
X120997Y070701G85X121002Y070701
X130999Y070703G85X130999Y070698
X251998Y068601G85X252004Y068601
X246998Y070701G85X247004Y070701
X257001Y070703G85X257001Y070698
X215997Y068601G85X216002Y068601
X210997Y070701G85X211002Y070701
X220999Y070703G85X220999Y070698
X233998Y068601G85X234003Y068601
X228998Y070701G85X229003Y070701
X239000Y070703G85X239000Y070698
M30
