G04 Layer: BottomSolderMaskLayer*
G04 EasyEDA v6.5.1, 2022-07-13 07:01:50*
G04 5ba7d446201f4704a459628eea357821,d603b60474844c32a05bd641800ef4e1,10*
G04 Gerber Generator version 0.2*
G04 Scale: 100 percent, Rotated: No, Reflected: No *
G04 Dimensions in millimeters *
G04 leading zeros omitted , absolute positions ,4 integer and 5 decimal *
%FSLAX45Y45*%
%MOMM*%

%ADD25C,1.8542*%
%ADD26C,1.9558*%
%ADD28C,1.6256*%
%ADD30C,2.1336*%

%LPD*%
G36*
X20628863Y8434324D02*
G01*
X20628863Y8579612D01*
X20771104Y8579612D01*
X20771104Y8434324D01*
G37*
G36*
X20628863Y8140192D02*
G01*
X20628863Y8285479D01*
X20771104Y8285479D01*
X20771104Y8140192D01*
G37*
G36*
X4428743Y8434324D02*
G01*
X4428743Y8579612D01*
X4570984Y8579612D01*
X4570984Y8434324D01*
G37*
G36*
X4428743Y8140192D02*
G01*
X4428743Y8285479D01*
X4570984Y8285479D01*
X4570984Y8140192D01*
G37*
G36*
X6228841Y8434324D02*
G01*
X6228841Y8579612D01*
X6371081Y8579612D01*
X6371081Y8434324D01*
G37*
G36*
X6228841Y8140192D02*
G01*
X6228841Y8285479D01*
X6371081Y8285479D01*
X6371081Y8140192D01*
G37*
G36*
X8028940Y8434324D02*
G01*
X8028940Y8579612D01*
X8171179Y8579612D01*
X8171179Y8434324D01*
G37*
G36*
X8028940Y8140192D02*
G01*
X8028940Y8285479D01*
X8171179Y8285479D01*
X8171179Y8140192D01*
G37*
G36*
X9828784Y8434324D02*
G01*
X9828784Y8579612D01*
X9971024Y8579612D01*
X9971024Y8434324D01*
G37*
G36*
X9828784Y8140192D02*
G01*
X9828784Y8285479D01*
X9971024Y8285479D01*
X9971024Y8140192D01*
G37*
G36*
X11628881Y8434324D02*
G01*
X11628881Y8579612D01*
X11771122Y8579612D01*
X11771122Y8434324D01*
G37*
G36*
X11628881Y8140192D02*
G01*
X11628881Y8285479D01*
X11771122Y8285479D01*
X11771122Y8140192D01*
G37*
G36*
X13428979Y8434324D02*
G01*
X13428979Y8579612D01*
X13571220Y8579612D01*
X13571220Y8434324D01*
G37*
G36*
X13428979Y8140192D02*
G01*
X13428979Y8285479D01*
X13571220Y8285479D01*
X13571220Y8140192D01*
G37*
G36*
X15228824Y8434324D02*
G01*
X15228824Y8579612D01*
X15371063Y8579612D01*
X15371063Y8434324D01*
G37*
G36*
X15228824Y8140192D02*
G01*
X15228824Y8285479D01*
X15371063Y8285479D01*
X15371063Y8140192D01*
G37*
G36*
X17028922Y8434324D02*
G01*
X17028922Y8579612D01*
X17171161Y8579612D01*
X17171161Y8434324D01*
G37*
G36*
X17028922Y8140192D02*
G01*
X17028922Y8285479D01*
X17171161Y8285479D01*
X17171161Y8140192D01*
G37*
G36*
X18828766Y8434324D02*
G01*
X18828766Y8579612D01*
X18971006Y8579612D01*
X18971006Y8434324D01*
G37*
G36*
X18828766Y8140192D02*
G01*
X18828766Y8285479D01*
X18971006Y8285479D01*
X18971006Y8140192D01*
G37*
G36*
X23278845Y5134355D02*
G01*
X23278845Y5279644D01*
X23421086Y5279644D01*
X23421086Y5134355D01*
G37*
G36*
X23278845Y4840223D02*
G01*
X23278845Y4985512D01*
X23421086Y4985512D01*
X23421086Y4840223D01*
G37*
G36*
X18728943Y3484371D02*
G01*
X18728943Y3629660D01*
X18871184Y3629660D01*
X18871184Y3484371D01*
G37*
G36*
X18728943Y3190239D02*
G01*
X18728943Y3335528D01*
X18871184Y3335528D01*
X18871184Y3190239D01*
G37*
G36*
X22428961Y8434324D02*
G01*
X22428961Y8579612D01*
X22571202Y8579612D01*
X22571202Y8434324D01*
G37*
G36*
X22428961Y8140192D02*
G01*
X22428961Y8285479D01*
X22571202Y8285479D01*
X22571202Y8140192D01*
G37*
G36*
X20528788Y3484371D02*
G01*
X20528788Y3629660D01*
X20671027Y3629660D01*
X20671027Y3484371D01*
G37*
G36*
X20528788Y3190239D02*
G01*
X20528788Y3335528D01*
X20671027Y3335528D01*
X20671027Y3190239D01*
G37*
G36*
X22328886Y3484371D02*
G01*
X22328886Y3629660D01*
X22471125Y3629660D01*
X22471125Y3484371D01*
G37*
G36*
X22328886Y3190239D02*
G01*
X22328886Y3335528D01*
X22471125Y3335528D01*
X22471125Y3190239D01*
G37*
G36*
X21478748Y5134355D02*
G01*
X21478748Y5279644D01*
X21620988Y5279644D01*
X21620988Y5134355D01*
G37*
G36*
X21478748Y4840223D02*
G01*
X21478748Y4985512D01*
X21620988Y4985512D01*
X21620988Y4840223D01*
G37*
G36*
X5278881Y5134355D02*
G01*
X5278881Y5279644D01*
X5421122Y5279644D01*
X5421122Y5134355D01*
G37*
G36*
X5278881Y4840223D02*
G01*
X5278881Y4985512D01*
X5421122Y4985512D01*
X5421122Y4840223D01*
G37*
G36*
X7603743Y1834387D02*
G01*
X7603743Y1979676D01*
X7745984Y1979676D01*
X7745984Y1834387D01*
G37*
G36*
X7603743Y1540255D02*
G01*
X7603743Y1685544D01*
X7745984Y1685544D01*
X7745984Y1540255D01*
G37*
G36*
X18728943Y1834387D02*
G01*
X18728943Y1979676D01*
X18871184Y1979676D01*
X18871184Y1834387D01*
G37*
G36*
X18728943Y1540255D02*
G01*
X18728943Y1685544D01*
X18871184Y1685544D01*
X18871184Y1540255D01*
G37*
G36*
X13328904Y3484371D02*
G01*
X13328904Y3629660D01*
X13471143Y3629660D01*
X13471143Y3484371D01*
G37*
G36*
X13328904Y3190239D02*
G01*
X13328904Y3335528D01*
X13471143Y3335528D01*
X13471143Y3190239D01*
G37*
G36*
X25078943Y8434324D02*
G01*
X25078943Y8579612D01*
X25221184Y8579612D01*
X25221184Y8434324D01*
G37*
G36*
X25078943Y8140192D02*
G01*
X25078943Y8285479D01*
X25221184Y8285479D01*
X25221184Y8140192D01*
G37*
G36*
X9728961Y3484371D02*
G01*
X9728961Y3629660D01*
X9871202Y3629660D01*
X9871202Y3484371D01*
G37*
G36*
X9728961Y3190239D02*
G01*
X9728961Y3335528D01*
X9871202Y3335528D01*
X9871202Y3190239D01*
G37*
G36*
X3053841Y5134355D02*
G01*
X3053841Y5279644D01*
X3196081Y5279644D01*
X3196081Y5134355D01*
G37*
G36*
X3053841Y4840223D02*
G01*
X3053841Y4985512D01*
X3196081Y4985512D01*
X3196081Y4840223D01*
G37*
G36*
X3053841Y1834387D02*
G01*
X3053841Y1979676D01*
X3196081Y1979676D01*
X3196081Y1834387D01*
G37*
G36*
X3053841Y1540255D02*
G01*
X3053841Y1685544D01*
X3196081Y1685544D01*
X3196081Y1540255D01*
G37*
G36*
X20528788Y1834387D02*
G01*
X20528788Y1979676D01*
X20671027Y1979676D01*
X20671027Y1834387D01*
G37*
G36*
X20528788Y1540255D02*
G01*
X20528788Y1685544D01*
X20671027Y1685544D01*
X20671027Y1540255D01*
G37*
G36*
X8878824Y5134355D02*
G01*
X8878824Y5279644D01*
X9021063Y5279644D01*
X9021063Y5134355D01*
G37*
G36*
X8878824Y4840223D02*
G01*
X8878824Y4985512D01*
X9021063Y4985512D01*
X9021063Y4840223D01*
G37*
G36*
X24128984Y1834387D02*
G01*
X24128984Y1979676D01*
X24271224Y1979676D01*
X24271224Y1834387D01*
G37*
G36*
X24128984Y1540255D02*
G01*
X24128984Y1685544D01*
X24271224Y1685544D01*
X24271224Y1540255D01*
G37*
G36*
X8028940Y6784339D02*
G01*
X8028940Y6929628D01*
X8171179Y6929628D01*
X8171179Y6784339D01*
G37*
G36*
X8028940Y6490207D02*
G01*
X8028940Y6635495D01*
X8171179Y6635495D01*
X8171179Y6490207D01*
G37*
G36*
X25503886Y5134355D02*
G01*
X25503886Y5279644D01*
X25646125Y5279644D01*
X25646125Y5134355D01*
G37*
G36*
X25503886Y4840223D02*
G01*
X25503886Y4985512D01*
X25646125Y4985512D01*
X25646125Y4840223D01*
G37*
G36*
X2628900Y8434324D02*
G01*
X2628900Y8579612D01*
X2771140Y8579612D01*
X2771140Y8434324D01*
G37*
G36*
X2628900Y8140192D02*
G01*
X2628900Y8285479D01*
X2771140Y8285479D01*
X2771140Y8140192D01*
G37*
G36*
X10678922Y5134355D02*
G01*
X10678922Y5279644D01*
X10821161Y5279644D01*
X10821161Y5134355D01*
G37*
G36*
X10678922Y4840223D02*
G01*
X10678922Y4985512D01*
X10821161Y4985512D01*
X10821161Y4840223D01*
G37*
G36*
X13328904Y1834387D02*
G01*
X13328904Y1979676D01*
X13471143Y1979676D01*
X13471143Y1834387D01*
G37*
G36*
X13328904Y1540255D02*
G01*
X13328904Y1685544D01*
X13471143Y1685544D01*
X13471143Y1540255D01*
G37*
G36*
X12478765Y5134355D02*
G01*
X12478765Y5279644D01*
X12621006Y5279644D01*
X12621006Y5134355D01*
G37*
G36*
X12478765Y4840223D02*
G01*
X12478765Y4985512D01*
X12621006Y4985512D01*
X12621006Y4840223D01*
G37*
G36*
X14278863Y5134355D02*
G01*
X14278863Y5279644D01*
X14421104Y5279644D01*
X14421104Y5134355D01*
G37*
G36*
X14278863Y4840223D02*
G01*
X14278863Y4985512D01*
X14421104Y4985512D01*
X14421104Y4840223D01*
G37*
G36*
X17028922Y6784339D02*
G01*
X17028922Y6929628D01*
X17171161Y6929628D01*
X17171161Y6784339D01*
G37*
G36*
X17028922Y6490207D02*
G01*
X17028922Y6635495D01*
X17171161Y6635495D01*
X17171161Y6490207D01*
G37*
G36*
X16078961Y5134355D02*
G01*
X16078961Y5279644D01*
X16221202Y5279644D01*
X16221202Y5134355D01*
G37*
G36*
X16078961Y4840223D02*
G01*
X16078961Y4985512D01*
X16221202Y4985512D01*
X16221202Y4840223D01*
G37*
G36*
X17878806Y5134355D02*
G01*
X17878806Y5279644D01*
X18021045Y5279644D01*
X18021045Y5134355D01*
G37*
G36*
X17878806Y4840223D02*
G01*
X17878806Y4985512D01*
X18021045Y4985512D01*
X18021045Y4840223D01*
G37*
G36*
X19678904Y5134355D02*
G01*
X19678904Y5279644D01*
X19821143Y5279644D01*
X19821143Y5134355D01*
G37*
G36*
X19678904Y4840223D02*
G01*
X19678904Y4985512D01*
X19821143Y4985512D01*
X19821143Y4840223D01*
G37*
G36*
X22328886Y1834387D02*
G01*
X22328886Y1979676D01*
X22471125Y1979676D01*
X22471125Y1834387D01*
G37*
G36*
X22328886Y1540255D02*
G01*
X22328886Y1685544D01*
X22471125Y1685544D01*
X22471125Y1540255D01*
G37*
G36*
X16928845Y3484371D02*
G01*
X16928845Y3629660D01*
X17071086Y3629660D01*
X17071086Y3484371D01*
G37*
G36*
X16928845Y3190239D02*
G01*
X16928845Y3335528D01*
X17071086Y3335528D01*
X17071086Y3190239D01*
G37*
G36*
X15128747Y3484371D02*
G01*
X15128747Y3629660D01*
X15270988Y3629660D01*
X15270988Y3484371D01*
G37*
G36*
X15128747Y3190239D02*
G01*
X15128747Y3335528D01*
X15270988Y3335528D01*
X15270988Y3190239D01*
G37*
G36*
X18828766Y6784339D02*
G01*
X18828766Y6929628D01*
X18971006Y6929628D01*
X18971006Y6784339D01*
G37*
G36*
X18828766Y6490207D02*
G01*
X18828766Y6635495D01*
X18971006Y6635495D01*
X18971006Y6490207D01*
G37*
G36*
X20628863Y6784339D02*
G01*
X20628863Y6929628D01*
X20771104Y6929628D01*
X20771104Y6784339D01*
G37*
G36*
X20628863Y6490207D02*
G01*
X20628863Y6635495D01*
X20771104Y6635495D01*
X20771104Y6490207D01*
G37*
G36*
X4428743Y6784339D02*
G01*
X4428743Y6929628D01*
X4570984Y6929628D01*
X4570984Y6784339D01*
G37*
G36*
X4428743Y6490207D02*
G01*
X4428743Y6635495D01*
X4570984Y6635495D01*
X4570984Y6490207D01*
G37*
G36*
X9828784Y6784339D02*
G01*
X9828784Y6929628D01*
X9971024Y6929628D01*
X9971024Y6784339D01*
G37*
G36*
X9828784Y6490207D02*
G01*
X9828784Y6635495D01*
X9971024Y6635495D01*
X9971024Y6490207D01*
G37*
G36*
X25928827Y1834387D02*
G01*
X25928827Y1979676D01*
X26071068Y1979676D01*
X26071068Y1834387D01*
G37*
G36*
X25928827Y1540255D02*
G01*
X25928827Y1685544D01*
X26071068Y1685544D01*
X26071068Y1540255D01*
G37*
G36*
X7078979Y5134355D02*
G01*
X7078979Y5279644D01*
X7221220Y5279644D01*
X7221220Y5134355D01*
G37*
G36*
X7078979Y4840223D02*
G01*
X7078979Y4985512D01*
X7221220Y4985512D01*
X7221220Y4840223D01*
G37*
G36*
X3478784Y3484371D02*
G01*
X3478784Y3629660D01*
X3621024Y3629660D01*
X3621024Y3484371D01*
G37*
G36*
X3478784Y3190239D02*
G01*
X3478784Y3335528D01*
X3621024Y3335528D01*
X3621024Y3190239D01*
G37*
G36*
X25928827Y3484371D02*
G01*
X25928827Y3629660D01*
X26071068Y3629660D01*
X26071068Y3484371D01*
G37*
G36*
X25928827Y3190239D02*
G01*
X25928827Y3335528D01*
X26071068Y3335528D01*
X26071068Y3190239D01*
G37*
G36*
X10628884Y1834387D02*
G01*
X10628884Y1979676D01*
X10771124Y1979676D01*
X10771124Y1834387D01*
G37*
G36*
X10628884Y1540255D02*
G01*
X10628884Y1685544D01*
X10771124Y1685544D01*
X10771124Y1540255D01*
G37*
G36*
X16128745Y1834387D02*
G01*
X16128745Y1979676D01*
X16270986Y1979676D01*
X16270986Y1834387D01*
G37*
G36*
X16128745Y1540255D02*
G01*
X16128745Y1685544D01*
X16270986Y1685544D01*
X16270986Y1540255D01*
G37*
G36*
X11628881Y6784339D02*
G01*
X11628881Y6929628D01*
X11771122Y6929628D01*
X11771122Y6784339D01*
G37*
G36*
X11628881Y6490207D02*
G01*
X11628881Y6635495D01*
X11771122Y6635495D01*
X11771122Y6490207D01*
G37*
G36*
X2628900Y6784339D02*
G01*
X2628900Y6929628D01*
X2771140Y6929628D01*
X2771140Y6784339D01*
G37*
G36*
X2628900Y6490207D02*
G01*
X2628900Y6635495D01*
X2771140Y6635495D01*
X2771140Y6490207D01*
G37*
G36*
X15228824Y6784339D02*
G01*
X15228824Y6929628D01*
X15371063Y6929628D01*
X15371063Y6784339D01*
G37*
G36*
X15228824Y6490207D02*
G01*
X15228824Y6635495D01*
X15371063Y6635495D01*
X15371063Y6490207D01*
G37*
G36*
X24128984Y3484371D02*
G01*
X24128984Y3629660D01*
X24271224Y3629660D01*
X24271224Y3484371D01*
G37*
G36*
X24128984Y3190239D02*
G01*
X24128984Y3335528D01*
X24271224Y3335528D01*
X24271224Y3190239D01*
G37*
G36*
X11528806Y3484371D02*
G01*
X11528806Y3629660D01*
X11671045Y3629660D01*
X11671045Y3484371D01*
G37*
G36*
X11528806Y3190239D02*
G01*
X11528806Y3335528D01*
X11671045Y3335528D01*
X11671045Y3190239D01*
G37*
G36*
X6228841Y6784339D02*
G01*
X6228841Y6929628D01*
X6371081Y6929628D01*
X6371081Y6784339D01*
G37*
G36*
X6228841Y6490207D02*
G01*
X6228841Y6635495D01*
X6371081Y6635495D01*
X6371081Y6490207D01*
G37*
G36*
X5278881Y1834387D02*
G01*
X5278881Y1979676D01*
X5421122Y1979676D01*
X5421122Y1834387D01*
G37*
G36*
X5278881Y1540255D02*
G01*
X5278881Y1685544D01*
X5421122Y1685544D01*
X5421122Y1540255D01*
G37*
G36*
X7928863Y3484371D02*
G01*
X7928863Y3629660D01*
X8071104Y3629660D01*
X8071104Y3484371D01*
G37*
G36*
X7928863Y3190239D02*
G01*
X7928863Y3335528D01*
X8071104Y3335528D01*
X8071104Y3190239D01*
G37*
G36*
X6128765Y3484371D02*
G01*
X6128765Y3629660D01*
X6271006Y3629660D01*
X6271006Y3484371D01*
G37*
G36*
X6128765Y3190239D02*
G01*
X6128765Y3335528D01*
X6271006Y3335528D01*
X6271006Y3190239D01*
G37*
G36*
X13428979Y6784339D02*
G01*
X13428979Y6929628D01*
X13571220Y6929628D01*
X13571220Y6784339D01*
G37*
G36*
X13428979Y6490207D02*
G01*
X13428979Y6635495D01*
X13571220Y6635495D01*
X13571220Y6490207D01*
G37*
G36*
X26028904Y6784339D02*
G01*
X26028904Y6929628D01*
X26171143Y6929628D01*
X26171143Y6784339D01*
G37*
G36*
X26028904Y6490207D02*
G01*
X26028904Y6635495D01*
X26171143Y6635495D01*
X26171143Y6490207D01*
G37*
G36*
X22428961Y6784339D02*
G01*
X22428961Y6929628D01*
X22571202Y6929628D01*
X22571202Y6784339D01*
G37*
G36*
X22428961Y6490207D02*
G01*
X22428961Y6635495D01*
X22571202Y6635495D01*
X22571202Y6490207D01*
G37*
G36*
X24228806Y6784339D02*
G01*
X24228806Y6929628D01*
X24371045Y6929628D01*
X24371045Y6784339D01*
G37*
G36*
X24228806Y6490207D02*
G01*
X24228806Y6635495D01*
X24371045Y6635495D01*
X24371045Y6490207D01*
G37*
G36*
X27021790Y9635489D02*
G01*
X27021790Y9820910D01*
X27207209Y9820910D01*
X27207209Y9635489D01*
G37*
D25*
G01*
X27114449Y9474174D03*
G01*
X27114449Y9220174D03*
G01*
X27114449Y8966174D03*
G01*
X27114449Y8712174D03*
G01*
X27114449Y8204174D03*
G01*
X27114449Y7950174D03*
G01*
X27114449Y7696174D03*
G01*
X27114449Y7442174D03*
G01*
X27114449Y7188174D03*
G01*
X28638449Y6934174D03*
G01*
X28638449Y7188174D03*
G01*
X28638449Y7442174D03*
G01*
X28638449Y7696174D03*
G01*
X28638449Y7950174D03*
G01*
X28638449Y8204174D03*
G01*
X28638449Y8458174D03*
G01*
X28638449Y8712174D03*
G01*
X28638449Y8966174D03*
G01*
X28638449Y9220174D03*
G01*
X28638449Y9474174D03*
G01*
X27137309Y6934174D03*
G01*
X28638449Y9728174D03*
D26*
G01*
X28384449Y6934174D03*
G01*
X28130449Y6934174D03*
G01*
X27876449Y6934174D03*
G01*
X27622449Y6934174D03*
G01*
X27368449Y6934174D03*
G01*
X28638449Y9956774D03*
G01*
X27114449Y8458174D03*
G36*
X27465020Y5933186D02*
G01*
X27465020Y6095745D01*
X27627579Y6095745D01*
X27627579Y5933186D01*
G37*
D28*
G01*
X27800300Y6014465D03*
G01*
X28054300Y6014465D03*
G01*
X28308300Y6014465D03*
D30*
G01*
X19800061Y8510066D03*
G01*
X19300063Y8720048D03*
G01*
X20300061Y8720048D03*
G01*
X3599941Y8510066D03*
G01*
X3099943Y8720048D03*
G01*
X4099940Y8720048D03*
G01*
X5400040Y8510066D03*
G01*
X4900040Y8720048D03*
G01*
X5900038Y8720048D03*
G01*
X7199884Y8510066D03*
G01*
X6699884Y8720048D03*
G01*
X7699883Y8720048D03*
G01*
X8999981Y8510066D03*
G01*
X8499983Y8720048D03*
G01*
X9499981Y8720048D03*
G01*
X10800079Y8510066D03*
G01*
X10300081Y8720048D03*
G01*
X11300079Y8720048D03*
G01*
X12599924Y8510066D03*
G01*
X12099925Y8720048D03*
G01*
X13099922Y8720048D03*
G01*
X14400022Y8510066D03*
G01*
X13900022Y8720048D03*
G01*
X14900020Y8720048D03*
G01*
X16200120Y8510066D03*
G01*
X15700120Y8720048D03*
G01*
X16700118Y8720048D03*
G01*
X17999963Y8510066D03*
G01*
X17499965Y8720048D03*
G01*
X18499963Y8720048D03*
G01*
X22450043Y5210098D03*
G01*
X21950045Y5420080D03*
G01*
X22950043Y5420080D03*
G01*
X17899888Y3560114D03*
G01*
X17399888Y3770096D03*
G01*
X18399886Y3770096D03*
G01*
X21599906Y8510066D03*
G01*
X21099906Y8720048D03*
G01*
X22099904Y8720048D03*
G01*
X19699986Y3560114D03*
G01*
X19199986Y3770096D03*
G01*
X20199984Y3770096D03*
G01*
X21500084Y3560114D03*
G01*
X21000084Y3770096D03*
G01*
X22000083Y3770096D03*
G01*
X20649945Y5210098D03*
G01*
X20149947Y5420080D03*
G01*
X21149945Y5420080D03*
G01*
X4450079Y5210098D03*
G01*
X3950081Y5420080D03*
G01*
X4950079Y5420080D03*
G01*
X6774941Y1910130D03*
G01*
X6274943Y2120112D03*
G01*
X7274940Y2120112D03*
G01*
X17899888Y1910130D03*
G01*
X17399888Y2120112D03*
G01*
X18399886Y2120112D03*
G01*
X12500102Y3560114D03*
G01*
X12000102Y3770096D03*
G01*
X13000100Y3770096D03*
G01*
X24249888Y8510066D03*
G01*
X23749888Y8720048D03*
G01*
X24749886Y8720048D03*
G01*
X8899906Y3560114D03*
G01*
X8399906Y3770096D03*
G01*
X9399904Y3770096D03*
G01*
X2225040Y5210098D03*
G01*
X1725040Y5420080D03*
G01*
X2725038Y5420080D03*
G01*
X2225040Y1910130D03*
G01*
X1725040Y2120112D03*
G01*
X2725038Y2120112D03*
G01*
X19699986Y1910130D03*
G01*
X19199986Y2120112D03*
G01*
X20199984Y2120112D03*
G01*
X8050022Y5210098D03*
G01*
X7550022Y5420080D03*
G01*
X8550020Y5420080D03*
G01*
X23299927Y1910130D03*
G01*
X22799929Y2120112D03*
G01*
X23799927Y2120112D03*
G01*
X7199884Y6860082D03*
G01*
X6699884Y7070064D03*
G01*
X7699883Y7070064D03*
G01*
X24675084Y5210098D03*
G01*
X24175084Y5420080D03*
G01*
X25175083Y5420080D03*
G01*
X1800097Y8510066D03*
G01*
X1300098Y8720048D03*
G01*
X2300097Y8720048D03*
G01*
X9850120Y5210098D03*
G01*
X9350120Y5420080D03*
G01*
X10350118Y5420080D03*
G01*
X12500102Y1910130D03*
G01*
X12000102Y2120112D03*
G01*
X13000100Y2120112D03*
G01*
X11649963Y5210098D03*
G01*
X11149965Y5420080D03*
G01*
X12149963Y5420080D03*
G01*
X13450061Y5210098D03*
G01*
X12950063Y5420080D03*
G01*
X13950061Y5420080D03*
G01*
X16200120Y6860082D03*
G01*
X15700120Y7070064D03*
G01*
X16700118Y7070064D03*
G01*
X15249906Y5210098D03*
G01*
X14749906Y5420080D03*
G01*
X15749904Y5420080D03*
G01*
X17050004Y5210098D03*
G01*
X16550004Y5420080D03*
G01*
X17550002Y5420080D03*
G01*
X18850102Y5210098D03*
G01*
X18350102Y5420080D03*
G01*
X19350100Y5420080D03*
G01*
X21500084Y1910130D03*
G01*
X21000084Y2120112D03*
G01*
X22000083Y2120112D03*
G01*
X16100043Y3560114D03*
G01*
X15600045Y3770096D03*
G01*
X16600043Y3770096D03*
G01*
X14299945Y3560114D03*
G01*
X13799947Y3770096D03*
G01*
X14799945Y3770096D03*
G01*
X17999963Y6860082D03*
G01*
X17499965Y7070064D03*
G01*
X18499963Y7070064D03*
G01*
X19800061Y6860082D03*
G01*
X19300063Y7070064D03*
G01*
X20300061Y7070064D03*
G01*
X3599941Y6860082D03*
G01*
X3099943Y7070064D03*
G01*
X4099940Y7070064D03*
G01*
X8999981Y6860082D03*
G01*
X8499983Y7070064D03*
G01*
X9499981Y7070064D03*
G01*
X25100025Y1910130D03*
G01*
X24600027Y2120112D03*
G01*
X25600025Y2120112D03*
G01*
X6249924Y5210098D03*
G01*
X5749925Y5420080D03*
G01*
X6749922Y5420080D03*
G01*
X2649981Y3560114D03*
G01*
X2149983Y3770096D03*
G01*
X3149981Y3770096D03*
G01*
X25100025Y3560114D03*
G01*
X24600027Y3770096D03*
G01*
X25600025Y3770096D03*
G01*
X9800081Y1910130D03*
G01*
X9300083Y2120112D03*
G01*
X10300081Y2120112D03*
G01*
X15299943Y1910130D03*
G01*
X14799945Y2120112D03*
G01*
X15799943Y2120112D03*
G01*
X10800079Y6860082D03*
G01*
X10300081Y7070064D03*
G01*
X11300079Y7070064D03*
G01*
X1800097Y6860082D03*
G01*
X1300098Y7070064D03*
G01*
X2300097Y7070064D03*
G01*
X14400022Y6860082D03*
G01*
X13900022Y7070064D03*
G01*
X14900020Y7070064D03*
G01*
X23299927Y3560114D03*
G01*
X22799929Y3770096D03*
G01*
X23799927Y3770096D03*
G01*
X10700004Y3560114D03*
G01*
X10200004Y3770096D03*
G01*
X11200002Y3770096D03*
G01*
X5400040Y6860082D03*
G01*
X4900040Y7070064D03*
G01*
X5900038Y7070064D03*
G01*
X4450079Y1910130D03*
G01*
X3950081Y2120112D03*
G01*
X4950079Y2120112D03*
G01*
X7100061Y3560114D03*
G01*
X6600063Y3770096D03*
G01*
X7600061Y3770096D03*
G01*
X5299963Y3560114D03*
G01*
X4799965Y3770096D03*
G01*
X5799963Y3770096D03*
G01*
X12599924Y6860082D03*
G01*
X12099925Y7070064D03*
G01*
X13099922Y7070064D03*
G01*
X25200102Y6860082D03*
G01*
X24700102Y7070064D03*
G01*
X25700100Y7070064D03*
G01*
X21599906Y6860082D03*
G01*
X21099906Y7070064D03*
G01*
X22099904Y7070064D03*
G01*
X23400004Y6860082D03*
G01*
X22900004Y7070064D03*
G01*
X23900002Y7070064D03*
M02*
