G04 Layer: TopSolderMaskLayer*
G04 EasyEDA v6.5.1, 2022-07-13 07:01:50*
G04 5ba7d446201f4704a459628eea357821,d603b60474844c32a05bd641800ef4e1,10*
G04 Gerber Generator version 0.2*
G04 Scale: 100 percent, Rotated: No, Reflected: No *
G04 Dimensions in millimeters *
G04 leading zeros omitted , absolute positions ,4 integer and 5 decimal *
%FSLAX45Y45*%
%MOMM*%

%ADD25C,1.8542*%
%ADD26C,1.9558*%
%ADD28C,1.6256*%
%ADD30C,2.1336*%

%LPD*%
G36*
X26769059Y9623044D02*
G01*
X26769059Y9833355D01*
X27104340Y9833355D01*
X27104340Y9623044D01*
G37*
G36*
X26769059Y9369044D02*
G01*
X26769059Y9579355D01*
X27104340Y9579355D01*
X27104340Y9369044D01*
G37*
G36*
X26769059Y9115044D02*
G01*
X26769059Y9325355D01*
X27104340Y9325355D01*
X27104340Y9115044D01*
G37*
G36*
X26769059Y8861044D02*
G01*
X26769059Y9071355D01*
X27104340Y9071355D01*
X27104340Y8861044D01*
G37*
G36*
X26763979Y8601963D02*
G01*
X26763979Y8822436D01*
X27109420Y8822436D01*
X27109420Y8601963D01*
G37*
G36*
X26763979Y8347963D02*
G01*
X26763979Y8568436D01*
X27109420Y8568436D01*
X27109420Y8347963D01*
G37*
G36*
X26763979Y8093963D02*
G01*
X26763979Y8314436D01*
X27109420Y8314436D01*
X27109420Y8093963D01*
G37*
G36*
X26763979Y7839963D02*
G01*
X26763979Y8060436D01*
X27109420Y8060436D01*
X27109420Y7839963D01*
G37*
G36*
X26769059Y7591044D02*
G01*
X26769059Y7801355D01*
X27104340Y7801355D01*
X27104340Y7591044D01*
G37*
G36*
X26769059Y7337044D02*
G01*
X26769059Y7547355D01*
X27104340Y7547355D01*
X27104340Y7337044D01*
G37*
G36*
X26769059Y7083044D02*
G01*
X26769059Y7293355D01*
X27104340Y7293355D01*
X27104340Y7083044D01*
G37*
G36*
X26769059Y6829044D02*
G01*
X26769059Y7039355D01*
X27104340Y7039355D01*
X27104340Y6829044D01*
G37*
G36*
X28648659Y6829044D02*
G01*
X28648659Y7039355D01*
X28983940Y7039355D01*
X28983940Y6829044D01*
G37*
G36*
X28648659Y7083044D02*
G01*
X28648659Y7293355D01*
X28983940Y7293355D01*
X28983940Y7083044D01*
G37*
G36*
X28648659Y7337044D02*
G01*
X28648659Y7547355D01*
X28983940Y7547355D01*
X28983940Y7337044D01*
G37*
G36*
X28648659Y7591044D02*
G01*
X28648659Y7801355D01*
X28983940Y7801355D01*
X28983940Y7591044D01*
G37*
G36*
X28648659Y7845044D02*
G01*
X28648659Y8055355D01*
X28983940Y8055355D01*
X28983940Y7845044D01*
G37*
G36*
X28648659Y8099044D02*
G01*
X28648659Y8309355D01*
X28983940Y8309355D01*
X28983940Y8099044D01*
G37*
G36*
X28648659Y8353044D02*
G01*
X28648659Y8563355D01*
X28983940Y8563355D01*
X28983940Y8353044D01*
G37*
G36*
X28648659Y8607044D02*
G01*
X28648659Y8817355D01*
X28983940Y8817355D01*
X28983940Y8607044D01*
G37*
G36*
X28648659Y8861044D02*
G01*
X28648659Y9071355D01*
X28983940Y9071355D01*
X28983940Y8861044D01*
G37*
G36*
X28648659Y9115044D02*
G01*
X28648659Y9325355D01*
X28983940Y9325355D01*
X28983940Y9115044D01*
G37*
G36*
X28648659Y9369044D02*
G01*
X28648659Y9579355D01*
X28983940Y9579355D01*
X28983940Y9369044D01*
G37*
G36*
X28648659Y9623044D02*
G01*
X28648659Y9833355D01*
X28983940Y9833355D01*
X28983940Y9623044D01*
G37*
G36*
X27258263Y6570979D02*
G01*
X27258263Y6916420D01*
X27478482Y6916420D01*
X27478482Y6570979D01*
G37*
G36*
X27512263Y6570979D02*
G01*
X27512263Y6916420D01*
X27732482Y6916420D01*
X27732482Y6570979D01*
G37*
G36*
X27766263Y6570979D02*
G01*
X27766263Y6916420D01*
X27986482Y6916420D01*
X27986482Y6570979D01*
G37*
G36*
X28020263Y6570979D02*
G01*
X28020263Y6916420D01*
X28240482Y6916420D01*
X28240482Y6570979D01*
G37*
G36*
X28274263Y6570979D02*
G01*
X28274263Y6916420D01*
X28494482Y6916420D01*
X28494482Y6570979D01*
G37*
G36*
X27021790Y9635489D02*
G01*
X27021790Y9820910D01*
X27207209Y9820910D01*
X27207209Y9635489D01*
G37*
D25*
G01*
X27114449Y9474174D03*
G01*
X27114449Y9220174D03*
G01*
X27114449Y8966174D03*
G01*
X27114449Y8712174D03*
G01*
X27114449Y8204174D03*
G01*
X27114449Y7950174D03*
G01*
X27114449Y7696174D03*
G01*
X27114449Y7442174D03*
G01*
X27114449Y7188174D03*
G01*
X28638449Y6934174D03*
G01*
X28638449Y7188174D03*
G01*
X28638449Y7442174D03*
G01*
X28638449Y7696174D03*
G01*
X28638449Y7950174D03*
G01*
X28638449Y8204174D03*
G01*
X28638449Y8458174D03*
G01*
X28638449Y8712174D03*
G01*
X28638449Y8966174D03*
G01*
X28638449Y9220174D03*
G01*
X28638449Y9474174D03*
G01*
X27137309Y6934174D03*
G01*
X28638449Y9728174D03*
D26*
G01*
X28384449Y6934174D03*
G01*
X28130449Y6934174D03*
G01*
X27876449Y6934174D03*
G01*
X27622449Y6934174D03*
G01*
X27368449Y6934174D03*
G01*
X28638449Y9956774D03*
G01*
X27114449Y8458174D03*
G36*
X27465020Y5933186D02*
G01*
X27465020Y6095745D01*
X27627579Y6095745D01*
X27627579Y5933186D01*
G37*
D28*
G01*
X27800300Y6014465D03*
G01*
X28054300Y6014465D03*
G01*
X28308300Y6014465D03*
G36*
X29423868Y9130029D02*
G01*
X29423868Y9310370D01*
X29514038Y9310370D01*
X29514038Y9130029D01*
G37*
G36*
X29083761Y9130029D02*
G01*
X29083761Y9310370D01*
X29173932Y9310370D01*
X29173932Y9130029D01*
G37*
D30*
G01*
X19800061Y8510066D03*
G01*
X19300063Y8720048D03*
G01*
X20300061Y8720048D03*
G01*
X3599941Y8510066D03*
G01*
X3099943Y8720048D03*
G01*
X4099940Y8720048D03*
G01*
X5400040Y8510066D03*
G01*
X4900040Y8720048D03*
G01*
X5900038Y8720048D03*
G01*
X7199884Y8510066D03*
G01*
X6699884Y8720048D03*
G01*
X7699883Y8720048D03*
G01*
X8999981Y8510066D03*
G01*
X8499983Y8720048D03*
G01*
X9499981Y8720048D03*
G01*
X10800079Y8510066D03*
G01*
X10300081Y8720048D03*
G01*
X11300079Y8720048D03*
G01*
X12599924Y8510066D03*
G01*
X12099925Y8720048D03*
G01*
X13099922Y8720048D03*
G01*
X14400022Y8510066D03*
G01*
X13900022Y8720048D03*
G01*
X14900020Y8720048D03*
G01*
X16200120Y8510066D03*
G01*
X15700120Y8720048D03*
G01*
X16700118Y8720048D03*
G01*
X17999963Y8510066D03*
G01*
X17499965Y8720048D03*
G01*
X18499963Y8720048D03*
G01*
X22450043Y5210098D03*
G01*
X21950045Y5420080D03*
G01*
X22950043Y5420080D03*
G01*
X17899888Y3560114D03*
G01*
X17399888Y3770096D03*
G01*
X18399886Y3770096D03*
G01*
X21599906Y8510066D03*
G01*
X21099906Y8720048D03*
G01*
X22099904Y8720048D03*
G01*
X19699986Y3560114D03*
G01*
X19199986Y3770096D03*
G01*
X20199984Y3770096D03*
G01*
X21500084Y3560114D03*
G01*
X21000084Y3770096D03*
G01*
X22000083Y3770096D03*
G01*
X20649945Y5210098D03*
G01*
X20149947Y5420080D03*
G01*
X21149945Y5420080D03*
G01*
X4450079Y5210098D03*
G01*
X3950081Y5420080D03*
G01*
X4950079Y5420080D03*
G01*
X6774941Y1910130D03*
G01*
X6274943Y2120112D03*
G01*
X7274940Y2120112D03*
G01*
X17899888Y1910130D03*
G01*
X17399888Y2120112D03*
G01*
X18399886Y2120112D03*
G01*
X12500102Y3560114D03*
G01*
X12000102Y3770096D03*
G01*
X13000100Y3770096D03*
G01*
X24249888Y8510066D03*
G01*
X23749888Y8720048D03*
G01*
X24749886Y8720048D03*
G01*
X8899906Y3560114D03*
G01*
X8399906Y3770096D03*
G01*
X9399904Y3770096D03*
G01*
X2225040Y5210098D03*
G01*
X1725040Y5420080D03*
G01*
X2725038Y5420080D03*
G01*
X2225040Y1910130D03*
G01*
X1725040Y2120112D03*
G01*
X2725038Y2120112D03*
G01*
X19699986Y1910130D03*
G01*
X19199986Y2120112D03*
G01*
X20199984Y2120112D03*
G01*
X8050022Y5210098D03*
G01*
X7550022Y5420080D03*
G01*
X8550020Y5420080D03*
G01*
X23299927Y1910130D03*
G01*
X22799929Y2120112D03*
G01*
X23799927Y2120112D03*
G01*
X7199884Y6860082D03*
G01*
X6699884Y7070064D03*
G01*
X7699883Y7070064D03*
G01*
X24675084Y5210098D03*
G01*
X24175084Y5420080D03*
G01*
X25175083Y5420080D03*
G01*
X1800097Y8510066D03*
G01*
X1300098Y8720048D03*
G01*
X2300097Y8720048D03*
G01*
X9850120Y5210098D03*
G01*
X9350120Y5420080D03*
G01*
X10350118Y5420080D03*
G01*
X12500102Y1910130D03*
G01*
X12000102Y2120112D03*
G01*
X13000100Y2120112D03*
G01*
X11649963Y5210098D03*
G01*
X11149965Y5420080D03*
G01*
X12149963Y5420080D03*
G01*
X13450061Y5210098D03*
G01*
X12950063Y5420080D03*
G01*
X13950061Y5420080D03*
G01*
X16200120Y6860082D03*
G01*
X15700120Y7070064D03*
G01*
X16700118Y7070064D03*
G01*
X15249906Y5210098D03*
G01*
X14749906Y5420080D03*
G01*
X15749904Y5420080D03*
G01*
X17050004Y5210098D03*
G01*
X16550004Y5420080D03*
G01*
X17550002Y5420080D03*
G01*
X18850102Y5210098D03*
G01*
X18350102Y5420080D03*
G01*
X19350100Y5420080D03*
G01*
X21500084Y1910130D03*
G01*
X21000084Y2120112D03*
G01*
X22000083Y2120112D03*
G01*
X16100043Y3560114D03*
G01*
X15600045Y3770096D03*
G01*
X16600043Y3770096D03*
G01*
X14299945Y3560114D03*
G01*
X13799947Y3770096D03*
G01*
X14799945Y3770096D03*
G01*
X17999963Y6860082D03*
G01*
X17499965Y7070064D03*
G01*
X18499963Y7070064D03*
G01*
X19800061Y6860082D03*
G01*
X19300063Y7070064D03*
G01*
X20300061Y7070064D03*
G01*
X3599941Y6860082D03*
G01*
X3099943Y7070064D03*
G01*
X4099940Y7070064D03*
G01*
X8999981Y6860082D03*
G01*
X8499983Y7070064D03*
G01*
X9499981Y7070064D03*
G01*
X25100025Y1910130D03*
G01*
X24600027Y2120112D03*
G01*
X25600025Y2120112D03*
G01*
X6249924Y5210098D03*
G01*
X5749925Y5420080D03*
G01*
X6749922Y5420080D03*
G01*
X2649981Y3560114D03*
G01*
X2149983Y3770096D03*
G01*
X3149981Y3770096D03*
G01*
X25100025Y3560114D03*
G01*
X24600027Y3770096D03*
G01*
X25600025Y3770096D03*
G01*
X9800081Y1910130D03*
G01*
X9300083Y2120112D03*
G01*
X10300081Y2120112D03*
G01*
X15299943Y1910130D03*
G01*
X14799945Y2120112D03*
G01*
X15799943Y2120112D03*
G01*
X10800079Y6860082D03*
G01*
X10300081Y7070064D03*
G01*
X11300079Y7070064D03*
G01*
X1800097Y6860082D03*
G01*
X1300098Y7070064D03*
G01*
X2300097Y7070064D03*
G01*
X14400022Y6860082D03*
G01*
X13900022Y7070064D03*
G01*
X14900020Y7070064D03*
G01*
X23299927Y3560114D03*
G01*
X22799929Y3770096D03*
G01*
X23799927Y3770096D03*
G01*
X10700004Y3560114D03*
G01*
X10200004Y3770096D03*
G01*
X11200002Y3770096D03*
G01*
X5400040Y6860082D03*
G01*
X4900040Y7070064D03*
G01*
X5900038Y7070064D03*
G01*
X4450079Y1910130D03*
G01*
X3950081Y2120112D03*
G01*
X4950079Y2120112D03*
G01*
X7100061Y3560114D03*
G01*
X6600063Y3770096D03*
G01*
X7600061Y3770096D03*
G01*
X5299963Y3560114D03*
G01*
X4799965Y3770096D03*
G01*
X5799963Y3770096D03*
G01*
X12599924Y6860082D03*
G01*
X12099925Y7070064D03*
G01*
X13099922Y7070064D03*
G01*
X25200102Y6860082D03*
G01*
X24700102Y7070064D03*
G01*
X25700100Y7070064D03*
G01*
X21599906Y6860082D03*
G01*
X21099906Y7070064D03*
G01*
X22099904Y7070064D03*
G01*
X23400004Y6860082D03*
G01*
X22900004Y7070064D03*
G01*
X23900002Y7070064D03*
M02*
